<svg xmlns="http://www.w3.org/2000/svg" viewBox="0 0 105.24 105.25"><title>Asset 38</title><g id="Layer_2" data-name="Layer 2"><g id="Layer_1-2" data-name="Layer 1"><path d="M104.24,77.16H58.15V48.1a1,1,0,0,0-.07-.33s0,0,0,0a1,1,0,0,0-.55-.55h0a1,1,0,0,0-.33-.07H28.09V1a1,1,0,0,0-2,0V47.7l-7.64,7.64a1,1,0,0,0-.31.72V85.7L.29,103.54A1,1,0,1,0,1.71,105L19.56,87.1H49.19a1,1,0,0,0,.72-.31l7.63-7.63h46.7a1,1,0,1,0,0-2Zm-56.05,1V85.1h-28v-28h28V78.14h0Zm.59-23.1H21.56l6-6H54.74Zm1.41,23.08V56.47l6-6V77.72l-6,6Z"/></g></g></svg>