<svg xmlns="http://www.w3.org/2000/svg" viewBox="0 0 105.24 105.25"><title>Asset 39</title><g id="Layer_2" data-name="Layer 2"><g id="Layer_1-2" data-name="Layer 1"><path d="M104.24,77.16H73.16V33.1a1,1,0,0,0-.07-.33s0,0,0-.05a1,1,0,0,0-.22-.33h0l-.07,0a.9.9,0,0,0-.65-.24H28.09V1a1,1,0,0,0-2,0V32.68L14.45,44.33a1,1,0,0,0-.29.71V89.68L.29,103.54A1,1,0,1,0,1.71,105L15.58,91.09H60.22a1,1,0,0,0,.71-.29L72.56,79.16h31.68a1,1,0,1,0,0-2Zm-45,11.93H16.15V46H59.22ZM59.81,44H17.57L27.5,34.1H69.74Zm1.41,1.41,9.94-9.94V77.73l-9.94,9.94Z"/></g></g></svg>