<svg xmlns="http://www.w3.org/2000/svg" viewBox="0 0 136.38 89.17"><title>3D printing</title><g id="Layer_2" data-name="Layer 2"><g id="Layer_1-2" data-name="Layer 1"><path d="M135.38,87.17H120.31a4.62,4.62,0,0,0,.84-2.65V4.66A4.66,4.66,0,0,0,116.49,0H19.88a4.65,4.65,0,0,0-4.65,4.65V84.52a4.62,4.62,0,0,0,.84,2.65H1a1,1,0,0,0,0,2H135.38a1,1,0,0,0,0-2ZM86.13,51.71H51.25V50H86.13a1,1,0,0,0,1-1V45.38a1,1,0,0,0-1-1H51.25V42.71H86.13a1,1,0,0,0,1-1V38a1,1,0,0,0-1-1H51.25V35.38H86.13a1,1,0,0,0,1-1v-3.3a1,1,0,0,0-1-1H69.19v-3.2a1,1,0,0,0-2,0v4.2a1,1,0,0,0,1,1H85.13v1.3H50.25a1,1,0,0,0-1,1V38a1,1,0,0,0,1,1H85.13v1.67H50.25a1,1,0,0,0-1,1v3.67a1,1,0,0,0,1,1H85.13V48H50.25a1,1,0,0,0-1,1v3.67a1,1,0,0,0,1,1H85.13V56H17.24V13.23H62.6v5.49a1,1,0,0,0,0,.14.69.69,0,0,0,.14.39.94.94,0,0,0,.07.12l4.59,5.38a1,1,0,0,0,1.52,0l4.59-5.38a.94.94,0,0,0,.07-.12.69.69,0,0,0,.14-.39.94.94,0,0,0,0-.14V13.23h45.36V56h-32V52.71A1,1,0,0,0,86.13,51.71ZM71.78,13.23v5.12l-3.59,4.21L64.6,18.35V13.23ZM19.88,2h96.6a2.66,2.66,0,0,1,2.66,2.66v6.57H17.24V4.65A2.65,2.65,0,0,1,19.88,2ZM31.45,85.59l.89.45a3.81,3.81,0,0,1,3.38-2h64.94a3.81,3.81,0,0,1,3.38,2,5.82,5.82,0,0,0,.78,1.12H31.56a5.83,5.83,0,0,0,.77-1.11Zm77.75,1.57a3.81,3.81,0,0,1-3.38-2A5.81,5.81,0,0,0,100.66,82H35.72a5.81,5.81,0,0,0-5.15,3.1h0a3.81,3.81,0,0,1-3.38,2h-7.3a2.65,2.65,0,0,1-2.65-2.65V58H119.14V84.52a2.65,2.65,0,0,1-2.65,2.65Z"/><path d="M99.16,65.6A4.42,4.42,0,1,0,103.58,70,4.43,4.43,0,0,0,99.16,65.6Zm0,6.85A2.42,2.42,0,1,1,101.58,70,2.43,2.43,0,0,1,99.16,72.45Z"/><path d="M110.63,65.6A4.42,4.42,0,1,0,115.05,70,4.43,4.43,0,0,0,110.63,65.6Zm0,6.85A2.42,2.42,0,1,1,113.05,70,2.43,2.43,0,0,1,110.63,72.45Z"/><path d="M83.25,63.3H53.13a1,1,0,0,0-1,1V75.75a1,1,0,0,0,1,1H83.25a1,1,0,0,0,1-1V64.3A1,1,0,0,0,83.25,63.3Zm-1,11.45H54.13V65.3H82.25Z"/></g></g></svg>