<svg xmlns="http://www.w3.org/2000/svg" viewBox="0 0 208.46 89.77"><title>Dispatch</title><g id="Layer_2" data-name="Layer 2"><g id="Layer_1-2" data-name="Layer 1"><path d="M71.53,38.29h34a1,1,0,0,0,1-1V16.12a1,1,0,0,0-1-1h-34a1,1,0,0,0-1,1V37.29A1,1,0,0,0,71.53,38.29Zm1-21.17h32V36.29h-32Z"/><path d="M36.83,29.73h.29v19a4.65,4.65,0,0,0,4.65,4.65h93.54A4.66,4.66,0,0,0,140,48.75v-19h.3a1,1,0,0,0,1-1v-4a1,1,0,0,0-1-1H140v-19A4.67,4.67,0,0,0,135.31,0H41.78a4.65,4.65,0,0,0-4.65,4.65v19h-.29a1,1,0,0,0-1,1v4A1,1,0,0,0,36.83,29.73Zm1.29-4H66.58v2H37.83v-2h.29Zm100.83,0h.31v2H110.51v-2Zm-99.83-21A2.65,2.65,0,0,1,41.78,2h93.53A2.66,2.66,0,0,1,138,4.66v19H109.51a1,1,0,0,0-1,1v4a1,1,0,0,0,1,1H138v19a2.65,2.65,0,0,1-2.65,2.65H41.78a2.65,2.65,0,0,1-2.65-2.65v-19H67.58a1,1,0,0,0,1-1v-4a1,1,0,0,0-1-1H39.13Z"/><path d="M98.67,20.45H78.42a1,1,0,0,0,0,2H98.67a1,1,0,0,0,0-2Z"/><path d="M98.67,24H78.42a1,1,0,0,0,0,2H98.67a1,1,0,0,0,0-2Z"/><path d="M98.67,27.45H78.42a1,1,0,0,0,0,2H98.67a1,1,0,0,0,0-2Z"/><path d="M98.67,31H78.42a1,1,0,1,0,0,2H98.67a1,1,0,0,0,0-2Z"/><path d="M29.9,29a1,1,0,0,0-1-1H1a1,1,0,0,0,0,2H28.9A1,1,0,0,0,29.9,29Z"/><path d="M29.9,35.39a1,1,0,0,0-1-1H10.3a1,1,0,1,0,0,2H28.9A1,1,0,0,0,29.9,35.39Z"/><path d="M28.9,40.8H19.6a1,1,0,0,0,0,2h9.3a1,1,0,0,0,0-2Z"/><path d="M207.46,87.77H163.78a12.23,12.23,0,0,0,7.31-10.21h17a4.66,4.66,0,0,0,4.65-4.65V60.6h0V30.91A14.48,14.48,0,0,0,186.55,19l-12.37-8.62a14.41,14.41,0,0,0-8.28-2.6H149.18a1,1,0,0,0-1,1V55.94H31.57a4.66,4.66,0,0,0-4.65,4.65V72.92a4.65,4.65,0,0,0,4.65,4.65h.76a12.23,12.23,0,0,0,7.31,10.21H11.88a1,1,0,1,0,0,2H207.46a1,1,0,0,0,0-2Zm-48.54-1A10.23,10.23,0,0,1,148.7,76.58h0a10.22,10.22,0,0,1,20.43,0h0A10.23,10.23,0,0,1,158.92,86.79Zm-8.74-77H165.9A12.42,12.42,0,0,1,173,12l12.37,8.62a12.48,12.48,0,0,1,5.34,10.24v25H150.18ZM28.92,72.92V60.59a2.65,2.65,0,0,1,2.65-2.65H190.75v8.81h0v6.16a2.65,2.65,0,0,1-2.65,2.65h-17a12.21,12.21,0,0,0-24.33,0H56.67a12.21,12.21,0,0,0-24.33,0h-.76A2.65,2.65,0,0,1,28.92,72.92Zm5.36,3.65A10.22,10.22,0,1,1,44.5,86.79,10.23,10.23,0,0,1,34.28,76.57Zm22.38,1h90.08a12.23,12.23,0,0,0,7.31,10.21H49.36A12.23,12.23,0,0,0,56.67,77.57Z"/></g></g></svg>