<svg xmlns="http://www.w3.org/2000/svg" viewBox="0 0 148.51 127.71"><g id="Layer_2" data-name="Layer 2"><g id="Layer_1-2" data-name="Layer 1"><path d="M25.82,106.84H20a1,1,0,0,0,0,2h5.82a1,1,0,0,0,0-2Z"/><path d="M25.82,111.46H20a1,1,0,1,0,0,2h5.82a1,1,0,1,0,0-2Z"/><path d="M25.82,116.08H20a1,1,0,1,0,0,2h5.82a1,1,0,1,0,0-2Z"/><path d="M111.29,116.26a3.81,3.81,0,1,0-3.8-3.8A3.81,3.81,0,0,0,111.29,116.26Zm0-5.61a1.81,1.81,0,1,1-1.8,1.81A1.81,1.81,0,0,1,111.29,110.65Z"/><path d="M120.69,116.26a3.81,3.81,0,1,0-3.81-3.8A3.81,3.81,0,0,0,120.69,116.26Zm0-5.61a1.81,1.81,0,1,1-1.81,1.81A1.81,1.81,0,0,1,120.69,110.65Z"/><path d="M127,22.74a1,1,0,0,0-1.18.78,5.23,5.23,0,0,1-10.25,0,1,1,0,1,0-2,.4,7.23,7.23,0,0,0,14.17,0A1,1,0,0,0,127,22.74Z"/><path d="M129.39,33.14h-.59a17.57,17.57,0,1,0-16.23,0H112A19.15,19.15,0,0,0,93.2,48.82H17.29a4.66,4.66,0,0,0-4.65,4.65v6.62a4.65,4.65,0,0,0,4.65,4.65h3.92V88.88h-7a1.5,1.5,0,0,0-1.5,1.5v3.88a1.5,1.5,0,0,0,1.5,1.5h7v1.45H16.63a4,4,0,0,0-4,4v22.52a3.84,3.84,0,0,0,.56,2H1a1,1,0,0,0,0,2H147.51a1,1,0,0,0,1-1V52.26A19.15,19.15,0,0,0,129.39,33.14ZM105.12,17.57a15.57,15.57,0,1,1,15.57,15.57A15.58,15.58,0,0,1,105.12,17.57ZM14.64,60.09V53.47a2.65,2.65,0,0,1,2.65-2.65H126.2a2.65,2.65,0,0,1,2.65,2.65v6.62a2.65,2.65,0,0,1-2.65,2.65H17.29A2.65,2.65,0,0,1,14.64,60.09ZM57.09,97.21l2.39-5.42H84l2.39,5.42Zm43.1-32.46a.9.9,0,0,0-.13.45V91.25h-5.2V64.75Zm-.13,28.5v3.24a1,1,0,0,0,.32.72H94.86v-4Zm1.68,4a1,1,0,0,0,.32-.74V93.25h9.78v1a1.51,1.51,0,0,0,1.51,1.5h6.94v1.45Zm12.1-3.45V90.88h14.89v2.88Zm6.45-4.88h-6.94a1.51,1.51,0,0,0-1.51,1.5v.87h-9.78v-26a1,1,0,0,0-.12-.45h18.35ZM23.21,64.75H92.86v26.5H90.58l-3-6.76a1,1,0,0,0-.92-.6H56.83a1,1,0,0,0-.87.5l-4,6.86H31.65v-.87a1.5,1.5,0,0,0-1.5-1.5H23.21ZM14.76,90.88H29.65v2.88H14.76Zm8.45,4.88h6.94a1.5,1.5,0,0,0,1.5-1.5v-1H52.58a1,1,0,0,0,.86-.5l4-6.86H86l3,6.77a1,1,0,0,0,.91.59h2.94v4H88.59l-3-6.83a1,1,0,0,0-.91-.59H58.83a1,1,0,0,0-.92.59l-3,6.83H23.21ZM16.63,125.7a2,2,0,0,1-2-2V101.19a2,2,0,0,1,2-2H126.85a2,2,0,0,1,2,2v22.51a2,2,0,0,1-2,2H105.31a3,3,0,0,1-2.59-1.57,4.93,4.93,0,0,0-4.38-2.65H45.16a4.92,4.92,0,0,0-4.37,2.63h0a2.94,2.94,0,0,1-2.61,1.57Zm25-1.1.89.45a2.94,2.94,0,0,1,2.61-1.57h47.7v2.22H42.14a4.65,4.65,0,0,0,.41-.64Zm58.4,1.1h-5.2v-2.22h3.48a2.9,2.9,0,0,1,1.72.58Zm46.45,0h-5.73V65.2a1,1,0,0,0-2,0v60.5H130.3a4,4,0,0,0,.55-2V101.2a4,4,0,0,0-4-4h-4.56V95.76h6.94a1.5,1.5,0,0,0,1.5-1.5V90.38a1.5,1.5,0,0,0-1.5-1.5h-6.94V64.74h3.91a4.65,4.65,0,0,0,4.65-4.65V53.47a4.65,4.65,0,0,0-4.65-4.65h-31A17.15,17.15,0,0,1,112,35.14h17.41a17.14,17.14,0,0,1,17.12,17.12Z"/></g></g></svg>