<svg xmlns="http://www.w3.org/2000/svg" viewBox="0 0 94.39 98.7"><g id="Layer_2" data-name="Layer 2"><g id="Layer_1-2" data-name="Layer 1"><path d="M87.74,64.37a6.87,6.87,0,0,0-5.2,1.07l-1.42,1-.81-3L92.86,50.88a5.2,5.2,0,0,0,0-7.37l-42-42a5.21,5.21,0,0,0-7.38,0l-42,42a5.22,5.22,0,0,0,0,7.37L14.07,63.43,11.28,73.75a21.18,21.18,0,0,0-2.81,4,1,1,0,0,0,1.77.94A18.73,18.73,0,0,1,37.4,72.12l.26.18H58.48a4.94,4.94,0,0,1,4.94,4.94A4.88,4.88,0,0,1,62,80.73a4.83,4.83,0,0,1-3.48,1.45H38.65a1,1,0,0,0,0,2H58.48a7,7,0,0,0,6.46-4.41L83.66,67.09a4.94,4.94,0,0,1,6.86,1.32,4.84,4.84,0,0,1,.85,2.76,4.89,4.89,0,0,1-2.18,4.09l-23.67,16A18.59,18.59,0,0,1,55,94.53h-27A14.64,14.64,0,0,0,21.3,96.2l-1.17.61a1,1,0,0,0-.42,1.35,1,1,0,0,0,1.35.42L22.22,98a12.68,12.68,0,0,1,5.85-1.44H55A20.61,20.61,0,0,0,66.64,93l23.67-16a6.92,6.92,0,0,0-2.57-12.55ZM2.94,44.92l42-42a3.22,3.22,0,0,1,4.55,0l42,42a3.2,3.2,0,0,1,0,4.54h0l-11.8,11.8c-.06-.13-.14-.27-.21-.4l-.12-.25a7.17,7.17,0,0,0-.46-.75l-.08-.1c-.15-.21-.3-.4-.46-.59a2.09,2.09,0,0,1-.2-.22l-.42-.41-.24-.22L77,58l-.26-.19c-.17-.12-.34-.22-.51-.33s-.16-.09-.25-.14a7.33,7.33,0,0,0-.8-.38L50.31,46.81a8.22,8.22,0,0,0-6.24,0L19.21,56.93a7.49,7.49,0,0,0-.81.38l-.25.15-.5.32-.27.2a5,5,0,0,0-.43.35l-.26.22c-.14.13-.27.27-.4.41a2.29,2.29,0,0,0-.21.23,5.89,5.89,0,0,0-.44.55l-.1.14a6.13,6.13,0,0,0-.46.74,1.67,1.67,0,0,0-.12.23c-.07.14-.15.28-.21.43L2.94,49.47A3.23,3.23,0,0,1,2.94,44.92ZM58.48,70.3H38.28a20.71,20.71,0,0,0-24.22.85l2.09-7.75.12-.45A6.35,6.35,0,0,1,20,58.78L44.82,48.66a6.25,6.25,0,0,1,4.73,0L74.42,58.78A6.3,6.3,0,0,1,78.11,63l.12.44h0l1.13,4.19-8.89,6H64.39A7,7,0,0,0,58.48,70.3Zm6.74,5.31h2.3L65.41,77A6.75,6.75,0,0,0,65.22,75.61Z"/></g></g></svg>