<svg xmlns="http://www.w3.org/2000/svg" viewBox="0 0 139.26 42.49"><g id="Layer_2" data-name="Layer 2"><g id="Layer_1-2" data-name="Layer 1"><path d="M108.86,26.93a9.79,9.79,0,0,0-5.72-6.47L73.29,8.32a9.6,9.6,0,0,0-7.33,0L36.12,20.46a9.79,9.79,0,0,0-5.72,6.47l-3.86,14.3a1,1,0,0,0,.17.87,1,1,0,0,0,.79.39h84.26a1,1,0,0,0,.79-.39,1,1,0,0,0,.18-.87Zm-80,13.56,3.52-13a7.79,7.79,0,0,1,4.55-5.14L66.71,10.17a7.65,7.65,0,0,1,5.83,0l29.84,12.14a7.74,7.74,0,0,1,4.55,5.14l3.52,13Z"/><path d="M138.26,40.49h-16l-4.56-16.86a11.78,11.78,0,0,0-6.91-7.81L74.05.87a11.69,11.69,0,0,0-8.85,0l-36.72,15a11.78,11.78,0,0,0-6.91,7.81L17,40.49H1a1,1,0,0,0,0,2H17.78a1,1,0,0,0,1-.73L23.5,24.15a9.79,9.79,0,0,1,5.73-6.48L66,2.72a9.71,9.71,0,0,1,7.34,0l36.74,15a9.79,9.79,0,0,1,5.73,6.48l4.76,17.61a1,1,0,0,0,1,.73h16.78a1,1,0,0,0,0-2Z"/></g></g></svg>