<svg xmlns="http://www.w3.org/2000/svg" viewBox="0 0 143.49 115.3"><g id="Layer_2" data-name="Layer 2"><g id="Layer_1-2" data-name="Layer 1"><path d="M25.82,94.44H20a1,1,0,0,0,0,2h5.82a1,1,0,0,0,0-2Z"/><path d="M25.82,99.06H20a1,1,0,0,0,0,2h5.82a1,1,0,0,0,0-2Z"/><path d="M25.82,103.67H20a1,1,0,0,0,0,2h5.82a1,1,0,1,0,0-2Z"/><path d="M111.29,96.25a3.81,3.81,0,1,0,3.81,3.81A3.81,3.81,0,0,0,111.29,96.25Zm0,5.61a1.81,1.81,0,1,1,1.81-1.8A1.81,1.81,0,0,1,111.29,101.86Z"/><path d="M120.69,96.25a3.81,3.81,0,1,0,3.8,3.81A3.82,3.82,0,0,0,120.69,96.25Zm0,5.61a1.81,1.81,0,1,1,1.8-1.8A1.81,1.81,0,0,1,120.69,101.86Z"/><path d="M142.49,113.3H130.3a4,4,0,0,0,.55-2V88.8a4,4,0,0,0-4-4h-4.56V83.36h6.94a1.5,1.5,0,0,0,1.5-1.5V78a1.5,1.5,0,0,0-1.5-1.5h-6.94V58.54a30.51,30.51,0,1,0-42.53-28,31.17,31.17,0,0,0,.58,5.91h-63a4.65,4.65,0,0,0-4.65,4.65v6.62a4.66,4.66,0,0,0,4.65,4.65h3.92V76.48h-7a1.5,1.5,0,0,0-1.5,1.5v3.88a1.5,1.5,0,0,0,1.5,1.5h7V84.8H16.63a4,4,0,0,0-4,4v22.52a3.87,3.87,0,0,0,.56,2H1a1,1,0,0,0,0,2H142.49a1,1,0,0,0,0-2ZM128.73,81.36H113.84V78.48h14.89ZM110.27,2A28.51,28.51,0,1,1,81.76,30.51,28.54,28.54,0,0,1,110.27,2ZM14.64,47.69V41.07a2.65,2.65,0,0,1,2.65-2.65H80.81a30.52,30.52,0,0,0,6.31,11.92H17.29A2.65,2.65,0,0,1,14.64,47.69Zm8.57,4.66H89a30.41,30.41,0,0,0,31.28,7V76.48h-6.94a1.51,1.51,0,0,0-1.51,1.5v.87H90.58l-3-6.76a1,1,0,0,0-.92-.6H56.83A1,1,0,0,0,56,72l-4,6.86H31.65V78a1.5,1.5,0,0,0-1.5-1.5H23.21ZM14.76,78.48H29.65v2.88H14.76Zm8.45,4.88h6.94a1.5,1.5,0,0,0,1.5-1.5v-1H52.58a1,1,0,0,0,.86-.5l4-6.86H86l3,6.77a1,1,0,0,0,.91.59h21.92v1a1.51,1.51,0,0,0,1.51,1.5h6.94V84.8H88.59l-3-6.82a1,1,0,0,0-.91-.59H58.83a1,1,0,0,0-.92.59l-3,6.82H23.21ZM57.09,84.8l2.39-5.41H84l2.39,5.41Zm-15,28.5a4.65,4.65,0,0,0,.41-.64h0a2.94,2.94,0,0,1,2.61-1.57H98.34a2.94,2.94,0,0,1,2.61,1.57,4.77,4.77,0,0,0,.41.65Zm63.19,0a2.93,2.93,0,0,1-2.61-1.58,4.94,4.94,0,0,0-4.38-2.64H45.16a4.94,4.94,0,0,0-4.38,2.65h0a2.94,2.94,0,0,1-2.61,1.57H16.63a2,2,0,0,1-2-2V88.79a2,2,0,0,1,2-2H126.85a2,2,0,0,1,2,2v22.51a2,2,0,0,1-2,2Z"/><path d="M110.27,9.55a1,1,0,0,0,1-1V5.22a1,1,0,1,0-2,0V8.55A1,1,0,0,0,110.27,9.55Z"/><path d="M125.8,16a1,1,0,0,0,.7-.29l2.36-2.36a1,1,0,0,0,0-1.41,1,1,0,0,0-1.42,0l-2.35,2.35a1,1,0,0,0,0,1.42A1,1,0,0,0,125.8,16Z"/><path d="M132.23,31.51h3.33a1,1,0,0,0,0-2h-3.33a1,1,0,0,0,0,2Z"/><path d="M126.5,45.33a1,1,0,0,0-1.41,0,1,1,0,0,0,0,1.41l2.35,2.35a1,1,0,0,0,.71.3,1,1,0,0,0,.71-1.71Z"/><path d="M110.27,56.79a1,1,0,0,0,1-1V52.46a1,1,0,1,0-2,0v3.33A1,1,0,0,0,110.27,56.79Z"/><path d="M92.39,49.39a1,1,0,0,0,.71-.3l2.35-2.35a1,1,0,0,0,0-1.41,1,1,0,0,0-1.41,0l-2.36,2.35a1,1,0,0,0,.71,1.71Z"/><path d="M88.31,29.51H85a1,1,0,0,0,0,2h3.33a1,1,0,0,0,0-2Z"/><path d="M94,15.69a1,1,0,0,0,.7.29,1,1,0,0,0,.71-.29,1,1,0,0,0,0-1.42L93.1,11.92a1,1,0,0,0-1.42,0,1,1,0,0,0,0,1.41Z"/><path d="M110.27,31.51h14.78a1,1,0,0,0,0-2H111.27V17.3a1,1,0,1,0-2,0V30.51A1,1,0,0,0,110.27,31.51Z"/></g></g></svg>