<svg xmlns="http://www.w3.org/2000/svg" viewBox="0 0 1920 2196"><defs><style>.cls-1,.cls-3,.cls-6,.cls-7{fill:#4d4d4d;}.cls-2,.cls-3,.cls-6,.cls-7{isolation:isolate;}.cls-13,.cls-24,.cls-25,.cls-3,.cls-4,.cls-5{font-size:24px;}.cls-3,.cls-7{font-family:OpenSans-Semibold, Open Sans;font-weight:600;}.cls-3{letter-spacing:0.03em;}.cls-13,.cls-24,.cls-25,.cls-26,.cls-4,.cls-5{fill:#666;}.cls-4,.cls-5{font-family:OpenSans-Light, Open Sans;font-weight:300;}.cls-16,.cls-4{letter-spacing:0.05em;}.cls-5{letter-spacing:0.05em;}.cls-6{font-size:35px;font-family:OpenSans-Bold, Open Sans;font-weight:700;letter-spacing:0.03em;}.cls-7{font-size:28px;letter-spacing:0.03em;}.cls-10,.cls-8,.cls-9{fill:#0071e3;}.cls-10,.cls-8{text-decoration:underline;}.cls-8{letter-spacing:0.05em;}.cls-11{fill:#eee;}.cls-12{fill:#606060;}.cls-13,.cls-24,.cls-25{font-family:SourceHanSansTWHK-Light-B5pc-H, Source Han Sans TWHK;}.cls-13{letter-spacing:0.05em;}.cls-14{letter-spacing:-0.02em;}.cls-15{letter-spacing:0.04em;}.cls-17{letter-spacing:0.03em;}.cls-18{letter-spacing:0.03em;}.cls-19{letter-spacing:0.07em;}.cls-20{letter-spacing:0.06em;}.cls-21{letter-spacing:-0.03em;}.cls-22{letter-spacing:-0.03em;}.cls-23{letter-spacing:0.05em;}.cls-24{letter-spacing:0.2em;}.cls-25{letter-spacing:0.2em;}.cls-27{fill:none;}</style></defs><g id="Layer_2" data-name="Layer 2"><g id="Layer_1-2" data-name="Layer 1"><g id="Layer_2-3" data-name="Layer 2-3"><g id="Layer_1-3" data-name="Layer 1-3"><path id="Path_11" data-name="Path 11" class="cls-1" d="M1079.05,1492.07h-26.7a8.32,8.32,0,0,0,1.49-4.7V1345.88a8.26,8.26,0,0,0-8.26-8.26H874.4a8.23,8.23,0,0,0-8.23,8.24v141.51a8.19,8.19,0,0,0,1.48,4.7H841a1.78,1.78,0,0,0,0,3.55h238.1a1.78,1.78,0,0,0,0-3.55Zm-87.27-62.83H930v-3h61.8a1.77,1.77,0,0,0,1.77-1.77h0V1418a1.77,1.77,0,0,0-1.77-1.77H930v-3h61.8a1.77,1.77,0,0,0,1.77-1.77h0V1405a1.77,1.77,0,0,0-1.77-1.77H930v-2.87h61.8a1.77,1.77,0,0,0,1.77-1.77h0v-5.85a1.77,1.77,0,0,0-1.77-1.77h-30v-5.67a1.77,1.77,0,0,0-3.54,0v7.44a1.78,1.78,0,0,0,1.77,1.78h30v2.3h-61.8a1.77,1.77,0,0,0-1.77,1.77h0V1405a1.77,1.77,0,0,0,1.77,1.77H990v3h-61.8a1.77,1.77,0,0,0-1.77,1.77h0v6.5a1.77,1.77,0,0,0,1.77,1.77H990v3h-61.8a1.77,1.77,0,0,0-1.77,1.77h0v6.5a1.77,1.77,0,0,0,1.77,1.77H990v4.13H869.73v-75.78H950.1v9.73a1,1,0,0,0,0,.25,1.22,1.22,0,0,0,.24.69,2.39,2.39,0,0,0,.13.21l8.13,9.53a1.77,1.77,0,0,0,2.5.2,1.8,1.8,0,0,0,.19-.2l8.14-9.53.12-.21a1.24,1.24,0,0,0,.25-.69,1,1,0,0,0,0-.25v-9.73h80.37v75.78h-56.7V1431A1.78,1.78,0,0,0,991.78,1429.24Zm-25.42-68.18v9.07l-6.36,7.46-6.36-7.46v-9.07Zm-92-19.89h171.16a4.71,4.71,0,0,1,4.71,4.71v11.64H869.73v-11.66a4.7,4.7,0,0,1,4.68-4.7Zm20.5,148.1,1.58.8a6.75,6.75,0,0,1,6-3.55h115.06a6.75,6.75,0,0,1,6,3.55,10.34,10.34,0,0,0,1.38,2H895.1a9.87,9.87,0,0,0,1.36-2Zm137.76,2.78a6.74,6.74,0,0,1-6-3.54,10.29,10.29,0,0,0-9.14-5.6H902.47a10.28,10.28,0,0,0-9.12,5.49h0a6.76,6.76,0,0,1-6,3.54H874.42a4.7,4.7,0,0,1-4.7-4.7v-46.85h180.55v47a4.69,4.69,0,0,1-4.7,4.7Z"/><path id="Path_12" data-name="Path 12" class="cls-1" d="M1014.87,1453.85a7.83,7.83,0,1,0,7.83,7.83v0A7.83,7.83,0,0,0,1014.87,1453.85Zm0,12.14a4.3,4.3,0,1,1,3-1.28A4.3,4.3,0,0,1,1014.87,1466Z"/><path id="Path_13" data-name="Path 13" class="cls-1" d="M1035.2,1453.85a7.83,7.83,0,1,0,7.83,7.83v0A7.84,7.84,0,0,0,1035.2,1453.85Zm0,12.14a4.3,4.3,0,1,1,3-1.28A4.25,4.25,0,0,1,1035.2,1466Z"/><path id="Path_14" data-name="Path 14" class="cls-1" d="M986.68,1449.78H933.32a1.78,1.78,0,0,0-1.78,1.77v20.29a1.78,1.78,0,0,0,1.78,1.77h53.36a1.77,1.77,0,0,0,1.77-1.77h0v-20.29a1.77,1.77,0,0,0-1.77-1.77Zm-1.76,20.28H935.09v-16.74h49.83Z"/></g></g><g id="Layer_2-4" data-name="Layer 2-4"><g id="Layer_1-4" data-name="Layer 1-4"><path id="Path_66" data-name="Path 66" class="cls-1" d="M1531.21,804.19H1505v-6.08a1.54,1.54,0,0,0-1.44-1.64h-97.18v-23a1.64,1.64,0,0,0-3.28,0v23.94l-25.62,25.61a1.68,1.68,0,0,0-.47,1.16v7l-16.21,16.22a1.64,1.64,0,0,0,2.13,2.49l.18-.18,16.23-16.23h97.84a1.64,1.64,0,0,0,1.16-.48l25.58-25.59h27.32a1.64,1.64,0,0,0,0-3.28Zm-55.76,26.07h-95.2v-4.4h95.25Zm1-7.68h-93.85l22.83-22.84h93.88Zm2.31,2.32,22.88-22.83v3l-22.82,22.84Z"/></g></g><g id="Layer_2-5" data-name="Layer 2-5"><g id="Layer_1-5" data-name="Layer 1-5"><path id="Path_65" data-name="Path 65" class="cls-1" d="M1044.21,804.19h-51v-6.08a1.63,1.63,0,0,0-.12-.59h0a1.63,1.63,0,0,0-1.54-1H919.35v-23a1.64,1.64,0,0,0-3.28,0v23.94L897,816.53a1.68,1.68,0,0,0-.47,1.17v7l-22.74,22.73A1.64,1.64,0,0,0,875.9,850l.18-.18L898.84,827H972a1.63,1.63,0,0,0,1.16-.48l19.07-19.08h52a1.64,1.64,0,0,0,0-3.28Zm-73.79,19.56H899.77v-4.33h70.62Zm.94-7.61H902.1l16.28-16.4h69.26Zm2.31,2.31,16.3-16.3v3.05l-16.3,16.3Z"/></g></g><g id="Layer_2-6" data-name="Layer 2-6"><g id="Layer_1-6" data-name="Layer 1-6"><path id="Path_64" data-name="Path 64" class="cls-1" d="M558.21,804.19H482.64v-6.08a1.64,1.64,0,0,0-1.64-1.64H433.35v-23a1.64,1.64,0,0,0-3.28,0v24L417.54,810l-.1.12a2,2,0,0,0-.23.34,2.19,2.19,0,0,0-.14.56v7.16l-29.3,29.29A1.64,1.64,0,0,0,389.9,850l.18-.18,29.28-29.28h48.58a1.71,1.71,0,0,0,1.19-.51l12.51-12.51h76.57a1.64,1.64,0,0,0,0-3.28Zm-91.9,13H420.4v-4.35h45.91Zm1-7.63H422.64l9.84-9.84H477Zm2.31,2.31,9.84-9.83v3l-9.84,9.84Z"/></g></g><g id="Vacuum_forming_service" data-name="Vacuum forming service" class="cls-2"><text class="cls-3" transform="translate(1307.17 1559.56)">Vacuum forming service</text></g><g id="Laser_cutting_engraving_service" data-name="Laser cutting engraving service" class="cls-2"><text class="cls-3" transform="translate(846.28 1559.56)">3D Printing service</text></g><g id="Coworkshop" class="cls-2"><text class="cls-3" transform="translate(401.13 1559.56)">Co workshop</text></g><g id="Layer_2-2" data-name="Layer 2"><g id="Layer_1-3-2" data-name="Layer 1"><path id="Path_34" data-name="Path 34" class="cls-1" d="M1354.15,1454.1H1342.4a1.66,1.66,0,1,0,0,3.31h11.75a1.66,1.66,0,1,0,0-3.31Z"/><path id="Path_35" data-name="Path 35" class="cls-1" d="M1354.15,1463.43H1342.4a1.66,1.66,0,1,0,0,3.31h11.75a1.66,1.66,0,1,0,0-3.31Z"/><path id="Path_36" data-name="Path 36" class="cls-1" d="M1354.15,1472.77H1342.4a1.66,1.66,0,1,0,0,3.31h11.75a1.66,1.66,0,1,0,0-3.31Z"/><path id="Path_37" data-name="Path 37" class="cls-1" d="M1527,1457.75a7.32,7.32,0,1,0,7.32,7.32,7.32,7.32,0,0,0-7.32-7.32Zm0,11.34a4,4,0,1,1,4-4h0a4,4,0,0,1-4,4Z"/><path id="Path_38" data-name="Path 38" class="cls-1" d="M1545.94,1457.75a7.32,7.32,0,1,0,7.31,7.32,7.32,7.32,0,0,0-7.31-7.32Zm0,11.34a4,4,0,1,1,4-4h0a4,4,0,0,1-4,4Z"/><path id="Path_39" data-name="Path 39" class="cls-1" d="M1590,1492.22h-25.3a7.58,7.58,0,0,0,1.39-4.39v-45.5a7.72,7.72,0,0,0-7.71-7.72h-9.58V1431h14.58a2.48,2.48,0,0,0,2.48-2.48h0v-8.28a2.48,2.48,0,0,0-2.48-2.48h-14.58v-49.47h9.62a7.72,7.72,0,0,0,7.7-7.7v-16a7.71,7.71,0,0,0-7.72-7.7H1335.58a7.72,7.72,0,0,0-7.7,7.7v16a7.71,7.71,0,0,0,7.7,7.7h9.62v49.53h-14.6a2.48,2.48,0,0,0-2.48,2.49h0v8.27a2.49,2.49,0,0,0,2.48,2.49h14.6v3.65h-9.62a7.72,7.72,0,0,0-7.7,7.7v45.53a7.68,7.68,0,0,0,1.39,4.39H1304a1.66,1.66,0,1,0,0,3.31h286a1.66,1.66,0,1,0,0-3.31Zm-258.83-131.66v-16a4.41,4.41,0,0,1,4.39-4.39h222.84a4.4,4.4,0,0,1,4.39,4.39v16a4.39,4.39,0,0,1-4.39,4.39H1335.58A4.41,4.41,0,0,1,1331.19,1360.56Zm231.38,67.1h-30.84V1421h30.84Zm-214.06-59.4h197v49.53h-14.59a2.48,2.48,0,0,0-2.48,2.49h0v2.3h-47.66l-6.14-13.89a1.67,1.67,0,0,0-1.51-1h-52.24a1.67,1.67,0,0,0-1.51,1l-6.14,13.89h-47.66v-2.3a2.49,2.49,0,0,0-2.49-2.49h-14.58Zm-17.09,52.84h30.85v6.63h-30.85Zm17.07,9.94h14.59a2.49,2.49,0,0,0,2.48-2.49h0v-2.66h48.75a1.67,1.67,0,0,0,1.51-1L1422,1411h50.1l6.14,13.89a1.64,1.64,0,0,0,1.5,1h48.72v2.58a2.49,2.49,0,0,0,2.49,2.49h14.58v3.65h-64.68l-6.17-14a1.65,1.65,0,0,0-1.53-1h-52.22a1.65,1.65,0,0,0-1.53,1l-6.12,14h-64.73Zm68.3,3.66,5.17-11.8H1472l5.17,11.68Zm-30.6,54.92,1.47.75a6.29,6.29,0,0,1,5.6-3.31h107.5a6.29,6.29,0,0,1,5.6,3.31,9.89,9.89,0,0,0,1.29,1.85H1386.37a9.72,9.72,0,0,0,1.27-1.84Zm128.71,2.6a6.29,6.29,0,0,1-5.6-3.31,9.63,9.63,0,0,0-8.53-5.16H1393.26a9.57,9.57,0,0,0-8.53,5.13h0a6.31,6.31,0,0,1-5.6,3.31h-43.55a4.4,4.4,0,0,1-4.39-4.39v-45.49a4.4,4.4,0,0,1,4.39-4.39H1558.4a4.4,4.4,0,0,1,4.4,4.4v45.51a4.39,4.39,0,0,1-4.38,4.39Z"/></g></g><g id="Layer_2-3-2" data-name="Layer 2-3"><g id="Layer_1-3-3" data-name="Layer 1-3"><path id="Path_63" data-name="Path 63" class="cls-1" d="M616.52,1492.31H591.21a7.74,7.74,0,0,0,1.4-4.44v-109l5.27,1.65a3.83,3.83,0,0,0,5-3.66v-3.31a3.86,3.86,0,0,0-2.74-3.66l-125.53-37.76a3.85,3.85,0,0,0-2.18,0l-125.48,37.65a3.84,3.84,0,0,0-2.72,3.65v3.31a3.81,3.81,0,0,0,3.78,3.84,3.44,3.44,0,0,0,1.19-.18l5.26-1.65v109.09a7.91,7.91,0,0,0,1.39,4.44H330.48a1.66,1.66,0,1,0,0,3.31h286a1.66,1.66,0,1,0,0-3.31Zm-268.36-115a.5.5,0,0,1-.62-.33.55.55,0,0,1,0-.17v-3.31a.53.53,0,0,1,.35-.48l125.48-37.71h.3L599.12,1373a.51.51,0,0,1,.37.48v3.31a.53.53,0,0,1-.2.42.63.63,0,0,1-.45.08L474.6,1340a3.92,3.92,0,0,0-2.2,0Zm92.55,114.5a1.12,1.12,0,0,1-.94.46H373.52a1.18,1.18,0,0,1-1.15-1.47l1.83-7a1.21,1.21,0,0,1,1.15-.89H438a1.21,1.21,0,0,1,1.15.89l1.82,7A1.12,1.12,0,0,1,440.71,1491.81ZM414,1422.28V1400.6h27v18.88a2.78,2.78,0,0,1-2.78,2.79Zm21.52,3.31-3.31,9.4H424l-3.31-9.4Zm-64.08-28.3v-5a2.8,2.8,0,0,1,2.78-2.78h64a2.77,2.77,0,0,1,2.78,2.78v5Zm39.25,3.31v21.67H374.25a2.78,2.78,0,0,1-2.78-2.79V1400.6Zm-27.22,26.19v52.77h-6.92v-52.77ZM482.78,1492H465.92a2.79,2.79,0,0,1-2.78-2.77v-33.6h19.64Zm92.78-2.77a2.77,2.77,0,0,1-2.78,2.78H486.09v-36.42h89.54Zm0-36.9H463.14v-11.59a2.8,2.8,0,0,1,2.74-2.83h106.9a2.78,2.78,0,0,1,2.78,2.78h0Zm-83.3-30.08.8-3.51,4.72,3.46,1-1.19c.63-.73,1.24-1.39,1.82-2l.66-.65-1.09-5.2,2.07-3,3.08,5,1.37-.74c.8-.43,1.66-.82,2.42-1.16l.83-.33.94-5.24,3-2,1,5.86,1.58-.2a22.53,22.53,0,0,1,2.6-.15H520l2.88-4.55,3.54-.71-1.28,5.84,1.51.42a22.42,22.42,0,0,1,2.43.83l.85.33,4.43-3.18,3.55.68-3.41,5,1.22,1a22.9,22.9,0,0,1,1.89,1.66l.65.63,5.43-1.31,3,2-5.11,3.41.77,1.34c.39.67.77,1.39,1.13,2.17l.38.81,5.6.85,2.09,3-6.11,1.24.23,1.54v.57h-20.4a6.45,6.45,0,0,0-11.85,0H489.86l-1.54-1.05-.57-3.54,5.74,1.47L494,1430a22.28,22.28,0,0,1,.9-2.48l.13-.33v-.85Zm28.94,12.35h-3.66a3.09,3.09,0,0,1,3.66,0Zm68.1,53.19a4.43,4.43,0,0,1-4.34,4.44H578a6,6,0,0,0,.84-3.07v-48.42a6.09,6.09,0,0,0-6-6.14H551.71l5.46-1.12-5.79-8.28-5.27-.8c-.05-.08-.09-.16-.13-.24l6.77-4.46-8.47-5.43-5.07,1.21-.28-.25,4.54-6.62-9.94-1.87-4.11,3-.41-.15,1.66-7.78-9.94,2-2.68,4.24h-.5l-1.31-7.77-8.46,5.53-.87,4.87-.5.21-4.12-6.62-5.75,8.28,1,4.85-.38.4-6.22-4.72-2.22,9.83,2.73,4.13-.18.5-7.6-2,1.45,9H465.92a6.1,6.1,0,0,0-6.09,6.1v48.53a6.14,6.14,0,0,0,.85,3.07H444.12a4.27,4.27,0,0,0,0-2.35l-1.82-7a4.51,4.51,0,0,0-4.35-3.31H386.76v-20.56h45.78a1.66,1.66,0,0,0,0-3.32H386.7v-30.19h30.52l4.42,12.71h4.85v8.28a1.66,1.66,0,0,0,3.32,0h0v-8.28h4.8l4.43-12.8a6.09,6.09,0,0,0,5.3-6v-27.23a6.09,6.09,0,0,0-6.09-6.09H374.2a6.09,6.09,0,0,0-6.09,6.09v27.23a6.09,6.09,0,0,0,5.11,6v54.63a4.52,4.52,0,0,0-2.3,2.86l-1.83,7a4.46,4.46,0,0,0,0,2.35H362a4.41,4.41,0,0,1-4.33-4.44v-110l115.66-34.76a.34.34,0,0,1,.28,0L589.3,1377.9Zm-90.2-1h63.39a1.66,1.66,0,0,0,0-3.32H499.1a1.66,1.66,0,0,0,0,3.32Zm0-15.18h63.39a1.66,1.66,0,0,0,0-3.32H499.1a1.66,1.66,0,0,0,0,3.32Zm0,7.58h63.39a1.66,1.66,0,0,0,0-3.31H499.1a1.66,1.66,0,0,0,0,3.31Zm0-15.17h63.39a1.66,1.66,0,0,0,0-3.31H499.1a1.66,1.66,0,0,0,0,3.31Z"/></g></g><text class="cls-4" transform="translate(1245.14 1612.95)">Quickly turn your imagination into <tspan x="36.03" y="28.8">reality and mass production</tspan></text><text class="cls-5" transform="translate(272.87 1612.95)">We provide all kinds of equipment <tspan x="-7.43" y="28.8">and a safe working space, free your </tspan><tspan x="-15.83" y="57.6">imagination and get your hands dirty</tspan></text><text class="cls-4" transform="translate(744.27 1612.95)">Want to bring your design to reality?<tspan x="14.3" y="28.8">3D printing can do the job for you</tspan></text><g id="Other_Services" data-name="Other Services" class="cls-2"><text class="cls-6" transform="translate(827.2 1197)">Other Services</text></g><g id="Group_10" data-name="Group 10"><g id="Layer_1-9" data-name="Layer 1-9"><path id="Path_2" data-name="Path 2" class="cls-1" d="M465.26,235.78l-27.9-28.16a1.82,1.82,0,0,0-1.26-.53H357.62a8.26,8.26,0,0,0-8.24,8.26v12.54h-4.05a1.77,1.77,0,0,0-1.77,1.77h0V257a1.77,1.77,0,0,0,1.77,1.77h4.05V359.47a8.27,8.27,0,0,0,8.24,8.24h99.92a8.25,8.25,0,0,0,8.27-8.24V237A1.76,1.76,0,0,0,465.26,235.78Zm-28.33-23.55,22.82,23H441.62a4.7,4.7,0,0,1-4.7-4.7ZM347.1,231.44h58.47v23.77H347.1ZM457.54,364.13H357.62a4.71,4.71,0,0,1-4.7-4.66V258.76h54.42a1.77,1.77,0,0,0,1.77-1.77V229.67a1.78,1.78,0,0,0-1.77-1.78H352.93V215.35a4.7,4.7,0,0,1,4.7-4.71h75.76v19.91a8.25,8.25,0,0,0,8.23,8.24h20.65V359.47a4.71,4.71,0,0,1-4.74,4.66Z"/><path id="Path_6" data-name="Path 6" class="cls-1" d="M378,313.83h3.77v-13h10.37v-3H381.75v-7.4h10.67v-3H378Z"/><rect id="Rectangle_5" data-name="Rectangle 5" class="cls-1" x="396.69" y="287.39" width="3.7" height="26.45"/><path id="Path_7" data-name="Path 7" class="cls-1" d="M409.7,287.37H406v26.46h12.75v-3h-9Z"/><path id="Path_8" data-name="Path 8" class="cls-1" d="M421.2,313.83h16v-3H424.9v-10h12v-3h-12V290.4h12.3v-3h-16Z"/></g><g id="Layer_2-10" data-name="Layer 2-10"><g id="Layer_1-10" data-name="Layer 1-10"><path id="Path_9" data-name="Path 9" class="cls-1" d="M601.89,235.68,574,207.53a1.75,1.75,0,0,0-1.26-.53H494.26a8.26,8.26,0,0,0-8.24,8.26V227.8H482a1.77,1.77,0,0,0-1.77,1.77h0v27.32a1.78,1.78,0,0,0,1.77,1.78H486v100.7a8.25,8.25,0,0,0,8.24,8.24h99.91a8.25,8.25,0,0,0,8.27-8.24V236.93A1.8,1.8,0,0,0,601.89,235.68Zm-28.33-23.54,22.83,23H578.26a4.69,4.69,0,0,1-4.7-4.7Zm-89.83,19.2H542.2v23.78H483.73ZM594.17,364H494.26a4.7,4.7,0,0,1-4.7-4.66V258.67H544a1.78,1.78,0,0,0,1.77-1.78V229.57A1.77,1.77,0,0,0,544,227.8H489.56V215.26a4.72,4.72,0,0,1,4.7-4.72H570v19.92a8.25,8.25,0,0,0,8.24,8.24H598.9V359.37a4.69,4.69,0,0,1-4.73,4.66Z"/><path id="Path_10" data-name="Path 10" class="cls-1" d="M544.22,269.79a39.71,39.71,0,1,0,39.71,39.71,39.7,39.7,0,0,0-39.71-39.71Zm0,7.09a32.43,32.43,0,0,1,20.4,7.21l-45.8,45.8a32.58,32.58,0,0,1,25.4-53Zm0,65.24a32.47,32.47,0,0,1-20.39-7.21l45.8-45.8a32.58,32.58,0,0,1-25.41,53Z"/></g></g></g><g id="_20x20x20_cm_" data-name=" 20x20x20 cm " class="cls-2"><text class="cls-7" transform="translate(1374.83 910.64)">20x20(cm)</text></g><g id="_15x15x15_cm_" data-name=" 15x15x15 cm " class="cls-2"><text class="cls-7" transform="translate(892.62 910.64)">15x15cm)</text></g><g id="_10x10x10_cm_" data-name=" 10x10x10 cm " class="cls-2"><text class="cls-7" transform="translate(401.83 910.64)">10x10(cm)</text></g><g id="Step_3:_Dispatch" data-name="Step 3: Dispatch" class="cls-2"><text class="cls-7" transform="translate(1333.49 431.25)">Step 3: Dispatch</text></g><g id="Step_2:_Print" data-name="Step 2: Print" class="cls-2"><text class="cls-7" transform="translate(822.99 431.25)">Step 2: Cut Engrave</text></g><g id="Step_1:_Choose_an_option" data-name="Step 1: Choose an option" class="cls-2"><text class="cls-7" transform="translate(297.7 431.25)">Step 1: Choose an option</text></g><text class="cls-4" transform="translate(1245 485.04)">Once the cut is completed, we will <tspan x="17.2" y="28.8">ship your art work or arrange a </tspan><tspan x="163.41" y="57.6">pickup</tspan></text><text class="cls-4" transform="translate(742.46 485.04)">After confirming the file, we will start <tspan x="114.89" y="28.8">cutting engraving</tspan></text><text class="cls-4" transform="translate(297.72 964.04)">10×10×(cm) cutting engraving<tspan x="130.44" y="28.8">NT$200</tspan></text><text class="cls-4" transform="translate(1278.17 964.04)">20×20(cm) cutting engraving<tspan x="122.99" y="28.8">NT$800</tspan></text><text class="cls-4" transform="translate(791.17 964.04)">15×15(cm) cutting engraving<tspan x="122.99" y="28.8">NT$500</tspan></text><text class="cls-4" transform="translate(273.39 485.04)">Submit <tspan class="cls-8" x="90.81" y="0" xml:space="preserve">JPG, PNG, SVG, DFX  file</tspan><tspan class="cls-9" x="368.48" y="0"> </tspan><tspan x="375.92" y="0">to </tspan><tspan x="23.4" y="28.8">our website and our team will </tspan><tspan x="35.61" y="57.6">contact you shortly. </tspan><tspan class="cls-10" x="277.49" y="57.6">No file?</tspan></text><g id="Layer_2-7" data-name="Layer 2-7"><g id="Layer_1-7" data-name="Layer 1-7"><path id="Path_15" data-name="Path 15" class="cls-1" d="M1389.06,276.48h60.24a1.78,1.78,0,0,0,1.77-1.78h0V237.19a1.77,1.77,0,0,0-1.77-1.77h-60.24a1.77,1.77,0,0,0-1.77,1.77h0V274.7a1.78,1.78,0,0,0,1.77,1.78Zm1.77-37.51h56.7v34h-56.7Z"/><path id="Path_16" data-name="Path 16" class="cls-1" d="M1327.58,261.31h.52V295a8.24,8.24,0,0,0,8.24,8.24h165.73a8.25,8.25,0,0,0,8.31-8.2V261.34h.53a1.77,1.77,0,0,0,1.77-1.77h0v-7.09a1.77,1.77,0,0,0-1.77-1.77h-.53V217.05a8.28,8.28,0,0,0-8.13-8.42h-165.9a8.24,8.24,0,0,0-8.24,8.24h0v33.66h-.51a1.77,1.77,0,0,0-1.77,1.77v7.09a1.76,1.76,0,0,0,1.62,1.91Zm2.29-7.09h50.42v3.55h-50.94v-3.55Zm178.65,0h.55v3.55h-50.94v-3.55ZM1331.64,217a4.69,4.69,0,0,1,4.56-4.83h165.87a4.71,4.71,0,0,1,4.76,4.66v33.71h-50.47a1.78,1.78,0,0,0-1.78,1.78h0v7.08a1.78,1.78,0,0,0,1.78,1.77h50.47v33.67a4.7,4.7,0,0,1-4.7,4.7H1336.35a4.71,4.71,0,0,1-4.7-4.7V261.18h50.41a1.78,1.78,0,0,0,1.78-1.77h0v-7.08a1.78,1.78,0,0,0-1.78-1.78h-50.4Z"/><path id="Path_17" data-name="Path 17" class="cls-1" d="M1437.15,244.87h-35.88a1.77,1.77,0,1,0,0,3.54h35.88a1.77,1.77,0,0,0,0-3.54Z"/><path id="Path_18" data-name="Path 18" class="cls-1" d="M1437.15,251.16h-35.88a1.77,1.77,0,1,0,0,3.54h35.88a1.77,1.77,0,0,0,0-3.54Z"/><path id="Path_19" data-name="Path 19" class="cls-1" d="M1437.15,257.27h-35.88a1.77,1.77,0,1,0,0,3.54h35.88a1.77,1.77,0,0,0,0-3.54Z"/><path id="Path_20" data-name="Path 20" class="cls-1" d="M1437.15,263.56h-35.88a1.77,1.77,0,1,0,0,3.54h35.88a1.77,1.77,0,0,0,0-3.54Z"/><path id="Path_21" data-name="Path 21" class="cls-1" d="M1315.3,260a1.77,1.77,0,0,0-1.77-1.77H1264.1a1.78,1.78,0,0,0,0,3.55h49.43a1.77,1.77,0,0,0,1.77-1.77Z"/><path id="Path_22" data-name="Path 22" class="cls-1" d="M1315.3,271.34a1.78,1.78,0,0,0-1.77-1.78h-33a1.78,1.78,0,1,0,0,3.55h33a1.77,1.77,0,0,0,1.77-1.77Z"/><path id="Path_23" data-name="Path 23" class="cls-1" d="M1313.53,280.92h-16.48a1.78,1.78,0,0,0,0,3.55h16.48a1.78,1.78,0,0,0,0-3.55Z"/><path id="Path_24" data-name="Path 24" class="cls-1" d="M1629.9,364.14h-77.39a21.64,21.64,0,0,0,13-18.09h30.12a8.25,8.25,0,0,0,8.24-8.24V316h0V263.4a25.66,25.66,0,0,0-11-21.1L1570.94,227a25.58,25.58,0,0,0-14.67-4.6h-29.63a1.77,1.77,0,0,0-1.77,1.77h0v83.56H1318.26A8.26,8.26,0,0,0,1310,316v21.84a8.24,8.24,0,0,0,8.24,8.24h1.35a21.64,21.64,0,0,0,13,18.09h-49.19a1.78,1.78,0,0,0,0,3.55H1629.9a1.78,1.78,0,0,0,0-3.55Zm-86-1.77a18.13,18.13,0,0,1-18.11-18.05h0a18.11,18.11,0,0,1,36.2,0h0a18.12,18.12,0,0,1-18.09,18.09Zm-15.49-136.43h27.86a22,22,0,0,1,12.58,3.95l21.91,15.28a22.09,22.09,0,0,1,9.46,18.14v44.3h-71.81ZM1313.57,337.83V316a4.69,4.69,0,0,1,4.7-4.7h282V326.9h0v10.91a4.7,4.7,0,0,1-4.7,4.7h-30.12a21.64,21.64,0,0,0-43.11,0H1362.73a21.63,21.63,0,0,0-43.1,0h-1.35A4.69,4.69,0,0,1,1313.57,337.83Zm9.5,6.47a18.11,18.11,0,1,1,18.1,18.11h0a18.11,18.11,0,0,1-18.11-18.11Zm39.65,1.77h159.6a21.66,21.66,0,0,0,13,18.09H1349.78a21.64,21.64,0,0,0,13-18.09Z"/></g></g><g id="Layer_2-8" data-name="Layer 2-8"><g id="Layer_1-8" data-name="Layer 1-8"><path id="Path_26" data-name="Path 26" class="cls-1" d="M1103,364.39h-25.3a7.55,7.55,0,0,0,1.39-4.38V244.84a7.72,7.72,0,0,0-7.71-7.72H848.58a7.72,7.72,0,0,0-7.7,7.7V360a7.62,7.62,0,0,0,1.39,4.38H817a1.66,1.66,0,0,0,0,3.32h286a1.66,1.66,0,0,0,0-3.32Zm-244.66-94h74.85v9.08a1.64,1.64,0,0,0,.4,1.08l7.53,8.91a1.66,1.66,0,0,0,2.33.18,1.53,1.53,0,0,0,.18-.18l7.6-8.91a1.64,1.64,0,0,0,.4-1.08v-9.08h74.76v36.42H858.36Zm90,0v8.47l-5.86,7-5.94-7v-8.47Zm78.15-29.93v26.61H858.36V240.44Zm-127.1,124a9.65,9.65,0,0,0,1.27-1.83h0a6.3,6.3,0,0,1,5.6-3.31h107.5a6.29,6.29,0,0,1,5.6,3.31,9.49,9.49,0,0,0,1.3,1.85Zm128.51,0a6.3,6.3,0,0,1-5.6-3.31,9.59,9.59,0,0,0-8.52-5.16H906.26a9.65,9.65,0,0,0-8.55,5.18h0a6.31,6.31,0,0,1-5.6,3.31H848.58a4.39,4.39,0,0,1-4.39-4.39h0V244.82a4.39,4.39,0,0,1,4.39-4.38h6.62v68a1.65,1.65,0,0,0,1.66,1.65H1028.2a1.65,1.65,0,0,0,1.65-1.65v-68h41.62a4.4,4.4,0,0,1,4.4,4.4V360a4.39,4.39,0,0,1-4.39,4.38Z"/><path id="Path_27" data-name="Path 27" class="cls-1" d="M873.08,326.27H861.33a1.66,1.66,0,1,0,0,3.31h11.75a1.66,1.66,0,1,0,0-3.31Z"/><path id="Path_28" data-name="Path 28" class="cls-1" d="M873.08,335.61H861.33a1.66,1.66,0,1,0,0,3.31h11.75a1.66,1.66,0,1,0,0-3.31Z"/><path id="Path_29" data-name="Path 29" class="cls-1" d="M873.08,344.94H861.33a1.66,1.66,0,1,0,0,3.31h11.75a1.66,1.66,0,1,0,0-3.31Z"/><path id="Path_30" data-name="Path 30" class="cls-1" d="M1068.11,247.22h-30.63a1.65,1.65,0,0,0-1.65,1.66v55.29a1.65,1.65,0,0,0,1.65,1.65h30.63a1.65,1.65,0,0,0,1.65-1.65V248.88A1.65,1.65,0,0,0,1068.11,247.22Zm-1.66,55.29h-27.31v-52h27.31Z"/><path id="Path_31" data-name="Path 31" class="cls-1" d="M1043.29,329.93a7.32,7.32,0,1,0,7.32,7.32,7.31,7.31,0,0,0-7.32-7.32Zm0,11.34a4,4,0,1,1,4-4h0A4,4,0,0,1,1043.29,341.27Z"/><path id="Path_32" data-name="Path 32" class="cls-1" d="M1062.28,329.93a7.32,7.32,0,1,0,7.32,7.32,7.32,7.32,0,0,0-7.32-7.32Zm0,11.34a4,4,0,1,1,4-4h0A4,4,0,0,1,1062.28,341.27Z"/><path id="Path_33" data-name="Path 33" class="cls-1" d="M1023.05,297.45H946.19a1.64,1.64,0,0,0-1.26.58l-2.49,2.91L940,298a1.64,1.64,0,0,0-1.26-.58H861.86a1.66,1.66,0,1,0,0,3.31H938l3.31,3.81a1.66,1.66,0,0,0,2.33.18,1.53,1.53,0,0,0,.18-.18l3.31-3.81h76.15a1.66,1.66,0,1,0,0-3.31h-.24Z"/></g></g><g id="Start_your_Project" data-name="Start your Project" class="cls-2"><text class="cls-6" transform="translate(796.87 71.84)">Start Your Project</text></g><rect id="Rectangle_6" data-name="Rectangle 6" class="cls-11" y="1834" width="1920" height="362"/><g id="Layer_2-3-3" data-name="Layer 2"><g id="Layer_1-4-2" data-name="Layer 1"><g id="Path_49" data-name="Path 49"><path class="cls-12" d="M1041,2108.79l0,.3a4.65,4.65,0,0,0-3.15-3.23h0c-2.85-.77-14.32-.77-14.32-.77s-11.45,0-14.34.77a4.64,4.64,0,0,0-3.16,3.2v0a51.06,51.06,0,0,0,0,18.2l-.05-.3a4.67,4.67,0,0,0,3.16,3.23h0c2.85.77,14.33.77,14.33.77s11.44,0,14.32-.77a4.65,4.65,0,0,0,3.19-3.2v0a47.77,47.77,0,0,0,.76-8.61v-.68a49.3,49.3,0,0,0-.81-8.91Zm-21.12,14.82v-11.12l9.55,5.57Z"/></g></g></g><g id="Layer_2-2-2" data-name="Layer 2-2"><g id="Layer_1-2-2" data-name="Layer 1-2"><g id="Path_45" data-name="Path 45"><path class="cls-12" d="M897.63,2100.25h-4.85c-5.44,0-9,3.61-9,9.2v4.23h-4.87a.76.76,0,0,0-.76.77h0v6.15a.76.76,0,0,0,.76.76h4.88v15.5a.76.76,0,0,0,.76.76h6.36a.76.76,0,0,0,.76-.76h0v-15.5h5.7a.76.76,0,0,0,.76-.76v-6.15a.76.76,0,0,0-.76-.76h-5.7v-3.6c0-1.73.41-2.61,2.67-2.61h3.26a.76.76,0,0,0,.76-.76V2101a.76.76,0,0,0-.75-.77Z"/></g></g></g><g id="Layer_2-3-4" data-name="Layer 2-3"><g id="Layer_1-3-4" data-name="Layer 1-3"><g id="Path_46" data-name="Path 46"><path class="cls-12" d="M955.91,2111.44a7.5,7.5,0,1,0,7.49,7.51h0A7.5,7.5,0,0,0,955.91,2111.44Zm0,12.37a4.88,4.88,0,1,1,3.44-1.43A4.87,4.87,0,0,1,955.91,2123.81Z"/></g><g id="Path_47" data-name="Path 47"><path class="cls-12" d="M963.61,2100.37c-3.43-.17-12-.15-15.4,0a11.19,11.19,0,0,0-7.84,3c-3.6,3.59-3.14,8.44-3.14,15.53,0,7.27-.4,12,3.14,15.54s8.52,3.14,15.54,3.14c7.2,0,9.69,0,12.24-1,3.46-1.34,6.08-4.43,6.34-10,.17-3.43.15-12,0-15.4C974.17,2104.68,970.65,2100.7,963.61,2100.37Zm5.44,31.73c-2.36,2.36-5.62,2.14-13.19,2.14-7.78,0-10.91.12-13.19-2.16-2.62-2.63-2.14-6.82-2.14-13.18,0-8.61-.89-14.8,7.75-15.25,2-.07,2.57-.09,7.56-.09l.07.05c8.3,0,14.81-.87,15.21,7.76.09,2,.11,2.57.11,7.55,0,7.7.14,10.84-2.17,13.17Z"/></g><g id="Ellipse_2" data-name="Ellipse 2"><circle class="cls-12" cx="965.57" cy="2109.28" r="2.76"/></g></g></g><text class="cls-13" transform="translate(578.53 2015.54)">7<tspan class="cls-14" x="14.04" y="0">F</tspan><tspan x="26.33" y="0">., N</tspan><tspan class="cls-15" x="65.42" y="0">o</tspan><tspan class="cls-16" x="80.62" y="0">. 13, </tspan><tspan class="cls-17" x="136.15" y="0">F</tspan><tspan class="cls-16" x="149.73" y="0">uxing </tspan><tspan class="cls-15" x="220.89" y="0">R</tspan><tspan x="236.42" y="0">d., Shulin Di</tspan><tspan class="cls-18" x="380.51" y="0">s</tspan><tspan class="cls-19" x="392.03" y="0">t</tspan><tspan class="cls-16" x="402.09" y="0">., N</tspan><tspan class="cls-20" x="441.19" y="0">e</tspan><tspan x="455.56" y="0">w </tspan><tspan class="cls-21" x="481.67" y="0">T</tspan><tspan x="494.85" y="0">aipei City 238 , </tspan><tspan class="cls-22" x="675.4" y="0">T</tspan><tspan class="cls-23" x="688.57" y="0">ai</tspan><tspan class="cls-15" x="710.27" y="0">w</tspan><tspan x="729.59" y="0">an</tspan></text><g id="_886_0226813986" data-name=" 886 0226813986"><text class="cls-24" transform="translate(831.46 2067.54)">+886 0226813986</text></g><g id="智品設計股份有限公司"><text class="cls-25" transform="translate(816 1953.24)">智品設計股份有限公司</text></g><g id="zhipindesign"><text class="cls-25" transform="translate(839.85 1913.49)">zhipindesign</text></g><g id="Layer_2-5-2" data-name="Layer 2-5"><g id="Layer_1-5-2" data-name="Layer 1-5"><g id="Path_56" data-name="Path 56"><path class="cls-26" d="M1063.52,1894.47h-22.15a.41.41,0,0,0-.44.38.4.4,0,0,0,.17.36l2.55,1.83a2,2,0,0,0,1.15.37h12a.46.46,0,0,1,.49.42.46.46,0,0,1-.19.41l-18.08,13a1.25,1.25,0,0,0,.84,2.26h5.6l4.1-2.94h-2.93a.45.45,0,0,1-.49-.43.42.42,0,0,1,.18-.4l18.08-13a1.25,1.25,0,0,0-.84-2.25Zm15.12,7.58a5.29,5.29,0,0,0-3.63-1.4h-5.87a3.45,3.45,0,0,0-2,.64l-16.92,12.19h4.13a3,3,0,0,0,1.76-.57l12.12-8.69a3.44,3.44,0,0,1,2-.63h4.61a2.06,2.06,0,0,1,2.13,2v.68a4.46,4.46,0,0,1-4.62,4.29H1067l-4.09,2.94h8.58a8.41,8.41,0,0,0,8.71-8.08A4.56,4.56,0,0,0,1078.64,1902.05Z"/></g></g></g><rect class="cls-27" width="1920" height="2196"/></g></g></svg>