<svg xmlns="http://www.w3.org/2000/svg" xmlns:xlink="http://www.w3.org/1999/xlink" viewBox="0 0 392 1715"><defs><style>.cls-1{fill:none;}.cls-2{clip-path:url(#clip-path);}.cls-3{isolation:isolate;}.cls-4{fill:#4d4d4d;}.cls-5{fill:#666;}.cls-6{clip-path:url(#clip-path-2);}.cls-7{fill:#3e4141;}.cls-8{fill:#adadad;}</style><clipPath id="clip-path"><rect class="cls-1" x="24.76" y="1055.73" width="157.88" height="157.88"/></clipPath><clipPath id="clip-path-2"><rect class="cls-1" x="35.43" y="761.67" width="321.15" height="155.8" rx="6.33"/></clipPath></defs><g id="Layer_2" data-name="Layer 2"><g id="Layer_1-2" data-name="Layer 1"><image width="1600" height="1600" transform="translate(24.76 1252.73) scale(0.1)" xlink:href="../../01%20Coworkshop/Flus%20Beamo.jpg"/><image width="1600" height="1600" transform="translate(209.35 1252.73) scale(0.1)" xlink:href="../../01%20Coworkshop/Formbox.jpg"/><image width="1600" height="1600" transform="translate(209.35 1056.78) scale(0.1)" xlink:href="../../01%20Coworkshop/Phrozen.jpg"/><image width="1600" height="1600" transform="translate(24.76 463.44) scale(0.1)" xlink:href="../../01%20Coworkshop/Air.jpg"/><image width="1600" height="1600" transform="translate(209.35 68.92) scale(0.1)" xlink:href="../../01%20Coworkshop/Band.jpg"/><image width="1600" height="1600" transform="translate(24.76 265.92) scale(0.1)" xlink:href="../../01%20Coworkshop/Drill.jpg"/><image width="1600" height="1600" transform="translate(209.35 265.92) scale(0.1)" xlink:href="../../01%20Coworkshop/Blet.jpg"/><g class="cls-2"><image width="1600" height="1600" transform="translate(37.01 1081.8) scale(0.08)" xlink:href="../../01%20Coworkshop/Creality2%20.jpg"/></g><image width="1600" height="1600" transform="translate(24.76 68.92) scale(0.1)" xlink:href="../../01%20Coworkshop/TS.jpg"/><g id="Vacuum_forming_service" data-name="Vacuum forming service" class="cls-3"><g class="cls-3"><path class="cls-4" d="M185.29,26.23h-6.88V24.9h3.19a16.52,16.52,0,0,0-1.29-2.43l1.31-.67A15.75,15.75,0,0,1,183,24.16l-1.31.74h3.65Zm-.75,1.86a3.76,3.76,0,0,0,2.16-3.62V22.52h5.69v4.06c0,.5,0,.68.27.68h.92a3.29,3.29,0,0,0,.81-.11c0,.43.07,1,.12,1.41a2.81,2.81,0,0,1-.93.1h-1.07c-1.38,0-1.67-.59-1.67-2.14V24.07h-2.61v.43a5.24,5.24,0,0,1-2.67,4.87,7.42,7.42,0,0,0-1-1.19v.43h-5.36V27.3h5.35Zm9.39,2a11.57,11.57,0,0,1-3,5.21,13.08,13.08,0,0,0,4,1.55,7.24,7.24,0,0,0-1,1.51,12.84,12.84,0,0,1-4.3-2,14.87,14.87,0,0,1-4.32,2,6.5,6.5,0,0,0-.69-1.29v.25h-3.92v.81h-1.44V32.1h5.36v4.79a12.41,12.41,0,0,0,3.71-1.58,12.28,12.28,0,0,1-2.55-3.69l1-.35h-1.62V29.71h7.56l.29-.06Zm-14.74-.41h5.38V31h-5.38Zm3.91,3.76h-2.47V36h2.47Zm4.1-2.18a9.29,9.29,0,0,0,2.36,3.05,9.58,9.58,0,0,0,2.27-3.05Z"/><path class="cls-4" d="M201.64,22.34a34,34,0,0,1-1.37,3.59V38.4h-1.62V29a17.42,17.42,0,0,1-1.26,1.76,10.7,10.7,0,0,0-.83-1.76,20.69,20.69,0,0,0,3.51-7.1Zm3.8,5.77c-.26.43-.56.82-.85,1.22h7.71v7.49c0,.72-.13,1.06-.58,1.3a5,5,0,0,1-2,.25,5.74,5.74,0,0,0-.49-1.33h1.22c.17,0,.22-.07.22-.23V35.76h-2.47V38h-1.51V35.76H204a6.5,6.5,0,0,1-1.2,2.77,6.47,6.47,0,0,0-1.37-1,7.43,7.43,0,0,0,1.22-4.75V31.26a12.17,12.17,0,0,1-1.33.95,9.27,9.27,0,0,0-1-1.35,10.46,10.46,0,0,0,3.22-2.75h-2.32V26.56h3.13V25.1h-2.63V23.57h2.63V22H206v1.59h2.65V22h1.6v1.59h2.31V25.1h-2.31v1.46H213v1.55Zm1.29,6.42V33.2h-2.45c0,.42,0,.88-.09,1.33ZM204.28,32h2.45V30.68h-2.45Zm1.73-5.4h2.65V25.1H206Zm4.7,4.12h-2.47V32h2.47Zm0,3.85V33.2h-2.47v1.33Z"/></g></g><path class="cls-5" d="M271.88,234.17a3.12,3.12,0,0,1-2.29,2.56,4.12,4.12,0,0,0-.55-.65c1.42-.45,1.82-1.23,1.93-1.91h-2v-.79H271V232h.9v1.38H273V232h.86v1.36h1.61V232h.89v1.36h1.14V232h.89v1.4h2v.79h-2v1c0,.35,0,.46.26.46h1a3.55,3.55,0,0,0,.67-.06c0,.23,0,.55.07.76a3.51,3.51,0,0,1-.71.05h-1.13c-.87,0-1.07-.34-1.07-1.22v-1h-1.14v2.08H273v-2.08Zm-2.68,2.72h11v2.5h-.93V237.7h-9.14v1.69h-.91Zm9.73,5c0,.49-.1.74-.48.88a7.06,7.06,0,0,1-2,.14,3.35,3.35,0,0,0-.31-.83h1.59c.19,0,.25-.06.25-.2v-2.08h-2.9v3.84h-.95v-3.84h-2.72v3.1h-.95V239h3.67v-1.08h.95V239h3.84Zm-5.08-7.73v1.33h1.61v-1.33Z"/><path class="cls-5" d="M286.88,242.12c-1.48.4-3.08.82-4.23,1.1l-.22-.86c.55-.1,1.25-.27,2-.45v-3.72h-1.88v-.84h1.88v-1.41h-1.22v-.57c-.21.19-.39.39-.6.57a7,7,0,0,0-.39-1,9.53,9.53,0,0,0,2.55-3.23l.69.34a5.16,5.16,0,0,1-.26.53,17.27,17.27,0,0,1,2,1.69l-.42.8a14.49,14.49,0,0,0-2-1.78,15.61,15.61,0,0,1-1.34,1.78h3v.84h-1.28v1.41h1.69v.84h-1.69v3.55c.52-.13,1-.27,1.6-.39Zm-3.46-3.24a16,16,0,0,1,.51,2.38l-.65.19a15.49,15.49,0,0,0-.46-2.4Zm2.12,2.17a18.44,18.44,0,0,0,.56-2.33l.69.24c-.22.78-.47,1.7-.69,2.3Zm6.14-3.09v1.65h2.19v4H293v-.48h-3.38v.52h-.86v-4.08h2.05V238h-2.18a14.75,14.75,0,0,1-1.46,5.73,2.93,2.93,0,0,0-.74-.57c1.26-2.29,1.39-5.49,1.39-7.7v-3.09h6.08v3.22h-2.21v1.54h2.53V238Zm-.88-.87v-1.54h-2.09c0,.47,0,1,0,1.54Zm-2.09-3.89v1.49H293V233.2Zm4.28,7.25h-3.38v1.89H293Z"/><path class="cls-5" d="M299,238.75c-.13-.35-.41-1-.69-1.51v6.44h-.84v-6.19a14.48,14.48,0,0,1-1.22,3.4,6.57,6.57,0,0,0-.42-.93,16.64,16.64,0,0,0,1.56-4.75h-1.3v-.91h1.38v-2.49h.84v2.49h1v.91h-1v.85c.29.45,1,1.66,1.16,2Zm8,1a7.47,7.47,0,0,1-1.6,2.08,1.86,1.86,0,0,0,1.35.94c.27,0,.44-.47.55-1.41a2.46,2.46,0,0,0,.65.5c-.25,1.41-.65,1.9-1.17,1.86a2.66,2.66,0,0,1-2.06-1.33,10.8,10.8,0,0,1-2.27,1.26,3.59,3.59,0,0,0-.52-.61,9.59,9.59,0,0,0,2.42-1.35,12.84,12.84,0,0,1-.76-2.38h-2.12v.19c0,.1,0,.2,0,.3a20.66,20.66,0,0,1,1.79,1.55l-.59.59a17.17,17.17,0,0,0-1.32-1.23,5,5,0,0,1-1.91,3,2.65,2.65,0,0,0-.63-.58,4.37,4.37,0,0,0,1.84-3.67v-.18h-1v-.78h3.8a51.25,51.25,0,0,1-.56-6.58h.83a44.4,44.4,0,0,0,.58,6.58h1.85a9.94,9.94,0,0,0-1.15-.83l.49-.46a9,9,0,0,1,1.35.94l-.34.35h1.08v.78h-3.13a10.74,10.74,0,0,0,.56,1.78,6.13,6.13,0,0,0,1.16-1.64Zm-4.6-2c0-.15-.09-.34-.15-.54a9.69,9.69,0,0,0-2.34.44,3.32,3.32,0,0,0-.22-.73,1.57,1.57,0,0,0,.67-.59c.13-.15.46-.61.83-1.17a5.39,5.39,0,0,0-1.39.28,5.83,5.83,0,0,0-.22-.72c.15,0,.31-.21.48-.48a11.11,11.11,0,0,0,1.09-2.23l.73.23a14.1,14.1,0,0,1-1.3,2.35l1-.1c.16-.29.32-.57.45-.87l.7.27a17.17,17.17,0,0,1-1.95,2.87l1.26-.17c-.09-.28-.2-.55-.3-.81l.61-.17a11.89,11.89,0,0,1,.66,1.92Zm4.69-.22a5.62,5.62,0,0,0-.17-.58,10.46,10.46,0,0,0-2.35.45,7.5,7.5,0,0,0-.26-.75c.21,0,.4-.26.65-.58a10.29,10.29,0,0,0,.78-1.15,4.71,4.71,0,0,0-1.32.26,4.42,4.42,0,0,0-.24-.73c.15,0,.3-.18.45-.43a9.37,9.37,0,0,0,.94-2l.73.22a13.7,13.7,0,0,1-1.13,2.13l.94-.1a8.48,8.48,0,0,0,.46-.9l.74.27a17.73,17.73,0,0,1-1.9,2.92l1.3-.19-.31-.78.59-.16a14.74,14.74,0,0,1,.72,1.92Z"/><path class="cls-5" d="M68.29,241.47a11,11,0,0,1-4,1.83,3.27,3.27,0,0,0-.63-.77,10.77,10.77,0,0,0,3.87-1.44Zm7.06-1.84v.82H70v3.21h-1v-3.21H63.82v-.82h5.25v-.85h1v.85Zm-1.41-1h-8.7v-4.2H69v-2.59h1v.92h4.88v.8H69.93v.87h4Zm-1-3.46H66.19v1H73Zm0,1.7H66.19v1H73ZM71.32,241a28.83,28.83,0,0,1,4,1.53l-.55.71a28.57,28.57,0,0,0-4-1.62Z"/><path class="cls-5" d="M89,242.1v1H77.45v-1h4.83V232h1v4h4.86v1H83.31v5.13Z"/><path class="cls-5" d="M102.72,242.34v.91H91v-.91h5.42V240.7H92.38v-.88h4.08v-1.46h1v1.46h3.93v.88H97.44v1.64Zm-9-6.5a4.1,4.1,0,0,1-2,3.1,4.43,4.43,0,0,0-.63-.67,3.39,3.39,0,0,0,1.69-2.43H91.3V235h1.64V233.2H91.73v-.86h5.83v.86H96.35V235h1.47v.86H96.35v2.78h-.91v-2.78Zm.07-.86h1.6V233.2h-1.6V235Zm5.68,1.9h-.9v-4.33h.9Zm2.43.8c0,.54-.1.78-.49.94a6.66,6.66,0,0,1-1.94.16,3.18,3.18,0,0,0-.32-.89,12.94,12.94,0,0,0,1.58,0c.2,0,.25,0,.25-.23V231.9H102Z"/><path class="cls-5" d="M115.87,232.39v11.29h-1v-.58h-8.86v.58h-.93V232.39Zm-1,9.83v-8.93h-8.86v8.93Zm-3.13-1.9a14,14,0,0,1,2.38,1.13l-.7.45a10.86,10.86,0,0,0-2.38-1.23l.44-.35h-2.29l.66.24a10.17,10.17,0,0,1-2.6,1.36,4.5,4.5,0,0,0-.57-.6,9.66,9.66,0,0,0,2.39-1h-1.7v-4h6.23v4Zm1.33-4.42H108V234h5.15Zm-4.87,1.58h4.53v-.6h-4.53Zm0,1.13h4.53V238h-4.53Zm0,1.15h4.53v-.62h-4.53Zm4-5.18h-3.48v.76h3.48Z"/><path class="cls-5" d="M121.5,237.35h1.91v.84H121.5v3.59l1.84-.37,0,.8-4.83,1-.22-.87,2.3-.43v-3.76h-2.13v-.84h2.13v-1.41h-1.36v-.66c-.25.22-.49.41-.74.61a5.54,5.54,0,0,0-.5-1,9.65,9.65,0,0,0,2.93-3.25l.87.31c-.09.18-.21.38-.32.57a20.13,20.13,0,0,1,2.26,1.91l-.65.68a17.18,17.18,0,0,0-2.08-1.87,14,14,0,0,1-1.58,1.82H123v.84H121.5Zm-2,1.53a12.64,12.64,0,0,1,.57,2.39l-.72.18a14.71,14.71,0,0,0-.52-2.4Zm2.43,2.22a16.9,16.9,0,0,0,.64-2.38l.77.24c-.25.79-.55,1.75-.8,2.35Zm8.17,1.13v.91H123.5v-.91h.55v-8.84h-.58v-.91H130v.91h-5v2h4.36V240H125v2.25ZM125,236.34v2.73h3.45v-2.73Z"/><path class="cls-5" d="M134.92,238.75c-.13-.35-.42-1-.69-1.51v6.44h-.85v-6.19a13.63,13.63,0,0,1-1.22,3.4,7.91,7.91,0,0,0-.41-.93,17,17,0,0,0,1.56-4.75H132v-.91h1.37v-2.49h.85v2.49h1v.91h-1v.85c.29.45,1,1.66,1.16,2Zm8,1a7.66,7.66,0,0,1-1.6,2.08,1.85,1.85,0,0,0,1.35.94c.27,0,.44-.47.54-1.41a2.83,2.83,0,0,0,.65.5c-.24,1.41-.65,1.9-1.17,1.86a2.64,2.64,0,0,1-2.05-1.33,11.05,11.05,0,0,1-2.27,1.26,3.59,3.59,0,0,0-.52-.61,9.7,9.7,0,0,0,2.41-1.35,12.87,12.87,0,0,1-.75-2.38h-2.12v.19c0,.1,0,.2,0,.3a20.66,20.66,0,0,1,1.79,1.55l-.6.59a16.79,16.79,0,0,0-1.31-1.23,5.06,5.06,0,0,1-1.91,3,2.69,2.69,0,0,0-.64-.58,4.38,4.38,0,0,0,1.85-3.67v-.18h-1v-.78h3.8a49.51,49.51,0,0,1-.56-6.58h.83a44.54,44.54,0,0,0,.57,6.58H142a9.27,9.27,0,0,0-1.16-.83l.5-.46a9.59,9.59,0,0,1,1.35.94l-.34.35h1.08v.78h-3.13a9.87,9.87,0,0,0,.56,1.78,5.87,5.87,0,0,0,1.15-1.64Zm-4.61-2-.14-.54a9.53,9.53,0,0,0-2.34.44,4,4,0,0,0-.22-.73c.18,0,.4-.26.66-.59a13,13,0,0,0,.83-1.17,5.54,5.54,0,0,0-1.39.28,3.67,3.67,0,0,0-.22-.72c.16,0,.31-.21.48-.48A10.48,10.48,0,0,0,137,232l.72.23a12.8,12.8,0,0,1-1.3,2.35l1-.1c.16-.29.31-.57.44-.87l.7.27a17.17,17.17,0,0,1-2,2.87l1.27-.17q-.15-.42-.3-.81l.61-.17a11.89,11.89,0,0,1,.66,1.92Zm4.7-.22a5.62,5.62,0,0,0-.17-.58,10.69,10.69,0,0,0-2.36.45,5.61,5.61,0,0,0-.26-.75c.21,0,.41-.26.65-.58a8.07,8.07,0,0,0,.78-1.15,4.57,4.57,0,0,0-1.31.26,4.53,4.53,0,0,0-.25-.73c.16,0,.3-.18.46-.43a9.88,9.88,0,0,0,.94-2l.72.22a12.19,12.19,0,0,1-1.13,2.13l1-.1a8.48,8.48,0,0,0,.46-.9l.74.27a18.4,18.4,0,0,1-1.9,2.92l1.3-.19-.31-.78.58-.16a13.57,13.57,0,0,1,.73,1.92Z"/><g class="cls-6"><image width="11552" height="5600" transform="translate(35.31 761.67) scale(0.03)" xlink:href="../../01%20Coworkshop/%E5%B7%A5%E5%85%B7%E7%89%861.jpg"/></g><rect class="cls-7" y="1505.18" width="392" height="209.82"/><path class="cls-8" d="M122.88,1590.94v3.56h-.47v-3.56h-2.07v-.44h2.07v-1.21H120.3v-.43h2.8a17.57,17.57,0,0,0,.6-1.77l.46.12c-.18.53-.4,1.17-.61,1.65h1.39v.43h-2.06v1.21h2v.44Zm-1.13.75a6.87,6.87,0,0,1-1,2,2.07,2.07,0,0,0-.36-.25,5.79,5.79,0,0,0,1-1.84Zm3-4.71h-4.35v-.43h2.13c-.14-.31-.35-.69-.52-1l.46-.13a8.17,8.17,0,0,1,.6,1.11h1.68Zm-3.19,1.77a6.8,6.8,0,0,0-.42-1.55l.39-.09a6,6,0,0,1,.46,1.52Zm2.24,2.81a9.06,9.06,0,0,1,.86,1.65l-.37.2a10.65,10.65,0,0,0-.84-1.7Zm5.45-2.23h-1.2v5.14h-.47v-5.14H126v.49a8.1,8.1,0,0,1-1.09,4.64,1.31,1.31,0,0,0-.36-.3,7.46,7.46,0,0,0,1-4.34v-3.38a18.21,18.21,0,0,0,3.17-.74l.42.36a17.44,17.44,0,0,1-3.14.7v2.12h3.31Z"/><path class="cls-8" d="M135.5,1592.28l.09.41c-1.45.63-3,1.29-4.15,1.75l-.23-.46c.74-.28,1.81-.69,2.94-1.15v-4.25h-2.68v-.47h2.68v-2.44h.48v7Zm3.4,1.32c.5,0,.56-.5.62-2.48a1.14,1.14,0,0,0,.46.24c-.07,2-.19,2.71-1.06,2.71h-1.43c-.73,0-1-.22-1-1.06v-7.33H137v2.42h2.91v.48H137V1593c0,.48.09.58.49.58Z"/><path class="cls-8" d="M147,1587.47v1.5h3.26v3.58c0,.35-.08.51-.36.59a8,8,0,0,1-1.75.09,1.88,1.88,0,0,0-.18-.48c.78,0,1.39,0,1.57,0s.23-.07.23-.21v-3.12H147v5.08h-.49v-5.08h-2.64v3.85h-.47V1589h3.11v-1.5h-4.15V1587h4.41a8.59,8.59,0,0,0-.74-1.44l.45-.15a9,9,0,0,1,.79,1.47l-.32.12h4.27v.47Z"/><path class="cls-8" d="M155.82,1591.07c-.13-.32-.48-1-.75-1.51v4.92h-.45v-4.94a12.72,12.72,0,0,1-1.15,3,4,4,0,0,0-.3-.39,12.78,12.78,0,0,0,1.4-4h-1.22v-.46h1.27v-2.22h.45v2.22h1v.46h-1v.8c.23.36.89,1.49,1,1.77Zm3.24.59c-.19.58-.42,1.27-.63,1.77l1.31-.22,0,.42c-1.37.24-2.82.47-3.84.64l-.12-.44,2.35-.36-.17-.06a14,14,0,0,0,.63-1.89Zm-1.51-4.67H156v-.43h1.55v-1.08H158v1.08h1.56v.43H158v1h1.32v.43h-3.1V1588h1.32Zm1.71,4.3h-2.91v-2.19h2.91Zm-2.24,2.14a7.8,7.8,0,0,0-.48-1.76l.41-.09a8.06,8.06,0,0,1,.5,1.72Zm1.8-3.92h-2v1.39h2Zm3.5-1.26h-.67v5.58c0,.34-.1.5-.31.59a4.66,4.66,0,0,1-1.24.08,4.83,4.83,0,0,0-.17-.49c.5,0,.95,0,1.08,0s.18,0,.18-.18v-5.59h-1.66v-.45h1.66v-2.32h.46v2.32h.67Zm-2,3.54a11.5,11.5,0,0,0-.62-2.42l.39-.09a12.47,12.47,0,0,1,.65,2.38Z"/><path class="cls-8" d="M168.1,1590.72a21.1,21.1,0,0,0-1.35-1.76v5.55h-.47v-5.44a11.74,11.74,0,0,1-1.85,3.51,3.13,3.13,0,0,0-.29-.42,11.12,11.12,0,0,0,2-4h-1.79v-.46h1.9v-2.2h.47v2.2h1.49v.46h-1.49v.24c.31.33,1.44,1.61,1.7,1.93Zm3.18-2.59a10.89,10.89,0,0,0,2.11,4.32,3.41,3.41,0,0,0-.38.38,11.73,11.73,0,0,1-1.9-3.82v5.5h-.48v-5.45a11.19,11.19,0,0,1-2.24,3.93,2.73,2.73,0,0,0-.32-.42,10.71,10.71,0,0,0,2.42-4.44h-1.74v-.46h1.88v-2.2h.48v2.2h2v.46Z"/><path class="cls-8" d="M182.58,1593.54a10.13,10.13,0,0,0,1.56-.1,4.45,4.45,0,0,0,.1.48,11.85,11.85,0,0,1-1.65.07h-4.7c-1.4,0-2.08-.45-2.08-1.69v-5.86h-.42V1586h8.35v.44h-7.46v5.89c0,.84.44,1.21,1.55,1.21Zm-5.31-3.39h2.53v2.49h-2.53Zm.43,2.09h1.66v-1.69H177.7Zm4.3-2.91h-3.6v-2.13H182Zm-.47-1.74h-2.67v1.34h2.67Zm1.7,5.05h-2.61v-2.49h2.61Zm-.44-2.09h-1.74v1.69h1.74Z"/><path class="cls-8" d="M195.21,1592.48h-4.12v1.43c0,.31-.08.43-.33.51a7.21,7.21,0,0,1-1.56.07,2.37,2.37,0,0,0-.17-.41c.68,0,1.24,0,1.38,0s.21,0,.21-.18v-1.43h-4.25v-.43h4.25v-.52a10.06,10.06,0,0,0,1.91-.85h-4.36v-.4h4.91l.11,0,.31.24a9,9,0,0,1-2.41,1.25v.31h4.12Zm-8.14-1.75h-.46V1589h.82l-.2-3c.56-.09,1.4-.32,1.89-.45l.24.32a10,10,0,0,1-1.65.39l0,.62h1.56v.38h-1.53l0,.67h1.55v.38h-1.52l0,.68h5.81c0-.21.05-.43.08-.68h-1.61V1588h1.64c0-.22,0-.44.05-.67h-1.64v-.38h1.67c0-.22,0-.44,0-.65h-1.75v-.39h2.22c-.05,1-.14,2.28-.23,3.15h.8v1.7h-.48v-1.29h-7.42Zm4.55-1.81a6.78,6.78,0,0,0-.8-.63,7.66,7.66,0,0,1-1,.7,2.12,2.12,0,0,0-.31-.28,6.31,6.31,0,0,0,1-.62,7.19,7.19,0,0,0-.81-.45l.27-.24a8.67,8.67,0,0,1,.85.44,4.33,4.33,0,0,0,.56-.58l.38.12a4.77,4.77,0,0,1-.62.66,5.06,5.06,0,0,1,.79.6Zm0-1.77a5.83,5.83,0,0,0-.79-.57,7.86,7.86,0,0,1-1,.67,2.26,2.26,0,0,0-.32-.27,6.78,6.78,0,0,0,1-.59,5.78,5.78,0,0,0-.79-.39l.26-.26.84.4a3.91,3.91,0,0,0,.53-.55l.37.1a5,5,0,0,1-.59.64,6.66,6.66,0,0,1,.79.54Z"/><path class="cls-8" d="M200,1587.87a10.13,10.13,0,0,1-.79,1.22v5.42h-.48v-4.82a9.94,9.94,0,0,1-1.25,1.26,4,4,0,0,0-.32-.43,9.22,9.22,0,0,0,2.4-2.81Zm-.09-2.2a9.05,9.05,0,0,1-2.3,2.32c-.07-.1-.2-.28-.28-.37a7.6,7.6,0,0,0,2.11-2.12Zm5.51,5.78a4.62,4.62,0,0,1-1.73,1.81,10.5,10.5,0,0,0,2.62.79,3.36,3.36,0,0,0-.31.43,10.16,10.16,0,0,1-2.78-1,11.14,11.14,0,0,1-3.26,1,1.63,1.63,0,0,0-.23-.43,10.88,10.88,0,0,0,3-.82,7.81,7.81,0,0,1-1.42-1.08,9.45,9.45,0,0,1-1.09.8c-.06-.07-.25-.25-.34-.33a7.37,7.37,0,0,0,1.13-.78,5.94,5.94,0,0,1-.54-.7l.39-.16a6.26,6.26,0,0,0,.46.59,6,6,0,0,0,.9-1.06h-1.13v-2.82h4.39v2.82h-2.74a6.66,6.66,0,0,1-.55.76H205l.09,0Zm-3.89-4.52a6.75,6.75,0,0,1-1.07,1.43,4.39,4.39,0,0,0-.39-.27,6.6,6.6,0,0,0,1.63-2.62l.45.11c-.11.31-.25.63-.39.93h4.37v.42Zm0,2H205v-.82h-3.49Zm0,1.22H205v-.84h-3.49Zm.27,1.55a1.21,1.21,0,0,1-.19.2,6.86,6.86,0,0,0,1.58,1.11,4.3,4.3,0,0,0,1.51-1.31Z"/><path class="cls-8" d="M217.22,1591.67v.45h-8.91v-.45h.85l-.18-5.42a12.57,12.57,0,0,0,1.72-.62l.27.42a12.1,12.1,0,0,1-1.54.5l0,1.34h1.28v.43h-1.27l.05,1.47h1.28v.43h-1.26l0,1.45h1.5V1586h3.34v5.66H216c0-.4,0-.89.08-1.41h-1.29v-.43h1.3c0-.48,0-1,0-1.47h-1.3v-.42h1.31c0-.55,0-1.08,0-1.57h-1.41v-.43h1.84c0,1.75-.08,4.23-.17,5.73Zm-5.56,1a15,15,0,0,1-2.94,1.8,3.12,3.12,0,0,0-.29-.37,11.5,11.5,0,0,0,2.78-1.7Zm-.15-1H214v-5.25h-2.52Zm2.14-4.44v.38H211.8v-.38ZM212,1588.4h1.58v2.33H212Zm.33,2h.92v-1.59h-.92Zm1.79,2a21.11,21.11,0,0,1,2.93,1.7l-.32.36a21,21,0,0,0-2.88-1.73Z"/><path class="cls-8" d="M227.51,1586.65a7.58,7.58,0,0,1-1.51,2.65,6.94,6.94,0,0,0,2.41,1.71,1.57,1.57,0,0,0-.31.39l-.48-.24v3.32h-.47v-.35h-2.88v.38h-.45v-3.41c-.27.14-.55.29-.82.4a1.28,1.28,0,0,0-.3-.36,7.74,7.74,0,0,0,2.71-1.87,9.09,9.09,0,0,1-1.1-1.68,7.82,7.82,0,0,1-1.1,1.43,3,3,0,0,0-.36-.3v.12H221.6v1.6H223v.44H221.6v2.06l1.41-.33.05.43c-1.35.35-2.73.69-3.72.93l-.1-.47.56-.12v-3.47h.42v3.37l.94-.23v-4.21h-1.42v-2.92h3.11v2.75a7.48,7.48,0,0,0,1.91-3.21l.47.12c-.11.32-.24.64-.37,1h2.25l.1,0Zm-5.11-.3h-2.22v2.05h2.22Zm4.91,4.62a7.79,7.79,0,0,1-1.6-1.34A9,9,0,0,1,224,1591Zm-.16,2.71v-2.27h-2.88v2.27Zm-2.6-6.52a8.4,8.4,0,0,0,1.14,1.8,7.5,7.5,0,0,0,1.22-2h-2.26Z"/><path class="cls-8" d="M230.69,1593.28h1.65v-5.92h-1.27V1587a4.19,4.19,0,0,0,1.39-.46h.47v6.77h1.52v.51h-3.76Z"/><path class="cls-8" d="M236.44,1592.92l.32-.39a2.49,2.49,0,0,0,1.92.89,1.52,1.52,0,0,0,1.62-1.55c0-1-.68-1.64-2.42-1.64v-.49c1.6,0,2.16-.69,2.16-1.56a1.28,1.28,0,0,0-1.38-1.32,2.31,2.31,0,0,0-1.6.77l-.34-.4a2.85,2.85,0,0,1,1.95-.86,1.77,1.77,0,0,1,2,1.77,1.82,1.82,0,0,1-1.34,1.8v0a1.9,1.9,0,0,1,1.6,1.88,2,2,0,0,1-2.2,2.05A2.91,2.91,0,0,1,236.44,1592.92Z"/><path class="cls-8" d="M246.05,1591s0,.16,0,.22c-.16,2-.3,2.71-.57,3a.68.68,0,0,1-.52.21,8.73,8.73,0,0,1-.95,0,1.11,1.11,0,0,0-.12-.42c.42,0,.78,0,.94,0a.32.32,0,0,0,.3-.09c.2-.19.33-.83.46-2.48H243.5c.13-.44.27-1.08.38-1.64h-.94v-.44h3.52v.44h-2.14c-.08.4-.18.85-.26,1.22Zm.16-2.59h-2.78v-2.5h2.78Zm-.41-2.1h-2v1.7h2Zm1.63,3.67a8.35,8.35,0,0,1-1.05,4.54,1.12,1.12,0,0,0-.36-.28,7.72,7.72,0,0,0,1-4.27v-2.52h2v-2h.46v.77h2.08v.42h-2.08v.81h2.22l.09,0,.3.1c-.14.55-.32,1.2-.45,1.61l-.39-.1a11.77,11.77,0,0,0,.31-1.16h-4.08Zm1.41,1.23c-.09,1.58-.36,2.64-1.42,3.24a1.47,1.47,0,0,0-.29-.32c1-.52,1.2-1.49,1.27-2.92Zm1.94-1a2.46,2.46,0,0,0,.56,0c0,.13,0,.28,0,.39a2.34,2.34,0,0,1-.59,0h-1.3c-.51,0-.63-.19-.63-.75v-.51l-1.16.12-.05-.38,1.21-.13V1588h.43v.88l1.51-.16.05.39-1.56.16v.57c0,.27,0,.35.25.35Zm.32,3.6a.71.71,0,0,0,.33,0,.3.3,0,0,0,.16-.22,6.63,6.63,0,0,0,0-1,1.09,1.09,0,0,0,.4.21,6.38,6.38,0,0,1-.09,1.13.49.49,0,0,1-.28.34,1.57,1.57,0,0,1-.51.07h-.55a1,1,0,0,1-.54-.11c-.15-.11-.18-.24-.18-.62v-2.29h.43v2.37a.17.17,0,0,0,.09.17.65.65,0,0,0,.26,0Z"/><path class="cls-8" d="M257.64,1587H254v-.51h4.4v.35c-1.73,2.27-2.09,4.09-2.2,6.93h-.63A11.21,11.21,0,0,1,257.64,1587Z"/><path class="cls-8" d="M262,1588.47c.26.36,1,1.5,1.18,1.78l-.31.37c-.16-.31-.57-1-.87-1.54v5.43h-.45v-5.31a13.82,13.82,0,0,1-1.09,3.13,2,2,0,0,0-.27-.44,14,14,0,0,0,1.29-4h-1.15v-.46h1.22v-2H262v2h1.11v.46H262ZM268,1592a3.14,3.14,0,0,1-1,1.32,17.12,17.12,0,0,1,2.12.83l-.41.31a17.53,17.53,0,0,0-2.13-.84,8.53,8.53,0,0,1-3.18.91,1.18,1.18,0,0,0-.19-.37,8.93,8.93,0,0,0,2.83-.72c-.7-.21-1.42-.42-2.08-.57.25-.24.52-.55.79-.87h-1.48v-.41h1.82c.22-.29.41-.57.59-.85h-2v-1.51H266v-.61h-2.12v-1.05h-.59v-.41h.59v-1H266v-.72h.46v.72h2.11v1h.69v.41h-.69v1.05h-2.11v.61h2.37v1.51h-2.61c-.17.28-.38.56-.58.85h2.06c0-.17.09-.34.13-.5h.47c0,.16-.08.33-.13.5h1.14v.41Zm-3.9-1.63H266v-.76h-1.89Zm.21-3.85v.67H266v-.67Zm1.68,1.72v-.7h-1.68v.7Zm-.7,3.76-.59.68c.58.13,1.21.3,1.83.5a3,3,0,0,0,1-1.18Zm1.16-5.48v.67h1.67v-.67Zm1.67,1.72v-.7h-1.67v.7Zm-1.67,1.37v.76h1.91v-.76Z"/><g id="_886_0226813986" data-name=" 886 0226813986"><path class="cls-8" d="M151.56,1638.38h-2.05v-.47h2.05v-2.22h.51v2.22h2v.47h-2v2.21h-.51Z"/><path class="cls-8" d="M155.94,1640a2.47,2.47,0,0,1,1.39-2.08v0a2,2,0,0,1-1-1.66,1.79,1.79,0,0,1,1.88-1.8,1.81,1.81,0,0,1,1.93,1.91,2.55,2.55,0,0,1-1,1.81v0a2.14,2.14,0,0,1,1.24,1.9,2,2,0,0,1-2.18,1.84A2.06,2.06,0,0,1,155.94,1640Zm3.86.07c0-1.11-1-1.5-2.12-1.93a2.15,2.15,0,0,0-1.19,1.82,1.57,1.57,0,0,0,1.71,1.5A1.45,1.45,0,0,0,159.8,1640.06Zm-.2-3.72a1.37,1.37,0,0,0-1.4-1.46,1.28,1.28,0,0,0-1.31,1.33c0,1,.91,1.4,1.82,1.76A2.13,2.13,0,0,0,159.6,1636.34Z"/><path class="cls-8" d="M162.29,1640a2.47,2.47,0,0,1,1.39-2.08v0a2,2,0,0,1-1-1.66,1.79,1.79,0,0,1,1.88-1.8,1.81,1.81,0,0,1,1.93,1.91,2.55,2.55,0,0,1-1,1.81v0a2.14,2.14,0,0,1,1.24,1.9,2,2,0,0,1-2.18,1.84A2.06,2.06,0,0,1,162.29,1640Zm3.86.07c0-1.11-1-1.5-2.12-1.93a2.15,2.15,0,0,0-1.19,1.82,1.57,1.57,0,0,0,1.71,1.5A1.45,1.45,0,0,0,166.15,1640.06Zm-.2-3.72a1.37,1.37,0,0,0-1.4-1.46,1.28,1.28,0,0,0-1.31,1.33c0,1,.91,1.4,1.82,1.76A2.13,2.13,0,0,0,166,1636.34Z"/><path class="cls-8" d="M172.6,1635.46a1.52,1.52,0,0,0-1.19-.58c-1.1,0-2,.87-2.06,3.38a2.35,2.35,0,0,1,1.76-1c1.24,0,2,.79,2,2.28a2.14,2.14,0,0,1-2,2.33c-1.41,0-2.34-1.25-2.34-3.56,0-2.94,1.25-4,2.62-4a2,2,0,0,1,1.55.7Zm-.09,4.13c0-1-.44-1.81-1.48-1.81a2.19,2.19,0,0,0-1.67,1c.09,1.59.66,2.61,1.77,2.61C171.92,1641.43,172.51,1640.65,172.51,1639.59Z"/><path class="cls-8" d="M178.29,1638.13c0-2.53.82-3.75,2.15-3.75s2.14,1.22,2.14,3.75-.82,3.79-2.14,3.79S178.29,1640.68,178.29,1638.13Zm3.71,0c0-2.17-.62-3.26-1.56-3.26s-1.57,1.09-1.57,3.26.62,3.3,1.57,3.3S182,1640.33,182,1638.13Z"/><path class="cls-8" d="M184.56,1641.43c2.47-2.12,3.45-3.62,3.45-4.94a1.43,1.43,0,0,0-1.49-1.62,2.17,2.17,0,0,0-1.62.91l-.37-.35a2.68,2.68,0,0,1,2.05-1,1.91,1.91,0,0,1,2,2.09c0,1.53-1.18,3.06-3.12,4.86.4,0,.82-.06,1.2-.06H189v.52h-4.39Z"/><path class="cls-8" d="M190.91,1641.43c2.47-2.12,3.45-3.62,3.45-4.94a1.43,1.43,0,0,0-1.49-1.62,2.17,2.17,0,0,0-1.62.91l-.37-.35a2.68,2.68,0,0,1,2.05-1,1.91,1.91,0,0,1,2,2.09c0,1.53-1.18,3.06-3.12,4.86.4,0,.82-.06,1.2-.06h2.27v.52h-4.39Z"/><path class="cls-8" d="M201.22,1635.46a1.52,1.52,0,0,0-1.19-.58c-1.1,0-2,.87-2.06,3.38a2.35,2.35,0,0,1,1.76-1c1.24,0,2,.79,2,2.28a2.14,2.14,0,0,1-2,2.33c-1.41,0-2.34-1.25-2.34-3.56,0-2.94,1.25-4,2.62-4a2,2,0,0,1,1.55.7Zm-.09,4.13c0-1-.44-1.81-1.48-1.81a2.19,2.19,0,0,0-1.67,1c.09,1.59.66,2.61,1.77,2.61C200.54,1641.43,201.13,1640.65,201.13,1639.59Z"/><path class="cls-8" d="M203.61,1640a2.47,2.47,0,0,1,1.39-2.08v0a2,2,0,0,1-1-1.66,1.79,1.79,0,0,1,1.88-1.8,1.81,1.81,0,0,1,1.93,1.91,2.55,2.55,0,0,1-1,1.81v0a2.14,2.14,0,0,1,1.24,1.9,2,2,0,0,1-2.18,1.84A2.06,2.06,0,0,1,203.61,1640Zm3.86.07c0-1.11-1-1.5-2.12-1.93a2.15,2.15,0,0,0-1.19,1.82,1.57,1.57,0,0,0,1.71,1.5A1.45,1.45,0,0,0,207.47,1640.06Zm-.2-3.72a1.37,1.37,0,0,0-1.4-1.46,1.28,1.28,0,0,0-1.31,1.33c0,1,.91,1.4,1.82,1.76A2.13,2.13,0,0,0,207.27,1636.34Z"/><path class="cls-8" d="M210.43,1641.28h1.65v-5.92h-1.27V1635a4.19,4.19,0,0,0,1.39-.46h.47v6.77h1.52v.51h-3.76Z"/><path class="cls-8" d="M216.17,1640.92l.33-.39a2.49,2.49,0,0,0,1.92.89,1.52,1.52,0,0,0,1.62-1.55c0-1-.68-1.64-2.42-1.64v-.49c1.6,0,2.16-.69,2.16-1.56a1.28,1.28,0,0,0-1.38-1.32,2.29,2.29,0,0,0-1.6.77l-.34-.4a2.83,2.83,0,0,1,1.95-.86,1.77,1.77,0,0,1,2,1.77,1.82,1.82,0,0,1-1.34,1.8v0a1.9,1.9,0,0,1,1.6,1.88,2,2,0,0,1-2.2,2.05A3,3,0,0,1,216.17,1640.92Z"/><path class="cls-8" d="M223.17,1640.84a1.64,1.64,0,0,0,1.27.58c1,0,1.92-.88,2-3.39a2.36,2.36,0,0,1-1.78,1c-1.22,0-2-.8-2-2.28a2.14,2.14,0,0,1,2-2.33c1.41,0,2.35,1.18,2.35,3.38,0,3.06-1.23,4.16-2.56,4.16a2.13,2.13,0,0,1-1.61-.7Zm3.24-3.38c-.06-1.59-.64-2.6-1.78-2.6-.79,0-1.38.79-1.38,1.85s.45,1.82,1.46,1.82A2.18,2.18,0,0,0,226.41,1637.46Z"/><path class="cls-8" d="M229,1640a2.47,2.47,0,0,1,1.39-2.08v0a2,2,0,0,1-1-1.66,1.79,1.79,0,0,1,1.88-1.8,1.81,1.81,0,0,1,1.93,1.91,2.55,2.55,0,0,1-1,1.81v0a2.14,2.14,0,0,1,1.24,1.9,2,2,0,0,1-2.18,1.84A2.06,2.06,0,0,1,229,1640Zm3.86.07c0-1.11-1-1.5-2.12-1.93a2.15,2.15,0,0,0-1.19,1.82,1.57,1.57,0,0,0,1.71,1.5A1.45,1.45,0,0,0,232.87,1640.06Zm-.2-3.72a1.37,1.37,0,0,0-1.4-1.46,1.28,1.28,0,0,0-1.31,1.33c0,1,.91,1.4,1.82,1.76A2.13,2.13,0,0,0,232.67,1636.34Z"/><path class="cls-8" d="M239.32,1635.46a1.52,1.52,0,0,0-1.19-.58c-1.1,0-2,.87-2.06,3.38a2.35,2.35,0,0,1,1.76-1c1.24,0,2,.79,2,2.28a2.14,2.14,0,0,1-2,2.33c-1.41,0-2.34-1.25-2.34-3.56,0-2.94,1.25-4,2.62-4a2,2,0,0,1,1.55.7Zm-.09,4.13c0-1-.44-1.81-1.48-1.81a2.19,2.19,0,0,0-1.67,1c.09,1.59.66,2.61,1.77,2.61C238.64,1641.43,239.23,1640.65,239.23,1639.59Z"/></g><g id="Layer_2-2" data-name="Layer 2"><g id="Layer_1-3" data-name="Layer 1"><g id="Path_49" data-name="Path 49"><path class="cls-8" d="M258.23,1673.58l0,.18a2.78,2.78,0,0,0-1.89-1.93h0c-1.71-.47-8.59-.47-8.59-.47s-6.87,0-8.6.47a2.77,2.77,0,0,0-1.9,1.91v0a30.59,30.59,0,0,0,0,10.92l0-.18a2.79,2.79,0,0,0,1.89,1.94h0c1.71.46,8.59.46,8.59.46s6.87,0,8.59-.46a2.81,2.81,0,0,0,1.92-1.92v0a28.77,28.77,0,0,0,.45-5.16v-.41a29.9,29.9,0,0,0-.48-5.35Zm-12.67,8.89v-6.67l5.73,3.34Z"/></g></g></g><g id="Layer_2-2-2" data-name="Layer 2-2"><g id="Layer_1-2-2" data-name="Layer 1-2"><g id="Path_45" data-name="Path 45"><path class="cls-8" d="M153.09,1667.92h-2.91c-3.26,0-5.38,2.16-5.38,5.52V1676h-2.92a.46.46,0,0,0-.46.45h0v3.69a.47.47,0,0,0,.46.46h2.93v9.3a.45.45,0,0,0,.45.45h3.82a.45.45,0,0,0,.45-.45h0v-9.3H153a.46.46,0,0,0,.45-.46v-3.69a.46.46,0,0,0-.46-.46h-3.41v-2.15c0-1,.24-1.57,1.6-1.57h2a.45.45,0,0,0,.45-.45v-3.43a.45.45,0,0,0-.45-.46Z"/></g></g></g><g id="Layer_2-3" data-name="Layer 2-3"><g id="Layer_1-3-2" data-name="Layer 1-3"><g id="Path_46" data-name="Path 46"><path class="cls-8" d="M196,1674.9a4.5,4.5,0,1,0,4.49,4.51h0A4.5,4.5,0,0,0,196,1674.9Zm0,7.42a2.92,2.92,0,1,1,2.92-2.92,2.94,2.94,0,0,1-2.92,2.92Z"/></g><g id="Path_47" data-name="Path 47"><path class="cls-8" d="M200.62,1668.26c-2.06-.1-7.17-.09-9.24,0a6.75,6.75,0,0,0-4.71,1.81c-2.15,2.16-1.88,5.07-1.88,9.32s-.24,7.2,1.88,9.33,5.11,1.88,9.33,1.88,5.81,0,7.34-.58c2.08-.81,3.65-2.67,3.81-6,.1-2.07.09-7.18,0-9.24C207,1670.84,204.84,1668.45,200.62,1668.26Zm3.26,19c-1.41,1.42-3.37,1.29-7.91,1.29s-6.55.07-7.91-1.3c-1.58-1.57-1.29-4.09-1.29-7.9,0-5.17-.53-8.88,4.65-9.15,1.19,0,1.54-.06,4.54-.06l0,0c5,0,8.88-.52,9.12,4.66.06,1.18.07,1.54.07,4.53,0,4.62.09,6.5-1.3,7.9Z"/></g><g id="Ellipse_2" data-name="Ellipse 2"><circle class="cls-8" cx="201.8" cy="1673.61" r="1.65"/></g></g></g><g id="智品設計股份有限公司"><path class="cls-8" d="M144.77,1553.48a18.63,18.63,0,0,0-1.71-1.21A3.9,3.9,0,0,1,141,1554a2.51,2.51,0,0,0-.31-.35,3.13,3.13,0,0,0,2.14-2h-2.07v-.42h2.15a3.54,3.54,0,0,0,0-.45v-.67h-1.05a5.69,5.69,0,0,1-.67,1l-.4-.25a5.38,5.38,0,0,0,1.15-2l.45.1c-.09.26-.2.54-.31.79H145v.42h-1.58v.67c0,.15,0,.29,0,.45h1.87v.42H143.3l-.09.3c.42.23,1.59,1,1.87,1.18Zm-2.5.32h5.91v4h-.49v-.36h-4.95v.39h-.47Zm.47.42v1.18h4.95v-1.18Zm4.95,2.8v-1.22h-4.95V1557Zm1.34-7.36v3.27H145.7v-3.27Zm-.48.44h-2.39v2.39h2.39Z"/><path class="cls-8" d="M152.12,1553.58h3.39v4.16H155v-.47h-2.45v.57h-.46Zm.46.45v2.78H155V1554Zm6.27-1.65h-5.23v-3.15h5.23Zm-.48-2.68h-4.28v2.22h4.28Zm2,3.88v4.19h-.47v-.5h-2.68v.57h-.47v-4.26Zm-.47,3.23V1554h-2.68v2.78Z"/><path class="cls-8" d="M166.47,1550.94h-3.72v-.43h3.72Zm-2.89,6.27v.5h-.44v-3.34h2.91v2.84Zm2.46-5.42v.41h-2.88v-.41Zm-2.87,1.29h2.89v.41h-2.89Zm.41,1.72v2h2v-2Zm1.07-4.54a7.76,7.76,0,0,0-.78-1.31l.39-.2a7.62,7.62,0,0,1,.79,1.27Zm6.47,3.11a6.43,6.43,0,0,1-1.88,2.85,6.75,6.75,0,0,0,2.52,1.19,1.73,1.73,0,0,0-.3.43,7,7,0,0,1-2.59-1.31,8.18,8.18,0,0,1-2.57,1.33,1.48,1.48,0,0,0-.27-.43,7.45,7.45,0,0,0,2.48-1.22,6.72,6.72,0,0,1-1.61-2.42l.29-.09h-.8v-.46h4.33l.09,0Zm-3.23-3.08a2.92,2.92,0,0,1-1.4,2.63,2.1,2.1,0,0,0-.31-.35,2.5,2.5,0,0,0,1.26-2.28v-1.11h2.85v2.4c0,.28,0,.36.17.36h.71a2.34,2.34,0,0,0,.39,0c0,.12,0,.32.06.43a1.92,1.92,0,0,1-.45,0h-.73c-.49,0-.6-.2-.6-.81v-1.93h-2Zm-.57,3.41a6.05,6.05,0,0,0,1.56,2.21,5.68,5.68,0,0,0,1.61-2.21Z"/><path class="cls-8" d="M178,1550.94H173.9v-.43H178Zm-3.63.85h3.2v.41h-3.2Zm3.16,1.7h-3.16v-.41h3.16Zm0,3.72h-2.67v.5h-.43v-3.34h3.1Zm-2.67-2.41v2h2.22v-2Zm1-4.54a8,8,0,0,0-.78-1.3l.39-.2a8.68,8.68,0,0,1,.78,1.26Zm6.79,2.54h-2.17v5H180v-5H178v-.47H180V1549h.48v3.35h2.17Z"/><path class="cls-8" d="M188,1557.12c0,.31-.08.46-.28.55a4.41,4.41,0,0,1-1.25.09,2.53,2.53,0,0,0-.16-.46c.51,0,.94,0,1.06,0s.19,0,.19-.2V1554l-1.47.87-.25-.44c.45-.2,1.08-.52,1.72-.86v-3.9h-1.68v3.1a12,12,0,0,1-.86,5.13,2.28,2.28,0,0,0-.39-.24,11.37,11.37,0,0,0,.8-4.89v-3.55H188Zm-.81-4.46a10.11,10.11,0,0,0-1.26-1.35l.32-.23a11.18,11.18,0,0,1,1.29,1.31Zm6.12.69a6.55,6.55,0,0,1-1.92,2.9,6.14,6.14,0,0,0,2.34,1.17,1.91,1.91,0,0,0-.33.42,6.42,6.42,0,0,1-2.37-1.29,8.58,8.58,0,0,1-2.51,1.3,2,2,0,0,0-.27-.42,7.55,7.55,0,0,0,2.43-1.2,6.89,6.89,0,0,1-1.61-2.53h-.46v-.46h4.31l.09,0Zm-3.2-3a2.9,2.9,0,0,1-1.42,2.62,1.45,1.45,0,0,0-.31-.34,2.52,2.52,0,0,0,1.28-2.29v-1.11h2.85v2.41c0,.28,0,.35.16.35h.64a2.34,2.34,0,0,0,.38,0,2.06,2.06,0,0,1,0,.42,1.48,1.48,0,0,1-.41,0h-.67c-.49,0-.6-.2-.6-.79v-1.94H190.1Zm-.58,3.4A6.25,6.25,0,0,0,191,1556a6.17,6.17,0,0,0,1.65-2.25Z"/><path class="cls-8" d="M198.47,1549a16,16,0,0,1-1.07,2.2v6.67h-.48v-5.92a10.51,10.51,0,0,1-1.2,1.46,2.55,2.55,0,0,0-.3-.42,12,12,0,0,0,2.6-4.11Zm5.1,3.94s0,.18,0,.25c-.16,3-.3,4-.6,4.34a.71.71,0,0,1-.58.24,8.87,8.87,0,0,1-1.12,0,1.06,1.06,0,0,0-.13-.45c.48,0,.92,0,1.09,0s.25,0,.34-.12.39-1.22.52-3.83h-2c-.24,2.19-.93,3.56-2.41,4.46a1.47,1.47,0,0,0-.34-.37c1.43-.78,2.06-2.09,2.26-4.09h-1.29v-.46Zm-2.82-3.49a7.55,7.55,0,0,1-2.05,3.62,1.68,1.68,0,0,0-.34-.37,6.77,6.77,0,0,0,1.92-3.35Zm2.09-.24a6,6,0,0,0,1.8,3.42,2.2,2.2,0,0,0-.33.44,6.64,6.64,0,0,1-1.84-3.39h-1.32v-.47Z"/><path class="cls-8" d="M210.1,1550.6a10.79,10.79,0,0,1-.74,1.38h5v5.14c0,.36-.08.52-.36.6a7.69,7.69,0,0,1-1.72.09,3.47,3.47,0,0,0-.17-.48c.74,0,1.36,0,1.55,0s.23-.06.23-.23v-1.29h-4.61a3.61,3.61,0,0,1-1,2.06,1.48,1.48,0,0,0-.33-.38,4,4,0,0,0,.92-2.92v-1.87a8.14,8.14,0,0,1-1.85,1.81,3.26,3.26,0,0,0-.29-.36,8.92,8.92,0,0,0,2.87-3.56H206.9v-.46h2.9a11.23,11.23,0,0,0,.47-1.34l.47.11a12.82,12.82,0,0,1-.44,1.23h5.25v.46Zm3.76,4.78v-1.28h-4.52v.49c0,.25,0,.51,0,.79Zm0-3h-4.52v1.25h4.52Z"/><path class="cls-8" d="M221,1549.39c-.31.8-.71,1.77-1.07,2.57a3.22,3.22,0,0,1,1,2.24,1.3,1.3,0,0,1-.36,1.07,1,1,0,0,1-.49.17,5.15,5.15,0,0,1-.68,0,1,1,0,0,0-.15-.44c.26,0,.49,0,.67,0a.64.64,0,0,0,.33-.1.93.93,0,0,0,.24-.75,3.12,3.12,0,0,0-1-2.15c.35-.79.7-1.67.94-2.36h-1.76v8.18h-.44v-8.63h2.41l.08,0Zm5.54,4.9a14.39,14.39,0,0,1-1.92,1.3,4.5,4.5,0,0,0,2.12,1.74,4.71,4.71,0,0,0-.33.42,5.91,5.91,0,0,1-3.14-4.23h-1.18v3.58l2-.51a2.94,2.94,0,0,0,0,.44,13.36,13.36,0,0,0-2.56.8,2,2,0,0,0-.23-.43.61.61,0,0,0,.31-.61v-7.53H226v4.26h-2.22a7,7,0,0,0,.69,1.71,13.28,13.28,0,0,0,1.8-1.26Zm-4.45-4.59v1.45h3.38v-1.45Zm0,3.38h3.38v-1.5h-3.38Z"/><path class="cls-8" d="M232,1549.28a12.1,12.1,0,0,1-2.91,4.2,3,3,0,0,0-.42-.36,10.4,10.4,0,0,0,2.83-4Zm2.83,4.88a29.58,29.58,0,0,1,2.27,3.32l-.46.25c-.14-.27-.33-.59-.54-.93-5.44.33-5.91.35-6.22.47a2.69,2.69,0,0,0-.18-.52c.21,0,.53-.41.92-.9a27.87,27.87,0,0,0,2.57-4l.5.23a29.69,29.69,0,0,1-3.08,4.6l5.2-.28c-.44-.69-1-1.41-1.41-2Zm.24-5.11a7.8,7.8,0,0,0,2.7,4,2.4,2.4,0,0,0-.38.4,8.33,8.33,0,0,1-2.68-4h-2v-.48Z"/><path class="cls-8" d="M248,1557c0,.42-.1.61-.4.7a9.13,9.13,0,0,1-1.82.08,1.9,1.9,0,0,0-.18-.52c.76,0,1.47,0,1.67,0s.25-.07.25-.25v-7h-7.33v-.46H248Zm-1.71-5.34H240.2v-.45h6.06Zm-.78,4.35h-4.1v.74h-.47v-3.81h4.57Zm-4.1-2.64v2.2H245v-2.2Z"/></g><g id="zhipindesign" class="cls-3"><path class="cls-8" d="M144.08,1542.48l3.06-4.52h-2.73v-.49h3.48v.31l-3.06,4.51H148v.5h-3.91Z"/><path class="cls-8" d="M150.29,1534.85h.58v3.44a2.56,2.56,0,0,1,1.81-1c1.11,0,1.62.69,1.62,2.06v3.4h-.58v-3.32c0-1.11-.35-1.62-1.17-1.62a2.3,2.3,0,0,0-1.67,1v4h-.58Z"/><path class="cls-8" d="M157,1535.76a.46.46,0,0,1,.49-.48.47.47,0,1,1-.49.48Zm.19,1.71h.58v5.32h-.58Z"/><path class="cls-8" d="M160.75,1537.47h.47l.08.65h0a3.07,3.07,0,0,1,1.77-.79c1.42,0,2.14,1.08,2.14,2.72,0,1.81-1.1,2.87-2.35,2.87a2.61,2.61,0,0,1-1.56-.65v2.9h-.58Zm3.86,2.58c0-1.28-.44-2.21-1.63-2.21a2.63,2.63,0,0,0-1.65.85v3.07a2.4,2.4,0,0,0,1.5.65C163.87,1542.41,164.61,1541.47,164.61,1540.05Z"/><path class="cls-8" d="M167.61,1535.76a.46.46,0,0,1,.49-.48.47.47,0,1,1,0,.94A.47.47,0,0,1,167.61,1535.76Zm.19,1.71h.58v5.32h-.58Z"/><path class="cls-8" d="M171.37,1537.47h.48l.07.81h0a2.62,2.62,0,0,1,1.82-1c1.11,0,1.62.69,1.62,2.06v3.4h-.58v-3.32c0-1.11-.35-1.62-1.17-1.62-.62,0-1.06.32-1.68,1v4h-.57Z"/><path class="cls-8" d="M177.86,1540.14a2.54,2.54,0,0,1,2.35-2.81,2.39,2.39,0,0,1,1.59.65l0-1v-2.17h.58v7.94h-.48l-.07-.67h0a2.47,2.47,0,0,1-1.71.8C178.72,1542.92,177.86,1541.92,177.86,1540.14Zm3.9,1.43v-3.07a2.15,2.15,0,0,0-1.49-.66,2.06,2.06,0,0,0-1.8,2.3c0,1.37.62,2.27,1.69,2.27A2.23,2.23,0,0,0,181.76,1541.57Z"/><path class="cls-8" d="M184.91,1540.14a2.54,2.54,0,0,1,2.33-2.81c1.29,0,2.06.92,2.06,2.48a2.86,2.86,0,0,1,0,.42H185.5a2,2,0,0,0,1.94,2.2,2.39,2.39,0,0,0,1.42-.46l.22.43a3,3,0,0,1-1.7.52A2.51,2.51,0,0,1,184.91,1540.14Zm3.86-.37c0-1.29-.59-1.94-1.52-1.94a1.89,1.89,0,0,0-1.75,1.94Z"/><path class="cls-8" d="M191.08,1542.19l.31-.42a2.42,2.42,0,0,0,1.67.67c.81,0,1.22-.46,1.22-1s-.67-.91-1.29-1.14c-.79-.27-1.66-.6-1.66-1.52s.63-1.44,1.74-1.44a2.57,2.57,0,0,1,1.55.57l-.3.4a2,2,0,0,0-1.27-.48c-.79,0-1.15.44-1.15.92s.62.81,1.24,1c.82.3,1.72.59,1.72,1.62,0,.82-.65,1.52-1.83,1.52A3.12,3.12,0,0,1,191.08,1542.19Z"/><path class="cls-8" d="M197.06,1535.76a.49.49,0,1,1,.49.46A.46.46,0,0,1,197.06,1535.76Zm.19,1.71h.57v5.32h-.57Z"/><path class="cls-8" d="M200.37,1543.87a1.63,1.63,0,0,1,.79-1.27v0a1,1,0,0,1-.48-.86,1.33,1.33,0,0,1,.59-1v0a1.88,1.88,0,0,1-.67-1.44,1.85,1.85,0,0,1,1.9-1.89,1.9,1.9,0,0,1,.71.14H205v.48h-1.2a1.7,1.7,0,0,1,.55,1.28,1.83,1.83,0,0,1-1.88,1.87,1.69,1.69,0,0,1-.86-.22.92.92,0,0,0-.42.74c0,.38.23.67,1,.67h1.12c1.21,0,1.78.38,1.78,1.23s-1,1.81-2.56,1.81C201.23,1545.33,200.37,1544.77,200.37,1543.87Zm4.17-.27c0-.57-.42-.78-1.21-.78h-1.09a3.75,3.75,0,0,1-.67-.09,1.32,1.32,0,0,0-.65,1.07c0,.65.62,1.09,1.71,1.09S204.54,1544.24,204.54,1543.6Zm-.72-4.38a1.32,1.32,0,1,0-2.64,0,1.33,1.33,0,1,0,2.64,0Z"/><path class="cls-8" d="M207.25,1537.47h.47l.08.81h0a2.62,2.62,0,0,1,1.82-1c1.11,0,1.62.69,1.62,2.06v3.4h-.58v-3.32c0-1.11-.35-1.62-1.17-1.62-.62,0-1.06.32-1.68,1v4h-.57Z"/></g><g id="Layer_2-5" data-name="Layer 2-5"><g id="Layer_1-5" data-name="Layer 1-5"><g id="Path_56" data-name="Path 56"><path class="cls-8" d="M229.77,1531.4H217.19a.22.22,0,0,0-.24.22.24.24,0,0,0,.09.2l1.45,1a1.17,1.17,0,0,0,.65.21h6.79a.25.25,0,0,1,.28.24.24.24,0,0,1-.11.23l-10.26,7.37a.71.71,0,0,0,.47,1.28h3.18l2.33-1.67h-1.66a.26.26,0,0,1-.28-.24.25.25,0,0,1,.1-.23l10.26-7.37a.71.71,0,0,0,.16-1A.72.72,0,0,0,229.77,1531.4Zm8.58,4.3a3,3,0,0,0-2.06-.79H233a1.93,1.93,0,0,0-1.14.36l-9.6,6.92h2.34a1.7,1.7,0,0,0,1-.32l6.88-4.94a2,2,0,0,1,1.14-.36h2.61a1.17,1.17,0,0,1,1.21,1.13v.38a2.53,2.53,0,0,1-2.62,2.44h-3.07l-2.32,1.67h4.87a4.78,4.78,0,0,0,4.94-4.59A2.57,2.57,0,0,0,238.35,1535.7Z"/></g></g></g><g id="Vacuum_forming_service-2" data-name="Vacuum forming service" class="cls-3"><g class="cls-3"><path class="cls-4" d="M185.45,723.4h-7.22v3.53c0,1.1-.31,1.57-1.06,1.82a12.59,12.59,0,0,1-3.82.29,7.36,7.36,0,0,0-.7-1.66c1.44.06,2.88.06,3.29,0s.54-.13.54-.51V723.4h-7.24v-1.64h7.24v-2.55h-6V717.6h6v-2.44c-1.92.16-3.89.28-5.71.36a4.78,4.78,0,0,0-.39-1.46,63.53,63.53,0,0,0,12.13-1.48l1.25,1.37a37.15,37.15,0,0,1-5.53,1v2.64h6.19v1.61h-6.19v2.55h7.22Z"/><path class="cls-4" d="M203.86,726.1v1.68H187.75V726.1h7v-9.86H188.7v-1.73h14.23v1.73h-6.27v9.86Z"/><path class="cls-4" d="M217.18,725.2a45,45,0,0,1,5.26,2.63l-1.3,1.23a39.19,39.19,0,0,0-5.22-2.81l1-1h-5.76l1.44,1a22,22,0,0,1-5.4,2.88,10.6,10.6,0,0,0-1.2-1.23A17.23,17.23,0,0,0,211,725.2H206.2v-1.51h2.61V713.43h11.05v10.26h2.47v1.51Zm-6.7-10.42v1.28h7.64v-1.28Zm7.64,2.5h-7.64v1.26h7.64Zm-7.64,2.5v1.3h7.64v-1.3Zm0,3.91h7.64v-1.37h-7.64Z"/></g></g><path class="cls-5" d="M180.54,924.24a10.87,10.87,0,0,1-3.16,3.1,18,18,0,0,0,5.07,1.81,4.88,4.88,0,0,0-.63.88,18.45,18.45,0,0,1-5.34-2.14,22.13,22.13,0,0,1-5.68,2.19,3.19,3.19,0,0,0-.47-.87,20.58,20.58,0,0,0,5.28-1.9,11.79,11.79,0,0,1-2.13-1.88,13.55,13.55,0,0,1-2.07,1.6,7.25,7.25,0,0,0-.74-.72,10.8,10.8,0,0,0,4.11-3.94l.92.33a9.58,9.58,0,0,1-.78,1.14h4.79l.16-.05Zm-8,5.49h7.64v4.64h-1v-.56h-5.68v.6h-1Zm1,.9v2.31h5.68v-2.31Zm.56-5.81a10.56,10.56,0,0,0,2.38,2A10.38,10.38,0,0,0,179,924.7h-4.8Z"/><path class="cls-5" d="M195.42,933.28v.79h-7.69v-.79h3.55v-1h-2.83v-.78h2.83v-.92H188.6v-4.15h2.68v-.89h-3.22v-.79h3.22v-.82c-.94.08-1.9.12-2.77.15a2.16,2.16,0,0,0-.19-.65,10.74,10.74,0,0,1-1.62.5v2.2h1.68v.92H186.7v.77c.4.35,1.51,1.51,1.77,1.81l-.6.75a14.23,14.23,0,0,0-1.17-1.6v5.51h-.94v-5.65A13.56,13.56,0,0,1,183.9,932a4.93,4.93,0,0,0-.52-.89,13.44,13.44,0,0,0,2.24-4.07h-2v-.92h2.1v-2c-.65.14-1.31.25-1.92.34a2.86,2.86,0,0,0-.3-.76,18.93,18.93,0,0,0,4.13-1l.67.67a39,39,0,0,0,6.25-.68l.61.7a24.21,24.21,0,0,1-3,.47v.91h3v.79h-3v.89H195v4.15h-2.74v.92H195v.78h-2.78v1Zm-6-5.12h1.82v-1h-1.82Zm1.82,1.69v-1h-1.82v1Zm.93-2.69v1h1.86v-1Zm1.86,1.67h-1.86v1h1.86Z"/><path class="cls-5" d="M208.34,932.4v1H196.75v-1H202v-7.47h-4.55v-1h10.27v1H203v7.47Z"/><path class="cls-5" d="M214.27,932.18a17.14,17.14,0,0,1-3.91,2.17,5.18,5.18,0,0,0-.69-.72,12.6,12.6,0,0,0,3.71-2Zm7.15-.68H209.83v-.88h1.95V923.1h7.8v7.52h1.84Zm-8.7-7.59V925h5.86v-1.1Zm5.86,1.84h-5.86v1.1h5.86Zm-5.86,1.84v1.13h5.86v-1.13Zm0,3h5.86v-1.17h-5.86Zm4.84,1a35.33,35.33,0,0,1,3.93,2l-.76.72a27.21,27.21,0,0,0-3.77-2.08Z"/><path class="cls-5" d="M270.71,439.05v1h-.86v-5a8.21,8.21,0,0,1-.93,1.35,4,4,0,0,0-.41-1,11.75,11.75,0,0,0,2.09-5h-1.71v-.89h4.68v.89h-2.06a19.6,19.6,0,0,1-.91,3.1h2.64v5.56Zm0-4.71v3.84h1.66v-3.84ZM280,435.4c-1,2.75-3,4.41-6.36,5.25a2.7,2.7,0,0,0-.54-.86c3.12-.67,5.1-2.16,6-4.65Zm-4.47-4.21a17.49,17.49,0,0,1-1.08,4.1,8.88,8.88,0,0,0-.82-.39,14.49,14.49,0,0,0,1-3.88Zm1.87,5.61h-.92v-8h.92Zm2.32-2.14a16.21,16.21,0,0,0-1.43-3.54l.8-.29a15.8,15.8,0,0,1,1.51,3.51Z"/><path class="cls-5" d="M286.2,432a10.58,10.58,0,0,1-1,1.59v7.06h-.93v-6a13.28,13.28,0,0,1-1.5,1.43,6.46,6.46,0,0,0-.52-.95,11.59,11.59,0,0,0,3.15-3.51Zm-.15-2.83a13,13,0,0,1-3.15,3.09,5.35,5.35,0,0,0-.49-.78,9.91,9.91,0,0,0,2.73-2.66Zm3.44,1.3v-1.63h1v1.63h3.66v.89h-3.66V433h3.06v.88h-7.25V433h3.21v-1.63h-3.73v-.89Zm4.66,5.73h-1.81v3.31c0,.58-.13.84-.55,1a7.22,7.22,0,0,1-2.14.15,3.56,3.56,0,0,0-.33-.91c.81,0,1.55,0,1.77,0s.27-.07.27-.25v-3.3h-5.44v-.88h5.44v-1.07h1v1.07h1.81Zm-6.41.4a15.93,15.93,0,0,1,1.65,2.2l-.84.49a14.77,14.77,0,0,0-1.61-2.26Z"/><path class="cls-5" d="M299,435.75c-.13-.35-.41-1-.69-1.51v6.44h-.84v-6.19a14.48,14.48,0,0,1-1.22,3.4,6.57,6.57,0,0,0-.42-.93,16.64,16.64,0,0,0,1.56-4.75h-1.3v-.91h1.38v-2.49h.84v2.49h1v.91h-1v.85c.29.45,1,1.66,1.16,2Zm8,1a7.47,7.47,0,0,1-1.6,2.08,1.89,1.89,0,0,0,1.35.94c.27,0,.44-.47.55-1.41a2.7,2.7,0,0,0,.65.5c-.25,1.41-.65,1.89-1.17,1.86a2.66,2.66,0,0,1-2.06-1.33,10.8,10.8,0,0,1-2.27,1.26,3.59,3.59,0,0,0-.52-.61,9.59,9.59,0,0,0,2.42-1.35,12.84,12.84,0,0,1-.76-2.38h-2.12v.19c0,.09,0,.2,0,.3a20.66,20.66,0,0,1,1.79,1.55l-.59.59a17.17,17.17,0,0,0-1.32-1.23,5,5,0,0,1-1.91,3,2.65,2.65,0,0,0-.63-.58,4.37,4.37,0,0,0,1.84-3.67v-.18h-1v-.78h3.8a51.25,51.25,0,0,1-.56-6.58h.83a44.4,44.4,0,0,0,.58,6.58h1.85a9.94,9.94,0,0,0-1.15-.83l.49-.46a9,9,0,0,1,1.35.94l-.34.35h1.08v.78h-3.13a10.74,10.74,0,0,0,.56,1.78,6.13,6.13,0,0,0,1.16-1.64Zm-4.6-1.95-.15-.55a9.91,9.91,0,0,0-2.34.45,3.32,3.32,0,0,0-.22-.73,1.57,1.57,0,0,0,.67-.59c.13-.15.46-.61.83-1.17a5.39,5.39,0,0,0-1.39.28,5.83,5.83,0,0,0-.22-.72c.15,0,.31-.21.48-.48a11,11,0,0,0,1.09-2.24l.73.24a14.1,14.1,0,0,1-1.3,2.35l1-.1c.16-.29.32-.57.45-.87l.7.27a17.17,17.17,0,0,1-1.95,2.87l1.26-.17c-.09-.28-.2-.56-.3-.82l.61-.16a11.89,11.89,0,0,1,.66,1.92Zm4.69-.22c0-.16-.09-.36-.17-.59a10.7,10.7,0,0,0-2.35.46,7.5,7.5,0,0,0-.26-.75c.21,0,.4-.26.65-.58a11.4,11.4,0,0,0,.78-1.15,4.71,4.71,0,0,0-1.32.26,4.42,4.42,0,0,0-.24-.73c.15,0,.3-.18.45-.43a9.37,9.37,0,0,0,.94-2l.73.22a13.7,13.7,0,0,1-1.13,2.13l.94-.1a8.48,8.48,0,0,0,.46-.9l.74.27a17.73,17.73,0,0,1-1.9,2.92l1.3-.19-.31-.78.59-.17a15.39,15.39,0,0,1,.72,1.93Z"/><path class="cls-5" d="M95.39,439.19c-1.49.38-3.06.77-4.2,1l-.19-.87c.51-.09,1.17-.24,1.92-.4v-3.77H91.15v-.83h1.77v-1.42H91.79v-.52l-.55.55a10.48,10.48,0,0,0-.39-1,9.49,9.49,0,0,0,2.44-3.25l.69.34c-.08.18-.17.36-.27.56a12.42,12.42,0,0,1,1.87,1.56l-.42.77a11.8,11.8,0,0,0-1.84-1.64,13.82,13.82,0,0,1-1.26,1.78h2.79v.83H93.68v1.42h1.59v.83H93.68v3.6l1.64-.38ZM92,435.87a16.06,16.06,0,0,1,.48,2.37l-.63.21a14.32,14.32,0,0,0-.45-2.4ZM94,438.09a19.49,19.49,0,0,0,.52-2.37l.68.24c-.21.8-.44,1.75-.65,2.35Zm4.27,1.25c-.93.48-2.12,1-3,1.36-.1-.19-.28-.5-.42-.71a19.75,19.75,0,0,0,2.65-1.28Zm-1.94-8.93a4,4,0,0,1-.38.71,2.49,2.49,0,0,0-.56-.32,4.72,4.72,0,0,0,.69-1.86l.64.13c0,.23-.1.45-.17.69h.47v-.95h.69v.95h1v.65h-1v.79h1.09v.66h-.62V433l.63-.27a5.36,5.36,0,0,0,.16.52,6.11,6.11,0,0,0-1.51.86,1.93,1.93,0,0,0-.3-.61.84.84,0,0,0,.35-.79v-.8H97a2.67,2.67,0,0,1-1.27,2.22,1.93,1.93,0,0,0-.46-.53,2,2,0,0,0,1-1.69h-.68v-.66h1.43v-.79Zm-.1,3.65H102v4.64H96.26Zm.89,1.34h3.94v-.72H97.15Zm0,1.34h3.94V436H97.15Zm0,1.34h3.94v-.75H97.15Zm4.93-4.84a.25.25,0,0,0,.17,0s.07-.06.1-.16a3.78,3.78,0,0,0,.06-.58,1.78,1.78,0,0,0,.48.23,3.87,3.87,0,0,1-.12.78.47.47,0,0,1-.26.26.83.83,0,0,1-.39.08h-.43a.76.76,0,0,1-.53-.18c-.12-.13-.16-.29-.16-.79v-1h-.49A2.31,2.31,0,0,1,99.22,434a2.26,2.26,0,0,0-.44-.53,1.66,1.66,0,0,0,1-1.6h-.74v-.66h1.51v-.81h-.76a3.3,3.3,0,0,1-.35.73,3.2,3.2,0,0,0-.54-.32,4.82,4.82,0,0,0,.63-1.86l.63.13a6.2,6.2,0,0,1-.16.69h.55v-.95h.7v.95h1.23v.63h-1.23v.81h1.47v.66h-1.08v1.05c0,.16,0,.24,0,.28s.07.05.13.05Zm-2,5.47c.91.43,1.92,1,2.56,1.33l-.49.66c-.62-.37-1.62-.93-2.5-1.38Z"/><path class="cls-5" d="M106.55,431.41v2.42c0,2-.17,4.87-1.23,6.82a4.7,4.7,0,0,0-.82-.55c1-1.84,1.1-4.44,1.1-6.29v-3.33h5.23a11.08,11.08,0,0,0-.71-1.48l1-.26a10.85,10.85,0,0,1,.87,1.74h4.36v.93Zm5.92,3.29a11.79,11.79,0,0,0,4.08,4.13,4.05,4.05,0,0,0-.7.78,13.63,13.63,0,0,1-3.8-4v5.07h-1v-5.1a12.21,12.21,0,0,1-3.86,4.15,3.78,3.78,0,0,0-.67-.77,11,11,0,0,0,4.07-4.27h-3.46v-.93h3.92v-1.95h1v1.95h4.15v.93Z"/><path class="cls-5" d="M249.8,1229.33c.38,0,.46-.17.51-1.11a2.58,2.58,0,0,0,.9.36c-.12,1.29-.41,1.67-1.33,1.67h-2c-1.19,0-1.47-.3-1.47-1.38v-4.52h-2c-.23,3-.86,5.07-4.11,6.2a2.91,2.91,0,0,0-.61-.84c3-.94,3.54-2.79,3.72-5.36h-3.55v-.94h5.1v-4.78h1v4.78H251v.94h-3.63v4.51c0,.4.09.47.61.47Zm-7.15-6.66a17,17,0,0,0-1.87-2.76l.77-.43a19.74,19.74,0,0,1,1.93,2.68Zm7.63-2.76a24.54,24.54,0,0,1-2,2.75l-.81-.36a16,16,0,0,0,1.85-2.78Z"/><path class="cls-5" d="M264.43,1219.24v11.29h-1v-.61h-8.69v.61h-.94v-11.29Zm-1,9.79v-8.88h-8.69V1229Zm-3.88-6v1.48h2.35v3.4h-5.49v-3.4h2.22V1223h-3v-.81h3v-1.48h.92v1.48h3.18v.81Zm1.45,2.25h-3.72v1.86H261Z"/><path class="cls-5" d="M271.21,1219a19.14,19.14,0,0,1-1.3,2.45v9.08H269v-7.7a15.66,15.66,0,0,1-1.76,2,6.22,6.22,0,0,0-.55-1,14.71,14.71,0,0,0,3.65-5.15Zm5.49,10.2c.73,0,.83-.57.93-2.79a2.89,2.89,0,0,0,.9.44c-.15,2.4-.41,3.24-1.78,3.24h-2.47c-1.29,0-1.69-.38-1.69-1.76v-9.48h.94v3.54h4.61v.94h-4.61v5c0,.69.14.84.82.84Z"/><path class="cls-5" d="M280.27,1228.38l.6-.78a3.18,3.18,0,0,0,2.37,1.09,1.75,1.75,0,0,0,1.93-1.77c0-1.14-.76-1.91-3-1.91v-.91c2,0,2.64-.79,2.64-1.82a1.49,1.49,0,0,0-1.61-1.54,3,3,0,0,0-2,1l-.64-.75a3.84,3.84,0,0,1,2.67-1.14c1.6,0,2.77.85,2.77,2.39a2.39,2.39,0,0,1-1.7,2.3v0a2.45,2.45,0,0,1,2,2.42,2.77,2.77,0,0,1-3.05,2.72A4,4,0,0,1,280.27,1228.38Z"/><path class="cls-5" d="M289.06,1220h2.39c2.93,0,4.5,1.7,4.5,4.73s-1.57,4.8-4.45,4.8h-2.44Zm2.29,8.54c2.25,0,3.35-1.4,3.35-3.81s-1.1-3.76-3.35-3.76h-1.08v7.57Z"/><path class="cls-5" d="M298.19,1219.33h6.55v.93h-3.51c-.16.68-.33,1.33-.53,2h2.91l.17,0,.58.19c-.64,4.47-2.64,7-5.37,8.23a2.78,2.78,0,0,0-.58-.82,7.27,7.27,0,0,0,3.3-2.68,22.06,22.06,0,0,0-2.37-1.93,6,6,0,0,1-.63.9,5.27,5.27,0,0,0-.64-.79,12,12,0,0,0,2.21-5h-2.09Zm2.17,3.78a9.61,9.61,0,0,1-.56,1.26,24.44,24.44,0,0,1,2.43,1.86,11.13,11.13,0,0,0,1.09-3.12Zm6.26,4.25h-.95v-7.21h.95Zm2.68-8.67v10.56c0,.61-.17.87-.53,1a5.56,5.56,0,0,1-2,.19,3.87,3.87,0,0,0-.32-.94h1.58c.21,0,.29-.08.29-.28v-10.56Z"/><path class="cls-5" d="M313.32,1227.65l3.69-1.11.13.86c-1.81.59-3.74,1.2-5.16,1.63l-.22-1,.61-.17v-7.76a20.14,20.14,0,0,0,3.78-1.25l.76.77a23.44,23.44,0,0,1-3.59,1.1v2.42h3.6v.93h-3.6Zm9.61-.41c0,.56-.12.9-.52,1.07a5.9,5.9,0,0,1-2,.2,4.63,4.63,0,0,0-.39-1c.79,0,1.5,0,1.71,0s.27-.07.27-.27v-6.73h-3.21v10h-.95v-10.91h5.13Z"/><path class="cls-5" d="M328.23,1225.57c-.13-.35-.42-1-.69-1.51v6.43h-.84v-6.18a14,14,0,0,1-1.23,3.4,6.54,6.54,0,0,0-.41-.93,16.75,16.75,0,0,0,1.56-4.75h-1.3v-.91h1.38v-2.49h.84v2.49h1v.91h-1v.85c.29.45,1,1.66,1.16,2Zm8,1a7.66,7.66,0,0,1-1.6,2.08,1.87,1.87,0,0,0,1.35.94c.27,0,.44-.47.55-1.41a3.19,3.19,0,0,0,.64.5c-.24,1.41-.64,1.89-1.17,1.85a2.6,2.6,0,0,1-2-1.32,10.8,10.8,0,0,1-2.27,1.26,3.59,3.59,0,0,0-.52-.61,9.7,9.7,0,0,0,2.41-1.35,14,14,0,0,1-.75-2.38h-2.12v.19c0,.09,0,.2,0,.3a20.66,20.66,0,0,1,1.79,1.55l-.6.58c-.3-.31-.8-.79-1.31-1.22a5.06,5.06,0,0,1-1.91,3,2.69,2.69,0,0,0-.64-.58,4.38,4.38,0,0,0,1.85-3.67v-.18h-1v-.78h3.8a51.25,51.25,0,0,1-.56-6.58h.83a44.67,44.67,0,0,0,.57,6.58h1.86a8.35,8.35,0,0,0-1.16-.83l.5-.46a8.83,8.83,0,0,1,1.35.94l-.34.35h1.08v.78h-3.13a11.05,11.05,0,0,0,.56,1.78,6,6,0,0,0,1.15-1.64Zm-4.61-2c0-.16-.09-.34-.14-.55a9.73,9.73,0,0,0-2.34.45,3.32,3.32,0,0,0-.22-.73c.18,0,.4-.26.66-.59a13,13,0,0,0,.83-1.17,5.54,5.54,0,0,0-1.39.28,3.67,3.67,0,0,0-.22-.72c.16,0,.32-.21.48-.48a10.38,10.38,0,0,0,1.1-2.24l.72.24a12.8,12.8,0,0,1-1.3,2.35l1-.1c.16-.29.31-.58.44-.87l.7.27a17.17,17.17,0,0,1-1.95,2.87l1.27-.17c-.09-.28-.2-.56-.3-.82l.61-.17a12.3,12.3,0,0,1,.66,1.93Zm4.7-.22a5.72,5.72,0,0,0-.17-.59,10.94,10.94,0,0,0-2.36.46,6.25,6.25,0,0,0-.26-.76c.21,0,.41-.26.65-.57a9.51,9.51,0,0,0,.78-1.15,4.57,4.57,0,0,0-1.31.26,5.61,5.61,0,0,0-.24-.73c.15,0,.29-.18.45-.43a9.88,9.88,0,0,0,.94-2l.72.22a12.19,12.19,0,0,1-1.13,2.13l.95-.1a8.48,8.48,0,0,0,.46-.9l.74.27a17.84,17.84,0,0,1-1.9,2.91l1.3-.18-.31-.78.58-.17a14.13,14.13,0,0,1,.73,1.93Z"/><path class="cls-5" d="M232,1242.7l-4.64,1.37-.24-.93c.56-.14,1.25-.32,2-.54v-3.15h-1.64v-.9h1.64v-2.75h-1.78v-.9h4.48v.9H230v2.75h1.61v.9H230v2.89l1.78-.51Zm6,2.51c.31,0,.38-.19.41-1.53a2.6,2.6,0,0,0,.83.37c-.08,1.59-.33,2-1.13,2h-1.17c-.94,0-1.17-.26-1.17-1.19v-2.94h-1.26c-.25,2.11-.94,3.55-3.49,4.34a3,3,0,0,0-.58-.83c2.32-.63,2.9-1.8,3.1-3.51h-1.15v-7.1h6.08v7.1h-1.78v2.92c0,.33.05.38.38.38Zm-4.7-8.28h4.22v-1.3h-4.22Zm0,2.07h4.22v-1.3h-4.22Zm0,2.09h4.22v-1.31h-4.22Z"/><path class="cls-5" d="M245,1241.87c-1.33.65-2.74,1.33-3.85,1.85l-.38-1c.48-.2,1.1-.46,1.76-.76v-4.08H241V1237h1.51v-2.69h.91V1237h1.43v.91h-1.43v3.67l1.31-.6Zm2.37-1.5a5.85,5.85,0,0,1-.55.9h5.59s0,.26,0,.4c-.2,2.7-.41,3.7-.78,4.07a1,1,0,0,1-.79.34,9.09,9.09,0,0,1-1.27,0,2,2,0,0,0-.24-.77c.5,0,1,0,1.15,0s.31,0,.41-.12.42-1.09.59-3.15h-1a8.88,8.88,0,0,1-2.69,4.09,3.11,3.11,0,0,0-.67-.58,7.82,7.82,0,0,0,2.56-3.51h-1.26a10,10,0,0,1-3.2,3.53,3.06,3.06,0,0,0-.61-.64,8.43,8.43,0,0,0,2.93-2.89H246.2a9.12,9.12,0,0,1-1.77,1.55,5.59,5.59,0,0,0-.65-.63,7.31,7.31,0,0,0,2.62-2.62h-1.8v-.83h8.1v.83Zm4.45-1.54h-5.95v-4.21h5.95Zm-.89-3.49h-4.19v1h4.19Zm0,1.71h-4.19v1h4.19Z"/><path class="cls-5" d="M258.48,1234.49a19.93,19.93,0,0,1-1.34,2.7v9h-.92v-7.58a13.78,13.78,0,0,1-1.43,1.69,5.45,5.45,0,0,0-.55-.94,14.52,14.52,0,0,0,3.33-5.13Zm4.12,6.9a5.27,5.27,0,0,1-.86,2.49,13.17,13.17,0,0,0,4.79,1.38,3.48,3.48,0,0,0-.58.87,13.07,13.07,0,0,1-4.78-1.57,7,7,0,0,1-2.94,1.59,3.24,3.24,0,0,0-.58-.8,6.42,6.42,0,0,0,2.74-1.31,7.06,7.06,0,0,1-1.88-2.12l.8-.26a5.4,5.4,0,0,0,1.64,1.73,4.41,4.41,0,0,0,.7-2h-3.14v-3.56h3.21v-1.28h-3.59v-.88h3.59v-1.39h.95v1.39h3.74v.88h-3.74v1.28H266v3.56Zm-.9-.82a5.72,5.72,0,0,0,0-.58v-1.34H259.4v1.92Zm1-1.92V1240a5.72,5.72,0,0,1,0,.58h2.41v-1.92Z"/><path class="cls-5" d="M279.08,1244.79c0,.63-.16.91-.58,1.08a8.42,8.42,0,0,1-2.42.16,3.87,3.87,0,0,0-.32-.94c.91,0,1.79,0,2,0s.35-.09.35-.34v-2.64h-3.5V1246h-1v-3.84h-3.25a7.46,7.46,0,0,1-1.63,4,3,3,0,0,0-.74-.63c1.43-1.62,1.56-3.9,1.56-5.71v-4.68h9.46Zm-5.4-3.57v-2.16h-3.11v.77c0,.43,0,.91-.05,1.39Zm-3.11-5.15v2.08h3.11v-2.08Zm7.57,0h-3.5v2.08h3.5Zm0,5.15v-2.16h-3.5v2.16Z"/><path class="cls-5" d="M286.1,1235.58h1.25l3.47,6,1,2h.06c-.06-1-.15-2-.15-3v-5h1.14v9.53h-1.23l-3.48-6-1-2h-.05c.05,1,.14,2,.14,3v5H286.1Z"/><path class="cls-5" d="M298.13,1236.59h-2.89v-1h7v1h-2.88v8.52h-1.21Z"/><path class="cls-5" d="M308.79,1237.48a2.29,2.29,0,0,0-1.77-.82,1.35,1.35,0,0,0-1.47,1.4c0,2.12,4.07,1.53,4.07,4.65a2.45,2.45,0,0,1-2.25,2.53v1.47h-.86v-1.45a4.52,4.52,0,0,1-2.48-1.11l.56-.81a3.47,3.47,0,0,0,2.24,1,1.43,1.43,0,0,0,1.63-1.5c0-2.36-4.06-1.84-4.06-4.68a2.34,2.34,0,0,1,2.11-2.4v-1.47h.86v1.44a3.24,3.24,0,0,1,2.06,1.09Z"/><path class="cls-5" d="M312.29,1244.12h2.12V1237h-1.69v-.76a5.89,5.89,0,0,0,2-.67h.91v8.54h1.91v1h-5.22Z"/><path class="cls-5" d="M319.58,1244.41c3-2.62,4.37-4.52,4.37-6.15a1.68,1.68,0,0,0-1.76-1.89,2.64,2.64,0,0,0-2,1.11l-.69-.68a3.62,3.62,0,0,1,2.8-1.4,2.61,2.61,0,0,1,2.77,2.82c0,1.9-1.49,3.83-3.73,6,.5,0,1.08-.09,1.56-.09h2.64v1h-6Z"/><path class="cls-5" d="M327.51,1240.31c0-3.32,1.16-4.91,3-4.91s3,1.61,3,4.91-1.16,5-3,5S327.51,1243.62,327.51,1240.31Zm4.78,0c0-2.78-.72-4-1.8-4s-1.82,1.17-1.82,4,.72,4,1.82,4S332.29,1243.12,332.29,1240.31Z"/><path class="cls-5" d="M338.78,1234.8h.86l-3.89,12.63h-.87Z"/><path class="cls-5" d="M341.78,1235.58H343v4h4.45v-4h1.19v9.53h-1.19v-4.5H343v4.5h-1.21Z"/><path class="cls-5" d="M165.74,1039.54c.48.4,1.61,1.43,1.89,1.69l-.52.7c-.27-.33-.88-1-1.37-1.44v3.84h-.88v-3.94a10.83,10.83,0,0,1-1.7,2.84,3.92,3.92,0,0,0-.47-.85,11.4,11.4,0,0,0,2-3.35h-1.85v-.84h2.05v-1.42H163v-.84h1.82v-1.25c-.62.13-1.24.23-1.84.3a3.28,3.28,0,0,0-.27-.69c.68-.12,1.43-.25,2.11-.42v-1.41h.88v1.19a7,7,0,0,0,1.24-.45l.72.67a9.63,9.63,0,0,1-2,.61v1.45h1.57v.84h-1.57v1.42h1.84v.84h-1.84Zm7.47,3.74c.46,0,.55-.35.6-1.84a2.5,2.5,0,0,0,.88.4c-.1,1.77-.37,2.34-1.43,2.34h-2c-1.14,0-1.45-.32-1.45-1.6v-2.13l-2,.34-.13-.86,2.13-.36v-2.06l-1.77.32-.14-.86,1.91-.34v-2.12c-.66.17-1.34.31-2,.44a2.53,2.53,0,0,0-.31-.74,25.65,25.65,0,0,0,5.42-1.68l.81.71a21.54,21.54,0,0,1-3,1v2.18l3.3-.56.13.86-3.43.6v2.05l3.83-.64.13.85-4,.68v2.3c0,.57.09.68.62.68Z"/><path class="cls-5" d="M181.3,1039.75c-.29-.47-1-1.38-1.5-2.08v6.64h-1v-6.24a13.32,13.32,0,0,1-2.07,3.89,4.16,4.16,0,0,0-.53-.91,13,13,0,0,0,2.46-4.89h-2v-.92h2.16v-2.78h1v2.78h1.77v.92H179.8v.34c.48.52,1.78,2,2.11,2.42Zm7-3.58h-1.33V1043c0,.67-.17,1-.6,1.11a7.56,7.56,0,0,1-2.29.19,4.52,4.52,0,0,0-.35-1c.84,0,1.68,0,1.92,0s.33-.08.33-.31v-5.54a15.89,15.89,0,0,1-3.94,4.78,4.65,4.65,0,0,0-.69-.78,14.22,14.22,0,0,0,4.29-5.32h-3.54v-.92h3.88v-2.77h1v2.77h1.33Z"/><path class="cls-5" d="M196.39,1039.49c-.1.32-.22.65-.34.94h4.88v3c0,.44-.08.66-.42.8a3.64,3.64,0,0,1-1.49.16,6.08,6.08,0,0,0-.3-.81,9.23,9.23,0,0,0,1.09,0c.14,0,.18,0,.18-.17v-2.14h-2v3h-.88v-3h-2v3h-.89v-3h-1.92v3.09h-.93v-3.88h3.75c.09-.3.19-.63.27-.94h-5v-.79h11.3v.79Zm-4.94-2h-.92v-2.77h5v-1h-4.4V1033h9.8v.74h-4.46v1h5.06v2.77h-1v-2h-4.11v2.84h-.94v-2.84h-4Zm.23.19c.81-.09,1.91-.26,3.08-.43l0,.61c-1,.21-2,.41-2.83.56Zm.61-2a13.25,13.25,0,0,1,2.5.67l-.27.59a13.68,13.68,0,0,0-2.51-.74Zm7.71,2.75a18.23,18.23,0,0,0-3-.69l.24-.58a16.24,16.24,0,0,1,3,.62Zm0-2.26a15.07,15.07,0,0,1-2.54.71l-.34-.49a22.21,22.21,0,0,0,2.46-.78Z"/><path class="cls-5" d="M214.55,1039.48c-.19,2.82-.38,3.92-.77,4.34a1.41,1.41,0,0,1-1,.4,18,18,0,0,1-2,0,2.15,2.15,0,0,0-.34-1c.82.08,1.64.09,1.95.09a.71.71,0,0,0,.54-.14c.27-.25.45-1.14.61-3.26h-4c-.57,2-1.86,3.6-5.17,4.42a2.63,2.63,0,0,0-.55-.85c3-.67,4.13-1.93,4.68-3.57h-4.06V1039h4.28c.09-.42.14-.89.2-1.36h1c0,.47-.12.94-.19,1.36h4.87Zm-.48-2.3h-8.83v-4.11h8.83Zm-1-3.19h-6.88v2.26h6.88Z"/><path class="cls-5" d="M219.44,1041.52a7.74,7.74,0,0,1-1.5,2.9,3.65,3.65,0,0,0-.69-.58,5.69,5.69,0,0,0,1.32-2.52Zm2.16-.48h-3.67v-8.12h3.67Zm-.88-7.31h-1.94v1.64h1.94Zm0,2.41h-1.94v1.67h1.94Zm0,2.41h-1.94v1.69h1.94Zm.19,2.73a11,11,0,0,1,1.1,2l-.76.41a11.25,11.25,0,0,0-1.06-2.06Zm8.33.91h-.77v1.19c0,.46-.11.71-.46.84a6.73,6.73,0,0,1-1.88.13,3.22,3.22,0,0,0-.27-.79c.65,0,1.3,0,1.48,0s.24,0,.24-.21v-1.17h-4.11v2.15h-.87v-2.15h-.84v-.74h.84v-3.31h2.45v-.73H221.8v-.74h1.88v-.87h-1.23v-.7h1.23v-.77H222.1v-.74h1.58v-1.11h.85v1.11h1.93v-1.11h.87v1.11h1.55v.74h-1.55v.77h1.38v.7h-1.38v.87h1.83v.74h-3.25v.73h2.56v3.31h.77Zm-5.77-3.31v.91h1.58v-.91Zm0,2.57h1.58v-1h-1.58Zm1.06-6.35h1.93v-.77h-1.93Zm0,1.57h1.93v-.87h-1.93Zm1.38,2.21v.91h1.67v-.91Zm1.67,2.57v-1h-1.67v1Z"/><path class="cls-5" d="M60,1220h5.5v1H61.25v3.23h3.64v1H61.25v4.28H60Z"/><path class="cls-5" d="M67.87,1220h2.39c2.93,0,4.5,1.7,4.5,4.73s-1.57,4.8-4.44,4.8H67.87Zm2.29,8.54c2.25,0,3.35-1.4,3.35-3.81s-1.1-3.76-3.35-3.76H69.08v7.57Z"/><path class="cls-5" d="M77.45,1220h1.46l1.83,5.09c.22.67.44,1.33.68,2h.06c.22-.66.43-1.32.65-2L84,1220h1.46v9.53H84.28v-5.28c0-.82.09-2,.15-2.81h-.05l-.75,2.17-1.81,5H81l-1.8-5-.76-2.17h0c0,.83.14,2,.14,2.81v5.28H77.45Z"/><path class="cls-5" d="M91.3,1228.38l.59-.78a3.18,3.18,0,0,0,2.37,1.09,1.76,1.76,0,0,0,1.94-1.77c0-1.14-.77-1.91-3-1.91v-.91c2,0,2.64-.79,2.64-1.82a1.49,1.49,0,0,0-1.61-1.54,3,3,0,0,0-2,1l-.63-.75a3.81,3.81,0,0,1,2.66-1.14c1.6,0,2.77.85,2.77,2.39a2.39,2.39,0,0,1-1.7,2.3v0a2.46,2.46,0,0,1,2,2.42,2.78,2.78,0,0,1-3.06,2.72A4,4,0,0,1,91.3,1228.38Z"/><path class="cls-5" d="M100.08,1220h2.4c2.92,0,4.49,1.7,4.49,4.73s-1.57,4.8-4.44,4.8h-2.45Zm2.29,8.54c2.25,0,3.36-1.4,3.36-3.81s-1.11-3.76-3.36-3.76h-1.08v7.57Z"/><path class="cls-5" d="M109.21,1219.33h6.55v.93h-3.51a18.49,18.49,0,0,1-.53,2h2.91l.17,0,.59.19c-.64,4.47-2.64,7-5.37,8.23a3,3,0,0,0-.59-.82,7.27,7.27,0,0,0,3.3-2.68,21.88,21.88,0,0,0-2.36-1.93,6.87,6.87,0,0,1-.64.9,4.71,4.71,0,0,0-.64-.79,12,12,0,0,0,2.21-5h-2.09Zm2.17,3.78a8.45,8.45,0,0,1-.56,1.26,24.44,24.44,0,0,1,2.43,1.86,11.14,11.14,0,0,0,1.1-3.12Zm6.27,4.25h-1v-7.21h1Zm2.68-8.67v10.56c0,.61-.17.87-.54,1a5.49,5.49,0,0,1-2,.19,3.91,3.91,0,0,0-.33-.94h1.59c.21,0,.28-.08.28-.28v-10.56Z"/><path class="cls-5" d="M124.34,1227.65l3.69-1.11.13.86c-1.8.59-3.74,1.2-5.16,1.63l-.22-1,.61-.17v-7.76a20.51,20.51,0,0,0,3.79-1.25l.75.77a23.44,23.44,0,0,1-3.59,1.1v2.42h3.6v.93h-3.6Zm9.61-.41c0,.56-.12.9-.52,1.07a5.84,5.84,0,0,1-2,.2,4.18,4.18,0,0,0-.39-1c.79,0,1.51,0,1.71,0s.28-.07.28-.27v-6.73h-3.21v10h-.95v-10.91H134Z"/><path class="cls-5" d="M139.25,1225.57c-.13-.35-.41-1-.69-1.51v6.43h-.84v-6.18a14.48,14.48,0,0,1-1.22,3.4,6.57,6.57,0,0,0-.42-.93,16.75,16.75,0,0,0,1.56-4.75h-1.3v-.91h1.38v-2.49h.84v2.49h1v.91h-1v.85c.29.45,1,1.66,1.16,2Zm8,1a7.47,7.47,0,0,1-1.6,2.08,1.89,1.89,0,0,0,1.35.94c.28,0,.44-.47.55-1.41a3,3,0,0,0,.65.5c-.25,1.41-.65,1.89-1.17,1.85a2.62,2.62,0,0,1-2.06-1.32,10.8,10.8,0,0,1-2.27,1.26,3.19,3.19,0,0,0-.52-.61,9.59,9.59,0,0,0,2.42-1.35,13.09,13.09,0,0,1-.76-2.38h-2.12v.19c0,.09,0,.2,0,.3a20.93,20.93,0,0,1,1.8,1.55l-.6.58c-.3-.31-.81-.79-1.32-1.22a5,5,0,0,1-1.91,3,2.65,2.65,0,0,0-.63-.58,4.37,4.37,0,0,0,1.84-3.67v-.18h-1v-.78h3.8a51.25,51.25,0,0,1-.56-6.58h.83a46.08,46.08,0,0,0,.57,6.58h1.86a8.88,8.88,0,0,0-1.15-.83l.49-.46a8.36,8.36,0,0,1,1.35.94l-.33.35h1.07v.78h-3.13a11.05,11.05,0,0,0,.56,1.78,6.29,6.29,0,0,0,1.16-1.64Zm-4.6-2c0-.16-.09-.34-.15-.55a10.09,10.09,0,0,0-2.34.45,3.32,3.32,0,0,0-.22-.73,1.57,1.57,0,0,0,.67-.59c.13-.15.46-.61.83-1.17a5.39,5.39,0,0,0-1.39.28,5.83,5.83,0,0,0-.22-.72c.15,0,.31-.21.48-.48a11,11,0,0,0,1.09-2.24l.73.24a14.1,14.1,0,0,1-1.3,2.35l1-.1c.16-.29.32-.58.45-.87l.7.27a17.17,17.17,0,0,1-2,2.87l1.26-.17c-.09-.28-.2-.56-.3-.82l.61-.17a12.3,12.3,0,0,1,.66,1.93Zm4.69-.22a5.72,5.72,0,0,0-.17-.59,10.7,10.7,0,0,0-2.35.46c-.05-.16-.17-.56-.26-.76.21,0,.4-.26.65-.57a12.76,12.76,0,0,0,.78-1.15,4.57,4.57,0,0,0-1.31.26,5.77,5.77,0,0,0-.25-.73c.15,0,.3-.18.45-.43a9.37,9.37,0,0,0,.94-2l.73.22a13.7,13.7,0,0,1-1.13,2.13l1-.1c.16-.29.32-.6.45-.9l.74.27a17.21,17.21,0,0,1-1.9,2.91l1.3-.18c-.1-.26-.2-.53-.31-.78l.59-.17a15.39,15.39,0,0,1,.72,1.93Z"/><path class="cls-5" d="M51.3,1242.7l-4.64,1.37-.23-.93c.56-.14,1.25-.32,2-.54v-3.15H46.81v-.9h1.63v-2.75H46.66v-.9h4.49v.9H49.38v2.75H51v.9H49.38v2.89l1.78-.51Zm6,2.51c.31,0,.37-.19.4-1.53a2.7,2.7,0,0,0,.83.37c-.08,1.59-.32,2-1.13,2H56.23c-.94,0-1.17-.26-1.17-1.19v-2.94H53.8c-.25,2.11-.94,3.55-3.48,4.34a3,3,0,0,0-.59-.83c2.33-.63,2.9-1.8,3.11-3.51H51.68v-7.1h6.08v7.1H56v2.92c0,.33.06.38.38.38Zm-4.71-8.28h4.23v-1.3H52.59Zm0,2.07h4.23v-1.3H52.59Zm0,2.09h4.23v-1.31H52.59Z"/><path class="cls-5" d="M64.34,1241.87c-1.32.65-2.74,1.33-3.85,1.85l-.37-1c.48-.2,1.09-.46,1.75-.76v-4.08H60.36V1237h1.51v-2.69h.91V1237h1.43v.91H62.78v3.67l1.32-.6Zm2.37-1.5a5.85,5.85,0,0,1-.55.9h5.59s0,.26,0,.4c-.21,2.7-.42,3.7-.78,4.07a1,1,0,0,1-.8.34,9.08,9.08,0,0,1-1.27,0,1.85,1.85,0,0,0-.23-.77c.49,0,1,0,1.14,0a.51.51,0,0,0,.42-.12c.22-.24.41-1.09.58-3.15h-1a9,9,0,0,1-2.69,4.09,3.16,3.16,0,0,0-.68-.58,7.75,7.75,0,0,0,2.56-3.51H67.71a10,10,0,0,1-3.2,3.53,3.06,3.06,0,0,0-.61-.64,8.46,8.46,0,0,0,2.94-2.89h-1.3a8.83,8.83,0,0,1-1.77,1.55,4.89,4.89,0,0,0-.65-.63,7.42,7.42,0,0,0,2.63-2.62H63.94v-.83H72v.83Zm4.46-1.54h-6v-4.21h6Zm-.9-3.49H66.08v1h4.19Zm0,1.71H66.08v1h4.19Z"/><path class="cls-5" d="M77.82,1234.49a19.93,19.93,0,0,1-1.34,2.7v9h-.92v-7.58a13,13,0,0,1-1.43,1.69,4.87,4.87,0,0,0-.55-.94,14.39,14.39,0,0,0,3.33-5.13Zm4.12,6.9a5.26,5.26,0,0,1-.85,2.49,13.11,13.11,0,0,0,4.78,1.38,3.44,3.44,0,0,0-.57.87,13.13,13.13,0,0,1-4.79-1.57,6.92,6.92,0,0,1-2.93,1.59,3.58,3.58,0,0,0-.59-.8,6.3,6.3,0,0,0,2.74-1.31,7.2,7.2,0,0,1-1.88-2.12l.81-.26a5.26,5.26,0,0,0,1.63,1.73,4.41,4.41,0,0,0,.7-2H77.85v-3.56h3.21v-1.28H77.47v-.88h3.59v-1.39h1v1.39h3.74v.88H82v1.28h3.31v3.56Zm-.89-.82c0-.2,0-.39,0-.58v-1.34H78.75v1.92Zm1-1.92V1240c0,.19,0,.38,0,.58h2.4v-1.92Z"/><path class="cls-5" d="M98.43,1244.79c0,.63-.17.91-.59,1.08a8.34,8.34,0,0,1-2.41.16,3.91,3.91,0,0,0-.33-.94c.91,0,1.79,0,2,0s.35-.09.35-.34v-2.64H94V1246H93v-3.84H89.77a7.44,7.44,0,0,1-1.62,4,3.22,3.22,0,0,0-.75-.63c1.43-1.62,1.56-3.9,1.56-5.71v-4.68h9.47ZM93,1241.22v-2.16H89.91v.77c0,.43,0,.91,0,1.39Zm-3.11-5.15v2.08H93v-2.08Zm7.57,0H94v2.08h3.5Zm0,5.15v-2.16H94v2.16Z"/><path class="cls-5" d="M105.45,1235.58h1.25l3.47,6,1,2h.07c-.07-1-.16-2-.16-3v-5h1.14v9.53H111l-3.47-6-1-2h0c0,1,.14,2,.14,3v5h-1.14Z"/><path class="cls-5" d="M117.47,1236.59h-2.88v-1h7v1h-2.89v8.52h-1.21Z"/><path class="cls-5" d="M128.13,1237.48a2.27,2.27,0,0,0-1.76-.82,1.35,1.35,0,0,0-1.47,1.4c0,2.12,4.07,1.53,4.07,4.65a2.45,2.45,0,0,1-2.25,2.53v1.47h-.86v-1.45a4.55,4.55,0,0,1-2.49-1.11l.56-.81a3.49,3.49,0,0,0,2.24,1,1.44,1.44,0,0,0,1.64-1.5c0-2.36-4.07-1.84-4.07-4.68a2.34,2.34,0,0,1,2.12-2.4v-1.47h.86v1.44a3.24,3.24,0,0,1,2.05,1.09Z"/><path class="cls-5" d="M131.07,1242.74a3,3,0,0,1,1.76-2.62v-.07a2.64,2.64,0,0,1-1.29-2.2,2.62,2.62,0,0,1,5.23.09,3.11,3.11,0,0,1-1.28,2.3v.07a2.79,2.79,0,0,1,1.61,2.5c0,1.39-1.19,2.47-3,2.47S131.07,1244.21,131.07,1242.74Zm4.9,0c0-1.27-1.17-1.75-2.52-2.3a2.58,2.58,0,0,0-1.3,2.16,1.82,1.82,0,0,0,2,1.75A1.65,1.65,0,0,0,136,1242.78Zm-.22-4.77a1.59,1.59,0,0,0-1.62-1.7,1.46,1.46,0,0,0-1.51,1.54c0,1.15,1,1.64,2.14,2.08A2.55,2.55,0,0,0,135.75,1238Z"/><path class="cls-5" d="M139,1240.31c0-3.32,1.15-4.91,3-4.91s3,1.61,3,4.91-1.16,5-3,5S139,1243.62,139,1240.31Zm4.78,0c0-2.78-.73-4-1.81-4s-1.82,1.17-1.82,4,.73,4,1.82,4S143.77,1243.12,143.77,1240.31Z"/><path class="cls-5" d="M150.26,1234.8h.86l-3.89,12.63h-.87Z"/><path class="cls-5" d="M153.26,1235.58h1.21v4h4.45v-4h1.19v9.53h-1.19v-4.5h-4.45v4.5h-1.21Z"/><path class="cls-5" d="M266.73,1425H255.27v-.82h1.85v-5.84h3.12c.05-.25.1-.52.13-.82h-4.73v-.83h4.85c.05-.39.09-.79.11-1.12l1,.12-.17,1h4.94v.83h-5.08c-.05.3-.1.57-.16.82h3.75v5.84h1.82Zm-6.87.8a16.89,16.89,0,0,1-3.92,1.67,6.13,6.13,0,0,0-.67-.68,15.3,15.3,0,0,0,3.75-1.53Zm-1.8-6.8v.88H264V1419Zm5.89,1.5h-5.89v.74H264Zm-5.89,1.37v.77H264v-.77Zm0,2.31H264v-.91h-5.89Zm4.74,1a30.8,30.8,0,0,1,4,1.55l-.78.67a24.42,24.42,0,0,0-3.8-1.6Z"/><path class="cls-5" d="M275.18,1426.3h5v.92H269.15v-.92h5v-2.8h-3.87v-.91H279v.91h-3.79Zm-5.06-6.27h-.95v-2.9h5.07a9.55,9.55,0,0,0-.64-1.28l1-.29a11.86,11.86,0,0,1,.82,1.57h4.66v2.59h-1V1418h-2.55v2.08c0,.36.07.49.43.49h2.23a5.7,5.7,0,0,0,1-.08c0,.26.07.64.1.86a4.7,4.7,0,0,1-1.09.08H277c-1.08,0-1.37-.35-1.37-1.37V1418h-1.66c-.2,2.29-.92,3.36-4.13,3.9a2.47,2.47,0,0,0-.46-.78c2.87-.42,3.45-1.26,3.61-3.12h-2.83Z"/><path class="cls-5" d="M293.33,1420a14.79,14.79,0,0,1-2.29,4.4c.48,1.27,1.08,2,1.74,2,.36,0,.52-.67.61-2.4a2.31,2.31,0,0,0,.83.52c-.18,2.21-.53,2.84-1.52,2.84s-1.78-.79-2.38-2.13a11.45,11.45,0,0,1-2.68,2.16,5.48,5.48,0,0,0-.7-.77,10.31,10.31,0,0,0,3-2.4,25.5,25.5,0,0,1-.95-5.48H284.5v1.69h3.31v.42c-.06,2.91-.14,4-.41,4.34a1,1,0,0,1-.78.38,13.06,13.06,0,0,1-1.55,0,2.05,2.05,0,0,0-.27-.91c.6,0,1.15.06,1.37.06s.32,0,.4-.14.24-1,.29-3.25H284.5v.11c0,1.82-.2,4.43-1.37,6.12a3.8,3.8,0,0,0-.8-.65c1.06-1.59,1.18-3.81,1.18-5.49v-3.62h5.42c-.05-.72-.06-1.45-.08-2.19h1c0,.76,0,1.48.06,2.19h4.2v.94H290a22.89,22.89,0,0,0,.72,4.52,12.92,12.92,0,0,0,1.66-3.51Zm-2.25-4.34a12.4,12.4,0,0,1,2.32,1.48l-.59.67a13.21,13.21,0,0,0-2.31-1.56Z"/><path class="cls-5" d="M307.78,1426.16v.91H296.11v-.91h5.42v-1.64h-4.08v-.89h4.08v-1.45h1v1.45h3.93v.89H302.5v1.64Zm-8.94-6.5a4.17,4.17,0,0,1-1.95,3.1,4.5,4.5,0,0,0-.64-.67,3.39,3.39,0,0,0,1.69-2.43h-1.57v-.86H298V1417H296.8v-.86h5.82v.86h-1.21v1.78h1.47v.86h-1.47v2.78h-.91v-2.78Zm.06-.86h1.6V1417h-1.6v1.78Zm5.68,1.9h-.89v-4.33h.89Zm2.43.8c0,.53-.1.78-.49.94a6.71,6.71,0,0,1-1.94.15,3.13,3.13,0,0,0-.32-.88,12.94,12.94,0,0,0,1.58,0c.2,0,.25,0,.25-.23v-5.76H307Z"/><path class="cls-5" d="M312.68,1422.57c-.13-.35-.41-1-.69-1.51v6.43h-.84v-6.18a14.48,14.48,0,0,1-1.22,3.4,6.57,6.57,0,0,0-.42-.93,16.75,16.75,0,0,0,1.56-4.75h-1.3v-.91h1.38v-2.49H312v2.49h1v.91h-1v.85c.29.45,1,1.66,1.16,2Zm8,1a7.47,7.47,0,0,1-1.6,2.08,1.89,1.89,0,0,0,1.35.94c.27,0,.44-.47.55-1.41a3,3,0,0,0,.65.5c-.25,1.41-.65,1.89-1.17,1.85a2.62,2.62,0,0,1-2.06-1.32,10.8,10.8,0,0,1-2.27,1.26,3.59,3.59,0,0,0-.52-.61,9.76,9.76,0,0,0,2.42-1.35,13.09,13.09,0,0,1-.76-2.38h-2.12v.19c0,.09,0,.2,0,.3a20.66,20.66,0,0,1,1.79,1.55l-.59.58c-.3-.31-.81-.79-1.32-1.22a5,5,0,0,1-1.91,3,2.52,2.52,0,0,0-.64-.58,4.35,4.35,0,0,0,1.85-3.67v-.18h-1v-.78h3.8a51.25,51.25,0,0,1-.56-6.58h.83a46.08,46.08,0,0,0,.57,6.58h1.86a8.88,8.88,0,0,0-1.15-.83l.49-.46a8.83,8.83,0,0,1,1.35.94l-.34.35h1.08v.78h-3.13a11.05,11.05,0,0,0,.56,1.78,6.29,6.29,0,0,0,1.16-1.64Zm-4.6-2c0-.16-.09-.34-.15-.55a9.91,9.91,0,0,0-2.34.45,3.32,3.32,0,0,0-.22-.73,1.51,1.51,0,0,0,.66-.59c.13-.15.47-.61.84-1.17a5.39,5.39,0,0,0-1.39.28,4.59,4.59,0,0,0-.23-.72c.16,0,.32-.21.49-.48a11,11,0,0,0,1.09-2.24l.73.24a14.1,14.1,0,0,1-1.3,2.35l1-.1c.16-.29.31-.58.44-.87l.71.27a17.17,17.17,0,0,1-1.95,2.87l1.26-.17c-.09-.28-.2-.56-.3-.82l.61-.17a12.3,12.3,0,0,1,.66,1.93Zm4.69-.22a5.72,5.72,0,0,0-.17-.59,10.49,10.49,0,0,0-2.35.46c0-.16-.17-.56-.26-.76.21,0,.4-.26.65-.57a12.76,12.76,0,0,0,.78-1.15,4.6,4.6,0,0,0-1.32.26,4.42,4.42,0,0,0-.24-.73c.15,0,.3-.18.45-.43a9.88,9.88,0,0,0,.94-2l.73.22a12.92,12.92,0,0,1-1.14,2.13l.95-.1a8.48,8.48,0,0,0,.46-.9l.74.27a17.84,17.84,0,0,1-1.9,2.91l1.3-.18-.31-.78.58-.17a14.13,14.13,0,0,1,.73,1.93Z"/><path class="cls-5" d="M216.4,1439.7l-4.64,1.37-.24-.93c.56-.14,1.25-.32,2-.54v-3.15H211.9v-.9h1.64v-2.75h-1.78v-.9h4.48v.9h-1.77v2.75h1.62v.9h-1.62v2.89l1.78-.51Zm6,2.51c.31,0,.38-.19.4-1.53a2.76,2.76,0,0,0,.84.37c-.08,1.59-.33,2-1.14,2h-1.16c-.94,0-1.17-.26-1.17-1.19v-2.94h-1.27c-.24,2.11-.93,3.55-3.48,4.34a3,3,0,0,0-.58-.83c2.32-.63,2.89-1.8,3.1-3.51h-1.15v-7.1h6.08v7.1h-1.78v2.92c0,.33,0,.38.37.38Zm-4.7-8.28h4.22v-1.3h-4.22Zm0,2.07h4.22v-1.3h-4.22Zm0,2.09h4.22v-1.31h-4.22Z"/><path class="cls-5" d="M229.44,1438.87c-1.33.65-2.75,1.33-3.85,1.85l-.38-1c.48-.2,1.09-.46,1.76-.76v-4.08h-1.51V1434H227v-2.69h.91V1434h1.43v.91h-1.43v3.67l1.31-.6Zm2.36-1.5a5.11,5.11,0,0,1-.54.9h5.59l0,.4c-.21,2.7-.41,3.7-.78,4.07a1,1,0,0,1-.79.34,9.23,9.23,0,0,1-1.28,0,1.85,1.85,0,0,0-.23-.77c.49,0,1,0,1.14,0s.32,0,.42-.12.42-1.09.59-3.15h-1a8.88,8.88,0,0,1-2.69,4.09,2.94,2.94,0,0,0-.68-.58,7.77,7.77,0,0,0,2.57-3.51H232.8a9.9,9.9,0,0,1-3.19,3.53,3.34,3.34,0,0,0-.61-.64,8.43,8.43,0,0,0,2.93-2.89h-1.3a8.78,8.78,0,0,1-1.76,1.55,5.59,5.59,0,0,0-.65-.63,7.31,7.31,0,0,0,2.62-2.62H229v-.83h8.1v.83Zm4.46-1.54h-5.95v-4.21h5.95Zm-.89-3.49h-4.19v1h4.19Zm0,1.71h-4.19v1h4.19Z"/><path class="cls-5" d="M242.92,1431.49a21.18,21.18,0,0,1-1.34,2.7v9h-.92v-7.58a13.78,13.78,0,0,1-1.43,1.69,6.18,6.18,0,0,0-.55-.94,14.66,14.66,0,0,0,3.33-5.13Zm4.12,6.9a5.27,5.27,0,0,1-.86,2.49,13.17,13.17,0,0,0,4.78,1.38,3.74,3.74,0,0,0-.57.87,13.07,13.07,0,0,1-4.78-1.57,7,7,0,0,1-2.94,1.59,3.52,3.52,0,0,0-.58-.8,6.42,6.42,0,0,0,2.74-1.31,7.1,7.1,0,0,1-1.89-2.12l.81-.26a5.4,5.4,0,0,0,1.64,1.73,4.53,4.53,0,0,0,.7-2h-3.15v-3.56h3.22v-1.28h-3.59v-.88h3.59v-1.39h.94v1.39h3.75v.88H247.1v1.28h3.32v3.56Zm-.9-.82a5.72,5.72,0,0,0,0-.58v-1.34h-2.32v1.92Zm1-1.92V1437c0,.19,0,.38,0,.58h2.41v-1.92Z"/><path class="cls-5" d="M263.52,1441.79c0,.63-.17.91-.58,1.08a8.42,8.42,0,0,1-2.42.16,3.87,3.87,0,0,0-.32-.94c.91,0,1.79,0,2,0s.35-.09.35-.34v-2.64h-3.49V1443h-1v-3.84h-3.25a7.46,7.46,0,0,1-1.63,4,3,3,0,0,0-.74-.63c1.43-1.62,1.56-3.9,1.56-5.71v-4.68h9.46Zm-5.4-3.57v-2.16H255v.77c0,.43,0,.91,0,1.39Zm-3.11-5.15v2.08h3.11v-2.08Zm7.56,0h-3.49v2.08h3.49Zm0,5.15v-2.16h-3.49v2.16Z"/><path class="cls-5" d="M270.54,1432.58h1.25l3.47,6,1,2h.06c-.06-1-.15-2-.15-3v-5h1.14v9.53h-1.24l-3.47-6-1-2h-.06c.06,1,.15,2,.15,3v5h-1.15Z"/><path class="cls-5" d="M282.57,1433.59h-2.89v-1h7v1h-2.88v8.52h-1.21Z"/><path class="cls-5" d="M293.23,1434.48a2.29,2.29,0,0,0-1.77-.82,1.35,1.35,0,0,0-1.47,1.4c0,2.12,4.07,1.53,4.07,4.65a2.45,2.45,0,0,1-2.25,2.53v1.47H291v-1.45a4.49,4.49,0,0,1-2.48-1.11l.56-.81a3.46,3.46,0,0,0,2.23,1,1.44,1.44,0,0,0,1.64-1.5c0-2.36-4.07-1.84-4.07-4.68a2.34,2.34,0,0,1,2.12-2.4v-1.47h.86v1.44a3.27,3.27,0,0,1,2.06,1.09Z"/><path class="cls-5" d="M296.15,1441.41c3-2.62,4.37-4.52,4.37-6.15a1.67,1.67,0,0,0-1.75-1.89,2.66,2.66,0,0,0-2,1.11l-.69-.68a3.63,3.63,0,0,1,2.81-1.4,2.61,2.61,0,0,1,2.77,2.82c0,1.9-1.5,3.83-3.73,6,.49,0,1.08-.09,1.56-.09h2.64v1h-6Z"/><path class="cls-5" d="M304.08,1437.31c0-3.32,1.16-4.91,3-4.91s3,1.61,3,4.91-1.15,5-3,5S304.08,1440.62,304.08,1437.31Zm4.79,0c0-2.78-.73-4-1.81-4s-1.82,1.17-1.82,4,.73,4,1.82,4S308.87,1440.12,308.87,1437.31Z"/><path class="cls-5" d="M312,1437.31c0-3.32,1.15-4.91,3-4.91s3,1.61,3,4.91-1.16,5-3,5S312,1440.62,312,1437.31Zm4.78,0c0-2.78-.73-4-1.81-4s-1.82,1.17-1.82,4,.73,4,1.82,4S316.73,1440.12,316.73,1437.31Z"/><path class="cls-5" d="M323.22,1431.8h.86l-3.89,12.63h-.87Z"/><path class="cls-5" d="M326.06,1441.12h2.12V1434h-1.69v-.76a5.87,5.87,0,0,0,2-.67h.91v8.54h1.91v1h-5.23Z"/><path class="cls-5" d="M333.15,1441l.59-.78a3.14,3.14,0,0,0,2.34,1,2.06,2.06,0,0,0,2-2.25,1.92,1.92,0,0,0-2-2.17,2.57,2.57,0,0,0-1.59.56l-.64-.39.3-4.46h4.64v1h-3.6l-.23,2.76a2.66,2.66,0,0,1,1.42-.38,2.72,2.72,0,0,1,2.87,3,3.1,3.1,0,0,1-3.12,3.28A4.09,4.09,0,0,1,333.15,1441Z"/><path class="cls-5" d="M341.85,1435.05h1l.11,1h0a3.12,3.12,0,0,1,2.2-1.21,1.86,1.86,0,0,1,1.95,1.35,3.31,3.31,0,0,1,2.33-1.35c1.45,0,2.14,1,2.14,2.76v4.48H350.4v-4.32c0-1.33-.42-1.88-1.31-1.88a2.59,2.59,0,0,0-1.78,1.08v5.12h-1.19v-4.32c0-1.33-.41-1.88-1.31-1.88A2.61,2.61,0,0,0,343,1437v5.12h-1.18Z"/><path class="cls-5" d="M354.31,1432.83a.82.82,0,0,1,1.64,0,.82.82,0,0,1-1.64,0Zm.23,2.22h1.18v7.06h-1.18Z"/><path class="cls-5" d="M358.76,1435.05h1l.1,1h0a3.37,3.37,0,0,1,2.36-1.19c1.49,0,2.16,1,2.16,2.76v4.48h-1.18v-4.32c0-1.33-.4-1.88-1.34-1.88a2.68,2.68,0,0,0-1.94,1.08v5.12h-1.18Z"/><path class="cls-5" d="M81.89,1417.89v2.78h-1v-2H76.83v3H75.9v-3h-4v2h-.93v-2.78h5v-1H71.5v-.75h9.78v.75H76.83v1ZM72,1422.24h8.77v5.2h-1V1427H73v.57H72Zm0-1.26c.82-.09,1.92-.24,3.08-.43l0,.61-2.83.58Zm.61-2a13.74,13.74,0,0,1,2.5.69l-.28.59a13.44,13.44,0,0,0-2.49-.74Zm.27,4v1.21H75.9V1423Zm2.93,3.21V1425H73v1.25Zm4-3.21h-3v1.21h3Zm0,3.21V1425h-3v1.25Zm.55-4.44a17.39,17.39,0,0,0-3-.71l.23-.58a16.07,16.07,0,0,1,3,.62Zm0-2.28a15,15,0,0,1-2.53.71l-.34-.49a25.4,25.4,0,0,0,2.46-.78Z"/><path class="cls-5" d="M90.45,1422.14c-.28.35-.59.7-.91,1v3.24c0,.53-.13.79-.47.93a5.85,5.85,0,0,1-1.86.17,3.5,3.5,0,0,0-.3-.84c.66,0,1.29,0,1.47,0s.26-.07.26-.26V1424a21.4,21.4,0,0,1-4.21,2.8A4.49,4.49,0,0,0,84,1426a17.14,17.14,0,0,0,4.58-3l-4.35.45-.11-.79,1.09-.09v-5.49h1.29a13.51,13.51,0,0,0,.47-1.45l1,.14c-.17.44-.36.93-.54,1.31h2.17V1422l.15-.2Zm-4.39-4.28V1419h2.58v-1.09Zm2.58,1.84H86.06v1.06h2.58Zm-2.58,2.79c.81-.07,1.69-.14,2.58-.23v-.77H86.06Zm9.87-2.94H94.55v6.74c0,.62-.15.88-.53,1a5.8,5.8,0,0,1-2.11.18,3.21,3.21,0,0,0-.32-.91c.81,0,1.52,0,1.73,0s.31-.08.31-.31v-6.74H90.2v-.93h3.43v-2.94h.92v2.94h1.38ZM92.36,1424a12.49,12.49,0,0,0-1.52-3l.76-.34a12.29,12.29,0,0,1,1.59,3Z"/><path class="cls-5" d="M102.78,1422.91a6.4,6.4,0,0,0,.17.83,21.8,21.8,0,0,0-3.76,1.84,3,3,0,0,0-.45-.84,1.08,1.08,0,0,0,.57-1v-3.54l-1.53.33-.17-.87,1.7-.37v-3.19h.94v3l2.44-.52.17.87-2.61.56V1424Zm6.59-6.14s0,.4,0,.53c-.18,6.59-.32,8.79-.84,9.47a1.34,1.34,0,0,1-1,.56c-.43,0-1.14,0-1.83,0a2.23,2.23,0,0,0-.3-1c.76.06,1.45.06,1.73.06a.53.53,0,0,0,.52-.23c.42-.47.6-2.63.77-8.48h-2.68c-.09,4-.38,7.8-3.74,9.79a2.57,2.57,0,0,0-.72-.75c3.23-1.78,3.43-5.31,3.51-9h-2.09v-.92Z"/><path class="cls-5" d="M115.12,1415.51a6.06,6.06,0,0,1,.74,1.35h2.78v1.92h-.8v-1.19h-5.26v1.26h-.78v-2H115a9.16,9.16,0,0,0-.57-1.07Zm.55,6.37h2.92v.73H111.8v-.73h3V1421h-2v-.73h2v-.79c-.69,0-1.37.08-2,.08a2.86,2.86,0,0,0-.24-.67c.72,0,1.48-.05,2.23-.11v-.8h.91v.71a13.25,13.25,0,0,0,1.56-.26l.63.62a17.38,17.38,0,0,1-2.19.35v.87h2v.73h-2Zm-3.11,1.75h5.32v3.8H117v-.66h-3.66v.74h-.82Zm.82.84v1.58H117v-1.58Zm7-.08h-.81v-7h.81Zm2.38-8.7v10.53c0,.61-.16.87-.5,1a5.83,5.83,0,0,1-2,.18,3.66,3.66,0,0,0-.3-.92c.76,0,1.43,0,1.63,0s.28-.08.28-.3v-10.53Z"/><path class="cls-5" d="M128.09,1422.57c-.13-.35-.41-1-.69-1.51v6.43h-.84v-6.18a14.48,14.48,0,0,1-1.22,3.4,6.57,6.57,0,0,0-.42-.93,16.75,16.75,0,0,0,1.56-4.75h-1.3v-.91h1.38v-2.49h.84v2.49h1v.91h-1v.85c.29.45,1,1.66,1.16,2Zm8,1a7.47,7.47,0,0,1-1.6,2.08,1.89,1.89,0,0,0,1.35.94c.28,0,.44-.47.55-1.41a3,3,0,0,0,.65.5c-.25,1.41-.65,1.89-1.17,1.85a2.62,2.62,0,0,1-2.06-1.32,10.8,10.8,0,0,1-2.27,1.26,3.19,3.19,0,0,0-.52-.61,9.59,9.59,0,0,0,2.42-1.35,13.09,13.09,0,0,1-.76-2.38h-2.12v.19c0,.09,0,.2,0,.3a22.59,22.59,0,0,1,1.8,1.55l-.6.58c-.3-.31-.81-.79-1.32-1.22a5,5,0,0,1-1.91,3,2.65,2.65,0,0,0-.63-.58,4.37,4.37,0,0,0,1.84-3.67v-.18h-1v-.78h3.8a51.25,51.25,0,0,1-.56-6.58h.83a46.08,46.08,0,0,0,.57,6.58h1.86a8.88,8.88,0,0,0-1.15-.83l.49-.46a8.36,8.36,0,0,1,1.35.94l-.33.35h1.07v.78H133.5a11.05,11.05,0,0,0,.56,1.78,6.29,6.29,0,0,0,1.16-1.64Zm-4.6-2c0-.16-.09-.34-.15-.55a10.09,10.09,0,0,0-2.34.45,3.32,3.32,0,0,0-.22-.73,1.57,1.57,0,0,0,.67-.59c.13-.15.46-.61.83-1.17a5.39,5.39,0,0,0-1.39.28,5.83,5.83,0,0,0-.22-.72c.15,0,.31-.21.48-.48a11,11,0,0,0,1.09-2.24l.73.24a14.1,14.1,0,0,1-1.3,2.35l1-.1c.16-.29.32-.58.45-.87l.7.27a17.17,17.17,0,0,1-2,2.87l1.26-.17c-.09-.28-.2-.56-.3-.82l.61-.17a12.3,12.3,0,0,1,.66,1.93Zm4.69-.22a5.72,5.72,0,0,0-.17-.59,10.7,10.7,0,0,0-2.35.46c-.05-.16-.17-.56-.26-.76.21,0,.4-.26.65-.57a12.76,12.76,0,0,0,.78-1.15,4.57,4.57,0,0,0-1.31.26,5.77,5.77,0,0,0-.25-.73c.15,0,.3-.18.45-.43a9.37,9.37,0,0,0,.94-2l.73.22a13.7,13.7,0,0,1-1.13,2.13l.94-.1a8.48,8.48,0,0,0,.46-.9l.74.27a17.21,17.21,0,0,1-1.9,2.91l1.3-.18c-.1-.26-.2-.53-.31-.78l.59-.17a15.39,15.39,0,0,1,.72,1.93Z"/><path class="cls-5" d="M51.3,1439.7l-4.64,1.37-.23-.93c.56-.14,1.25-.32,2-.54v-3.15H46.81v-.9h1.63v-2.75H46.66v-.9h4.49v.9H49.38v2.75H51v.9H49.38v2.89l1.78-.51Zm6,2.51c.31,0,.37-.19.4-1.53a2.7,2.7,0,0,0,.83.37c-.08,1.59-.32,2-1.13,2H56.23c-.94,0-1.17-.26-1.17-1.19v-2.94H53.8c-.25,2.11-.94,3.55-3.48,4.34a3,3,0,0,0-.59-.83c2.33-.63,2.9-1.8,3.11-3.51H51.68v-7.1h6.08v7.1H56v2.92c0,.33.06.38.38.38Zm-4.71-8.28h4.23v-1.3H52.59Zm0,2.07h4.23v-1.3H52.59Zm0,2.09h4.23v-1.31H52.59Z"/><path class="cls-5" d="M64.34,1438.87c-1.32.65-2.74,1.33-3.85,1.85l-.37-1c.48-.2,1.09-.46,1.75-.76v-4.08H60.36V1434h1.51v-2.69h.91V1434h1.43v.91H62.78v3.67l1.32-.6Zm2.37-1.5a5.85,5.85,0,0,1-.55.9h5.59s0,.26,0,.4c-.21,2.7-.42,3.7-.78,4.07a1,1,0,0,1-.8.34,9.08,9.08,0,0,1-1.27,0,1.85,1.85,0,0,0-.23-.77c.49,0,1,0,1.14,0a.51.51,0,0,0,.42-.12c.22-.24.41-1.09.58-3.15h-1a9,9,0,0,1-2.69,4.09,3.16,3.16,0,0,0-.68-.58,7.75,7.75,0,0,0,2.56-3.51H67.71a10,10,0,0,1-3.2,3.53,3.06,3.06,0,0,0-.61-.64,8.46,8.46,0,0,0,2.94-2.89h-1.3a8.83,8.83,0,0,1-1.77,1.55,4.89,4.89,0,0,0-.65-.63,7.42,7.42,0,0,0,2.63-2.62H63.94v-.83H72v.83Zm4.46-1.54h-6v-4.21h6Zm-.9-3.49H66.08v1h4.19Zm0,1.71H66.08v1h4.19Z"/><path class="cls-5" d="M77.82,1431.49a19.93,19.93,0,0,1-1.34,2.7v9h-.92v-7.58a13,13,0,0,1-1.43,1.69,4.87,4.87,0,0,0-.55-.94,14.39,14.39,0,0,0,3.33-5.13Zm4.12,6.9a5.26,5.26,0,0,1-.85,2.49,13.11,13.11,0,0,0,4.78,1.38,3.44,3.44,0,0,0-.57.87,13.13,13.13,0,0,1-4.79-1.57,6.92,6.92,0,0,1-2.93,1.59,3.58,3.58,0,0,0-.59-.8,6.3,6.3,0,0,0,2.74-1.31,7.2,7.2,0,0,1-1.88-2.12l.81-.26a5.26,5.26,0,0,0,1.63,1.73,4.41,4.41,0,0,0,.7-2H77.85v-3.56h3.21v-1.28H77.47v-.88h3.59v-1.39h1v1.39h3.74v.88H82v1.28h3.31v3.56Zm-.89-.82c0-.2,0-.39,0-.58v-1.34H78.75v1.92Zm1-1.92V1437c0,.19,0,.38,0,.58h2.4v-1.92Z"/><path class="cls-5" d="M98.43,1441.79c0,.63-.17.91-.59,1.08a8.34,8.34,0,0,1-2.41.16,3.91,3.91,0,0,0-.33-.94c.91,0,1.79,0,2,0s.35-.09.35-.34v-2.64H94V1443H93v-3.84H89.77a7.44,7.44,0,0,1-1.62,4,3.22,3.22,0,0,0-.75-.63c1.43-1.62,1.56-3.9,1.56-5.71v-4.68h9.47ZM93,1438.22v-2.16H89.91v.77c0,.43,0,.91,0,1.39Zm-3.11-5.15v2.08H93v-2.08Zm7.57,0H94v2.08h3.5Zm0,5.15v-2.16H94v2.16Z"/><path class="cls-5" d="M105.45,1432.58h1.25l3.47,6,1,2h.07c-.07-1-.16-2-.16-3v-5h1.14v9.53H111l-3.47-6-1-2h0c0,1,.14,2,.14,3v5h-1.14Z"/><path class="cls-5" d="M117.47,1433.59h-2.88v-1h7v1h-2.89v8.52h-1.21Z"/><path class="cls-5" d="M128.13,1434.48a2.27,2.27,0,0,0-1.76-.82,1.35,1.35,0,0,0-1.47,1.4c0,2.12,4.07,1.53,4.07,4.65a2.45,2.45,0,0,1-2.25,2.53v1.47h-.86v-1.45a4.55,4.55,0,0,1-2.49-1.11l.56-.81a3.49,3.49,0,0,0,2.24,1,1.44,1.44,0,0,0,1.64-1.5c0-2.36-4.07-1.84-4.07-4.68a2.34,2.34,0,0,1,2.12-2.4v-1.47h.86v1.44a3.24,3.24,0,0,1,2.05,1.09Z"/><path class="cls-5" d="M131.07,1439.74a3,3,0,0,1,1.76-2.62v-.07a2.64,2.64,0,0,1-1.29-2.2,2.62,2.62,0,0,1,5.23.09,3.11,3.11,0,0,1-1.28,2.3v.07a2.79,2.79,0,0,1,1.61,2.5c0,1.39-1.19,2.47-3,2.47S131.07,1441.21,131.07,1439.74Zm4.9,0c0-1.27-1.17-1.75-2.52-2.3a2.58,2.58,0,0,0-1.3,2.16,1.82,1.82,0,0,0,2,1.75A1.65,1.65,0,0,0,136,1439.78Zm-.22-4.77a1.59,1.59,0,0,0-1.62-1.7,1.46,1.46,0,0,0-1.51,1.54c0,1.15,1,1.64,2.14,2.08A2.55,2.55,0,0,0,135.75,1435Z"/><path class="cls-5" d="M139,1437.31c0-3.32,1.15-4.91,3-4.91s3,1.61,3,4.91-1.16,5-3,5S139,1440.62,139,1437.31Zm4.78,0c0-2.78-.73-4-1.81-4s-1.82,1.17-1.82,4,.73,4,1.82,4S143.77,1440.12,143.77,1437.31Z"/><path class="cls-5" d="M150.26,1431.8h.86l-3.89,12.63h-.87Z"/><path class="cls-5" d="M153.26,1432.58h1.21v4h4.45v-4h1.19v9.53h-1.19v-4.5h-4.45v4.5h-1.21Z"/><path class="cls-5" d="M90.59,637h5v.92h-11V637h5v-2.79H85.73v-.91h8.65v.91H90.59Zm-5.06-6.26h-1v-2.9h5.07a11,11,0,0,0-.63-1.29l1-.29a11.36,11.36,0,0,1,.82,1.58h4.66v2.58h-1v-1.7H92v2.08c0,.36.07.49.43.49h2.23a6.72,6.72,0,0,0,1-.07c0,.26.07.63.1.85a4.7,4.7,0,0,1-1.09.08H92.37c-1.08,0-1.37-.35-1.37-1.36v-2.07H89.34c-.19,2.29-.92,3.37-4.13,3.9a2.59,2.59,0,0,0-.46-.78c2.87-.42,3.45-1.26,3.62-3.12H85.53Z"/><path class="cls-5" d="M99.48,631.45c0,1.92-.13,4.67-1.08,6.47a4.17,4.17,0,0,0-.74-.45,14.07,14.07,0,0,0,1-6v-4.55h10.7v.74H99.48Zm5.45,5.66h4.5v.74H99.38v-.74H104v-1h-3.73v-.75H104v-.7h.94v.7h3.65v.75h-3.65Zm2.38-6.39a4.44,4.44,0,0,0,2.23,3.19,2.53,2.53,0,0,0-.57.69,4.82,4.82,0,0,1-2.1-2.85,4.6,4.6,0,0,1-2.11,2.79,3.77,3.77,0,0,0-.49-.49.47.47,0,0,1-.36.38,5.43,5.43,0,0,1-1.49.1,3.1,3.1,0,0,0-.25-.56c.53,0,1,0,1.15,0s.18-.06.18-.19v-.65c-.92.24-1.86.48-2.64.65l-.18-.4a2.93,2.93,0,0,1-.47,1.24,2.76,2.76,0,0,0-.66-.45,2.91,2.91,0,0,0,.43-1.79v-1.47h4.3v3a4.23,4.23,0,0,0,2-3.24h-1.74v-.79h1.78V628h.74v1.9h2.19v.79Zm-3.23-.26H100.2v-2.34h3.88Zm-3.34,2a7.46,7.46,0,0,1,0,.79c.76-.16,1.76-.37,2.8-.61V631.5h-2.76Zm2.6-3.83h-2.43V629h2.43Zm0,.91h-2.43V630h2.43Zm-2.21,2.21a20.79,20.79,0,0,1,2.07.48l-.2.47a20.35,20.35,0,0,0-2.06-.53Zm7.4-2a6.9,6.9,0,0,0-1.09-1.32l.56-.33a6.38,6.38,0,0,1,1.13,1.26Z"/><path class="cls-5" d="M114.44,633.27c-.13-.35-.41-1-.69-1.51v6.44h-.84V632a14.74,14.74,0,0,1-1.22,3.41,6.22,6.22,0,0,0-.42-.94,16.33,16.33,0,0,0,1.56-4.75h-1.3v-.91h1.38v-2.49h.84v2.49h1v.91h-1v.85c.29.45,1,1.66,1.16,2Zm8,1a7.47,7.47,0,0,1-1.6,2.08,1.86,1.86,0,0,0,1.35.94c.28,0,.44-.47.55-1.41a2.46,2.46,0,0,0,.65.5c-.25,1.42-.65,1.9-1.17,1.86a2.63,2.63,0,0,1-2.06-1.33,10.37,10.37,0,0,1-2.27,1.26,3.19,3.19,0,0,0-.52-.61,9.29,9.29,0,0,0,2.42-1.35,12.84,12.84,0,0,1-.76-2.38h-2.12v.2c0,.09,0,.19,0,.29a21.17,21.17,0,0,1,1.8,1.55l-.6.59a17.17,17.17,0,0,0-1.32-1.23,5,5,0,0,1-1.91,3,2.65,2.65,0,0,0-.63-.58A4.37,4.37,0,0,0,116,634v-.18h-1V633h3.8a51.25,51.25,0,0,1-.56-6.58h.83a44.4,44.4,0,0,0,.58,6.58h1.85a9.94,9.94,0,0,0-1.15-.83l.49-.46a8.55,8.55,0,0,1,1.35.94l-.33.35H123v.78h-3.14a10.74,10.74,0,0,0,.56,1.78,6.13,6.13,0,0,0,1.16-1.64Zm-4.6-2c0-.15-.09-.34-.15-.54a9.86,9.86,0,0,0-2.34.44,3.49,3.49,0,0,0-.22-.73c.19,0,.41-.26.67-.58.13-.16.46-.62.83-1.17a5.19,5.19,0,0,0-1.39.27,6.4,6.4,0,0,0-.22-.72c.15,0,.31-.21.48-.48a11.11,11.11,0,0,0,1.09-2.23l.73.23a13.06,13.06,0,0,1-1.3,2.35l1-.1c.16-.29.32-.57.45-.87l.7.27a17.17,17.17,0,0,1-2,2.87l1.26-.17c-.09-.28-.2-.55-.3-.81l.61-.17a11.89,11.89,0,0,1,.66,1.92Zm4.69-.22c0-.15-.09-.36-.17-.58a11.3,11.3,0,0,0-2.35.45c0-.15-.17-.56-.26-.75.21,0,.4-.26.65-.57a11.93,11.93,0,0,0,.78-1.16,4.57,4.57,0,0,0-1.31.26,5.77,5.77,0,0,0-.25-.73c.15,0,.3-.18.45-.43a9.37,9.37,0,0,0,.94-2l.73.22a13.26,13.26,0,0,1-1.13,2.13l1-.1c.16-.29.32-.6.45-.9l.74.28a18.05,18.05,0,0,1-1.9,2.91l1.3-.18c-.1-.26-.2-.54-.31-.79l.59-.16a14.92,14.92,0,0,1,.73,1.92Z"/><g id="Vacuum_forming_service-3" data-name="Vacuum forming service" class="cls-3"><g class="cls-3"><path class="cls-4" d="M167,1022.63a31.47,31.47,0,0,1-5.94,2.59A10.62,10.62,0,0,0,160,1024a22,22,0,0,0,5.58-2.4Zm9.09-1.22H160.14v-1.55h3.17v-7.65h-2.64v-1.53h2.64v-1.93H165v1.93h6.23v-1.93h1.69v1.93h2.76v1.53h-2.76v7.65h3.19Zm-11.11-9.2v1.51h6.23v-1.51Zm0,4.55h6.23v-1.62H165Zm0,3.1h6.23v-1.69H165Zm5.46,1.83a49.82,49.82,0,0,1,5.7,2.4l-1.54,1.1a35.44,35.44,0,0,0-5.35-2.45Z"/><path class="cls-4" d="M183.78,1009.27a27.24,27.24,0,0,1-1.84,3.91v12h-1.58v-9.59a18.77,18.77,0,0,1-1.49,1.8,11.07,11.07,0,0,0-.92-1.69,20.08,20.08,0,0,0,4.26-6.94Zm8.21,14.31c1.06,0,1.24-.46,1.41-2.53a4.65,4.65,0,0,0,1.49.63c-.25,2.55-.76,3.4-2.81,3.4h-4.43c-2.3,0-3-.56-3-2.77v-5.48l-1.59.62-.66-1.48,2.25-.88v-4.47h1.57v3.85l2.3-.9v-4.79h1.49v4.2l2.7-1.06.24-.18,1.26.41,0,.29a72.79,72.79,0,0,1-.62,8.1l-1.38-.38c.2-1.58.3-4.16.36-6.44l-2.51,1v6.46h-1.49v-5.89l-2.3.92v6.13c0,1,.21,1.25,1.45,1.25Z"/><path class="cls-4" d="M203.74,1013.05h-6.88v-1.33h3.19a16.52,16.52,0,0,0-1.29-2.43l1.31-.67a15.75,15.75,0,0,1,1.33,2.36l-1.31.74h3.65Zm-.75,1.86a3.77,3.77,0,0,0,2.16-3.62v-1.95h5.69v4c0,.51,0,.69.27.69H212a3.29,3.29,0,0,0,.81-.11c0,.43.07,1,.12,1.4a2.79,2.79,0,0,1-.93.11H211c-1.38,0-1.67-.59-1.67-2.14v-2.45h-2.61v.43a5.23,5.23,0,0,1-2.67,4.86,7.36,7.36,0,0,0-1-1.18v.43h-5.36v-1.32H203Zm9.4,2a11.67,11.67,0,0,1-3,5.21,12.82,12.82,0,0,0,4,1.54,7.59,7.59,0,0,0-1.05,1.52,12.93,12.93,0,0,1-4.3-2,15.13,15.13,0,0,1-4.32,2A6.5,6.5,0,0,0,203,1024v.25h-3.92v.81h-1.44v-6.09H203v4.79a12.41,12.41,0,0,0,3.71-1.58,12.46,12.46,0,0,1-2.55-3.69l1-.35h-1.62v-1.56h7.56l.29-.06Zm-14.75-.41H203v1.3h-5.38Zm3.91,3.76h-2.47v2.58h2.47Zm4.1-2.18a9.29,9.29,0,0,0,2.36,3,9.58,9.58,0,0,0,2.27-3Z"/><path class="cls-4" d="M220.09,1009.16a34,34,0,0,1-1.37,3.59v12.47H217.1v-9.39a17.42,17.42,0,0,1-1.26,1.76,10.7,10.7,0,0,0-.83-1.76,20.78,20.78,0,0,0,3.51-7.1Zm3.8,5.76c-.26.44-.56.83-.85,1.23h7.71v7.49c0,.72-.13,1.06-.58,1.3a5,5,0,0,1-2,.25,5.74,5.74,0,0,0-.49-1.33h1.22c.17,0,.22-.07.22-.23v-1.06h-2.47v2.27h-1.51v-2.27h-2.72a6.5,6.5,0,0,1-1.2,2.77,6.47,6.47,0,0,0-1.37-1,7.43,7.43,0,0,0,1.22-4.75v-1.53a12.17,12.17,0,0,1-1.33.95,9.27,9.27,0,0,0-.95-1.35,10.36,10.36,0,0,0,3.22-2.76h-2.32v-1.54h3.13v-1.46h-2.63v-1.53h2.63v-1.59h1.6v1.59h2.65v-1.59h1.6v1.59H231v1.53h-2.31v1.46h2.76v1.54Zm1.29,6.43V1020h-2.45a12.55,12.55,0,0,1-.09,1.33Zm-2.45-2.57h2.45v-1.28h-2.45Zm1.73-5.4h2.65v-1.46h-2.65Zm4.7,4.12h-2.47v1.28h2.47Zm0,3.85V1020h-2.47v1.33Z"/></g></g><path class="cls-5" d="M153,47h1.24l3.48,6,1,2h.07c-.07-1-.16-2-.16-3V47h1.14v9.53h-1.23l-3.47-6-1-2H154c.05,1,.14,2,.14,3v5H153Z"/><path class="cls-5" d="M167,48h-2.88V47h7v1h-2.89v8.52H167Z"/><path class="cls-5" d="M179.58,48.89a2.28,2.28,0,0,0-1.77-.82,1.34,1.34,0,0,0-1.46,1.4c0,2.12,4.06,1.54,4.06,4.66a2.44,2.44,0,0,1-2.25,2.52v1.47h-.85V56.68a4.61,4.61,0,0,1-2.49-1.12l.56-.81a3.47,3.47,0,0,0,2.24,1c1.08,0,1.64-.58,1.64-1.49,0-2.37-4.07-1.85-4.07-4.68a2.35,2.35,0,0,1,2.12-2.41V45.65h.85v1.44a3.2,3.2,0,0,1,2.06,1.1Z"/><path class="cls-5" d="M184.26,55.39l.6-.78a3.17,3.17,0,0,0,2.36,1.09,1.76,1.76,0,0,0,1.94-1.77c0-1.14-.77-1.91-3-1.91v-.91c2,0,2.64-.79,2.64-1.82a1.49,1.49,0,0,0-1.62-1.53,2.91,2.91,0,0,0-2,1l-.64-.76a3.84,3.84,0,0,1,2.67-1.14c1.6,0,2.77.86,2.77,2.39a2.37,2.37,0,0,1-1.71,2.3v0a2.46,2.46,0,0,1,2,2.42,2.77,2.77,0,0,1-3.05,2.72A4,4,0,0,1,184.26,55.39Z"/><path class="cls-5" d="M194.34,51.72c0-3.31,1.15-4.91,3-4.91s3,1.61,3,4.91-1.16,5-3,5S194.34,55,194.34,51.72Zm4.78,0c0-2.78-.73-3.95-1.81-3.95s-1.82,1.17-1.82,3.95.73,4,1.82,4S199.12,54.53,199.12,51.72Z"/><path class="cls-5" d="M204.15,51.72c0-3.31,1.16-4.91,3-4.91s3,1.61,3,4.91-1.16,5-3,5S204.15,55,204.15,51.72Zm4.78,0c0-2.78-.72-3.95-1.8-3.95s-1.82,1.17-1.82,3.95.73,4,1.82,4S208.93,54.53,208.93,51.72Z"/><path class="cls-5" d="M217.37,46.21h.86l-3.89,12.64h-.87Z"/><path class="cls-5" d="M221.4,55.39l.6-.78a3.18,3.18,0,0,0,2.37,1.09,1.75,1.75,0,0,0,1.93-1.77c0-1.14-.76-1.91-3-1.91v-.91c2,0,2.64-.79,2.64-1.82a1.49,1.49,0,0,0-1.61-1.53,2.91,2.91,0,0,0-2,1l-.64-.76a3.84,3.84,0,0,1,2.67-1.14c1.6,0,2.77.86,2.77,2.39a2.37,2.37,0,0,1-1.71,2.3v0a2.46,2.46,0,0,1,2,2.42,2.77,2.77,0,0,1-3,2.72A4,4,0,0,1,221.4,55.39Z"/><path class="cls-5" d="M232.14,47h1.21v4h4.44V47H239v9.53h-1.2V52h-4.44v4.5h-1.21Z"/><rect class="cls-1" width="392" height="1715"/></g></g></svg>