<svg xmlns="http://www.w3.org/2000/svg" viewBox="0 0 392 1747.08"><defs><style>.cls-1{fill:#666;}.cls-2{fill:#4d4d4d;}.cls-3{isolation:isolate;}.cls-4{fill:#3e4141;}.cls-5{fill:#adadad;}.cls-6{fill:none;}</style></defs><g id="Layer_2" data-name="Layer 2"><g id="Layer_1-2" data-name="Layer 1"><path class="cls-1" d="M77.78,996v1.24H63.9V996Z"/><path class="cls-1" d="M95.87,1002v1.12H82.6V1002Zm-2-11.34v9.19h-9v-9.19Zm-7.93,4h6.78v-2.91H85.9Zm0,4.08h6.78v-3H85.9Z"/><path class="cls-1" d="M105.14,990.17a24.78,24.78,0,0,1-1.58,3.28v10.31h-1.09v-8.6a19,19,0,0,1-1.55,1.9,6.31,6.31,0,0,0-.64-1.12,17.64,17.64,0,0,0,3.79-6.09Zm5.32,3.62v8.62c0,.64-.14,1-.54,1.17a5.11,5.11,0,0,1-2,.23,5.61,5.61,0,0,0-.4-1.15c.72,0,1.38,0,1.58,0s.26-.06.26-.26v-8.62H107a12.42,12.42,0,0,1-1.49,2.64c-.18-.17-.66-.55-.9-.72a15.12,15.12,0,0,0,2.51-5.84l1.12.24c-.23.89-.5,1.78-.81,2.62h6.21l.18,0,.79.18c-.2,1.12-.48,2.44-.68,3.25l-1-.18c.09-.55.23-1.37.35-2.15ZM108,996.54a15.45,15.45,0,0,1-2.24,5.21,10.32,10.32,0,0,0-1-.63,12.22,12.22,0,0,0,2.1-4.8Zm4.6-.34a20.43,20.43,0,0,1,1.91,5.12l-1.09.37a21.3,21.3,0,0,0-1.82-5.15Z"/><path class="cls-1" d="M132.86,1000.82h-6.14v1.76c0,.6-.12.86-.59,1a9.21,9.21,0,0,1-2.47.15,4.63,4.63,0,0,0-.4-1c.95,0,1.81,0,2,0s.32-.06.32-.27v-1.73h-6.4v-1h6.4v-.66a14,14,0,0,0,2.44-1.17h-6v-.85h7.21l.23-.07.69.57a15.22,15.22,0,0,1-3.47,1.9v.28h6.14ZM120.65,998h-1.09v-2.77h1.23l-.31-4.56a27.76,27.76,0,0,0,3-.75l.52.71a18.62,18.62,0,0,1-2.37.6l.06.75h2.22v.78h-2.18l.06.83h2.18v.78H121.8l.06.86h8.41c0-.28.06-.55.09-.86h-2.23v-.78h2.29l.08-.83h-2.27V992h2.31l.05-.83h-2.44v-.78h3.54c-.07,1.52-.21,3.49-.34,4.86h1.2V998h-1.12v-1.9H120.65Zm6.56-2.89a8.08,8.08,0,0,0-1.1-.89,10.68,10.68,0,0,1-1.53,1,4,4,0,0,0-.63-.59,9.64,9.64,0,0,0,1.45-.85,10.93,10.93,0,0,0-1.1-.6l.57-.5c.38.17.78.4,1.18.61a5.29,5.29,0,0,0,.76-.81l.8.26a8,8,0,0,1-.89,1,7.8,7.8,0,0,1,1.11.84Zm0-2.73a8.14,8.14,0,0,0-1.05-.79,10.1,10.1,0,0,1-1.43.92,6.23,6.23,0,0,0-.64-.55,9.19,9.19,0,0,0,1.36-.78,10.91,10.91,0,0,0-1.07-.55l.55-.51c.37.16.75.36,1.15.57a8.26,8.26,0,0,0,.72-.75l.8.21a7.37,7.37,0,0,1-.85.94,10.62,10.62,0,0,1,1.06.72Z"/><path class="cls-1" d="M145.33,990.11l-.21.29a14.85,14.85,0,0,0,6.47,3.19,4.46,4.46,0,0,0-.72.88,18.85,18.85,0,0,1-3.76-1.54v.48h-5.3V993a21.21,21.21,0,0,1-3.76,1.57,7.6,7.6,0,0,0-.65-.88c2.78-.73,5.49-2.08,6.94-3.94Zm-6,4h10.24V998H139.31Zm.89,4.59h8.61v5h-1.15v-.46h-6.35v.51H140.2Zm.09-1.51h3.62V995h-3.62Zm1.73-2.11a6.09,6.09,0,0,1,.92,1.73l-.87.32a6.75,6.75,0,0,0-.86-1.79Zm-.71,4.43v1h6.35v-1Zm6.35,2.9v-1.05h-6.35v1.05Zm-1.15-9.88a13.21,13.21,0,0,1-2-1.53,11.59,11.59,0,0,1-2,1.53Zm2,2.38h-3.65v2.28h3.65Zm-2.67,1.95a13.18,13.18,0,0,0,.85-1.84l1,.3a15.92,15.92,0,0,1-1,1.81Z"/><path class="cls-1" d="M162.21,992.52l.66,0,0,1.06-.64,0v.08a11.53,11.53,0,0,1-1.6,6.47c.76.68,1.43,1.32,1.91,1.84l-.85.89a24.8,24.8,0,0,0-1.73-1.79,11.5,11.5,0,0,1-3.39,2.73,3.43,3.43,0,0,0-.8-.86,10.79,10.79,0,0,0,3.32-2.66c-.86-.76-1.81-1.53-2.66-2.16a39.84,39.84,0,0,0,1-4.25l-1.58.11-.14-1.13,1.94-.1c.15-1,.3-2,.38-2.91l1.18.08c-.11.87-.26,1.82-.41,2.77l2.28-.12v-.75h1.12Zm-3.62,1.3c-.28,1.43-.6,2.82-.9,4,.66.5,1.35,1.05,2,1.6a10.39,10.39,0,0,0,1.38-5.74ZM169,991.45v11.74h-1.12v-.92h-3.31v1.14h-1.09v-12Zm-1.12,9.73v-8.65h-3.31v8.65Z"/><path class="cls-1" d="M178.73,990.14a26.23,26.23,0,0,1-1.36,3.08v10.56h-1.12V995.1a14.08,14.08,0,0,1-1.43,1.85,6.1,6.1,0,0,0-.63-1.1,17.66,17.66,0,0,0,3.49-6.05Zm9.53,2.24h-1.12v9.85c0,.81-.22,1.15-.75,1.33a12.3,12.3,0,0,1-3.07.22,4.45,4.45,0,0,0-.42-1.17c1.23,0,2.35,0,2.69,0s.43-.1.43-.4v-9.85h-7.26v-1.1h9.5Zm-8,7.41v1.06h-1.09v-6.32H184v5.26Zm0-4.25v3.24h2.63v-3.24Z"/><path class="cls-1" d="M197.3,990.1a26.24,26.24,0,0,1-1.58,3.19v10.58h-1.09v-8.94a16.31,16.31,0,0,1-1.69,2,6.26,6.26,0,0,0-.64-1.1,17.17,17.17,0,0,0,3.92-6.06Zm4.86,8.14a6.31,6.31,0,0,1-1,2.94,15.46,15.46,0,0,0,5.64,1.63,3.92,3.92,0,0,0-.68,1,15.5,15.5,0,0,1-5.64-1.86,8.12,8.12,0,0,1-3.46,1.87,4,4,0,0,0-.7-.93,7.58,7.58,0,0,0,3.24-1.55,8.42,8.42,0,0,1-2.22-2.5l.95-.31a6.45,6.45,0,0,0,1.93,2,5.31,5.31,0,0,0,.83-2.36h-3.71V994h3.78v-1.51h-4.23v-1h4.23v-1.64h1.12v1.64h4.42v1h-4.42V994h3.91v4.2Zm-1.06-1c0-.23,0-.46,0-.69V995h-2.72v2.27Zm1.13-2.27v1.58c0,.23,0,.46,0,.69h2.84V995Z"/><path class="cls-1" d="M223.9,1002.26c0,.73-.2,1.07-.69,1.27a10.09,10.09,0,0,1-2.86.18,4.5,4.5,0,0,0-.38-1.1c1.07,0,2.12,0,2.39,0s.42-.11.42-.4v-3.11h-4.13v4.52h-1.13v-4.52h-3.84a8.82,8.82,0,0,1-1.91,4.75,3.72,3.72,0,0,0-.88-.75c1.69-1.9,1.84-4.6,1.84-6.73v-5.52H223.9ZM217.52,998v-2.55h-3.67v.91c0,.51,0,1.07-.06,1.64ZM213.85,992v2.45h3.67V992Zm8.93,0h-4.13v2.45h4.13Zm0,6.07v-2.55h-4.13V998Z"/><path class="cls-1" d="M233,998c-.16-.42-.49-1.14-.82-1.78v7.59h-1v-7.3a17.38,17.38,0,0,1-1.44,4,8.53,8.53,0,0,0-.5-1.1,19.66,19.66,0,0,0,1.85-5.6h-1.54v-1.08h1.63v-2.94h1v2.94h1.22v1.08h-1.22v1c.34.54,1.17,2,1.37,2.34Zm9.38,1.13a8.76,8.76,0,0,1-1.88,2.46,2.18,2.18,0,0,0,1.59,1.1c.32,0,.52-.55.65-1.66a3.13,3.13,0,0,0,.76.59c-.29,1.67-.76,2.24-1.38,2.19a3.1,3.1,0,0,1-2.42-1.56,12.22,12.22,0,0,1-2.69,1.48,3.59,3.59,0,0,0-.61-.72,11.06,11.06,0,0,0,2.85-1.59,15.55,15.55,0,0,1-.89-2.81h-2.49v.23a2.3,2.3,0,0,1,0,.36,21.3,21.3,0,0,1,2.12,1.82l-.71.69a19.75,19.75,0,0,0-1.55-1.44,5.93,5.93,0,0,1-2.25,3.57,3.48,3.48,0,0,0-.75-.69,5.14,5.14,0,0,0,2.17-4.32v-.22h-1.16v-.92h4.48a58.8,58.8,0,0,1-.66-7.76h1a52.18,52.18,0,0,0,.67,7.76h2.2a12.92,12.92,0,0,0-1.37-1l.58-.54a10.83,10.83,0,0,1,1.6,1.11l-.4.41H243v.92h-3.69a12.46,12.46,0,0,0,.66,2.1,7.21,7.21,0,0,0,1.36-1.93Zm-5.43-2.3c0-.18-.1-.4-.16-.64a12.85,12.85,0,0,0-2.77.52,4.33,4.33,0,0,0-.26-.86c.22,0,.48-.3.79-.69.15-.18.55-.72,1-1.38a7.06,7.06,0,0,0-1.64.32,5.32,5.32,0,0,0-.26-.84c.18,0,.36-.25.56-.57a11.79,11.79,0,0,0,1.29-2.64l.86.28a15.56,15.56,0,0,1-1.53,2.78L236,993c.18-.33.37-.67.52-1l.83.32a21.16,21.16,0,0,1-2.3,3.39l1.48-.2a9.24,9.24,0,0,0-.35-1l.72-.2a14.79,14.79,0,0,1,.79,2.27Zm5.54-.26c-.05-.18-.11-.43-.2-.69a13.41,13.41,0,0,0-2.78.54,9.34,9.34,0,0,0-.3-.89c.24,0,.47-.31.76-.67a11.67,11.67,0,0,0,.92-1.37,5.2,5.2,0,0,0-1.54.31,6.35,6.35,0,0,0-.3-.86c.19,0,.36-.22.54-.51a11.52,11.52,0,0,0,1.11-2.41l.85.27a14.79,14.79,0,0,1-1.33,2.51l1.12-.12a11.75,11.75,0,0,0,.54-1.06l.87.32a21.73,21.73,0,0,1-2.24,3.44l1.54-.22c-.13-.3-.25-.63-.37-.92l.69-.2a18.51,18.51,0,0,1,.86,2.27Z"/><path class="cls-1" d="M257.5,997.17a12,12,0,0,0,4.43,2.1,3.61,3.61,0,0,0-.72.9c-.29-.09-.59-.18-.88-.29v3.83h-1.1v-.36h-2.72v.44h-1V999.1h3.17a10.81,10.81,0,0,1-2.56-1.93H253.2a11.66,11.66,0,0,1-2.41,1.93H254v4.61h-1.09v-.36H250.4v.44h-1.06V999.9c-.34.15-.68.3-1.05.44a2.56,2.56,0,0,0-.61-.86,12.92,12.92,0,0,0,4-2.31H248v-1h4.72a6.9,6.9,0,0,0,1-1.54h-4.66v-4.13h4.83v4l1.09.21a13.14,13.14,0,0,1-.92,1.5h4.27a10,10,0,0,0-1.82-.92l.6-.59a8.45,8.45,0,0,1,2.25,1.13l-.37.38h2.66v1Zm-4.71-5.71h-2.72v2.16h2.72Zm.15,8.64H250.4v2.25h2.54Zm7.58-5.49h-5v-4.13h5Zm-1.29,7.74v-2.25h-2.72v2.25Zm.18-10.89h-2.83v2.16h2.83Z"/><path class="cls-1" d="M267.77,997.18a2.64,2.64,0,0,0,1.93-2.25h-.26a1.05,1.05,0,0,1-1.15-1.09,1.07,1.07,0,0,1,1.16-1.1c.85,0,1.31.69,1.31,1.76A3.64,3.64,0,0,1,268.1,998Z"/><path class="cls-1" d="M280.44,989.82h1.06v14h-1.06v-5.36h-1.67v.37a10.35,10.35,0,0,1-1.1,5,2.87,2.87,0,0,0-.88-.56,9.1,9.1,0,0,0,1-4.49v-.34h-.83v-1h3.51v-2.25h-2.87V990.4h1v3.79h1.85Zm9.94,1.58c-1.34,3.31-4.54,5.21-7.76,6.1a3.37,3.37,0,0,0-.57-.84,12.47,12.47,0,0,0,4.62-2.13,11.78,11.78,0,0,0-1.93-2.06,15.26,15.26,0,0,1-2.26,1.28c-.17-.19-.51-.53-.7-.71a10.45,10.45,0,0,0,4.38-3.25l1.11.32a7.21,7.21,0,0,1-.88,1h3.1l.2,0Zm.51,7.24h-2v3.66c0,.65-.14,1-.6,1.15a7.48,7.48,0,0,1-2.42.2,4,4,0,0,0-.37-1.09c.92,0,1.75,0,2,0s.32-.06.32-.27v-3.65H282v-1h5.8v-2.17h1.09v2.17h2Zm-5.51-3.88c-1.12.17-2.18.31-3.11.44l-.2-.86c.87-.07,2-.23,3.25-.38ZM284,999a11.61,11.61,0,0,1,2,2.45l-.93.58a11.81,11.81,0,0,0-2-2.51Zm1.46-7.07h0a12.49,12.49,0,0,1,1.95,2,7.42,7.42,0,0,0,1.59-2Z"/><path class="cls-1" d="M309.13,992h-1.89v10.16c0,.82-.2,1.22-.78,1.39a11.61,11.61,0,0,1-3.18.22,5.19,5.19,0,0,0-.49-1.22c1.23.07,2.49.05,2.84,0s.44-.12.44-.44V992H295.55v-1.13h13.58Zm-10.91,7.93v1.23h-1.1v-6.92h6.23v5.69Zm0-4.58v3.49h4v-3.49Z"/><path class="cls-1" d="M320.24,999.45c-2.15.95-4.45,1.95-6.15,2.68l-.43-1.18c.58-.21,1.3-.5,2.1-.84l-.26-9.49,1.16,0,.25,9,3-1.29Zm6.7,4.37a40,40,0,0,0-3.45-4.12,11.18,11.18,0,0,1-5.26,4.11,8.21,8.21,0,0,0-.92-1c5.24-1.92,6.9-5.61,7.57-12.25l1.25.14a22.87,22.87,0,0,1-2,7.92,43.61,43.61,0,0,1,3.84,4.33ZM321,996a14.9,14.9,0,0,0-2.34-3.75l1-.52a14.79,14.79,0,0,1,2.42,3.68Z"/><path class="cls-1" d="M144.67,1014v8.16h-1.12v-13.33h5.61V1014Zm0-4.29V1011h3.4v-1.23Zm3.4,3.42v-1.37h-3.4v1.37Zm3.73,5.32v3.45h-1v-3.45h-2.15a5,5,0,0,1-2.1,3.66,4.58,4.58,0,0,0-.75-.69,3.89,3.89,0,0,0,1.84-3h-1.92v-1h1.95v-1.65H146v-.94h7.52v.94H151.8v1.65h2.06v1Zm-1-1v-1.65h-2.13v1.65Zm5.34,3.16c0,.71-.16,1.06-.62,1.26a7.26,7.26,0,0,1-2.34.21,4.57,4.57,0,0,0-.4-1.16c.84,0,1.67,0,1.91,0s.33-.09.33-.34V1014h-4.56v-5.17h5.68Zm-4.59-10.93V1011H155v-1.23Zm3.47,3.42v-1.37h-3.47v1.37Z"/><path class="cls-1" d="M166.32,1012.45a13.56,13.56,0,0,1-1.09,5.7,21.59,21.59,0,0,1,1.78,1.72l-.71.9a18.12,18.12,0,0,0-1.59-1.62,11.23,11.23,0,0,1-2.89,3,3.31,3.31,0,0,0-.78-.76,9.88,9.88,0,0,0,2.84-3c-.78-.66-1.6-1.32-2.33-1.88.35-1,.7-2.38,1-3.84l-1.35.08-.12-1,1.68-.08c.23-1.17.43-2.36.56-3.4l1,.07c-.13,1-.33,2.13-.55,3.27l1.41-.08v-1.15h1v1.11l.72-.05,0,1Zm-2.69.17c-.27,1.28-.6,2.53-.89,3.55.54.4,1.09.85,1.63,1.28a12.38,12.38,0,0,0,.9-4.93Zm9.11-2.21a19.53,19.53,0,0,1,2.59,4.28l-1,.49a11.12,11.12,0,0,0-.47-1.08c-5.6.43-6.26.49-6.69.68a9.57,9.57,0,0,0-.38-1.09c.3-.06.59-.43,1-1a24.89,24.89,0,0,0,2.44-4.54l1.16.35a31.43,31.43,0,0,1-2.82,4.91l4.77-.31a24.88,24.88,0,0,0-1.49-2.28Zm-5.12,5.6h6.73v6.16h-1.09v-.64h-4.58v.67h-1.06Zm1.06,1v3.48h4.58V1017Z"/><path class="cls-1" d="M193.35,1019.29H179.83v-1H182v-6.88h3.68c.06-.3.12-.62.16-1h-5.59v-1H186c.07-.46.11-.94.14-1.32l1.21.14-.2,1.18H193v1h-6l-.19,1h4.42v6.88h2.15Zm-8.1,1a19.91,19.91,0,0,1-4.63,2,8.48,8.48,0,0,0-.79-.8,17.36,17.36,0,0,0,4.42-1.81Zm-2.13-8v1h6.94v-1Zm6.94,1.76h-6.94v.88h6.94Zm-6.94,1.61v.92h6.94v-.92Zm0,2.73h6.94v-1.07h-6.94Zm5.59,1.23a36.35,36.35,0,0,1,4.7,1.82l-.92.8a29.89,29.89,0,0,0-4.48-1.89Z"/><path class="cls-1" d="M205.6,1020.77h5.92v1.09h-13v-1.09h5.95v-3.29h-4.57v-1.08h10.21v1.08H205.6Zm-6-7.39h-1.12V1010h6a11.17,11.17,0,0,0-.75-1.51l1.17-.34a14.89,14.89,0,0,1,1,1.85h5.49v3h-1.15v-2h-3v2.45c0,.43.07.58.5.58h2.62a7.72,7.72,0,0,0,1.23-.09c.05.31.09.75.12,1a5.69,5.69,0,0,1-1.29.09h-2.69c-1.28,0-1.61-.41-1.61-1.61V1011h-2c-.23,2.69-1.09,4-4.87,4.6a3,3,0,0,0-.54-.92c3.39-.49,4.06-1.49,4.26-3.68h-3.34Z"/><path class="cls-1" d="M229.31,1013.38a17.47,17.47,0,0,1-2.7,5.19c.56,1.5,1.27,2.37,2,2.37.43,0,.61-.79.72-2.83a2.71,2.71,0,0,0,1,.61c-.21,2.61-.63,3.36-1.79,3.36s-2.1-.94-2.81-2.52a13.46,13.46,0,0,1-3.16,2.55,6.18,6.18,0,0,0-.82-.91,12.13,12.13,0,0,0,3.52-2.83,30.43,30.43,0,0,1-1.12-6.46h-5.29v2h3.91v.5c-.07,3.43-.16,4.72-.49,5.12a1.17,1.17,0,0,1-.92.44,18,18,0,0,1-1.82,0,2.47,2.47,0,0,0-.32-1.07c.7.06,1.36.08,1.62.08a.51.51,0,0,0,.46-.17c.22-.23.29-1.2.35-3.84h-2.79v.13c0,2.14-.23,5.22-1.61,7.22a4.65,4.65,0,0,0-.95-.77c1.26-1.87,1.4-4.49,1.4-6.47v-4.28h6.39c-.06-.84-.07-1.7-.09-2.57h1.18c0,.88,0,1.74.06,2.57h5v1.12h-4.88a27.63,27.63,0,0,0,.84,5.32,15.24,15.24,0,0,0,2-4.14Zm-2.66-5.12a14.84,14.84,0,0,1,2.75,1.75l-.71.78A15.52,15.52,0,0,0,226,1009Z"/><path class="cls-1" d="M248.65,1020.61v1.07H234.88v-1.07h6.4v-1.94h-4.82v-1h4.82v-1.72h1.15v1.72h4.63v1h-4.63v1.94Zm-10.55-7.67a4.87,4.87,0,0,1-2.3,3.66,5.09,5.09,0,0,0-.75-.79,4,4,0,0,0,2-2.87h-1.85v-1h1.93v-2.1h-1.43v-1h6.87v1h-1.42v2.1h1.73v1h-1.73v3.28h-1.08v-3.28Zm.08-1h1.88v-2.1h-1.88v2.1Zm6.7,2.23h-1.06v-5.1h1.06Zm2.87,1c0,.62-.13.92-.59,1.1a7.68,7.68,0,0,1-2.28.18,4.11,4.11,0,0,0-.38-1,18.16,18.16,0,0,0,1.87,0c.23,0,.29-.06.29-.27v-6.8h1.09Z"/><path class="cls-1" d="M178.4,1363.33H164.89v-1h2.18v-6.89h3.68a8.08,8.08,0,0,0,.15-1h-5.58v-1H171c.06-.45.1-.93.14-1.31l1.21.13-.2,1.18H178v1h-6q-.09.52-.18,1h4.41v6.89h2.15Zm-8.1,1a19.51,19.51,0,0,1-4.63,2,8.34,8.34,0,0,0-.78-.8,17.89,17.89,0,0,0,4.42-1.81Zm-2.13-8v1h7v-1Zm7,1.76h-7v.87h7Zm-7,1.61v.92h7v-.92Zm0,2.73h7v-1.08h-7Zm5.6,1.23a36.73,36.73,0,0,1,4.69,1.82l-.92.8a28.47,28.47,0,0,0-4.48-1.89Z"/><path class="cls-1" d="M188.36,1364.82h5.92v1.09h-13v-1.09h5.95v-3.29h-4.57v-1.08h10.22v1.08h-4.48Zm-6-7.39h-1.11V1354h6a13.47,13.47,0,0,0-.76-1.52l1.17-.33a14.32,14.32,0,0,1,1,1.85h5.49v3H193v-2h-3v2.46c0,.43.08.58.51.58h2.62a7.81,7.81,0,0,0,1.23-.09c0,.3.09.75.12,1a5.74,5.74,0,0,1-1.29.09h-2.7c-1.27,0-1.61-.41-1.61-1.61v-2.44h-2c-.23,2.7-1.09,4-4.88,4.6a3.09,3.09,0,0,0-.54-.92c3.39-.49,4.07-1.48,4.27-3.68h-3.35Z"/><path class="cls-1" d="M209.76,1357.43a17.07,17.07,0,0,1-2.7,5.18c.57,1.51,1.28,2.38,2.06,2.38.43,0,.61-.8.72-2.84a2.66,2.66,0,0,0,1,.62c-.22,2.6-.63,3.36-1.79,3.36s-2.1-.94-2.81-2.52a13.66,13.66,0,0,1-3.16,2.55,6.91,6.91,0,0,0-.83-.91,12.07,12.07,0,0,0,3.53-2.84,30.21,30.21,0,0,1-1.12-6.45h-5.29v2h3.91v.49c-.08,3.44-.17,4.73-.49,5.12a1.17,1.17,0,0,1-.92.45,18.17,18.17,0,0,1-1.83,0,2.23,2.23,0,0,0-.32-1.07c.71.06,1.37.07,1.63.07s.37,0,.46-.17.29-1.19.35-3.83h-2.79v.12c0,2.15-.23,5.23-1.61,7.23a4.65,4.65,0,0,0-1-.77c1.26-1.87,1.39-4.49,1.39-6.47v-4.28h6.4c-.06-.84-.08-1.7-.09-2.58h1.18c0,.89,0,1.75.06,2.58h5V1356h-4.87a27,27,0,0,0,.84,5.32,14.93,14.93,0,0,0,2-4.14Zm-2.65-5.12a13.93,13.93,0,0,1,2.74,1.75l-.7.78a15.26,15.26,0,0,0-2.72-1.84Z"/><path class="cls-1" d="M226.81,1364.65v1.08H213v-1.08h6.39v-1.93h-4.81v-1h4.81V1360h1.15v1.72h4.63v1h-4.63v1.93ZM216.26,1357a4.92,4.92,0,0,1-2.3,3.66,6.29,6.29,0,0,0-.75-.8,4,4,0,0,0,2-2.86h-1.86v-1h1.94v-2.1h-1.43v-1h6.87v1h-1.43v2.1H221v1h-1.74v3.28h-1.07V1357Zm.07-1h1.89v-2.1h-1.89v2.1Zm6.71,2.24H222v-5.1H223Zm2.86,1c0,.63-.12.92-.58,1.11a7.72,7.72,0,0,1-2.28.18,3.79,3.79,0,0,0-.39-1,18.12,18.12,0,0,0,1.87,0c.23,0,.29-.06.29-.28v-6.79h1.09Z"/><path class="cls-1" d="M149.27,1383.46h-1.45l-6-9.18h-.06c.08,1.08.12,2.06.12,3v6.22h-1.18v-10.94h1.44l6,9.15h.06c0-.14,0-.57-.07-1.3s-.05-1.26,0-1.57v-6.28h1.19Z"/><path class="cls-1" d="M155.65,1383.46h-1.27v-9.81h-3.47v-1.13h8.2v1.13h-3.46Z"/><path class="cls-1" d="M167,1380.1a2.12,2.12,0,0,1-.76,1.68,4,4,0,0,1-2.14.84v1.73h-1v-1.67a9.69,9.69,0,0,1-1.63-.13,4.94,4.94,0,0,1-1.28-.36V1381a6.5,6.5,0,0,0,1.43.45,6.92,6.92,0,0,0,1.48.18v-3.29a5.23,5.23,0,0,1-2.15-1.13,2.32,2.32,0,0,1-.62-1.66,2,2,0,0,1,.76-1.61,3.72,3.72,0,0,1,2-.77v-1.36h1v1.35a7.57,7.57,0,0,1,2.66.55l-.39,1a7.56,7.56,0,0,0-2.27-.52v3.25a8.25,8.25,0,0,1,1.76.73,2.41,2.41,0,0,1,.86.81A2.09,2.09,0,0,1,167,1380.1Zm-5.37-4.55a1.26,1.26,0,0,0,.34.91,3.4,3.4,0,0,0,1.17.66v-2.9a2.07,2.07,0,0,0-1.12.47A1.11,1.11,0,0,0,161.64,1375.55Zm4.1,4.65a1.18,1.18,0,0,0-.33-.87,3.54,3.54,0,0,0-1.3-.67v2.92C165.2,1381.43,165.74,1381,165.74,1380.2Z"/><path class="cls-1" d="M176,1383.46h-7.19v-1.07l2.88-2.9a20.06,20.06,0,0,0,1.74-1.9,4.81,4.81,0,0,0,.63-1.1,3.19,3.19,0,0,0,.21-1.16,1.85,1.85,0,0,0-.53-1.39,2.07,2.07,0,0,0-1.48-.52,3.73,3.73,0,0,0-1.29.23,5,5,0,0,0-1.36.82l-.66-.85a5.05,5.05,0,0,1,3.3-1.26,3.45,3.45,0,0,1,2.41.79,2.71,2.71,0,0,1,.88,2.12,4.18,4.18,0,0,1-.58,2.06,13.09,13.09,0,0,1-2.19,2.58l-2.4,2.34v.06H176Z"/><path class="cls-1" d="M184.79,1378a7.92,7.92,0,0,1-.9,4.23,3.3,3.3,0,0,1-5.42,0,7.88,7.88,0,0,1-.92-4.2,8.06,8.06,0,0,1,.89-4.25,3.31,3.31,0,0,1,5.42.06A7.77,7.77,0,0,1,184.79,1378Zm-6,0a7.89,7.89,0,0,0,.56,3.47,2,2,0,0,0,3.59,0,11,11,0,0,0,0-6.92,2,2,0,0,0-3.59,0A7.86,7.86,0,0,0,178.81,1378Z"/><path class="cls-1" d="M193.55,1378a8,8,0,0,1-.89,4.23,3.31,3.31,0,0,1-5.43,0,10.26,10.26,0,0,1,0-8.45,3,3,0,0,1,2.71-1.38,3,3,0,0,1,2.71,1.44A7.87,7.87,0,0,1,193.55,1378Zm-6,0a8,8,0,0,0,.56,3.47,2,2,0,0,0,3.59,0,11,11,0,0,0,0-6.92,2,2,0,0,0-3.59,0A8,8,0,0,0,187.57,1378Z"/><path class="cls-1" d="M199.79,1372.52l-4.08,10.94h-1.24l4.07-10.94Z"/><path class="cls-1" d="M205.3,1383.46h-1.22v-7.8c0-.65,0-1.26.06-1.84a3.75,3.75,0,0,1-.35.33c-.13.12-.72.6-1.78,1.46l-.66-.85,2.9-2.24h1.05Z"/><path class="cls-1" d="M212.88,1376.78a4,4,0,0,1,2.72.85,3,3,0,0,1,1,2.35,3.42,3.42,0,0,1-1.08,2.67,4.34,4.34,0,0,1-3,1,5.55,5.55,0,0,1-2.83-.59v-1.2a4.27,4.27,0,0,0,1.31.53,6.28,6.28,0,0,0,1.53.19,3.1,3.1,0,0,0,2.05-.62,2.21,2.21,0,0,0,.73-1.8c0-1.52-.94-2.29-2.81-2.29a11.74,11.74,0,0,0-1.9.22l-.64-.41.41-5.12h5.44v1.14h-4.38l-.28,3.29A9.2,9.2,0,0,1,212.88,1376.78Z"/><path class="cls-1" d="M229.25,1383.46v-5.33a2.23,2.23,0,0,0-.42-1.48,1.65,1.65,0,0,0-1.3-.49,2.12,2.12,0,0,0-1.72.67,3.16,3.16,0,0,0-.55,2.05v4.58H224v-5.33a2.23,2.23,0,0,0-.42-1.48,1.66,1.66,0,0,0-1.31-.49,2,2,0,0,0-1.71.7,3.76,3.76,0,0,0-.55,2.3v4.3h-1.24v-8.2h1l.2,1.12h.06a2.43,2.43,0,0,1,1-.93,2.93,2.93,0,0,1,1.43-.34,2.42,2.42,0,0,1,2.51,1.39h.06a2.63,2.63,0,0,1,1.07-1,3.26,3.26,0,0,1,1.58-.37,2.81,2.81,0,0,1,2.09.71,3.22,3.22,0,0,1,.69,2.29v5.35Z"/><path class="cls-1" d="M233,1373a.86.86,0,0,1,.2-.63.76.76,0,0,1,.53-.2.77.77,0,0,1,.52.2.86.86,0,0,1,.21.63.83.83,0,0,1-.21.62.73.73,0,0,1-.52.21.72.72,0,0,1-.53-.21A.87.87,0,0,1,233,1373Zm1.34,10.42h-1.24v-8.2h1.24Z"/><path class="cls-1" d="M242.54,1383.46v-5.3a2.12,2.12,0,0,0-.46-1.5,1.85,1.85,0,0,0-1.43-.5,2.37,2.37,0,0,0-1.88.7,3.5,3.5,0,0,0-.6,2.3v4.3h-1.24v-8.2h1l.2,1.12h.06a2.52,2.52,0,0,1,1.07-.94,3.5,3.5,0,0,1,1.53-.33,3.13,3.13,0,0,1,2.23.71,3,3,0,0,1,.75,2.29v5.35Z"/><path class="cls-1" d="M251.63,1381.22a2.05,2.05,0,0,1-.86,1.77,4,4,0,0,1-2.39.62,5.28,5.28,0,0,1-2.55-.51v-1.16a6,6,0,0,0,1.27.47,5.1,5.1,0,0,0,1.31.18,3.05,3.05,0,0,0,1.5-.31,1.05,1.05,0,0,0,.52-1,1,1,0,0,0-.42-.82,6.17,6.17,0,0,0-1.62-.81,8.61,8.61,0,0,1-1.62-.74,2.06,2.06,0,0,1-.72-.72,1.86,1.86,0,0,1-.24-1,1.83,1.83,0,0,1,.82-1.58,3.77,3.77,0,0,1,2.24-.58,6.49,6.49,0,0,1,2.58.54l-.44,1a5.92,5.92,0,0,0-2.23-.51,2.55,2.55,0,0,0-1.34.28.85.85,0,0,0-.45.76.93.93,0,0,0,.17.56,1.61,1.61,0,0,0,.55.44,11.76,11.76,0,0,0,1.43.61,5.29,5.29,0,0,1,2,1.07A1.86,1.86,0,0,1,251.63,1381.22Z"/><path class="cls-1" d="M138.22,331.16l-1.63.55v4c0,.63-.15.94-.54,1.12a5,5,0,0,1-2,.21,4.28,4.28,0,0,0-.34-1h1.51c.2,0,.27-.06.27-.28v-3.65c-.67.23-1.3.43-1.88.6l-.16-1.12c.57-.15,1.28-.37,2-.6V327.3h-1.9v-1.06h1.9v-3.07h1.06v3.07h1.49v1.06h-1.49v3.29l1.47-.46Zm9.21-.32v.66H140v.31h-1v-3.16a7.59,7.59,0,0,1-.79.73,6.78,6.78,0,0,0-.63-.75,8,8,0,0,0,2.28-2.74h-1.15V323.6h1v1.47h2.57v-1.9h1.08v1.9h2.5V323.6h1.05v2.82h-1.05v-.53h-5.21l.22.06c-.16.3-.33.63-.5.93h2.29c-.11-.24-.22-.5-.34-.73l.91-.25c.17.29.35.69.49,1H147v.71h-3.33v.64h3v.62h-3v.66h3v.61h-3v.72Zm-.29,5.31c0,.47-.09.69-.44.84a4.89,4.89,0,0,1-1.66.15,5.35,5.35,0,0,0-.27-.83c.56,0,1,0,1.16,0s.2-.05.2-.2v-3.24H144v.31c0,.31,0,.38.21.38h1a2.43,2.43,0,0,0,.64-.06c0,.22.05.49.05.68a2.22,2.22,0,0,1-.68.06h-.46v2.05h-3v.48h-.87v-2.45a4.45,4.45,0,0,1-.89.39,2.91,2.91,0,0,0-.43-.47v2.85h-1v-5h8.62Zm-7.62-2a2.47,2.47,0,0,0,1.72-1.23h-1.72Zm3.07-6.53H140v.64h2.55Zm0,1.26H140v.66h2.55Zm-2.55,2h2.55v-.72H140Zm4.07,3.42c-.76,0-.91-.29-.91-1.07v-.3h-1.1a2.68,2.68,0,0,1-1.15,1.38Zm-.3.63h-2.1v.81h2.1Z"/><path class="cls-1" d="M155.72,326c-.14,1.09-.73,2.25-2.7,3a4.15,4.15,0,0,0-.64-.77c1.67-.54,2.15-1.46,2.27-2.25h-2.38V325h2.43v-1.62h1.05V325H157V323.4h1V325H160V323.4H161V325h1.35v-1.65h1V325h2.35V326h-2.35v1.16c0,.42.05.54.31.54h1.21a4.84,4.84,0,0,0,.78-.06c0,.26.05.64.09.89a4.84,4.84,0,0,1-.84.06H163.6c-1,0-1.25-.4-1.25-1.44V326H161v2.45h-4V326Zm-3.16,3.2h13v3h-1.1v-2H153.64v2h-1.08Zm11.49,5.91c0,.58-.12.87-.57,1a8,8,0,0,1-2.34.17,4.48,4.48,0,0,0-.37-1h1.87c.23,0,.29-.07.29-.24V332.6h-3.42v4.54h-1.12V332.6h-3.2v3.67h-1.12v-4.6h4.32v-1.28h1.12v1.28h4.54Zm-6-9.11v1.56H160V326Z"/><path class="cls-1" d="M174.69,331.56c-.2-.51-.63-1.44-1-2.22v7.82H172.6v-7.35a17.82,17.82,0,0,1-1.73,4.17,6.1,6.1,0,0,0-.59-1.1,18.15,18.15,0,0,0,2.24-5.71h-1.87V326.1h1.95v-2.94h1.06v2.94h1.71v1.07h-1.71v.62c.4.61,1.47,2.48,1.73,2.94Zm5,2.22c-.6,1.64-1.83,2.73-4.51,3.39a3.08,3.08,0,0,0-.6-.9c2.24-.51,3.35-1.32,3.91-2.49h-3.54v-1h3.88a11.34,11.34,0,0,0,.22-1.28h-3.1v-4.7h7.47v4.7h-3.26c0,.45-.12.88-.19,1.28h4.18v1Zm-2.55-8.38h-1.88v-1h1.88v-1.24h1v1.24h1.22v1h-1.22v1.07h-1Zm-.12,3.38h5.29V327.7H177Zm0,1.91h5.29V329.6H177Zm3.33,3.19c1.33.7,3.14,1.76,4.08,2.39l-.71.84a44.6,44.6,0,0,0-4-2.51Zm.89-8.5h-1.29v-1h1.29v-1.22h1v1.22h2.08v1h-2.08v1.09h-1Z"/><path class="cls-1" d="M202.66,335.58v1.07H188.89v-1.07h6.4v-1.93h-4.82v-1h4.82v-1.71h1.15v1.71h4.63v1h-4.63v1.93Zm-10.55-7.67a4.91,4.91,0,0,1-2.3,3.67,4.72,4.72,0,0,0-.75-.8,4,4,0,0,0,2-2.87H189.2v-1h1.93v-2.1h-1.42v-1h6.87v1h-1.43v2.1h1.73v1h-1.73v3.28h-1.07v-3.28Zm.08-1h1.89v-2.1h-1.89v2.1Zm6.7,2.24h-1.06V324h1.06Zm2.87.95c0,.63-.12.92-.58,1.1a7.67,7.67,0,0,1-2.29.19,3.42,3.42,0,0,0-.38-1.05,18.16,18.16,0,0,0,1.87,0c.23,0,.29-.06.29-.27v-6.8h1.09Z"/><path class="cls-1" d="M212.12,334.53l3.19-.59.07,1-7.62,1.48-.24-1.08c.93-.15,2.18-.38,3.51-.61v-2.58h-3v-1h3v-1.66h1.09v1.66h3v1h-3Zm-4.48-10.36h7.84v1h-4.14a19.72,19.72,0,0,1-1.77,2.85l3.91-.33c-.36-.54-.76-1.06-1.13-1.52l.81-.49a21.15,21.15,0,0,1,2.32,3.28l-.88.57a7.5,7.5,0,0,0-.53-1c-4.77.46-5.33.52-5.69.69a7.13,7.13,0,0,0-.39-1.08c.25,0,.48-.31.74-.67a14.65,14.65,0,0,0,1.33-2.35h-2.42Zm9.75,9.54h-1.07v-9.22h1.07Zm3.06-10.29v12c0,.72-.17,1.07-.63,1.24a7.93,7.93,0,0,1-2.4.22,3.9,3.9,0,0,0-.41-1.12c.89,0,1.73,0,2,0s.33-.08.33-.34v-12Z"/><path class="cls-1" d="M239.32,325v1.1H228V329c0,2.36-.23,5.86-1.6,8.17a5.6,5.6,0,0,0-1-.64c1.3-2.21,1.44-5.32,1.44-7.53v-4h6a9.09,9.09,0,0,0-.8-1.55l1.09-.28a8.6,8.6,0,0,1,1,1.83Zm-5.43,3.42h5v1h-5v2.05h4.21v5.4H237v-.58H230.5V337h-1.11v-5.43h3.35v-4.9h1.15ZM237,332.6H230.5v2.75H237Z"/><path class="cls-1" d="M248.66,333.11c-.29-.49-.95-1.38-1.5-2.12v6.17h-1v-6.08a16.11,16.11,0,0,1-1.9,1.95,4,4,0,0,0-.56-1.09,14.6,14.6,0,0,0,4-5h-3.56v-1h4.11l.18,0,.58.45a15.22,15.22,0,0,1-1.79,3.41v0c.14.14.32.34.51.57a13,13,0,0,0,1.19-1.51l.69.63c-.44.49-1,1-1.38,1.43.49.55,1,1.13,1.14,1.35Zm-1.82-7.44a13.19,13.19,0,0,0-1.23-2l.81-.52a13.35,13.35,0,0,1,1.28,1.93Zm11.1,10.09v1h-8.68v-1H253v-2.22h-3.11v-1H253v-1.72h-3.11v-7h7.39v7h-3.2v1.72h3.31v1h-3.31v2.22Zm-7-8.92H253v-2h-2.07Zm2.07,3v-2.06h-2.07v2.06Zm3.21-5h-2.13v2h2.13Zm0,2.94h-2.13v2.06h2.13Z"/><g id="Layer_2-4" data-name="Layer 2-4"><g id="Layer_1-4" data-name="Layer 1-4"><path id="Path_77" data-name="Path 77" class="cls-2" d="M136.87,1265.11H129.4a1.29,1.29,0,0,0,0,2.57h7.47a1.29,1.29,0,0,0,0-2.57Z"/><path id="Path_78" data-name="Path 78" class="cls-2" d="M136.87,1271H129.4a1.28,1.28,0,0,0,0,2.56h7.47a1.28,1.28,0,1,0,0-2.56Z"/><path id="Path_79" data-name="Path 79" class="cls-2" d="M136.87,1277H129.4a1.29,1.29,0,0,0,0,2.57h7.47a1.29,1.29,0,0,0,0-2.57Z"/><path id="Path_80" data-name="Path 80" class="cls-2" d="M246.5,1267.43a4.89,4.89,0,1,0,4.89,4.89,4.89,4.89,0,0,0-4.89-4.89Zm0,7.2a2.32,2.32,0,1,1,2.32-2.32h0A2.31,2.31,0,0,1,246.5,1274.63Z"/><path id="Path_81" data-name="Path 81" class="cls-2" d="M258.56,1267.43a4.89,4.89,0,1,0,4.87,4.9h0A4.89,4.89,0,0,0,258.56,1267.43Zm0,7.2a2.32,2.32,0,1,1,2.31-2.34v0A2.33,2.33,0,0,1,258.56,1274.63Z"/><path id="Path_82" data-name="Path 82" class="cls-2" d="M286.52,1289.3H270.88a5.14,5.14,0,0,0,.71-2.56v-28.86a5.13,5.13,0,0,0-5.13-5.13h-5.85v-1.85h8.9a1.92,1.92,0,0,0,1.93-1.93v-5a1.92,1.92,0,0,0-1.93-1.92h-8.9v-23a39.09,39.09,0,1,0-53.81-28.33H126a6,6,0,0,0-6,6v8.5a6,6,0,0,0,6,6h5v30.93h-9a1.92,1.92,0,0,0-1.92,1.92v5a1.92,1.92,0,0,0,1.92,1.92h9v1.85h-5.94a5.13,5.13,0,0,0-5.13,5.13h0v28.88a4.93,4.93,0,0,0,.72,2.57H105a1.29,1.29,0,0,0,0,2.57H286.52a1.29,1.29,0,0,0,0-2.57h0Zm-17.65-41h-19.1v-3.69h19.1Zm-23.68-101.79a36.57,36.57,0,1,1-36.57,36.57,36.57,36.57,0,0,1,36.57-36.57Zm-122.67,58.6v-8.49a3.4,3.4,0,0,1,3.4-3.39H207.4a39.22,39.22,0,0,0,8.1,15.29H125.93a3.41,3.41,0,0,1-3.41-3.4Zm11,6h84.39a39,39,0,0,0,40.12,9v22h-8.9a1.94,1.94,0,0,0-1.94,1.93v1.11H219.94l-3.85-8.67a1.29,1.29,0,0,0-1.18-.77H176.64a1.29,1.29,0,0,0-1.06.66l-5.13,8.8H144.34V1244a1.92,1.92,0,0,0-1.92-1.92h-8.9Zm-10.84,33.52h19.1v3.69h-19.1Zm10.84,6.26h8.9a1.92,1.92,0,0,0,1.92-1.93v-1.28h26.85a1.27,1.27,0,0,0,1.11-.64l5.13-8.8h36.63l3.85,8.69a1.28,1.28,0,0,0,1.17.76h28.11V1249a1.94,1.94,0,0,0,1.94,1.92H258v1.85H217.38l-3.85-8.75a1.27,1.27,0,0,0-1.16-.76H179.21a1.3,1.3,0,0,0-1.18.76l-3.85,8.75H133.52Zm43.46,1.85,3.06-6.94H211.5l3.06,6.94Zm-19.24,36.55a6.31,6.31,0,0,0,.52-.82h0a3.77,3.77,0,0,1,3.35-2h68.28a3.77,3.77,0,0,1,3.35,2,7.31,7.31,0,0,0,.52.84Zm81,0a3.74,3.74,0,0,1-3.35-2,6.34,6.34,0,0,0-5.62-3.39H161.68a6.34,6.34,0,0,0-5.62,3.4h0a3.77,3.77,0,0,1-3.35,2H125.08a2.56,2.56,0,0,1-2.57-2.56v-28.88a2.57,2.57,0,0,1,2.57-2.56H266.46a2.57,2.57,0,0,1,2.57,2.56v28.88a2.57,2.57,0,0,1-2.57,2.56Z"/><path id="Path_83" data-name="Path 83" class="cls-2" d="M245.19,1156.22a1.28,1.28,0,0,0,1.28-1.28h0v-4.27a1.28,1.28,0,1,0-2.56,0v4.27a1.28,1.28,0,0,0,1.28,1.28Z"/><path id="Path_84" data-name="Path 84" class="cls-2" d="M265.11,1164.5a1.32,1.32,0,0,0,.9-.38l3-3a1.29,1.29,0,0,0,0-1.82,1.27,1.27,0,0,0-1.81,0l-3,3a1.3,1.3,0,0,0,0,1.82,1.34,1.34,0,0,0,.92.38Z"/><path id="Path_85" data-name="Path 85" class="cls-2" d="M273.36,1184.39h4.27a1.29,1.29,0,0,0,0-2.57h-4.27a1.29,1.29,0,0,0,0,2.57Z"/><path id="Path_86" data-name="Path 86" class="cls-2" d="M266,1202.12a1.28,1.28,0,0,0-1.81,1.81l3,3a1.28,1.28,0,1,0,1.85-1.77l0,0Z"/><path id="Path_87" data-name="Path 87" class="cls-2" d="M245.19,1216.82a1.28,1.28,0,0,0,1.28-1.29h0v-4.27a1.28,1.28,0,1,0-2.56,0v4.27a1.28,1.28,0,0,0,1.28,1.29Z"/><path id="Path_88" data-name="Path 88" class="cls-2" d="M222.25,1207.32a1.28,1.28,0,0,0,.92-.38l3-3a1.28,1.28,0,0,0-1.81-1.81l-3,3a1.29,1.29,0,0,0,0,1.82A1.25,1.25,0,0,0,222.25,1207.32Z"/><path id="Path_89" data-name="Path 89" class="cls-2" d="M217,1181.82h-4.24a1.29,1.29,0,1,0,0,2.57h4.27a1.29,1.29,0,0,0,0-2.57Z"/><path id="Path_90" data-name="Path 90" class="cls-2" d="M224.32,1164.1a1.28,1.28,0,1,0,1.81-1.82h0l-3-3a1.28,1.28,0,0,0-1.82,1.81Z"/><path id="Path_91" data-name="Path 91" class="cls-2" d="M245.19,1184.39h19a1.29,1.29,0,0,0,0-2.57H246.48v-15.66a1.29,1.29,0,0,0-2.57,0v16.95A1.28,1.28,0,0,0,245.19,1184.39Z"/></g></g><g id="Layer_2-5" data-name="Layer 2-5"><g id="Layer_1-5" data-name="Layer 1-5"><path id="Path_75" data-name="Path 75" class="cls-2" d="M246,907.11a12.56,12.56,0,0,0-7.34-8.3l-38.29-15.57a12.25,12.25,0,0,0-9.4,0l-38.28,15.57a12.52,12.52,0,0,0-7.33,8.3l-5,18.34a1.29,1.29,0,0,0,1.23,1.62H249.76a1.29,1.29,0,0,0,1.28-1.3,1.12,1.12,0,0,0,0-.32ZM143.42,924.5l4.51-16.67a10,10,0,0,1,5.84-6.6L192,885.61a9.79,9.79,0,0,1,7.48,0l38.28,15.57a9.94,9.94,0,0,1,5.83,6.6l4.52,16.67Z"/><path id="Path_76" data-name="Path 76" class="cls-2" d="M283.75,924.5H263.23l-5.85-21.62a15.11,15.11,0,0,0-8.87-10l-47.12-19.18a15,15,0,0,0-11.35,0l-47.1,19.24a15.11,15.11,0,0,0-8.87,10l-5.86,21.56H107.68a1.29,1.29,0,0,0,0,2.57h21.53a1.29,1.29,0,0,0,1.28-.94l6.06-22.59a12.55,12.55,0,0,1,7.34-8.31l47.17-19.18a12.49,12.49,0,0,1,9.42,0l47.12,19.24a12.53,12.53,0,0,1,7.35,8.32l6.11,22.58a1.28,1.28,0,0,0,1.28.94h21.53a1.29,1.29,0,0,0,0-2.57Z"/></g></g><g id="Layer_2-7" data-name="Layer 2-7"><g id="Layer_1-7" data-name="Layer 1-7"><path id="Path_67" data-name="Path 67" class="cls-2" d="M247.81,216.48a8.8,8.8,0,0,0-6.67,1.38l-1.82,1.28-1-3.85,16.1-16.11a6.67,6.67,0,0,0,0-9.43l0,0L200.5,135.85a6.68,6.68,0,0,0-9.45,0h0l-53.88,53.87a6.71,6.71,0,0,0,0,9.46l16.15,16.09-3.57,13.24a27,27,0,0,0-3.61,5.13,1.29,1.29,0,0,0,2.27,1.21A24,24,0,0,1,180.92,225a22.84,22.84,0,0,1,2.32,1.42l.34.23h26.7a6.34,6.34,0,0,1,6.34,6.34h0a6.29,6.29,0,0,1-1.82,4.47,6.21,6.21,0,0,1-4.47,1.86H184.84a1.29,1.29,0,0,0,0,2.57h25.44a9,9,0,0,0,8.29-5.66l24-16.26a6.33,6.33,0,0,1,8.8,1.69,6.14,6.14,0,0,1,1.09,3.54,6.26,6.26,0,0,1-2.8,5.25L219.31,251a23.84,23.84,0,0,1-13.5,4.2H171.18a18.77,18.77,0,0,0-8.59,2.14l-1.5.78a1.28,1.28,0,0,0,1.19,2.27l1.49-.74a16.31,16.31,0,0,1,7.5-1.85h34.54a26.43,26.43,0,0,0,14.94-4.56l30.36-20.53a8.87,8.87,0,0,0-3.3-16.09ZM139,191.53l53.87-53.87a4.13,4.13,0,0,1,5.84,0l53.87,53.87a4.11,4.11,0,0,1,0,5.81l0,0h0l-15.13,15.13-.27-.51-.16-.32a8,8,0,0,0-.59-1l-.1-.13c-.19-.26-.38-.51-.59-.75a3.45,3.45,0,0,1-.26-.28L235,209l-.31-.28-.64-.41-.33-.25c-.22-.15-.44-.28-.66-.42a2,2,0,0,0-.32-.18,9.55,9.55,0,0,0-1-.49L199.8,194a10.58,10.58,0,0,0-8,0l-31.88,13a7.6,7.6,0,0,0-1,.49l-.32.19-.64.41-.35.25c-.19.14-.37.29-.55.45l-.33.28c-.18.17-.35.35-.51.53a2.44,2.44,0,0,0-.27.29c-.2.23-.39.46-.57.71l-.12.18a7.16,7.16,0,0,0-.59.95,1.64,1.64,0,0,0-.16.29c-.09.18-.19.36-.27.55L139,197.37a4.13,4.13,0,0,1,0-5.84Zm71.24,32.56H184.37a26.56,26.56,0,0,0-31.07,1.09l2.68-9.94.16-.58a8.14,8.14,0,0,1,4.78-5.34l31.84-13a8,8,0,0,1,6.06,0l31.9,13a8.11,8.11,0,0,1,4.74,5.42l.15.56h0l1.45,5.38-11.4,7.69h-7.8a9,9,0,0,0-7.58-4.27Zm8.64,6.81h3l-2.71,1.78A8.3,8.3,0,0,0,218.92,230.9Z"/></g></g><g id="_15x15x15_cm_" data-name=" 15x15x15 cm " class="cls-3"><g class="cls-3"><path class="cls-2" d="M168.65,1330.41H166.6v-8.24c0-1,0-1.77.07-2.34-.13.14-.3.29-.49.46s-.85.71-2,1.61l-1-1.3,3.75-2.95h1.71Z"/><path class="cls-2" d="M177.61,1322.44a4.38,4.38,0,0,1,3.06,1,3.58,3.58,0,0,1,1.13,2.79,4.08,4.08,0,0,1-1.28,3.19,5.3,5.3,0,0,1-3.64,1.15,6.84,6.84,0,0,1-3.36-.69V1328a6.58,6.58,0,0,0,1.62.62,7.67,7.67,0,0,0,1.71.21,3.18,3.18,0,0,0,2.11-.61,2.28,2.28,0,0,0,.72-1.82c0-1.53-1-2.29-2.91-2.29a8.72,8.72,0,0,0-1,.08c-.4.06-.75.12-1.05.19l-.92-.54.49-6.23h6.64v1.82h-4.83l-.29,3.16.75-.12A6.52,6.52,0,0,1,177.61,1322.44Z"/><path class="cls-2" d="M183.87,1325.51a13.32,13.32,0,0,1,.68-4.33,10.73,10.73,0,0,1,1.95-3.53h1.79a12.38,12.38,0,0,0-1.86,3.68,13.76,13.76,0,0,0-.65,4.17,13.41,13.41,0,0,0,.65,4.13,12.43,12.43,0,0,0,1.84,3.61H186.5a10.19,10.19,0,0,1-2-3.47A13.12,13.12,0,0,1,183.87,1325.51Z"/><path class="cls-2" d="M198.87,1330.41h-2.06v-6a2.72,2.72,0,0,0-.42-1.66,1.55,1.55,0,0,0-1.31-.54,2,2,0,0,0-1.74.77,4.52,4.52,0,0,0-.55,2.57v4.81h-2.06v-9.66h1.61l.29,1.27h.1a2.76,2.76,0,0,1,1.17-1.07,3.76,3.76,0,0,1,1.68-.37,2.94,2.94,0,0,1,2.95,1.52h.14a3,3,0,0,1,1.21-1.12,3.77,3.77,0,0,1,1.78-.4,3.26,3.26,0,0,1,2.52.87,3.91,3.91,0,0,1,.79,2.67v6.29h-2.06v-6a2.72,2.72,0,0,0-.42-1.66,1.56,1.56,0,0,0-1.31-.54,2,2,0,0,0-1.75.74,3.84,3.84,0,0,0-.56,2.29Z"/><path class="cls-2" d="M208.16,1318.2a1.15,1.15,0,1,1,2.3,0,1.12,1.12,0,0,1-.3.82,1.14,1.14,0,0,1-.84.3,1.15,1.15,0,0,1-.86-.3A1.12,1.12,0,0,1,208.16,1318.2Zm2.17,12.21h-2.05v-9.66h2.05Z"/><path class="cls-2" d="M222.21,1330.41h-2.06v-5.94a2.57,2.57,0,0,0-.45-1.66,1.74,1.74,0,0,0-1.43-.55,2.26,2.26,0,0,0-1.9.76,4.22,4.22,0,0,0-.61,2.58v4.81h-2v-9.66h1.61l.29,1.27h.1A3,3,0,0,1,217,1321a4.17,4.17,0,0,1,1.78-.37q3.48,0,3.48,3.54Z"/><path class="cls-2" d="M229,1325.51a13.2,13.2,0,0,1-.67,4.28,10.25,10.25,0,0,1-1.95,3.45h-1.78a12.52,12.52,0,0,0,1.85-3.62,13.29,13.29,0,0,0,.64-4.12,13.65,13.65,0,0,0-.64-4.17,12.5,12.5,0,0,0-1.86-3.68h1.79a10.73,10.73,0,0,1,1.95,3.55A13.47,13.47,0,0,1,229,1325.51Z"/></g></g><g id="Step_3:_Dispatch" data-name="Step 3: Dispatch" class="cls-3"><g class="cls-3"><path class="cls-2" d="M122.18,959.56v5.17a10.69,10.69,0,0,0,4-4.38l1.63.77c-2.49,4.72-7,7-13.79,8a5.74,5.74,0,0,0-.84-1.58,23,23,0,0,0,8.53-2.5h-1.32v-5.44h-7.09V958h2.56v-4h1.68v4h3v-5.26h1.78v1.68h5.16V956h-5.16v2H129v1.57Zm-3.28,1.22a17.24,17.24,0,0,1-3.93,4.33,10.54,10.54,0,0,0-1.25-1.25,11.84,11.84,0,0,0,3.57-3.65Z"/><path class="cls-2" d="M131.24,967.7a24,24,0,0,0,.7-3.93l.86.28a29.22,29.22,0,0,1-.66,4Zm6.78-6.12s0,.42,0,.61c-.19,4.22-.39,5.78-.8,6.32a1.32,1.32,0,0,1-1,.55,12.42,12.42,0,0,1-1.55,0,4.4,4.4,0,0,0-.34-1.34c.55,0,1,.07,1.3.07a.53.53,0,0,0,.49-.22,5.14,5.14,0,0,0,.37-1.84l-.52.2a12.65,12.65,0,0,0-.82-2.31l.64-.25a11.58,11.58,0,0,1,.76,1.79c.05-.63.08-1.38.14-2.29h-4.65v-9.48h5.72v1.36H136v1.36h1.48v1.31H136v1.41h1.48v1.3H136v1.43ZM133.86,964a17.75,17.75,0,0,1,.21,3.26l-.77.11a20.91,20.91,0,0,0-.18-3.28Zm-.52-9.19v1.36h1.41v-1.36Zm1.41,2.67h-1.41v1.41h1.41Zm-1.41,4.14h1.41v-1.43h-1.41Zm1.39,5.19a15.1,15.1,0,0,0-.55-2.88l.69-.12a12.15,12.15,0,0,1,.61,2.82Zm4.11-7.49v-4.6h-.5V953.5h4.83v1.18h-.43v6.15h-1.2V960c-1.12.2-2.23.37-3.21.54l-.25-1.2Zm2.08,3.7a12.24,12.24,0,0,1-.29,1.23,19.4,19.4,0,0,1,1.45,2.51l-.91.68a16.54,16.54,0,0,0-1-1.93,6.81,6.81,0,0,1-1.5,2.27,7.33,7.33,0,0,0-.54-1.27,7,7,0,0,0,1.74-3.71Zm5.47-1.52a17.66,17.66,0,0,1-2.84.59v7H142.1v-6.79c-.88.1-1.77.16-2.59.21a4.28,4.28,0,0,0-.38-1.07,33.51,33.51,0,0,0,6.1-.88ZM140,954.68v.72h1.52v-.72Zm0,2.49h1.52v-.81H140Zm0,2,1.52-.22v-.78H140Zm4-3.67c.41.39.84.86,1.27,1.32A13.37,13.37,0,0,0,146,955h-2.52v-1.26h3l.23,0,.78.21a12.31,12.31,0,0,1-1.25,3.87c.61.69,1.16,1.37,1.52,1.87l-1,1a18.59,18.59,0,0,0-1.23-1.68,7.26,7.26,0,0,1-1.74,1.68,5.22,5.22,0,0,0-.76-1.07,6,6,0,0,0,1.66-1.61c-.52-.59-1.06-1.18-1.54-1.7Zm2.27,7.1c-.09.43-.18.88-.3,1.29a5.56,5.56,0,0,0,1.43,2.64,4.73,4.73,0,0,0-.84.9,5.25,5.25,0,0,1-1.15-2,6.5,6.5,0,0,1-1.34,2.06,5.26,5.26,0,0,0-.54-1.26,7.5,7.5,0,0,0,1.68-3.91Z"/><path class="cls-2" d="M149.4,966.14l1-1.32a4.24,4.24,0,0,0,3.11,1.45,2.21,2.21,0,0,0,2.5-2.18c0-1.47-.93-2.42-3.9-2.42v-1.52c2.6,0,3.46-1,3.46-2.3a1.85,1.85,0,0,0-2-1.92,3.84,3.84,0,0,0-2.62,1.26l-1.08-1.29a5.57,5.57,0,0,1,3.78-1.59c2.36,0,4,1.21,4,3.39a3.19,3.19,0,0,1-2.27,3.1v.09a3.33,3.33,0,0,1,2.72,3.29c0,2.38-2,3.77-4.4,3.77A5.42,5.42,0,0,1,149.4,966.14Z"/><path class="cls-2" d="M160.82,959.49a1.38,1.38,0,1,1,2.76,0,1.38,1.38,0,1,1-2.76,0Zm0,7a1.38,1.38,0,1,1,2.76,0,1.38,1.38,0,1,1-2.76,0Z"/><path class="cls-2" d="M173,959.6v9.57h-1.64v-15.7H178v6.13Zm0-4.9v1.18h3.49V954.7Zm3.49,3.67V957H173v1.35Zm4.7,6.59v3.92h-1.48V965h-2.15a5.8,5.8,0,0,1-2.36,4.17,7.68,7.68,0,0,0-1.11-1,4.41,4.41,0,0,0,2-3.19h-2v-1.37h2.07v-1.68h-1.77v-1.34h8.69v1.34h-1.88v1.68h2.22V965Zm-1.48-1.37v-1.68h-2.11v1.68Zm6.46,3.54c0,.91-.2,1.41-.79,1.7a7.32,7.32,0,0,1-2.79.3,6.77,6.77,0,0,0-.56-1.7c.9.06,1.83,0,2.11,0s.36-.09.36-.36v-7.46h-5.13v-6.18h6.8Zm-5.23-12.43v1.18h3.56V954.7Zm3.56,3.7V957h-3.56v1.38Z"/><path class="cls-2" d="M195,957.81a16.65,16.65,0,0,1-1.18,6.42,20.85,20.85,0,0,1,2,2l-1,1.28a23.1,23.1,0,0,0-1.75-1.82,11.8,11.8,0,0,1-3.18,3.42,5.72,5.72,0,0,0-1.15-1.1,11.26,11.26,0,0,0,3.15-3.38c-.88-.8-1.81-1.59-2.63-2.23.38-1.13.75-2.67,1.11-4.27l-1.38.08-.16-1.5,1.84-.09c.24-1.32.45-2.64.58-3.82l1.53.1c-.14,1.15-.35,2.38-.58,3.65l1.34-.07v-1.25H195v1.18l.82,0v1.4Zm-3.13.22c-.3,1.37-.61,2.71-.93,3.84.52.41,1.09.86,1.63,1.31a14.75,14.75,0,0,0,.95-5.26Zm12.2,3c-.13-.37-.29-.76-.5-1.21-6.19.52-7,.59-7.6.8a16.18,16.18,0,0,0-.54-1.55c.36-.09.7-.52,1.14-1.15a28.29,28.29,0,0,0,2.65-5.18l1.74.48a33.73,33.73,0,0,1-3.06,5.45l4.9-.32a28.32,28.32,0,0,0-1.59-2.39l1.32-.67a22.16,22.16,0,0,1,3,5Zm-7.76.84h8v7.27h-1.6v-.74h-4.91v.75h-1.52Zm1.52,1.49v3.58h4.91v-3.58Z"/><path class="cls-2" d="M214,966.91a21,21,0,0,1-5.34,2.22,13.79,13.79,0,0,0-1.15-1.14,20.2,20.2,0,0,0,5.08-2Zm9.3-1.12H207.54v-1.38H210v-7.94h4.25c0-.3.11-.63.18-1H208v-1.41h6.62c.07-.48.1-1,.14-1.39l1.75.16-.21,1.23h6.53v1.41h-6.78c-.07.34-.15.67-.18,1h5v7.94h2.41Zm-11.69-8.21v1h7.62v-1Zm7.62,2h-7.62v.86h7.62Zm-7.62,1.86v.9h7.62v-.9Zm0,3h7.62v-1.06h-7.62Zm6.31,1.47a39.17,39.17,0,0,1,5.49,2.09L222,969.1a31.5,31.5,0,0,0-5.19-2.13Z"/><path class="cls-2" d="M227.76,958.83h-1.64v-4.15h6.76c-.22-.54-.49-1.13-.74-1.61l1.76-.48c.34.64.76,1.45,1,2.09h6.35v3.74h-1.72v-2.24h-3.05v2.58c0,.5.1.68.61.68H240a8.19,8.19,0,0,0,1.54-.13c0,.45.09,1.09.16,1.49a8.29,8.29,0,0,1-1.66.11H237.1c-1.77,0-2.24-.56-2.24-2.17v-2.56h-1.93c-.25,3.08-1.22,4.6-5.92,5.31a4.21,4.21,0,0,0-.79-1.37c4.12-.5,4.81-1.54,5-3.94h-3.47Zm6.9,8.35h6.76v1.58h-15.3v-1.58h6.81v-3.41h-5.06v-1.54h11.86v1.54h-5.07Z"/><path class="cls-2" d="M259.08,958.81a20.47,20.47,0,0,1-3.12,6.05c.61,1.52,1.31,2.45,2.06,2.45.47,0,.68-.92.79-3.22a4.34,4.34,0,0,0,1.43.93c-.27,3.15-.88,4-2.35,4-1.3,0-2.34-1-3.14-2.69a16.31,16.31,0,0,1-3.38,2.74,8.15,8.15,0,0,0-1.22-1.36,14,14,0,0,0,3.9-3.13,33.57,33.57,0,0,1-1.27-7.37h-5.72v2.17h4.49V960c-.09,3.88-.18,5.42-.56,5.92a1.55,1.55,0,0,1-1.14.57,13.51,13.51,0,0,1-2.11,0,4.12,4.12,0,0,0-.45-1.56c.73.07,1.43.09,1.72.09a.62.62,0,0,0,.55-.21c.2-.25.31-1.27.36-4h-2.86c0,2.54-.32,6.11-1.9,8.42a6.86,6.86,0,0,0-1.39-1.14c1.43-2.15,1.55-5.23,1.55-7.53v-5.06h7.35c0-.93-.09-1.9-.09-2.85h1.76c0,1,0,1.92,0,2.85h3.45A19.33,19.33,0,0,0,255,953.7l1-1a19.43,19.43,0,0,1,3.09,2l-.86.92h1.82v1.62h-5.61a34,34,0,0,0,.88,5.65,17.94,17.94,0,0,0,2-4.45Z"/><path class="cls-2" d="M278.37,967v1.53h-16V967h7.19v-1.9h-5.36v-1.52h5.36v-1.4h-1.34v-3.63h-2a5.49,5.49,0,0,1-2.74,4.08,7,7,0,0,0-1.09-1.16,4.28,4.28,0,0,0,2.26-2.92h-2v-1.48h2.17v-2.18h-1.56v-1.47h8v1.47h-1.46v2.18h1.86v1.48h-1.86v3.31h1.5v1.72h5.26v1.52h-5.26V967Zm-10.14-9.93v-2.18h-1.89v2.18Zm5.89,2.65H272.6v-6h1.52Zm3.32.93c0,.84-.16,1.25-.75,1.5a8.13,8.13,0,0,1-2.72.27,5.63,5.63,0,0,0-.5-1.5c.91,0,1.79,0,2,0s.36-.07.36-.3v-7.74h1.57Z"/></g></g><g id="Step_2:_Print" data-name="Step 2: Print" class="cls-3"><g class="cls-3"><path class="cls-2" d="M140.51,615.57v5.17a10.77,10.77,0,0,0,4-4.39l1.63.77c-2.49,4.72-7,7-13.79,8a5.83,5.83,0,0,0-.84-1.57,23.16,23.16,0,0,0,8.53-2.51h-1.32v-5.43h-7.09V614h2.56v-4h1.68v4h3v-5.25h1.77v1.68h5.17V612h-5.17v2h6.64v1.58Zm-3.28,1.21a17.07,17.07,0,0,1-3.93,4.33,11.34,11.34,0,0,0-1.25-1.25,11.73,11.73,0,0,0,3.57-3.65Z"/><path class="cls-2" d="M149.57,623.7a23.83,23.83,0,0,0,.7-3.93l.86.29a29.07,29.07,0,0,1-.66,4Zm6.78-6.11s0,.41,0,.61c-.19,4.22-.39,5.77-.8,6.31a1.29,1.29,0,0,1-1,.55,12.42,12.42,0,0,1-1.55,0,4.48,4.48,0,0,0-.34-1.34c.55,0,1.05.07,1.3.07a.5.5,0,0,0,.48-.21,4.94,4.94,0,0,0,.38-1.84l-.52.19a12.92,12.92,0,0,0-.82-2.31l.64-.25a11,11,0,0,1,.75,1.79c.06-.62.09-1.37.15-2.29h-4.65v-9.47h5.72v1.35h-1.75v1.36h1.48v1.31h-1.48v1.41h1.48v1.31h-1.48v1.43ZM152.18,620a17.75,17.75,0,0,1,.22,3.25l-.77.11a22,22,0,0,0-.18-3.27Zm-.52-9.2v1.36h1.42v-1.36Zm1.42,2.67h-1.42v1.41h1.42Zm-1.42,4.15h1.42v-1.43h-1.42Zm1.4,5.18a16,16,0,0,0-.55-2.87l.69-.13a12.22,12.22,0,0,1,.61,2.83Zm4.11-7.49v-4.59h-.5V609.5h4.83v1.19h-.43v6.15h-1.2V616c-1.12.2-2.23.38-3.21.54l-.26-1.2Zm2.08,3.7a12.43,12.43,0,0,1-.29,1.24,19.35,19.35,0,0,1,1.45,2.5l-.91.68a17.36,17.36,0,0,0-1-1.93,6.71,6.71,0,0,1-1.5,2.27,7.68,7.68,0,0,0-.54-1.27,7,7,0,0,0,1.74-3.7Zm5.47-1.52a17.66,17.66,0,0,1-2.84.59v7h-1.45v-6.8c-.88.11-1.77.16-2.6.21a4,4,0,0,0-.37-1.07,34.51,34.51,0,0,0,6.1-.87Zm-6.37-6.77v.71h1.52v-.71Zm0,2.48h1.52v-.8h-1.52Zm0,2,1.52-.21v-.79h-1.52Zm4-3.67c.41.4.84.86,1.27,1.33a13.51,13.51,0,0,0,.66-1.79h-2.52v-1.25h3l.24,0,.78.22a12.25,12.25,0,0,1-1.25,3.86c.61.7,1.16,1.38,1.52,1.88l-1,.94a18.59,18.59,0,0,0-1.23-1.68,7.08,7.08,0,0,1-1.74,1.68,4.91,4.91,0,0,0-.77-1.07,5.89,5.89,0,0,0,1.67-1.61c-.52-.59-1.06-1.18-1.54-1.7Zm2.27,7.1c-.09.43-.18.88-.31,1.29a5.74,5.74,0,0,0,1.44,2.65,4.76,4.76,0,0,0-.85.89,5.29,5.29,0,0,1-1.14-2,6.39,6.39,0,0,1-1.34,2.06,5,5,0,0,0-.54-1.25,7.57,7.57,0,0,0,1.68-3.92Z"/><path class="cls-2" d="M168,622.52c3.88-3.43,5.89-6,5.89-8.15a2.15,2.15,0,0,0-2.24-2.42,3.57,3.57,0,0,0-2.59,1.47l-1.17-1.14a5.16,5.16,0,0,1,4-2,3.72,3.72,0,0,1,4,4c0,2.54-2,5.17-4.81,7.83.68-.07,1.5-.12,2.15-.12h3.29v1.75H168Z"/><path class="cls-2" d="M179.15,615.5a1.38,1.38,0,1,1,2.76,0,1.38,1.38,0,1,1-2.76,0Zm0,7a1.38,1.38,0,1,1,2.76,0,1.38,1.38,0,1,1-2.76,0Z"/><path class="cls-2" d="M195.73,618.59a9.57,9.57,0,0,0,.27,1.48c-4.19,1.9-4.81,2.24-5.21,2.6a5.42,5.42,0,0,0-.77-1.49,1.52,1.52,0,0,0,.85-1.37v-4.46l-2,.4-.27-1.52,2.22-.45v-4.35h1.6v4l3.17-.65.27,1.51-3.44.69v5Zm9.17-8.41s0,.65,0,.88c-.24,9-.43,12-1.15,12.93a1.84,1.84,0,0,1-1.46.89,13.86,13.86,0,0,1-2.53,0,4,4,0,0,0-.52-1.68c1,.07,1.88.09,2.28.09a.7.7,0,0,0,.69-.34c.54-.62.79-3.56,1-11.21h-3.24c-.12,5.58-.52,10.64-5,13.39a5.19,5.19,0,0,0-1.2-1.32c4.22-2.4,4.49-7,4.58-12.07h-2.68v-1.58Z"/><path class="cls-2" d="M212.41,608.52a11.5,11.5,0,0,1,1,1.84h3.79v2.81h-1.34v-1.61H209v1.61c.86,0,1.77-.07,2.65-.14v-.95h1.55v.79a15.73,15.73,0,0,0,1.88-.29l1.06,1a19.32,19.32,0,0,1-2.94.49v1h2.63v1.2h-2.63v1h3.89v1.2h-9.36v-1.2h3.92v-1h-2.56v-1.2h2.56v-.89c-.88,0-1.75.09-2.56.09a4,4,0,0,0-.36-1h-1v-2.88h4.16a14.43,14.43,0,0,0-.69-1.36Zm-3.71,11.2h7.47V625h-1.41v-.86h-4.71v1H208.7Zm1.35,1.41V623h4.71v-1.86Zm9.59-.32h-1.38v-9.7h1.38Zm3.24-12V623c0,.93-.22,1.38-.74,1.63a6.57,6.57,0,0,1-2.73.32,5.87,5.87,0,0,0-.47-1.57c1,0,1.86,0,2.11,0s.4-.09.4-.4V608.79Z"/><path class="cls-2" d="M242,624.24h-5.47v.91h-1.45v-9.73c-.26.45-.53.88-.8,1.27-.09-.14-.23-.35-.41-.59v7c0,.77-.15,1.25-.65,1.5a5.63,5.63,0,0,1-2.34.3,5.5,5.5,0,0,0-.55-1.52c.82.06,1.59,0,1.84,0s.3-.09.3-.36v-6.78h-4.75v.33c0,2.55-.13,6.15-1.09,8.47a4.52,4.52,0,0,0-1.24-.68c.91-2.21,1-5.38,1-7.78v-7.11h7.49v5.08a21.75,21.75,0,0,0,2.29-5.83l1.45.34c-.29,1-.61,2-1,3h2.13a13.25,13.25,0,0,0-.88-2.65l1.22-.46a14.46,14.46,0,0,1,.95,2.65l-1.06.46h2.85v1.48h-2.19v2h2V617h-2v2.13h2v1.41h-2v2.2H242ZM227.71,610.9v1.52h1.75V610.9Zm0,4.17h1.75v-1.4h-1.75Zm1.57,6.63v.93h-1v-5.45h3.6v4.52Zm0-3.34v2.18h1.59v-2.18Zm3.18-7.46h-1.8v1.52h1.8Zm0,4.17v-1.4h-1.8v1.4Zm5.8-1.51h-1.74v2h1.74Zm0,3.44h-1.74v2.13h1.74Zm-1.74,5.74h1.74v-2.2h-1.74Z"/><path class="cls-2" d="M252.69,613.81a18,18,0,0,1-7.42,7.44,9.36,9.36,0,0,0-1-1.35,15.78,15.78,0,0,0,4.76-3.46c-3.11.2-3.65.29-4,.43-.09-.32-.34-1.09-.52-1.52a2.39,2.39,0,0,0,1.08-.73,22,22,0,0,0,1.8-2.24h-3.27v-1.52h4.42a8.58,8.58,0,0,0-.9-1.86l1.58-.37a8.59,8.59,0,0,1,1.11,2.23h3.57v1.52h-4.61a23.81,23.81,0,0,1-2.34,2.79l3.25-.14a11.77,11.77,0,0,0,1-1.7Zm1.16,3.44a18,18,0,0,1-2.59,3.45,34.24,34.24,0,0,1,2.86,2.63l-1.2,1.09a27.83,27.83,0,0,0-2.72-2.68,22.51,22.51,0,0,1-5.09,3.4,8.46,8.46,0,0,0-1-1.42,17.08,17.08,0,0,0,8.24-7Zm2.63,3.38h-1.57v-9.91h1.57Zm3.2-11.7V623.1c0,1-.23,1.44-.82,1.7a8.76,8.76,0,0,1-3.08.28,6.92,6.92,0,0,0-.53-1.57c1,0,2.05,0,2.38,0s.41-.11.41-.43V608.93Z"/></g></g><g id="Step_1:_Choose_an_option" data-name="Step 1: Choose an option" class="cls-3"><g class="cls-3"><path class="cls-2" d="M122.18,292.93v5.17a10.69,10.69,0,0,0,4-4.38l1.63.77c-2.49,4.72-7,6.95-13.79,7.95a5.83,5.83,0,0,0-.84-1.57,23.36,23.36,0,0,0,8.53-2.5h-1.32v-5.44h-7.09v-1.57h2.56v-4h1.68v4h3V286.1h1.78v1.68h5.16v1.57h-5.16v2H129v1.57Zm-3.28,1.22a17,17,0,0,1-3.93,4.32,11.34,11.34,0,0,0-1.25-1.25,11.63,11.63,0,0,0,3.57-3.65Z"/><path class="cls-2" d="M131.24,301.07a24.14,24.14,0,0,0,.7-3.94l.86.29a29.07,29.07,0,0,1-.66,4ZM138,295s0,.41,0,.61c-.19,4.22-.39,5.77-.8,6.31a1.33,1.33,0,0,1-1,.56,15.22,15.22,0,0,1-1.55,0,4.48,4.48,0,0,0-.34-1.34,12.52,12.52,0,0,0,1.3.07.53.53,0,0,0,.49-.21,5.2,5.2,0,0,0,.37-1.84l-.52.19a12.57,12.57,0,0,0-.82-2.3l.64-.25a11.18,11.18,0,0,1,.76,1.79c.05-.63.08-1.38.14-2.29h-4.65v-9.48h5.72v1.36H136v1.36h1.48v1.3H136v1.41h1.48v1.31H136V295Zm-4.17,2.38a16.91,16.91,0,0,1,.22,3.25l-.77.11a20.85,20.85,0,0,0-.18-3.27Zm-.51-9.19v1.36h1.41v-1.36Zm1.41,2.66h-1.41v1.41h1.41ZM133.34,295h1.41v-1.43h-1.41Zm1.39,5.19a15.1,15.1,0,0,0-.55-2.88l.69-.13a12.33,12.33,0,0,1,.61,2.83Zm4.11-7.5v-4.59h-.5v-1.18h4.83v1.18h-.43v6.15h-1.2v-.81c-1.12.2-2.23.38-3.21.54l-.25-1.2Zm2.08,3.71c-.09.42-.16.82-.29,1.23a19.35,19.35,0,0,1,1.45,2.5l-.91.68a17.36,17.36,0,0,0-1-1.93,6.71,6.71,0,0,1-1.5,2.27,8.06,8.06,0,0,0-.54-1.27,7,7,0,0,0,1.74-3.7Zm5.47-1.52a18.82,18.82,0,0,1-2.84.59v7H142.1v-6.8c-.88.11-1.77.16-2.59.22a4.35,4.35,0,0,0-.38-1.08,33.6,33.6,0,0,0,6.1-.87ZM140,288.05v.71h1.52v-.71Zm0,2.48h1.52v-.8H140Zm0,2,1.52-.21v-.79H140Zm4-3.66c.41.39.84.86,1.27,1.32a13,13,0,0,0,.66-1.79h-2.52V287.1h3l.24,0,.78.22a12.25,12.25,0,0,1-1.25,3.86c.61.7,1.16,1.38,1.52,1.88l-1,1a16.14,16.14,0,0,0-1.23-1.68,7.26,7.26,0,0,1-1.74,1.68,5.28,5.28,0,0,0-.76-1.08,5.86,5.86,0,0,0,1.66-1.61c-.52-.59-1.06-1.18-1.54-1.69Zm2.27,7.1c-.09.43-.18.87-.3,1.28a5.59,5.59,0,0,0,1.43,2.65,5,5,0,0,0-.84.89,5.2,5.2,0,0,1-1.15-1.94,6.34,6.34,0,0,1-1.34,2.05,5.37,5.37,0,0,0-.54-1.25,7.54,7.54,0,0,0,1.68-3.92Z"/><path class="cls-2" d="M150.43,299.39h2.88v-9.16H151v-1.31a7.88,7.88,0,0,0,2.86-1h1.56v11.47h2.57v1.69h-7.51Z"/><path class="cls-2" d="M160.82,292.86a1.38,1.38,0,1,1,2.76,0,1.38,1.38,0,1,1-2.76,0Zm0,7a1.38,1.38,0,1,1,2.76,0,1.38,1.38,0,1,1-2.76,0Z"/><path class="cls-2" d="M176,295.59c-.57.2-1.18.38-1.77.58v4.27c0,.84-.18,1.29-.66,1.56a5.67,5.67,0,0,1-2.4.3,6.64,6.64,0,0,0-.44-1.54c.73,0,1.44,0,1.64,0s.34-.09.34-.32v-3.83l-2.07.63-.2-1.65c.63-.16,1.41-.36,2.27-.61v-3.89h-2.13v-1.54h2.13v-3.45h1.52v3.45h1.59v1.54h-1.59v3.47l1.58-.49Zm10.77-.59v.88h-8.46v.36h-1.47v-3.4c-.25.25-.5.48-.75.7a7.56,7.56,0,0,0-.86-1.11,9.13,9.13,0,0,0,2.54-3.11h-1.18v-2.77h1.4v1.62h2.59v-2.11h1.57v2.11h2.54v-1.62h1.51v3.32h-1.51v-.55h-2.59c.14.3.34.73.48,1.05h3.67v.95h-3.67V292h3.29v.81h-3.29v.7h3.29v.78h-3.29V295Zm-.29,6.1c0,.65-.11.93-.55,1.13a5.06,5.06,0,0,1-1.95.2,4.59,4.59,0,0,0-.34-1.13,10.51,10.51,0,0,0,1.16,0c.18,0,.23-.05.23-.22v-3.45h-2.23v.25c0,.34,0,.45.25.45h.89a3.74,3.74,0,0,0,.75-.07c0,.27.06.64.09.91a3.64,3.64,0,0,1-.78.07h-.38v2.29h-3.33V302H179v-2.62a7.58,7.58,0,0,1-.81.35,4.59,4.59,0,0,0-.51-.57v3.24h-1.42v-5.85h10.16Zm-8.74-2.21a2.82,2.82,0,0,0,1.71-1.26h-1.71Zm3.32-7.57h-2.75V292H181Zm0,1.45h-2.75v.7H181ZM178.26,295H181v-.75h-2.75Zm.88-5.61c-.17.32-.31.66-.51,1H181c-.11-.27-.23-.55-.34-.78l1.11-.27h-2.9Zm3,9.73c-.34-.2-.43-.59-.43-1.25v-.24h-1.11a2.9,2.9,0,0,1-1.12,1.49Zm.2.78h-2.08v.83h2.08Z"/><path class="cls-2" d="M193.32,289.44a4.42,4.42,0,0,1-3,3.49,5,5,0,0,0-1-1.13,3.2,3.2,0,0,0,2.47-2.36h-2.58v-1.3h2.65v-1.83h1.5v1.83h1.32v-1.83h1.45v1.83H198v-1.83h1.52v1.83h1.36v-1.86h1.49v1.86h2.57v1.3h-2.57v1.08c0,.48,0,.64.34.64H204a5.64,5.64,0,0,0,.93-.09c0,.38.07.93.12,1.29a4.26,4.26,0,0,1-1,.09h-1.41c-1.41,0-1.7-.58-1.7-2v-1h-1.36v2.85h-4.83v-2.85Zm-3.79,3.63h15.2v3.6h-1.61v-2.24H191.06v2.24h-1.53Zm13.52,6.78c0,.75-.18,1.2-.77,1.41a8.41,8.41,0,0,1-2.79.24,5.47,5.47,0,0,0-.52-1.43c.91,0,1.86,0,2.09,0s.34-.07.34-.29v-2.44h-3.59v5.11h-1.65v-5.11h-3.29v4.09h-1.61V296h4.9v-1.29h1.65V296h5.24Zm-6.91-10.41V291H198v-1.58Z"/><path class="cls-2" d="M212.58,286.64a29,29,0,0,1-1.77,3.75v12.09h-1.58v-9.62a20.37,20.37,0,0,1-1.53,1.88,10.68,10.68,0,0,0-.92-1.69,19.77,19.77,0,0,0,4.24-6.88Zm6.26,4.3v9.63c0,.85-.18,1.34-.72,1.62a5.86,5.86,0,0,1-2.47.33,6,6,0,0,0-.59-1.67c.81,0,1.58,0,1.81,0s.32-.05.32-.28v-9.63h-2.41a17.41,17.41,0,0,1-1.72,2.94,9.28,9.28,0,0,0-1.36-1.09,16.84,16.84,0,0,0,3-6.62l1.65.36a25.41,25.41,0,0,1-.92,2.88h6.76l.27-.06,1.16.24c-.23,1.35-.55,2.93-.78,3.93l-1.42-.27c.13-.61.26-1.45.36-2.31Zm-2.94,3.19a17.54,17.54,0,0,1-2.52,6,9.93,9.93,0,0,0-1.41-.89,13.8,13.8,0,0,0,2.31-5.44Zm5.42-.47a22.26,22.26,0,0,1,2.11,5.87l-1.59.57a23.29,23.29,0,0,0-2-6Z"/><path class="cls-2" d="M241.41,288.85s0,.57,0,.79c-.25,8.06-.47,10.84-1.18,11.73a2,2,0,0,1-1.56.84,20,20,0,0,1-2.7,0,3.87,3.87,0,0,0-.53-1.61c1.14.09,2.18.11,2.62.11a.82.82,0,0,0,.76-.3c.57-.6.8-3.3,1-10h-4.22a18.25,18.25,0,0,1-1.62,3,8.84,8.84,0,0,0-1.31-.93v8.21h-4.85V302h-1.52V288.94h2a21.44,21.44,0,0,0,.62-2.9l1.81.31c-.31.89-.65,1.84-.93,2.59h2.86v3.38a16.93,16.93,0,0,0,2.66-6.28l1.61.38a24.37,24.37,0,0,1-.73,2.43Zm-13.58,1.54v3.4h3.33v-3.4Zm3.33,8.8v-3.95h-3.33v3.95Zm6-1.4a30.09,30.09,0,0,0-2.62-4.13l1.31-.73a31.61,31.61,0,0,1,2.7,4Z"/><path class="cls-2" d="M248.88,296.17a24.38,24.38,0,0,0-1-2.42v8.75h-1.51v-7.84a18.15,18.15,0,0,1-1.78,4.3,9.55,9.55,0,0,0-.81-1.67,20.21,20.21,0,0,0,2.49-6.29h-2.08v-1.54h2.18v-3.38h1.51v3.38h1.93V291h-1.93v.54c.46.69,1.79,3,2.07,3.48Zm6.87,2.5c1.47.75,3.52,1.86,4.59,2.58l-1,1.18c-1-.72-3.1-1.92-4.6-2.72l1-1H255c-.7,1.82-2.13,3.08-5.26,3.85a5.55,5.55,0,0,0-.87-1.35c2.47-.5,3.68-1.32,4.34-2.5h-3.84v-1.39h4.34a8.68,8.68,0,0,0,.22-1.29h-3.52v-5.65h8.78V296h-3.62a12.49,12.49,0,0,1-.19,1.29H260v1.39Zm-4.11-9.85h-2v-1.36h2V286.1h1.48v1.36h1.36v1.36h-1.36v1.12h-1.48Zm.28,3.77h5.62v-1h-5.62Zm0,2.2h5.62v-1.06h-5.62Zm4.45-6H255v-1.36h1.37V286.1h1.49v1.34h2.27v1.36h-2.27v1.14h-1.49Z"/><path class="cls-2" d="M278.37,300.35v1.54h-16v-1.54h7.19v-1.89h-5.36v-1.52h5.36v-1.4h-1.34v-3.63h-2a5.51,5.51,0,0,1-2.74,4.08,6.64,6.64,0,0,0-1.09-1.16,4.3,4.3,0,0,0,2.26-2.92h-2v-1.48h2.17v-2.19h-1.56v-1.46h8v1.46h-1.46v2.19h1.86v1.48h-1.86v3.31h1.5v1.72h5.26v1.52h-5.26v1.89Zm-10.14-9.92v-2.19h-1.89v2.19Zm5.89,2.64H272.6v-5.95h1.52Zm3.32.93c0,.84-.16,1.25-.75,1.51a8.19,8.19,0,0,1-2.72.26,5.63,5.63,0,0,0-.5-1.5c.91,0,1.79,0,2,0s.36-.07.36-.3v-7.75h1.57Z"/></g></g><path class="cls-1" d="M73.07,652.51a15.39,15.39,0,0,1-2.66,3.6c.58,1.61,1.27,2.6,2,2.6.42,0,.6-.79.69-2.75a2.7,2.7,0,0,0,1,.61c-.21,2.53-.61,3.27-1.76,3.27s-2.13-1.07-2.84-2.87a16.13,16.13,0,0,1-3.24,2.26,4.07,4.07,0,0,0-.78-.91,15.24,15.24,0,0,0,3.64-2.48,28.37,28.37,0,0,1-.86-4.45H64.65v2.45l2.75-.59.08,1c-.94.23-1.89.45-2.83.66v3.41c0,.73-.18,1.07-.66,1.26a8.53,8.53,0,0,1-2.54.21,5.06,5.06,0,0,0-.43-1.15c1,.05,1.89,0,2.15,0s.37-.08.37-.36v-3.11c-1.16.24-2.26.51-3.18.7L60,654.76c.92-.15,2.16-.41,3.5-.69v-2.68H60.25V650.3h3.29v-2.44c-1,.19-1.92.34-2.83.46a4.28,4.28,0,0,0-.36-1A34.54,34.54,0,0,0,66.4,646l.82.94a21.38,21.38,0,0,1-2.57.7v2.67h3.52c-.14-1.39-.2-2.87-.22-4.37h1.17c0,1.54.06,3,.18,4.37h4.51v1.09H69.42a28.08,28.08,0,0,0,.63,3.5,13.11,13.11,0,0,0,2-2.79Zm-.55-3.1a14.84,14.84,0,0,0-2.41-2.6l.88-.6a16,16,0,0,1,2.45,2.54Z"/><path class="cls-1" d="M82.37,646.18a26.2,26.2,0,0,1-1.21,3v10.55H80.07v-8.52a15.56,15.56,0,0,1-1.41,2,6.37,6.37,0,0,0-.69-1.06,18.06,18.06,0,0,0,3.33-6.27Zm4.37,6.07H83.66v7.5H82.6v-13h4.14Zm-3.08-4.63V649h2.17v-1.36Zm2.17,3.74v-1.5H83.66v1.5Zm6.07,6.95c0,.75-.19,1.1-.69,1.29a10.66,10.66,0,0,1-2.84.19,5.2,5.2,0,0,0-.4-1.1c1.07,0,2.13,0,2.42,0s.42-.11.42-.4v-6.06H87.59V646.7H91.9Zm-3.38-10.69V649h2.29v-1.36Zm2.29,3.74v-1.5H88.52v1.5Z"/><path class="cls-1" d="M101.08,646c-.26.75-.54,1.6-.8,2.26h2.55v10H98.56v1.21h-1V648.25h1.72a19.61,19.61,0,0,0,.61-2.49Zm.7,3.28H98.56v3.21h3.22Zm0,7.9v-3.68H98.56v3.68Zm8.54-8.39c-.24,7-.44,9.36-1,10.11a1.51,1.51,0,0,1-1.22.61,17.24,17.24,0,0,1-2.27,0,2.54,2.54,0,0,0-.38-1.12c1,.09,1.92.09,2.27.09s.48,0,.63-.23c.51-.54.74-2.87.93-9h-3.89a13.14,13.14,0,0,1-1.44,2.68,8.15,8.15,0,0,0-.94-.64,15.53,15.53,0,0,0,2.35-5.57l1.09.26c-.19.75-.4,1.49-.66,2.21h4.58Zm-3.39,6.92a26.33,26.33,0,0,0-2.33-3.54l.89-.52a29.44,29.44,0,0,1,2.41,3.46Z"/><path class="cls-1" d="M129,647.66v1.11H117.66v2.87c0,2.36-.23,5.85-1.59,8.17a5.68,5.68,0,0,0-1-.64c1.3-2.21,1.44-5.33,1.44-7.53v-4h6a9.39,9.39,0,0,0-.8-1.54l1.09-.28a8.54,8.54,0,0,1,1,1.82Zm-5.43,3.42h5v1h-5v2h4.22v5.4H126.6V659h-6.47v.61H119v-5.43h3.34v-4.91h1.15Zm3.08,4.16h-6.47V658h6.47Z"/><path class="cls-1" d="M142.85,657.29A49.56,49.56,0,0,1,147.6,659l-.92.83a38.28,38.28,0,0,0-4.86-1.82l.89-.73H138.2l1,.62a18.16,18.16,0,0,1-4.84,2,7.2,7.2,0,0,0-.75-.86,16.81,16.81,0,0,0,4.46-1.71h-2.79V650.7H146v6.59Zm2.59-7.43h-9.57v-3.47h9.57Zm-9.08,2.77h8.5v-1.09h-8.5Zm0,1.89h8.5v-1.07h-8.5Zm0,1.92h8.5v-1.11h-8.5Zm7.88-9.11H137v1.59h7.22Z"/><path class="cls-1" d="M159.9,646.12a2.77,2.77,0,0,0-.22.29,15.13,15.13,0,0,0,6.47,3.19,4.39,4.39,0,0,0-.72.87,18.23,18.23,0,0,1-3.76-1.53v.47h-5.3V649a21.61,21.61,0,0,1-3.76,1.56,6.65,6.65,0,0,0-.64-.87c2.77-.74,5.49-2.09,6.93-3.94Zm-6,4h10.24V654H153.87Zm.89,4.59h8.62v5h-1.15v-.46h-6.35v.51h-1.12Zm.09-1.5h3.62V651h-3.62Zm1.73-2.12a6,6,0,0,1,.92,1.73l-.87.33a6.5,6.5,0,0,0-.86-1.8Zm-.7,4.43v1h6.35v-1Zm6.35,2.9v-1h-6.35v1Zm-1.15-9.88a12.83,12.83,0,0,1-2-1.53,11.11,11.11,0,0,1-2,1.53Zm2,2.38h-3.64v2.29h3.64Zm-2.66,1.95a14.35,14.35,0,0,0,.84-1.84l1,.31a17.83,17.83,0,0,1-1,1.81Z"/><path class="cls-1" d="M183.43,649.7a17.6,17.6,0,0,1-1.87,6.11,7.5,7.5,0,0,0,3,3,3.73,3.73,0,0,0-.8,1,8.25,8.25,0,0,1-2.85-2.9,10.36,10.36,0,0,1-3.58,3,4.53,4.53,0,0,0-.69-1,8.62,8.62,0,0,0,3.65-3.08,20.57,20.57,0,0,1-1.39-4.25,10.82,10.82,0,0,1-1,1.81,5.65,5.65,0,0,0-.83-.72,12.41,12.41,0,0,1-2.31,2v.61l3-.39,0,1-3,.43v2.35c0,.58-.13.86-.56,1a6.63,6.63,0,0,1-2,.16,4.39,4.39,0,0,0-.36-1c.76,0,1.41,0,1.61,0s.26-.06.26-.23v-2.19c-1.14.15-2.18.31-3,.41l-.14-1,3.19-.38v-1.06a9.76,9.76,0,0,0,1.75-1.37H173a15.09,15.09,0,0,1-1.85,1.26,10.73,10.73,0,0,0-.81-.87,13.4,13.4,0,0,0,3.34-2.42h-3.24v-1h2.66v-1.51h-2v-1h2v-1.61h1v1.61h1.58v.94a14.78,14.78,0,0,0,1.09-2.18l1.06.31a16.77,16.77,0,0,1-1.92,3.43h1.86v1H175.1c-.35.38-.71.76-1.09,1.11h2.24l.21-.06.54.4a16.23,16.23,0,0,0,2.39-6.58l1.14.19c-.17.92-.37,1.81-.61,2.65h4.47v1.07Zm-9.33.2h.46a13.46,13.46,0,0,0,1.09-1.51H174.1Zm6.83,4.65a17.57,17.57,0,0,0,1.33-4.85h-2.68A20.7,20.7,0,0,0,180.93,654.55Z"/><path class="cls-1" d="M193.28,646.18a24.15,24.15,0,0,1-1.58,3.28v10.3h-1.09v-8.6a17.94,17.94,0,0,1-1.55,1.9,6.69,6.69,0,0,0-.64-1.12,17.55,17.55,0,0,0,3.79-6.09Zm5.32,3.62v8.61c0,.65-.14,1-.54,1.17a5.11,5.11,0,0,1-2,.23,5.83,5.83,0,0,0-.4-1.15c.72,0,1.38,0,1.58,0s.26-.07.26-.27V649.8h-2.33a11.92,11.92,0,0,1-1.49,2.63c-.18-.17-.66-.55-.9-.72a15.12,15.12,0,0,0,2.51-5.84l1.12.25c-.23.89-.5,1.77-.81,2.62h6.21l.19,0,.78.19c-.2,1.12-.48,2.43-.68,3.25l-1-.19c.09-.55.23-1.36.35-2.14Zm-2.48,2.74a15.6,15.6,0,0,1-2.24,5.22,7.47,7.47,0,0,0-1-.63,12.29,12.29,0,0,0,2.1-4.8Zm4.6-.34a20.35,20.35,0,0,1,1.91,5.13l-1.08.36a22,22,0,0,0-1.83-5.15Z"/><path class="cls-1" d="M213.56,648.52l.66,0v1.06l-.65.05v.07a11.6,11.6,0,0,1-1.59,6.47c.75.68,1.42,1.32,1.9,1.85l-.84.88c-.43-.5-1.05-1.13-1.74-1.79a11.34,11.34,0,0,1-3.39,2.73,3.58,3.58,0,0,0-.79-.86,10.84,10.84,0,0,0,3.31-2.65c-.86-.77-1.81-1.54-2.65-2.16a43.39,43.39,0,0,0,1-4.25l-1.58.11-.13-1.14,1.93-.09c.15-1,.3-2,.38-2.92l1.18.08c-.11.88-.26,1.83-.41,2.78l2.28-.13v-.75h1.12Zm-3.62,1.31c-.27,1.42-.6,2.82-.9,4,.66.49,1.35,1,2,1.59a10.36,10.36,0,0,0,1.38-5.73Zm10.37-2.38V659.2h-1.12v-.92h-3.31v1.13h-1.09v-12Zm-1.12,9.74v-8.65h-3.31v8.65Z"/><path class="cls-1" d="M230.09,646.15a29.87,29.87,0,0,1-1.37,3.08v10.55H227.6V651.1a12.05,12.05,0,0,1-1.43,1.85,7.14,7.14,0,0,0-.62-1.1,17.86,17.86,0,0,0,3.48-6Zm9.52,2.24h-1.12v9.84c0,.81-.22,1.15-.75,1.33a11.82,11.82,0,0,1-3.07.22,4.68,4.68,0,0,0-.41-1.17c1.22,0,2.34,0,2.68,0s.43-.09.43-.4v-9.84h-7.25v-1.11h9.49Zm-8,7.4v1.06h-1.09v-6.32h4.79v5.26Zm0-4.25v3.24h2.64v-3.24Z"/><path class="cls-1" d="M248.65,646.1a24.86,24.86,0,0,1-1.58,3.19v10.58H246v-8.94a15.58,15.58,0,0,1-1.69,2,5.69,5.69,0,0,0-.64-1.1,17.19,17.19,0,0,0,3.93-6.06Zm4.86,8.14a6.35,6.35,0,0,1-1,3,15.66,15.66,0,0,0,5.64,1.62,4.06,4.06,0,0,0-.67,1,15.48,15.48,0,0,1-5.65-1.85,8.17,8.17,0,0,1-3.46,1.87,4.28,4.28,0,0,0-.69-.94,7.47,7.47,0,0,0,3.23-1.55,8.56,8.56,0,0,1-2.22-2.5l.95-.3a6.42,6.42,0,0,0,1.93,2,5.27,5.27,0,0,0,.83-2.36h-3.71V650h3.79v-1.5h-4.24v-1h4.24v-1.65h1.12v1.65H258v1h-4.41V650h3.91v4.2Zm-1.06-1c0-.23,0-.46,0-.69V651h-2.73v2.27Zm1.14-2.27v1.58c0,.23,0,.46,0,.69h2.84V651Z"/><path class="cls-1" d="M275.25,658.26c0,.74-.2,1.07-.69,1.27a9.9,9.9,0,0,1-2.85.19,4.46,4.46,0,0,0-.39-1.11c1.08,0,2.12,0,2.39,0s.42-.1.42-.39v-3.12H270v4.53h-1.13v-4.53H265a8.9,8.9,0,0,1-1.92,4.76,3.51,3.51,0,0,0-.88-.75c1.69-1.91,1.84-4.61,1.84-6.74v-5.52h11.17ZM268.87,654V651.5H265.2v.9c0,.51,0,1.08-.06,1.64ZM265.2,648v2.45h3.67V648Zm8.93,0H270v2.45h4.13Zm0,6.07V651.5H270V654Z"/><path class="cls-1" d="M294.52,656.9H281v-1h2.17V649h3.69a8.08,8.08,0,0,0,.15-1h-5.58v-1h5.72c.06-.46.1-.94.13-1.32l1.22.14-.2,1.18h5.82v1h-6c-.06.35-.12.67-.19,1h4.42v6.89h2.15Zm-8.1,1a19.91,19.91,0,0,1-4.63,2,8.34,8.34,0,0,0-.78-.8,17.28,17.28,0,0,0,4.41-1.81Zm-2.13-8v1h6.95v-1Zm6.95,1.76h-6.95v.87h6.95Zm-6.95,1.61v.92h6.95v-.92Zm0,2.73h6.95v-1.07h-6.95Zm5.6,1.23a36.73,36.73,0,0,1,4.69,1.82l-.92.8a29.45,29.45,0,0,0-4.48-1.89Z"/><path class="cls-1" d="M306.78,658.38h5.92v1.09h-13v-1.09h5.95v-3.29H301V654h10.22v1.08h-4.48Zm-6-7.39h-1.12v-3.42h6a11.91,11.91,0,0,0-.75-1.52l1.17-.33a14.22,14.22,0,0,1,1,1.85h5.49v3h-1.15v-2h-3v2.45c0,.43.07.58.5.58h2.63a7.59,7.59,0,0,0,1.22-.09c.05.31.09.75.13,1a5.74,5.74,0,0,1-1.29.09h-2.7c-1.27,0-1.61-.41-1.61-1.61v-2.43h-2c-.23,2.69-1.09,4-4.88,4.6a3,3,0,0,0-.54-.92c3.39-.5,4.07-1.49,4.27-3.68h-3.35Z"/><path class="cls-1" d="M330.48,651a17.47,17.47,0,0,1-2.7,5.19c.57,1.5,1.27,2.37,2.05,2.37.43,0,.62-.79.73-2.83a2.63,2.63,0,0,0,1,.61c-.22,2.61-.63,3.36-1.8,3.36s-2.1-.94-2.8-2.52a13.66,13.66,0,0,1-3.16,2.55,6.91,6.91,0,0,0-.83-.91,12.31,12.31,0,0,0,3.53-2.83,29.81,29.81,0,0,1-1.12-6.46h-5.29v2H324V652c-.08,3.44-.17,4.73-.49,5.13a1.2,1.2,0,0,1-.92.44,18.21,18.21,0,0,1-1.83,0,2.34,2.34,0,0,0-.32-1.07c.7.06,1.36.07,1.62.07s.37,0,.46-.16.3-1.2.36-3.84h-2.79v.12c0,2.15-.23,5.23-1.61,7.23a4.65,4.65,0,0,0-.95-.77c1.25-1.87,1.39-4.49,1.39-6.47V648.4h6.4c-.07-.84-.08-1.7-.1-2.58h1.18c0,.89,0,1.75.07,2.58h4.95v1.12h-4.88a27.7,27.7,0,0,0,.85,5.32,15.52,15.52,0,0,0,2-4.14Zm-2.65-5.12a14.74,14.74,0,0,1,2.74,1.75l-.7.78a15.63,15.63,0,0,0-2.72-1.84Z"/><path class="cls-1" d="M193.47,676.61v1.07H179.7v-1.07h6.39v-1.93h-4.82v-1h4.82v-1.71h1.15v1.71h4.63v1h-4.63v1.93Zm-10.55-7.67a5,5,0,0,1-2.3,3.67,5.22,5.22,0,0,0-.76-.8,4,4,0,0,0,2-2.87H180v-1h1.93v-2.1h-1.42v-1h6.87v1H186v2.1h1.73v1H186v3.28h-1.07v-3.28Zm.07-1h1.89v-2.1H183v2.1Zm6.7,2.24h-1.05v-5.11h1.05Zm2.87,1c0,.63-.12.92-.58,1.1a7.67,7.67,0,0,1-2.29.19,3.28,3.28,0,0,0-.38-1,18.16,18.16,0,0,0,1.87,0c.23,0,.29-.07.29-.28V664.3h1.09Z"/><path class="cls-1" d="M201.54,672.38c-.15-.42-.49-1.14-.81-1.78v7.59h-1v-7.3a16.5,16.5,0,0,1-1.44,4,7.94,7.94,0,0,0-.49-1.11,19.91,19.91,0,0,0,1.84-5.59h-1.53v-1.08h1.62v-2.94h1v2.94h1.21v1.08h-1.21v1c.33.54,1.16,2,1.36,2.33Zm9.38,1.13A8.9,8.9,0,0,1,209,676a2.18,2.18,0,0,0,1.59,1.1c.33,0,.53-.55.65-1.66a3.33,3.33,0,0,0,.76.59c-.29,1.67-.76,2.24-1.38,2.19a3.09,3.09,0,0,1-2.42-1.57,12.41,12.41,0,0,1-2.68,1.49,3.66,3.66,0,0,0-.62-.72,11.29,11.29,0,0,0,2.86-1.59,14.54,14.54,0,0,1-.89-2.81h-2.5v.23a2.11,2.11,0,0,1,0,.35,22.67,22.67,0,0,1,2.12,1.83l-.71.69a19.75,19.75,0,0,0-1.55-1.44,6,6,0,0,1-2.25,3.57,3.26,3.26,0,0,0-.75-.69,5.16,5.16,0,0,0,2.18-4.32V673h-1.17v-.92h4.48a58.8,58.8,0,0,1-.66-7.76h1a52,52,0,0,0,.68,7.76h2.19a12,12,0,0,0-1.37-1l.59-.54a10.49,10.49,0,0,1,1.59,1.11l-.4.41h1.28V673h-3.7a12.76,12.76,0,0,0,.66,2.1,7,7,0,0,0,1.36-1.93Zm-5.42-2.3c-.05-.18-.11-.4-.17-.64a12.41,12.41,0,0,0-2.76.52,5.11,5.11,0,0,0-.26-.86,2,2,0,0,0,.78-.69c.15-.18.55-.72,1-1.38a7.06,7.06,0,0,0-1.64.32,5.32,5.32,0,0,0-.26-.84c.18,0,.37-.25.57-.57a12.88,12.88,0,0,0,1.28-2.64l.86.28a15.56,15.56,0,0,1-1.53,2.78l1.21-.13c.18-.33.37-.67.52-1l.83.32a21,21,0,0,1-2.3,3.39l1.49-.2c-.11-.34-.23-.66-.36-1l.73-.2a15.38,15.38,0,0,1,.78,2.27ZM211,671a6.63,6.63,0,0,0-.2-.69,12.12,12.12,0,0,0-2.77.54,8.68,8.68,0,0,0-.31-.89c.25,0,.48-.31.77-.68a12.65,12.65,0,0,0,.92-1.36,5.22,5.22,0,0,0-1.55.31,7.93,7.93,0,0,0-.29-.86c.18,0,.35-.22.53-.51a11.52,11.52,0,0,0,1.11-2.41l.86.26a15.68,15.68,0,0,1-1.34,2.52l1.12-.12a9.62,9.62,0,0,0,.54-1.06l.87.32a20.53,20.53,0,0,1-2.24,3.43l1.54-.21c-.13-.31-.25-.63-.37-.92l.69-.2a15.73,15.73,0,0,1,.86,2.27Z"/><g id="Layer_2-6" data-name="Layer 2-6"><g id="Layer_1-6" data-name="Layer 1-6"><path id="Path_68" data-name="Path 68" class="cls-2" d="M133.65,556.34h-7.47a1.29,1.29,0,0,0,0,2.57h7.47a1.29,1.29,0,0,0,0-2.57Z"/><path id="Path_69" data-name="Path 69" class="cls-2" d="M133.65,562.27h-7.47a1.28,1.28,0,0,0,0,2.56h7.47a1.28,1.28,0,1,0,0-2.56Z"/><path id="Path_70" data-name="Path 70" class="cls-2" d="M133.65,568.19h-7.47a1.29,1.29,0,0,0,0,2.57h7.47a1.29,1.29,0,0,0,0-2.57Z"/><path id="Path_71" data-name="Path 71" class="cls-2" d="M243.28,568.42a4.89,4.89,0,1,0-4.87-4.9v0A4.87,4.87,0,0,0,243.28,568.42Zm0-7.19a2.32,2.32,0,1,1-2.31,2.33h0A2.31,2.31,0,0,1,243.28,561.23Z"/><path id="Path_72" data-name="Path 72" class="cls-2" d="M255.34,568.42a4.89,4.89,0,1,0-4.89-4.88h0A4.89,4.89,0,0,0,255.34,568.42Zm0-7.19a2.32,2.32,0,1,1-2.32,2.32,2.32,2.32,0,0,1,2.32-2.32Z"/><path id="Path_73" data-name="Path 73" class="cls-2" d="M263.43,448.46a1.28,1.28,0,0,0-1.51,1h0a6.71,6.71,0,0,1-13.15,0,1.31,1.31,0,0,0-1.53-1,1.32,1.32,0,0,0-1,1.54h0a9.27,9.27,0,0,0,18.17,0,1.28,1.28,0,0,0-.95-1.51Z"/><path id="Path_74" data-name="Path 74" class="cls-2" d="M266.5,461.8h-.76a22.54,22.54,0,1,0-20.82,0h-.73a24.56,24.56,0,0,0-24.11,20.12H122.71a6,6,0,0,0-6,6v8.5a6,6,0,0,0,6,6h5v31h-9a1.92,1.92,0,0,0-1.92,1.92v5a1.92,1.92,0,0,0,1.92,1.92h9V544h-5.88a5.13,5.13,0,0,0-5.13,5.13h0V578a4.93,4.93,0,0,0,.72,2.57H101.81a1.29,1.29,0,0,0,0,2.57H289.74a1.28,1.28,0,0,0,1.28-1.29V486.33A24.57,24.57,0,0,0,266.5,461.8Zm-31.13-20a20,20,0,1,1,20,20h0A20,20,0,0,1,235.37,441.83ZM119.31,496.37v-8.49a3.4,3.4,0,0,1,3.39-3.4H262.41a3.4,3.4,0,0,1,3.39,3.4v8.5a3.4,3.4,0,0,1-3.39,3.4H122.71a3.4,3.4,0,0,1-3.4-3.4ZM173.76,544l3.06-7h31.46l3.06,7ZM229,502.35a1.27,1.27,0,0,0-.17.58v33.41h-6.66v-34Zm-.17,36.56v4.16a1.3,1.3,0,0,0,.42.92h-7.08v-5.13ZM231,544a1.32,1.32,0,0,0,.41-.95v-4.18H244v1.28a1.93,1.93,0,0,0,1.93,1.93h8.91V544Zm15.52-4.43v-3.74h19.1v3.69Zm8.27-6.26h-8.9a1.93,1.93,0,0,0-1.93,1.93v1.11H231.44V503a1.27,1.27,0,0,0-.15-.57h23.54Zm-124.52-31h89.34v34h-2.92l-3.85-8.67a1.3,1.3,0,0,0-1.18-.76H173.42a1.27,1.27,0,0,0-1.11.64l-5.13,8.8H141.13v-1.12a1.93,1.93,0,0,0-1.93-1.92h-8.9Zm-10.84,33.52h19.1v3.69h-19.1Zm10.84,6.26h8.9a1.93,1.93,0,0,0,1.93-1.93v-1.28H168a1.27,1.27,0,0,0,1.11-.64l5.13-8.8h36.63l3.85,8.69a1.28,1.28,0,0,0,1.17.76h3.77v5.13h-5.47l-3.85-8.76a1.27,1.27,0,0,0-1.16-.76H176a1.27,1.27,0,0,0-1.18.76L171,544.06H130.3Zm-8.44,38.4a2.57,2.57,0,0,1-2.57-2.56V549.09a2.57,2.57,0,0,1,2.57-2.56H263.24a2.57,2.57,0,0,1,2.57,2.56V578a2.57,2.57,0,0,1-2.57,2.56H235.61a3.84,3.84,0,0,1-3.32-2,6.3,6.3,0,0,0-5.62-3.4H158.46a6.32,6.32,0,0,0-5.61,3.37h0a3.76,3.76,0,0,1-3.35,2Zm32.07-1.41,1.14.58a3.76,3.76,0,0,1,3.35-2H219.6v2.85h-65a6.38,6.38,0,0,0,.53-.82Zm74.91,1.41h-6.67v-2.85h4.46a3.75,3.75,0,0,1,2.21.75Zm59.58,0h-7.35v-77.6a1.29,1.29,0,0,0-2.57,0v77.6H267.66a5.14,5.14,0,0,0,.71-2.56V549.11a5.13,5.13,0,0,0-5.13-5.13h-5.85v-1.85h8.9a1.92,1.92,0,0,0,1.93-1.93v-5a1.92,1.92,0,0,0-1.93-1.93h-8.9v-31h5a6,6,0,0,0,6-6v-8.49a6,6,0,0,0-6-6H222.64a22,22,0,0,1,21.55-17.55h22.34a22,22,0,0,1,22,22Z"/></g></g><g id="Vacuum_forming_service" data-name="Vacuum forming service" class="cls-3"><g class="cls-3"><path class="cls-2" d="M131.72,28.3V40.38h-2.6v-20h8.68v8Zm0-6.05v1.11h3.57V22.25Zm3.57,4.13V25.11h-3.57v1.27Zm6.46,8.92V40h-2.32V35.3h-2.15a7.27,7.27,0,0,1-2.88,5.1,9.86,9.86,0,0,0-1.68-1.52A5.23,5.23,0,0,0,135,35.3h-2.23V33.13h2.32V31.46h-2v-2.1h10.8v2.1h-2.13v1.67h2.46V35.3Zm-2.32-2.17V31.46h-2.08v1.67ZM148,37.22c0,1.35-.25,2.11-1.08,2.53a7.87,7.87,0,0,1-3.64.49,9.52,9.52,0,0,0-.83-2.64c1,.07,2.13,0,2.48,0s.45-.14.45-.47V28.35h-6.15v-8H148Zm-6.24-15v1.11h3.62V22.25Zm3.62,4.2V25.11h-3.62v1.34Z"/><path class="cls-2" d="M159,26.14a21.57,21.57,0,0,1-1.41,7.71,28.43,28.43,0,0,1,2.46,2.44l-1.63,2.07c-.51-.6-1.21-1.36-2-2.16a15,15,0,0,1-3.83,4.11,8.25,8.25,0,0,0-1.78-1.81,13.58,13.58,0,0,0,3.77-4c-1.11-1-2.23-2-3.21-2.88.42-1.34.84-3.11,1.22-5l-1.45.09-.24-2.37c.64,0,1.36,0,2.12-.09.27-1.58.49-3.19.6-4.62l2.46.15c-.15,1.37-.36,2.86-.62,4.36l1.2-.07V22.6H159v1.3l1,0,0,2.21Zm-4,.29c-.31,1.54-.67,3-1,4.36.53.42,1.07.89,1.6,1.36a18.3,18.3,0,0,0,1-5.83Zm14.89,3.71a14,14,0,0,0-.56-1.48c-7.29.63-8.41.74-9.23,1.08-.16-.52-.56-1.79-.85-2.49.47-.13.87-.58,1.41-1.38a31.28,31.28,0,0,0,3.08-6.4l2.77.74a42.34,42.34,0,0,1-3.46,6.49l5.05-.36c-.56-.94-1.16-1.88-1.74-2.68l2.12-1.06a25.31,25.31,0,0,1,3.69,6.31Zm-9.66.85H170.7v9.32h-2.54v-.87h-5.48v.89h-2.44Zm2.44,2.32v3.78h5.48V33.31Z"/><path class="cls-2" d="M176.94,26.14c-.54.51-1.07,1-1.59,1.45a14.68,14.68,0,0,0-1.61-2.15,17.83,17.83,0,0,0,5.19-6.08l2.35.79a21.57,21.57,0,0,1-1.79,2.92v9.42h-2.55Zm-3,12.13a23.93,23.93,0,0,0,2.12-4.91l2.37,1a43.26,43.26,0,0,1-2,5.1Zm13-.76c1.07,0,1.27-.29,1.39-2.41a7.82,7.82,0,0,0,2.43.94c-.33,3.13-1.07,3.89-3.62,3.89H182.8c-3.18,0-4-.74-4-3.13V33.45h2.7v3.28c0,.72.22.78,1.52.78Zm-2.86-14A14.53,14.53,0,0,1,182,26.14,15.93,15.93,0,0,0,180,24.46a11.37,11.37,0,0,0,3.21-5l2.44.61c-.13.4-.29.8-.45,1.2h7l.38-.06,1.9.4a37,37,0,0,1-1.77,4l-2.25-.46c.22-.47.47-1.06.71-1.68Zm1.54,2.95a15,15,0,0,1-3.2,4.56,20.41,20.41,0,0,0-2-1.57,10.2,10.2,0,0,0,2.77-3.68Zm-.4,10.08a17.19,17.19,0,0,0-2.82-3.82l2-1.14a16.31,16.31,0,0,1,3,3.69ZM189,32.42h-2.53V24.08H189Zm2.72-6.71a21.63,21.63,0,0,1,2.69,4.18l-2.24,1.19a24.87,24.87,0,0,0-2.57-4.36Zm.45,7.18a19,19,0,0,1,2.39,5.16l-2.5,1a21.46,21.46,0,0,0-2.21-5.26Z"/><path class="cls-2" d="M217.11,22.9s0,.89,0,1.2c-.29,10-.54,13.55-1.45,14.73a3,3,0,0,1-2.15,1.23,24.43,24.43,0,0,1-3.51,0,6.21,6.21,0,0,0-.87-2.6c1.43.14,2.75.14,3.33.14a1.18,1.18,0,0,0,1-.38c.65-.72.94-4.07,1.19-12h-4.79a19.36,19.36,0,0,1-2,3.53,17.73,17.73,0,0,0-1.72-1.25V38h-6v1.63h-2.42V23.05h2.53a24.22,24.22,0,0,0,.65-3.6l2.9.4c-.38,1.12-.78,2.24-1.16,3.2h3.47v3.62a23,23,0,0,0,3-7.2l2.53.59a26.51,26.51,0,0,1-.87,2.84Zm-13.39,2.48h-3.55V29h3.55Zm0,10.3V31.3h-3.55v4.38Zm7.42-1.21a47.51,47.51,0,0,0-3.1-5.16l2.07-1.18a52.21,52.21,0,0,1,3.29,5Z"/><path class="cls-2" d="M228.42,33.42c-2.72,1-5.68,2.08-8,2.91l-1-2.55c.85-.24,1.9-.56,3.06-.91V24.3H220V21.84h7.67V24.3h-2.53V32l2.8-.92Zm2.91,2.51,2.08,1.41a21.07,21.07,0,0,1-5.84,3,15,15,0,0,0-1.63-1.81,18.64,18.64,0,0,0,5.21-2.61h-2.28V24.12h3.51c.11-.51.2-1,.27-1.54H228V20.35h12.66v2.23h-5c-.18.54-.36,1.05-.54,1.54h4.74V35.93Zm0-8.43h5.9V26.09h-5.9Zm0,3.22h5.9V29.31h-5.9Zm0,3.29h5.9V32.55h-5.9Zm5.21,2A32.22,32.22,0,0,1,241,38.83l-2.1,1.57a31.53,31.53,0,0,0-4.32-3Z"/><path class="cls-2" d="M260.93,20.66V40.09h-2.82V38.7H247.76v1.39h-2.68V20.66Zm-13.17,2.59v2.57h10.35V23.25Zm0,5.08V31h10.35V28.33Zm10.35,7.78V33.47H247.76v2.64Z"/></g></g><rect class="cls-4" y="1537.26" width="392" height="209.82"/><path class="cls-5" d="M122.88,1623v3.56h-.47V1623h-2.07v-.44h2.07v-1.21H120.3v-.43h2.8a17.57,17.57,0,0,0,.6-1.77l.46.12c-.18.53-.4,1.17-.61,1.65h1.39v.43h-2.06v1.21h2v.44Zm-1.13.75a6.74,6.74,0,0,1-1,2,2.07,2.07,0,0,0-.36-.25,5.73,5.73,0,0,0,1-1.83Zm3-4.71h-4.35v-.43h2.13c-.14-.31-.35-.69-.52-1l.46-.13a8.17,8.17,0,0,1,.6,1.11h1.68Zm-3.19,1.77a6.8,6.8,0,0,0-.42-1.55l.39-.09a6,6,0,0,1,.46,1.52Zm2.24,2.81a9.4,9.4,0,0,1,.86,1.65l-.37.2a10.58,10.58,0,0,0-.84-1.69Zm5.45-2.23h-1.2v5.14h-.47v-5.14H126v.49a8.1,8.1,0,0,1-1.09,4.64,1.31,1.31,0,0,0-.36-.3,7.44,7.44,0,0,0,1-4.34v-3.38a18.21,18.21,0,0,0,3.17-.74l.42.36a17.44,17.44,0,0,1-3.14.7V1621h3.31Z"/><path class="cls-5" d="M135.5,1624.37l.09.4c-1.45.63-3,1.29-4.15,1.75l-.23-.46c.74-.28,1.81-.69,2.94-1.14v-4.26h-2.68v-.47h2.68v-2.44h.48v7Zm3.4,1.31c.5,0,.56-.5.62-2.48a1,1,0,0,0,.46.24c-.07,2-.19,2.71-1.06,2.71h-1.43c-.73,0-1-.22-1-1.06v-7.33H137v2.42h2.91v.48H137v4.44c0,.48.09.58.49.58Z"/><path class="cls-5" d="M147,1619.55v1.5h3.26v3.58c0,.35-.08.51-.36.59a8,8,0,0,1-1.75.09,1.69,1.69,0,0,0-.18-.47c.78,0,1.39,0,1.57,0s.23-.07.23-.21v-3.12H147v5.08h-.49v-5.08h-2.64v3.85h-.47v-4.32h3.11v-1.5h-4.15v-.47h4.41a8.59,8.59,0,0,0-.74-1.44l.45-.15a9,9,0,0,1,.79,1.47l-.32.12h4.27v.47Z"/><path class="cls-5" d="M155.82,1623.15c-.13-.32-.48-1-.75-1.51v4.92h-.45v-4.94a12.72,12.72,0,0,1-1.15,3l-.3-.39a12.78,12.78,0,0,0,1.4-4h-1.22v-.46h1.27v-2.22h.45v2.22h1v.46h-1v.8c.23.36.89,1.49,1,1.77Zm3.24.6c-.19.58-.42,1.26-.63,1.76l1.31-.22,0,.42c-1.37.24-2.82.47-3.84.64l-.12-.44,2.35-.36-.17-.06a14,14,0,0,0,.63-1.89Zm-1.51-4.68H156v-.43h1.55v-1.08H158v1.08h1.56v.43H158v1h1.32v.43h-3.1v-.43h1.32Zm1.71,4.31h-2.91v-2.2h2.91Zm-2.24,2.13a7.73,7.73,0,0,0-.48-1.75l.41-.1a8.06,8.06,0,0,1,.5,1.72Zm1.8-3.92h-2V1623h2Zm3.5-1.26h-.67v5.58c0,.34-.1.5-.31.59a4.66,4.66,0,0,1-1.24.08,4.83,4.83,0,0,0-.17-.49c.5,0,.95,0,1.08,0s.18,0,.18-.18v-5.59h-1.66v-.45h1.66v-2.32h.46v2.32h.67Zm-2,3.55a11.43,11.43,0,0,0-.62-2.43l.39-.09a12.36,12.36,0,0,1,.65,2.39Z"/><path class="cls-5" d="M168.1,1622.8a21.1,21.1,0,0,0-1.35-1.76v5.55h-.47v-5.44a11.93,11.93,0,0,1-1.85,3.52,2.6,2.6,0,0,0-.29-.42,11.25,11.25,0,0,0,2-4h-1.79v-.46h1.9v-2.2h.47v2.2h1.49v.46h-1.49v.24c.31.33,1.44,1.61,1.7,1.93Zm3.18-2.59a10.94,10.94,0,0,0,2.11,4.33,3.41,3.41,0,0,0-.38.38,11.79,11.79,0,0,1-1.9-3.83v5.5h-.48v-5.45a11.19,11.19,0,0,1-2.24,3.93,2.73,2.73,0,0,0-.32-.42,10.71,10.71,0,0,0,2.42-4.44h-1.74v-.46h1.88v-2.2h.48v2.2h2v.46Z"/><path class="cls-5" d="M182.58,1625.62a10.13,10.13,0,0,0,1.56-.1,4.45,4.45,0,0,0,.1.48,11.85,11.85,0,0,1-1.65.07h-4.7c-1.4,0-2.08-.45-2.08-1.69v-5.86h-.42v-.44h8.35v.44h-7.46v5.9c0,.83.44,1.2,1.55,1.2Zm-5.31-3.39h2.53v2.49h-2.53Zm.43,2.1h1.66v-1.7H177.7Zm4.3-2.92h-3.6v-2.13H182Zm-.47-1.74h-2.67V1621h2.67Zm1.7,5h-2.61v-2.49h2.61Zm-.44-2.09h-1.74v1.7h1.74Z"/><path class="cls-5" d="M195.21,1624.56h-4.12V1626c0,.31-.08.43-.33.51a7.21,7.21,0,0,1-1.56.07,2.37,2.37,0,0,0-.17-.41c.68,0,1.24,0,1.38,0s.21-.05.21-.18v-1.43h-4.25v-.43h4.25v-.52a9.46,9.46,0,0,0,1.91-.85h-4.36v-.4h4.91l.11,0,.31.24a9,9,0,0,1-2.41,1.25v.31h4.12Zm-8.14-1.75h-.46v-1.7h.82l-.2-3c.56-.09,1.4-.32,1.89-.45l.24.32a10,10,0,0,1-1.65.39l0,.62h1.56v.38h-1.53l0,.67h1.55v.38h-1.52l0,.68h5.81c0-.21.05-.43.08-.68h-1.61v-.38h1.64c0-.22,0-.44.05-.67h-1.64V1619h1.67c0-.22,0-.44,0-.65h-1.75V1618h2.22c-.05,1-.14,2.28-.23,3.15h.8v1.7h-.48v-1.29h-7.42Zm4.55-1.81a6.78,6.78,0,0,0-.8-.63,7.66,7.66,0,0,1-1,.7,2.12,2.12,0,0,0-.31-.28,6.31,6.31,0,0,0,1-.62,7.19,7.19,0,0,0-.81-.45l.27-.24a8.67,8.67,0,0,1,.85.44,4.33,4.33,0,0,0,.56-.58l.38.12a4.77,4.77,0,0,1-.62.66,5.06,5.06,0,0,1,.79.6Zm0-1.77a5.83,5.83,0,0,0-.79-.57,7.86,7.86,0,0,1-1,.67,2.26,2.26,0,0,0-.32-.27,6.78,6.78,0,0,0,1-.59,5.78,5.78,0,0,0-.79-.39l.26-.26.84.4a3.91,3.91,0,0,0,.53-.55l.37.1a5,5,0,0,1-.59.64,6.66,6.66,0,0,1,.79.54Z"/><path class="cls-5" d="M200,1620a10.13,10.13,0,0,1-.79,1.22v5.42h-.48v-4.82a9.94,9.94,0,0,1-1.25,1.26,4,4,0,0,0-.32-.43,9.22,9.22,0,0,0,2.4-2.81Zm-.09-2.2a9.05,9.05,0,0,1-2.3,2.32c-.07-.1-.2-.28-.28-.37a7.6,7.6,0,0,0,2.11-2.12Zm5.51,5.79a4.6,4.6,0,0,1-1.73,1.8,10.5,10.5,0,0,0,2.62.79,3.36,3.36,0,0,0-.31.43,10.16,10.16,0,0,1-2.78-1,11.14,11.14,0,0,1-3.26,1,1.63,1.63,0,0,0-.23-.43,10.88,10.88,0,0,0,3-.82,7.81,7.81,0,0,1-1.42-1.08,8.4,8.4,0,0,1-1.09.8c-.06-.06-.25-.25-.34-.32A7.45,7.45,0,0,0,201,1624a5.22,5.22,0,0,1-.54-.7l.39-.16a5.2,5.2,0,0,0,.46.59,5.62,5.62,0,0,0,.9-1.06h-1.13v-2.82h4.39v2.82h-2.74a6.66,6.66,0,0,1-.55.76H205l.09,0Zm-3.89-4.53a6.75,6.75,0,0,1-1.07,1.43,4.39,4.39,0,0,0-.39-.27,6.6,6.6,0,0,0,1.63-2.62l.45.11c-.11.31-.25.63-.39.93h4.37v.42Zm0,2H205v-.82h-3.49Zm0,1.22H205v-.84h-3.49Zm.27,1.56a1.8,1.8,0,0,1-.19.2,6.54,6.54,0,0,0,1.58,1.1,4.28,4.28,0,0,0,1.51-1.3Z"/><path class="cls-5" d="M217.22,1623.76v.45h-8.91v-.45h.85l-.18-5.43a12.57,12.57,0,0,0,1.72-.62l.27.42a12.1,12.1,0,0,1-1.54.5l0,1.34h1.28v.43h-1.27l.05,1.47h1.28v.43h-1.26l0,1.46h1.5v-5.67h3.34v5.67H216c0-.41,0-.9.08-1.42h-1.29v-.43h1.3c0-.48,0-1,0-1.47h-1.3V1620h1.31c0-.55,0-1.08,0-1.57h-1.41V1618h1.84c0,1.75-.08,4.23-.17,5.74Zm-5.56,1a15.48,15.48,0,0,1-2.94,1.79,3.12,3.12,0,0,0-.29-.37,11.5,11.5,0,0,0,2.78-1.7Zm-.15-1H214v-5.26h-2.52Zm2.14-4.45v.38H211.8v-.38Zm-1.67,1.17h1.58v2.33H212Zm.33,2h.92v-1.59h-.92Zm1.79,2a20.17,20.17,0,0,1,2.93,1.69l-.32.36a21,21,0,0,0-2.88-1.73Z"/><path class="cls-5" d="M227.51,1618.73a7.58,7.58,0,0,1-1.51,2.65,6.94,6.94,0,0,0,2.41,1.71,1.77,1.77,0,0,0-.31.39l-.48-.24v3.32h-.47v-.35h-2.88v.38h-.45v-3.41c-.27.15-.55.29-.82.41a1.19,1.19,0,0,0-.3-.37,7.74,7.74,0,0,0,2.71-1.87,9.09,9.09,0,0,1-1.1-1.68,7.82,7.82,0,0,1-1.1,1.43,3,3,0,0,0-.36-.3v.12H221.6v1.6H223v.44H221.6V1625l1.41-.33.05.43c-1.35.35-2.73.69-3.72.93l-.1-.47.56-.12V1622h.42v3.37l.94-.23v-4.21h-1.42V1618h3.11v2.75a7.48,7.48,0,0,0,1.91-3.21l.47.12c-.11.32-.24.64-.37.95h2.25l.1,0Zm-5.11-.3h-2.22v2h2.22Zm4.91,4.62a7.79,7.79,0,0,1-1.6-1.34,9,9,0,0,1-1.67,1.34Zm-.16,2.71v-2.27h-2.88v2.27Zm-2.6-6.52a8.4,8.4,0,0,0,1.14,1.8,7.5,7.5,0,0,0,1.22-2h-2.26Z"/><path class="cls-5" d="M230.69,1625.36h1.65v-5.92h-1.27v-.39a4.19,4.19,0,0,0,1.39-.46h.47v6.77h1.52v.51h-3.76Z"/><path class="cls-5" d="M236.44,1625l.32-.4a2.49,2.49,0,0,0,1.92.89,1.52,1.52,0,0,0,1.62-1.55c0-1-.68-1.64-2.42-1.64v-.49c1.6,0,2.16-.69,2.16-1.56a1.28,1.28,0,0,0-1.38-1.32,2.31,2.31,0,0,0-1.6.77l-.34-.4a2.85,2.85,0,0,1,1.95-.86,1.77,1.77,0,0,1,2,1.77,1.82,1.82,0,0,1-1.34,1.8v0a1.9,1.9,0,0,1,1.6,1.88,2,2,0,0,1-2.2,2A2.94,2.94,0,0,1,236.44,1625Z"/><path class="cls-5" d="M246.05,1623.11s0,.16,0,.23c-.16,2-.3,2.7-.57,3a.68.68,0,0,1-.52.21,8.73,8.73,0,0,1-.95,0,1.11,1.11,0,0,0-.12-.42c.42,0,.78,0,.94,0a.32.32,0,0,0,.3-.09c.2-.19.33-.83.46-2.48H243.5c.13-.44.27-1.08.38-1.64h-.94v-.44h3.52v.44h-2.14c-.08.4-.18.85-.26,1.22Zm.16-2.59h-2.78V1618h2.78Zm-.41-2.1h-2v1.7h2Zm1.63,3.67a8.35,8.35,0,0,1-1.05,4.54,1.12,1.12,0,0,0-.36-.28,7.7,7.7,0,0,0,1-4.27v-2.52h2v-2h.46v.77h2.08v.42h-2.08v.81h2.22l.09,0,.3.1c-.14.55-.32,1.2-.45,1.61l-.39-.1a11.77,11.77,0,0,0,.31-1.16h-4.08Zm1.41,1.24c-.09,1.57-.36,2.63-1.42,3.23a1.47,1.47,0,0,0-.29-.32c1-.52,1.2-1.48,1.27-2.91Zm1.94-1a2.46,2.46,0,0,0,.56,0c0,.13,0,.28,0,.39a2.34,2.34,0,0,1-.59,0h-1.3c-.51,0-.63-.19-.63-.75v-.51l-1.16.12-.05-.38,1.21-.13v-.93h.43v.88l1.51-.16.05.39-1.56.16v.57c0,.27,0,.35.25.35Zm.32,3.6a.71.71,0,0,0,.33-.05.3.3,0,0,0,.16-.22,6.63,6.63,0,0,0,0-1,1.09,1.09,0,0,0,.4.21,6.38,6.38,0,0,1-.09,1.13.49.49,0,0,1-.28.34,1.57,1.57,0,0,1-.51.07h-.55a1,1,0,0,1-.54-.11c-.15-.11-.18-.24-.18-.62v-2.28h.43v2.36a.17.17,0,0,0,.09.17.65.65,0,0,0,.26,0Z"/><path class="cls-5" d="M257.64,1619.1H254v-.51h4.4v.35c-1.73,2.27-2.09,4.09-2.2,6.93h-.63A11.21,11.21,0,0,1,257.64,1619.1Z"/><path class="cls-5" d="M262,1620.55c.26.36,1,1.5,1.18,1.78l-.31.37c-.16-.31-.57-1-.87-1.54v5.43h-.45v-5.31a14.09,14.09,0,0,1-1.09,3.14,2.33,2.33,0,0,0-.27-.45,14,14,0,0,0,1.29-4h-1.15v-.46h1.22v-2H262v2h1.11v.46H262Zm6.06,3.57a3.18,3.18,0,0,1-1,1.31,17.12,17.12,0,0,1,2.12.83l-.41.31a17.53,17.53,0,0,0-2.13-.84,8.53,8.53,0,0,1-3.18.91,1.18,1.18,0,0,0-.19-.37,8.93,8.93,0,0,0,2.83-.72c-.7-.21-1.42-.42-2.08-.57a11.52,11.52,0,0,0,.79-.86h-1.48v-.42h1.82c.22-.29.41-.57.59-.85h-2v-1.51H266v-.61h-2.12v-1h-.59v-.41h.59v-1H266v-.72h.46v.72h2.11v1h.69v.41h-.69v1h-2.11v.61h2.37v1.51h-2.61c-.17.28-.38.56-.58.85h2.06c0-.16.09-.33.13-.5h.47c0,.17-.08.34-.13.5h1.14v.42Zm-3.9-1.64H266v-.76h-1.89Zm.21-3.85v.67H266v-.67Zm1.68,1.72v-.7h-1.68v.7Zm-.7,3.77-.59.68a17.88,17.88,0,0,1,1.83.49,2.93,2.93,0,0,0,1-1.17Zm1.16-5.49v.67h1.67v-.67Zm1.67,1.72v-.7h-1.67v.7Zm-1.67,1.37v.76h1.91v-.76Z"/><g id="_886_0226813986" data-name=" 886 0226813986"><path class="cls-5" d="M151.56,1670.46h-2.05V1670h2.05v-2.22h.51V1670h2v.47h-2v2.21h-.51Z"/><path class="cls-5" d="M155.94,1672.07a2.47,2.47,0,0,1,1.39-2.08v0a2,2,0,0,1-1-1.66,1.79,1.79,0,0,1,1.88-1.8,1.81,1.81,0,0,1,1.93,1.91,2.55,2.55,0,0,1-1,1.81v0a2.14,2.14,0,0,1,1.24,1.9,2,2,0,0,1-2.18,1.84A2.06,2.06,0,0,1,155.94,1672.07Zm3.86.07c0-1.1-1-1.5-2.12-1.93a2.17,2.17,0,0,0-1.19,1.83,1.57,1.57,0,0,0,1.71,1.49A1.45,1.45,0,0,0,159.8,1672.14Zm-.2-3.72a1.37,1.37,0,0,0-1.4-1.46,1.28,1.28,0,0,0-1.31,1.33c0,1,.91,1.4,1.82,1.76A2.13,2.13,0,0,0,159.6,1668.42Z"/><path class="cls-5" d="M162.29,1672.07a2.47,2.47,0,0,1,1.39-2.08v0a2,2,0,0,1-1-1.66,1.79,1.79,0,0,1,1.88-1.8,1.81,1.81,0,0,1,1.93,1.91,2.55,2.55,0,0,1-1,1.81v0a2.14,2.14,0,0,1,1.24,1.9,2,2,0,0,1-2.18,1.84A2.06,2.06,0,0,1,162.29,1672.07Zm3.86.07c0-1.1-1-1.5-2.12-1.93a2.17,2.17,0,0,0-1.19,1.83,1.57,1.57,0,0,0,1.71,1.49A1.45,1.45,0,0,0,166.15,1672.14Zm-.2-3.72a1.37,1.37,0,0,0-1.4-1.46,1.28,1.28,0,0,0-1.31,1.33c0,1,.91,1.4,1.82,1.76A2.13,2.13,0,0,0,166,1668.42Z"/><path class="cls-5" d="M172.6,1667.54a1.52,1.52,0,0,0-1.19-.58c-1.1,0-2,.87-2.06,3.38a2.35,2.35,0,0,1,1.76-.95c1.24,0,2,.79,2,2.28a2.13,2.13,0,0,1-2,2.33c-1.41,0-2.34-1.24-2.34-3.56,0-2.94,1.25-4,2.62-4a2,2,0,0,1,1.55.7Zm-.09,4.13c0-1.05-.44-1.81-1.48-1.81a2.19,2.19,0,0,0-1.67,1c.09,1.6.66,2.61,1.77,2.61C171.92,1673.51,172.51,1672.73,172.51,1671.67Z"/><path class="cls-5" d="M178.29,1670.21c0-2.53.82-3.75,2.15-3.75s2.14,1.22,2.14,3.75-.82,3.79-2.14,3.79S178.29,1672.76,178.29,1670.21Zm3.71,0c0-2.17-.62-3.26-1.56-3.26s-1.57,1.09-1.57,3.26.62,3.3,1.57,3.3S182,1672.42,182,1670.21Z"/><path class="cls-5" d="M184.56,1673.51c2.47-2.12,3.45-3.62,3.45-4.94a1.43,1.43,0,0,0-1.49-1.62,2.17,2.17,0,0,0-1.62.91l-.37-.35a2.68,2.68,0,0,1,2.05-1,1.91,1.91,0,0,1,2,2.09c0,1.53-1.18,3.06-3.12,4.86.4,0,.82-.06,1.2-.06H189v.52h-4.39Z"/><path class="cls-5" d="M190.91,1673.51c2.47-2.12,3.45-3.62,3.45-4.94a1.43,1.43,0,0,0-1.49-1.62,2.17,2.17,0,0,0-1.62.91l-.37-.35a2.68,2.68,0,0,1,2.05-1,1.91,1.91,0,0,1,2,2.09c0,1.53-1.18,3.06-3.12,4.86.4,0,.82-.06,1.2-.06h2.27v.52h-4.39Z"/><path class="cls-5" d="M201.22,1667.54A1.52,1.52,0,0,0,200,1667c-1.1,0-2,.87-2.06,3.38a2.35,2.35,0,0,1,1.76-.95c1.24,0,2,.79,2,2.28a2.13,2.13,0,0,1-2,2.33c-1.41,0-2.34-1.24-2.34-3.56,0-2.94,1.25-4,2.62-4a2,2,0,0,1,1.55.7Zm-.09,4.13c0-1.05-.44-1.81-1.48-1.81a2.19,2.19,0,0,0-1.67,1c.09,1.6.66,2.61,1.77,2.61C200.54,1673.51,201.13,1672.73,201.13,1671.67Z"/><path class="cls-5" d="M203.61,1672.07A2.47,2.47,0,0,1,205,1670v0a2,2,0,0,1-1-1.66,1.79,1.79,0,0,1,1.88-1.8,1.81,1.81,0,0,1,1.93,1.91,2.55,2.55,0,0,1-1,1.81v0a2.14,2.14,0,0,1,1.24,1.9,2,2,0,0,1-2.18,1.84A2.06,2.06,0,0,1,203.61,1672.07Zm3.86.07c0-1.1-1-1.5-2.12-1.93a2.17,2.17,0,0,0-1.19,1.83,1.57,1.57,0,0,0,1.71,1.49A1.45,1.45,0,0,0,207.47,1672.14Zm-.2-3.72a1.37,1.37,0,0,0-1.4-1.46,1.28,1.28,0,0,0-1.31,1.33c0,1,.91,1.4,1.82,1.76A2.13,2.13,0,0,0,207.27,1668.42Z"/><path class="cls-5" d="M210.43,1673.36h1.65v-5.92h-1.27v-.39a4.19,4.19,0,0,0,1.39-.46h.47v6.77h1.52v.51h-3.76Z"/><path class="cls-5" d="M216.17,1673l.33-.4a2.49,2.49,0,0,0,1.92.89A1.52,1.52,0,0,0,220,1672c0-1-.68-1.64-2.42-1.64v-.49c1.6,0,2.16-.69,2.16-1.56a1.28,1.28,0,0,0-1.38-1.32,2.29,2.29,0,0,0-1.6.77l-.34-.4a2.83,2.83,0,0,1,1.95-.86,1.77,1.77,0,0,1,2,1.77A1.82,1.82,0,0,1,219,1670v0a1.9,1.9,0,0,1,1.6,1.88,2,2,0,0,1-2.2,2A3,3,0,0,1,216.17,1673Z"/><path class="cls-5" d="M223.17,1672.92a1.64,1.64,0,0,0,1.27.58c1,0,1.92-.87,2-3.39a2.37,2.37,0,0,1-1.78,1c-1.22,0-2-.81-2-2.29a2.14,2.14,0,0,1,2-2.33c1.41,0,2.35,1.18,2.35,3.38,0,3.06-1.23,4.16-2.56,4.16a2.13,2.13,0,0,1-1.61-.7Zm3.24-3.38c-.06-1.59-.64-2.6-1.78-2.6-.79,0-1.38.79-1.38,1.85s.45,1.82,1.46,1.82A2.18,2.18,0,0,0,226.41,1669.54Z"/><path class="cls-5" d="M229,1672.07a2.47,2.47,0,0,1,1.39-2.08v0a2,2,0,0,1-1-1.66,1.79,1.79,0,0,1,1.88-1.8,1.81,1.81,0,0,1,1.93,1.91,2.55,2.55,0,0,1-1,1.81v0a2.14,2.14,0,0,1,1.24,1.9,2,2,0,0,1-2.18,1.84A2.06,2.06,0,0,1,229,1672.07Zm3.86.07c0-1.1-1-1.5-2.12-1.93a2.17,2.17,0,0,0-1.19,1.83,1.57,1.57,0,0,0,1.71,1.49A1.45,1.45,0,0,0,232.87,1672.14Zm-.2-3.72a1.37,1.37,0,0,0-1.4-1.46,1.28,1.28,0,0,0-1.31,1.33c0,1,.91,1.4,1.82,1.76A2.13,2.13,0,0,0,232.67,1668.42Z"/><path class="cls-5" d="M239.32,1667.54a1.52,1.52,0,0,0-1.19-.58c-1.1,0-2,.87-2.06,3.38a2.35,2.35,0,0,1,1.76-.95c1.24,0,2,.79,2,2.28a2.13,2.13,0,0,1-2,2.33c-1.41,0-2.34-1.24-2.34-3.56,0-2.94,1.25-4,2.62-4a2,2,0,0,1,1.55.7Zm-.09,4.13c0-1.05-.44-1.81-1.48-1.81a2.19,2.19,0,0,0-1.67,1c.09,1.6.66,2.61,1.77,2.61C238.64,1673.51,239.23,1672.73,239.23,1671.67Z"/></g><g id="Layer_2-2" data-name="Layer 2"><g id="Layer_1-3" data-name="Layer 1"><g id="Path_49" data-name="Path 49"><path class="cls-5" d="M258.23,1705.66l0,.18a2.78,2.78,0,0,0-1.89-1.93h0c-1.71-.47-8.59-.47-8.59-.47s-6.87,0-8.6.47a2.77,2.77,0,0,0-1.9,1.91v0a30.59,30.59,0,0,0,0,10.92l0-.18a2.79,2.79,0,0,0,1.89,1.94h0c1.71.46,8.59.46,8.59.46s6.87,0,8.59-.46a2.81,2.81,0,0,0,1.92-1.92v0a28.77,28.77,0,0,0,.45-5.16V1711a29.9,29.9,0,0,0-.48-5.35Zm-12.67,8.89v-6.67l5.73,3.34Z"/></g></g></g><g id="Layer_2-2-2" data-name="Layer 2-2"><g id="Layer_1-2-2" data-name="Layer 1-2"><g id="Path_45" data-name="Path 45"><path class="cls-5" d="M153.09,1700h-2.91c-3.26,0-5.38,2.16-5.38,5.52v2.54h-2.92a.46.46,0,0,0-.46.45h0v3.69a.47.47,0,0,0,.46.46h2.93v9.3a.45.45,0,0,0,.45.45h3.82a.45.45,0,0,0,.45-.45h0v-9.3H153a.46.46,0,0,0,.45-.46v-3.69a.46.46,0,0,0-.46-.46h-3.41v-2.15c0-1,.24-1.57,1.6-1.57h2a.45.45,0,0,0,.45-.45v-3.43a.45.45,0,0,0-.45-.46Z"/></g></g></g><g id="Layer_2-3" data-name="Layer 2-3"><g id="Layer_1-3-2" data-name="Layer 1-3"><g id="Path_46" data-name="Path 46"><path class="cls-5" d="M196,1707a4.5,4.5,0,1,0,4.49,4.51h0A4.5,4.5,0,0,0,196,1707Zm0,7.42a2.92,2.92,0,1,1,2.92-2.92,2.94,2.94,0,0,1-2.92,2.92Z"/></g><g id="Path_47" data-name="Path 47"><path class="cls-5" d="M200.62,1700.34c-2.06-.1-7.17-.09-9.24,0a6.75,6.75,0,0,0-4.71,1.81c-2.15,2.16-1.88,5.07-1.88,9.32s-.24,7.2,1.88,9.33,5.11,1.88,9.33,1.88,5.81,0,7.34-.58c2.08-.81,3.65-2.67,3.81-6,.1-2.07.09-7.18,0-9.24C207,1702.92,204.84,1700.53,200.62,1700.34Zm3.26,19c-1.41,1.42-3.37,1.29-7.91,1.29s-6.55.07-7.91-1.3c-1.58-1.57-1.29-4.09-1.29-7.9,0-5.17-.53-8.88,4.65-9.15,1.19,0,1.54-.06,4.54-.06l0,0c5,0,8.88-.52,9.12,4.66.06,1.18.07,1.54.07,4.53,0,4.62.09,6.5-1.3,7.9Z"/></g><g id="Ellipse_2" data-name="Ellipse 2"><circle class="cls-5" cx="201.8" cy="1705.69" r="1.65"/></g></g></g><g id=""><path class="cls-5" d="M144.77,1585.56a18.63,18.63,0,0,0-1.71-1.21,3.9,3.9,0,0,1-2.06,1.7,1.49,1.49,0,0,1,1.83-2.34h-2.07v-.42h2.15a3.54,3.54,0,0,0,0-.45v-.67h-1.05a5.69,5.69,0,0,1-.67,1l-.4-.25a5.38,5.38,0,0,0,1.15-2l.45.1c-.09.26-.2.54-.31.79H145v.42h-1.58v.67c0,.15,0,.29,0,.45h1.87v.42H143.3l-.09.3c.42.23,1.59,1,1.87,1.18Zm-2.5.32h5.91v4h-.49v-.36h-4.95v.39h-.47Zm.47.42v1.18h4.95v-1.18Zm4.95,2.8v-1.22h-4.95v1.22Zm1.34-7.36V1585H145.7v-3.27Zm-.48.44h-2.39v2.39h2.39Z"/><path class="cls-5" d="M152.12,1585.66h3.39v4.16H155v-.47h-2.45v.57h-.46Zm.46.46v2.77H155v-2.77Zm6.27-1.66h-5.23v-3.15h5.23Zm-.48-2.68h-4.28V1584h4.28Zm2,3.88v4.19h-.47v-.5h-2.68v.57h-.47v-4.26Zm-.47,3.23v-2.77h-2.68v2.77Z"/><path class="cls-5" d="M166.47,1583h-3.72v-.43h3.72Zm-2.89,6.27v.5h-.44v-3.33h2.91v2.83Zm2.46-5.42v.41h-2.88v-.41Zm-2.87,1.29h2.89v.42h-2.89Zm.41,1.72v2h2v-2Zm1.07-4.54a7.76,7.76,0,0,0-.78-1.31l.39-.2a7.62,7.62,0,0,1,.79,1.27Zm6.47,3.11a6.43,6.43,0,0,1-1.88,2.85,6.75,6.75,0,0,0,2.52,1.19,1.73,1.73,0,0,0-.3.43,7,7,0,0,1-2.59-1.31,8.18,8.18,0,0,1-2.57,1.33,1.48,1.48,0,0,0-.27-.43,7.45,7.45,0,0,0,2.48-1.22,6.76,6.76,0,0,1-1.61-2.41l.29-.1h-.8v-.46h4.33l.09,0Zm-3.23-3.08a2.92,2.92,0,0,1-1.4,2.63,2.1,2.1,0,0,0-.31-.35,2.5,2.5,0,0,0,1.26-2.28v-1.11h2.85v2.4c0,.28,0,.36.17.36h.71a2.34,2.34,0,0,0,.39,0c0,.12,0,.32.06.43a1.92,1.92,0,0,1-.45,0h-.73c-.49,0-.6-.2-.6-.81v-1.93h-2Zm-.57,3.41a6.05,6.05,0,0,0,1.56,2.21,5.6,5.6,0,0,0,1.61-2.21Z"/><path class="cls-5" d="M178,1583H173.9v-.43H178Zm-3.63.85h3.2v.41h-3.2Zm3.16,1.71h-3.16v-.42h3.16Zm0,3.71h-2.67v.5h-.43v-3.33h3.1Zm-2.67-2.41v2h2.22v-2Zm1-4.54a8,8,0,0,0-.78-1.3l.39-.2a8.68,8.68,0,0,1,.78,1.26Zm6.79,2.54h-2.17v5H180v-5H178v-.47H180v-3.35h.48v3.35h2.17Z"/><path class="cls-5" d="M188,1589.2c0,.31-.08.46-.28.55a4.41,4.41,0,0,1-1.25.09,2.53,2.53,0,0,0-.16-.46c.51,0,.94,0,1.06,0s.19-.05.19-.2V1586c-.52.3-1,.59-1.47.86l-.25-.44c.45-.2,1.08-.52,1.72-.86v-3.9h-1.68v3.1a12,12,0,0,1-.86,5.13,2.28,2.28,0,0,0-.39-.24,11.37,11.37,0,0,0,.8-4.89v-3.55H188Zm-.81-4.46a10.11,10.11,0,0,0-1.26-1.35l.32-.23a11.18,11.18,0,0,1,1.29,1.31Zm6.12.69a6.49,6.49,0,0,1-1.92,2.9,6.14,6.14,0,0,0,2.34,1.17,1.91,1.91,0,0,0-.33.42,6.42,6.42,0,0,1-2.37-1.29,8.58,8.58,0,0,1-2.51,1.3,2,2,0,0,0-.27-.42,7.55,7.55,0,0,0,2.43-1.2,6.81,6.81,0,0,1-1.61-2.53h-.46v-.46h4.31l.09,0Zm-3.2-3a2.9,2.9,0,0,1-1.42,2.62,1.45,1.45,0,0,0-.31-.34,2.52,2.52,0,0,0,1.28-2.29v-1.11h2.85v2.41c0,.28,0,.35.16.35h.64a2.34,2.34,0,0,0,.38,0,2.06,2.06,0,0,1,0,.42,1.48,1.48,0,0,1-.41,0h-.67c-.49,0-.6-.2-.6-.79v-1.94H190.1Zm-.58,3.4A6.25,6.25,0,0,0,191,1588a6.09,6.09,0,0,0,1.65-2.25Z"/><path class="cls-5" d="M198.47,1581a16,16,0,0,1-1.07,2.2v6.67h-.48V1584a10.62,10.62,0,0,1-1.2,1.47,2.24,2.24,0,0,0-.3-.43,12,12,0,0,0,2.6-4.11Zm5.1,3.94s0,.18,0,.25c-.16,3-.3,4-.6,4.34a.71.71,0,0,1-.58.24,8.87,8.87,0,0,1-1.12,0,1.06,1.06,0,0,0-.13-.45c.48,0,.92.05,1.09.05s.25,0,.34-.12.39-1.22.52-3.83h-2c-.24,2.19-.93,3.56-2.41,4.46a1.47,1.47,0,0,0-.34-.37c1.43-.78,2.06-2.09,2.26-4.09h-1.29V1585Zm-2.82-3.49a7.55,7.55,0,0,1-2.05,3.62,1.68,1.68,0,0,0-.34-.37,6.77,6.77,0,0,0,1.92-3.35Zm2.09-.24a6,6,0,0,0,1.8,3.42,2.2,2.2,0,0,0-.33.44,6.64,6.64,0,0,1-1.84-3.39h-1.32v-.47Z"/><path class="cls-5" d="M210.1,1582.68a10.79,10.79,0,0,1-.74,1.38h5v5.14c0,.36-.08.52-.36.6a7.69,7.69,0,0,1-1.72.09,3.47,3.47,0,0,0-.17-.48c.74,0,1.36,0,1.55,0s.23-.06.23-.23v-1.29h-4.61a3.61,3.61,0,0,1-1,2.06,1.48,1.48,0,0,0-.33-.38,4,4,0,0,0,.92-2.91v-1.88a8.14,8.14,0,0,1-1.85,1.81c-.06-.09-.21-.26-.29-.36a8.92,8.92,0,0,0,2.87-3.56H206.9v-.46h2.9a11.23,11.23,0,0,0,.47-1.34l.47.11a12.82,12.82,0,0,1-.44,1.23h5.25v.46Zm3.76,4.78v-1.28h-4.52v.49c0,.25,0,.51,0,.79Zm0-3h-4.52v1.26h4.52Z"/><path class="cls-5" d="M221,1581.47c-.31.8-.71,1.77-1.07,2.57a3.22,3.22,0,0,1,1,2.25,1.28,1.28,0,0,1-.36,1.06,1,1,0,0,1-.49.17,5.15,5.15,0,0,1-.68,0,1,1,0,0,0-.15-.44c.26,0,.49,0,.67,0a.76.76,0,0,0,.33-.09,1,1,0,0,0,.24-.75,3.14,3.14,0,0,0-1-2.16c.35-.79.7-1.67.94-2.36h-1.76v8.18h-.44v-8.63h2.41l.08,0Zm5.54,4.91a15.34,15.34,0,0,1-1.92,1.29,4.5,4.5,0,0,0,2.12,1.74,4.71,4.71,0,0,0-.33.42,5.91,5.91,0,0,1-3.14-4.23h-1.18v3.58l2-.51a2.94,2.94,0,0,0,0,.44,13.36,13.36,0,0,0-2.56.8,2,2,0,0,0-.23-.43.61.61,0,0,0,.31-.61v-7.53H226v4.26h-2.22a7,7,0,0,0,.69,1.71,13.28,13.28,0,0,0,1.8-1.26Zm-4.45-4.6v1.45h3.38v-1.45Zm0,3.38h3.38v-1.5h-3.38Z"/><path class="cls-5" d="M232,1581.36a12.1,12.1,0,0,1-2.91,4.2,3,3,0,0,0-.42-.36,10.4,10.4,0,0,0,2.83-4Zm2.83,4.89a28.65,28.65,0,0,1,2.27,3.31l-.46.25c-.14-.27-.33-.59-.54-.93-5.44.33-5.91.35-6.22.47a2.69,2.69,0,0,0-.18-.52c.21,0,.53-.41.92-.9a27.3,27.3,0,0,0,2.57-4l.5.23a29.69,29.69,0,0,1-3.08,4.6l5.2-.28c-.44-.69-1-1.41-1.41-2Zm.24-5.12a7.8,7.8,0,0,0,2.7,4,2.13,2.13,0,0,0-.38.41,8.42,8.42,0,0,1-2.68-4h-2v-.48Z"/><path class="cls-5" d="M248,1589c0,.42-.1.61-.4.7a9.13,9.13,0,0,1-1.82.08,1.9,1.9,0,0,0-.18-.52c.76,0,1.47,0,1.67,0s.25-.07.25-.25v-7h-7.33v-.46H248Zm-1.71-5.34H240.2v-.45h6.06Zm-.78,4.35h-4.1v.74h-.47V1585h4.57Zm-4.1-2.63v2.19H245v-2.19Z"/></g><g id="zhipindesign" class="cls-3"><path class="cls-5" d="M144.08,1574.56l3.06-4.52h-2.73v-.49h3.48v.31l-3.06,4.51H148v.5h-3.91Z"/><path class="cls-5" d="M150.29,1566.93h.58v3.44a2.56,2.56,0,0,1,1.81-1c1.11,0,1.62.69,1.62,2.06v3.4h-.58v-3.32c0-1.11-.35-1.62-1.17-1.62a2.3,2.3,0,0,0-1.67,1v4h-.58Z"/><path class="cls-5" d="M157,1567.84a.46.46,0,0,1,.49-.48.47.47,0,1,1-.49.48Zm.19,1.71h.58v5.32h-.58Z"/><path class="cls-5" d="M160.75,1569.55h.47l.08.65h0a3.07,3.07,0,0,1,1.77-.79c1.42,0,2.14,1.08,2.14,2.72,0,1.81-1.1,2.87-2.35,2.87a2.61,2.61,0,0,1-1.56-.65v2.9h-.58Zm3.86,2.58c0-1.28-.44-2.21-1.63-2.21a2.63,2.63,0,0,0-1.65.85v3.07a2.4,2.4,0,0,0,1.5.65C163.87,1574.49,164.61,1573.55,164.61,1572.13Z"/><path class="cls-5" d="M167.61,1567.84a.46.46,0,0,1,.49-.48.47.47,0,1,1,0,.94A.47.47,0,0,1,167.61,1567.84Zm.19,1.71h.58v5.32h-.58Z"/><path class="cls-5" d="M171.37,1569.55h.48l.07.81h0a2.62,2.62,0,0,1,1.82-.95c1.11,0,1.62.69,1.62,2.06v3.4h-.58v-3.32c0-1.11-.35-1.62-1.17-1.62-.62,0-1.06.32-1.68,1v4h-.57Z"/><path class="cls-5" d="M177.86,1572.22a2.54,2.54,0,0,1,2.35-2.81,2.39,2.39,0,0,1,1.59.65l0-1v-2.17h.58v7.94h-.48l-.07-.67h0a2.47,2.47,0,0,1-1.71.8C178.72,1575,177.86,1574,177.86,1572.22Zm3.9,1.43v-3.07a2.15,2.15,0,0,0-1.49-.66,2.06,2.06,0,0,0-1.8,2.3c0,1.37.62,2.27,1.69,2.27A2.23,2.23,0,0,0,181.76,1573.65Z"/><path class="cls-5" d="M184.91,1572.22a2.54,2.54,0,0,1,2.33-2.81c1.29,0,2.06.92,2.06,2.48a2.77,2.77,0,0,1,0,.42H185.5a2,2,0,0,0,1.94,2.2,2.39,2.39,0,0,0,1.42-.46l.22.43a3,3,0,0,1-1.7.52A2.51,2.51,0,0,1,184.91,1572.22Zm3.86-.37c0-1.29-.59-1.94-1.52-1.94a1.89,1.89,0,0,0-1.75,1.94Z"/><path class="cls-5" d="M191.08,1574.27l.31-.42a2.42,2.42,0,0,0,1.67.67c.81,0,1.22-.46,1.22-1s-.67-.91-1.29-1.13c-.79-.28-1.66-.61-1.66-1.53s.63-1.44,1.74-1.44a2.57,2.57,0,0,1,1.55.57l-.3.4a2,2,0,0,0-1.27-.48c-.79,0-1.15.44-1.15.92s.62.81,1.24,1c.82.31,1.72.6,1.72,1.62,0,.82-.65,1.52-1.83,1.52A3.12,3.12,0,0,1,191.08,1574.27Z"/><path class="cls-5" d="M197.06,1567.84a.49.49,0,1,1,.49.46A.46.46,0,0,1,197.06,1567.84Zm.19,1.71h.57v5.32h-.57Z"/><path class="cls-5" d="M200.37,1576a1.63,1.63,0,0,1,.79-1.27v0a1,1,0,0,1-.48-.86,1.29,1.29,0,0,1,.59-1v0a1.92,1.92,0,0,1-.67-1.45,1.85,1.85,0,0,1,1.9-1.89,1.9,1.9,0,0,1,.71.14H205v.48h-1.2a1.7,1.7,0,0,1,.55,1.28,1.83,1.83,0,0,1-1.88,1.87,1.69,1.69,0,0,1-.86-.22.94.94,0,0,0-.42.75c0,.37.23.66,1,.66h1.12c1.21,0,1.78.38,1.78,1.23s-1,1.81-2.56,1.81C201.23,1577.41,200.37,1576.85,200.37,1576Zm4.17-.27c0-.57-.42-.78-1.21-.78h-1.09a3.75,3.75,0,0,1-.67-.09,1.32,1.32,0,0,0-.65,1.07c0,.65.62,1.09,1.71,1.09S204.54,1576.32,204.54,1575.68Zm-.72-4.38a1.32,1.32,0,1,0-2.64,0,1.33,1.33,0,1,0,2.64,0Z"/><path class="cls-5" d="M207.25,1569.55h.47l.08.81h0a2.62,2.62,0,0,1,1.82-.95c1.11,0,1.62.69,1.62,2.06v3.4h-.58v-3.32c0-1.11-.35-1.62-1.17-1.62-.62,0-1.06.32-1.68,1v4h-.57Z"/></g><g id="Layer_2-5-2" data-name="Layer 2-5"><g id="Layer_1-5-2" data-name="Layer 1-5"><g id="Path_56" data-name="Path 56"><path class="cls-5" d="M229.77,1563.48H217.19a.22.22,0,0,0-.24.22.22.22,0,0,0,.09.2l1.45,1a1.17,1.17,0,0,0,.65.21h6.79a.26.26,0,0,1,.28.24.24.24,0,0,1-.11.23L215.84,1573a.71.71,0,0,0,.47,1.28h3.18l2.33-1.67h-1.66a.26.26,0,0,1-.28-.24.25.25,0,0,1,.1-.23l10.26-7.37a.71.71,0,0,0,.16-1A.72.72,0,0,0,229.77,1563.48Zm8.58,4.3a3,3,0,0,0-2.06-.79H233a1.93,1.93,0,0,0-1.14.36l-9.6,6.92h2.34a1.7,1.7,0,0,0,1-.32l6.88-4.94a2,2,0,0,1,1.14-.36h2.61a1.17,1.17,0,0,1,1.21,1.13v.38a2.53,2.53,0,0,1-2.62,2.44h-3.07l-2.32,1.67h4.87a4.78,4.78,0,0,0,4.94-4.59A2.57,2.57,0,0,0,238.35,1567.78Z"/></g></g></g><rect class="cls-6" width="392" height="1747.08"/></g></g></svg>