<svg xmlns="http://www.w3.org/2000/svg" viewBox="0 0 173.54 173.54"><title>Laser cutting service Logo</title><g id="Layer_2" data-name="Layer 2"><g id="Layer_1-2" data-name="Layer 1"><path d="M86.77,0,0,86.77l86.77,86.77,86.77-86.77ZM69,23.44,86.77,5.66l17.78,17.78V47.76H69ZM86.77,167.88,32.63,113.75H79.22l7.56,7,7.56-7H140.9Zm6-58.13-6,5.58-6-5.58H28.63l-23-23L65,27.44V51.76h43.57V27.44l59.33,59.33-23,23Zm15.79-40.57V56.92H65V69.18l21.79,20.3ZM69,67.44V60.92h35.57v6.52L86.77,84ZM92.3,103.07l2.83,2.83,15.06-15.06L107.37,88Zm-29-12.24L78.41,105.9l2.83-2.83L66.17,88Zm21.42,10.6h4V91.09h-4Zm2,3.84a2,2,0,1,0,2,2A2,2,0,0,0,86.77,105.27Z"/></g></g></svg>