<svg xmlns="http://www.w3.org/2000/svg" viewBox="0 0 68.98 90.63"><title>Laser cutting file</title><g id="Layer_2" data-name="Layer 2"><g id="Layer_1-2" data-name="Layer 1"><path d="M68.69,16.19,52.94.3a1,1,0,0,0-.71-.3H7.94A4.66,4.66,0,0,0,3.29,4.66v7.08H1a1,1,0,0,0-1,1V28.16a1,1,0,0,0,1,1H3.29V86a4.66,4.66,0,0,0,4.65,4.65H64.33A4.66,4.66,0,0,0,69,86V16.89A1,1,0,0,0,68.69,16.19ZM52.7,2.9l12.88,13H55.35a2.65,2.65,0,0,1-2.65-2.65ZM2,27.16V13.74H35V27.16ZM67,86a2.65,2.65,0,0,1-2.65,2.65H7.94A2.65,2.65,0,0,1,5.29,86V29.16H36a1,1,0,0,0,1-1V12.74a1,1,0,0,0-1-1H5.29V4.66A2.66,2.66,0,0,1,7.94,2H50.7V13.24a4.66,4.66,0,0,0,4.65,4.65H67ZM21.53,49.07a4.8,4.8,0,0,0,2.23.59h.4a5,5,0,0,0,3.54-1.33,4.21,4.21,0,0,0,1.39-3.2v-.41H24.91V45.8h2.75a2.27,2.27,0,0,1-.58,1.41,3.5,3.5,0,0,1-1.35,1,4.27,4.27,0,0,1-1.73.36,3.74,3.74,0,0,1-1.8-.5,4.16,4.16,0,0,1-1.55-1.44,3.54,3.54,0,0,1-.57-1.92l0-.07a3.15,3.15,0,0,1,.63-1.91,4.43,4.43,0,0,1,6.89-.24l1-.79a6.09,6.09,0,0,0-2-1.38,6.52,6.52,0,0,0-2.46-.42,5.54,5.54,0,0,0-1.56.25,5.18,5.18,0,0,0-3.08,2.31,4.26,4.26,0,0,0-.7,2.26A4.79,4.79,0,0,0,20,47.83,5,5,0,0,0,21.53,49.07Zm15.07-10-1-.41L29.79,50.63l1,.4ZM10.22,48.61a4.47,4.47,0,0,0,.55-2.45v-6H9.46v6a6.39,6.39,0,0,1-.09,1.15,1.71,1.71,0,0,1-.43.88,1.25,1.25,0,0,1-.95.4,2.26,2.26,0,0,1-1.07-.32l-.66,1a3.32,3.32,0,0,0,1.59.42A2.63,2.63,0,0,0,10.22,48.61Zm29.13-3.07h1.06a4.18,4.18,0,0,0,2.21-.59,2.33,2.33,0,0,0,1.17-2.12,2.55,2.55,0,0,0-.55-1.68,2.65,2.65,0,0,0-1.68-.89,11.24,11.24,0,0,0-1.85-.14H38l0,9.35h1.33Zm0-4.39h.57q2.64,0,2.64,1.57,0,1.87-2.77,1.79h-.44Zm6.76,1.33L54,49.85V40.11H52.71V47l-7.9-7.39v9.82h1.3ZM17.17,44.95a2.33,2.33,0,0,0,1.17-2.12,2.55,2.55,0,0,0-.55-1.68,2.65,2.65,0,0,0-1.68-.89,11.24,11.24,0,0,0-1.85-.14H12.59l0,9.35H13.9V45.54H15A4.18,4.18,0,0,0,17.17,44.95Zm-3.27-.44V41.15h.57q2.64,0,2.64,1.57,0,1.87-2.77,1.79Zm42.48,3.32a5,5,0,0,0,1.57,1.24,4.8,4.8,0,0,0,2.23.59h.4a5,5,0,0,0,3.54-1.33,4.21,4.21,0,0,0,1.39-3.2v-.41H61.32V45.8h2.75a2.27,2.27,0,0,1-.58,1.41,3.5,3.5,0,0,1-1.35,1,4.27,4.27,0,0,1-1.73.36,3.74,3.74,0,0,1-1.8-.5,4.16,4.16,0,0,1-1.55-1.44,3.54,3.54,0,0,1-.57-1.92l0-.07a3.15,3.15,0,0,1,.63-1.91A4.43,4.43,0,0,1,64,42.5l1-.79a6.09,6.09,0,0,0-2-1.38,6.52,6.52,0,0,0-2.46-.42,5.54,5.54,0,0,0-1.56.25,5.18,5.18,0,0,0-3.08,2.31,4.26,4.26,0,0,0-.7,2.26A4.79,4.79,0,0,0,56.38,47.83ZM60,71.49h1.33v-4.6h3.66V65.82H61.29V63.21h3.77V62.14H60Zm-48.8-5.54L10,65.54a1.28,1.28,0,0,1-1-1.24,1,1,0,0,1,.23-.6A1.77,1.77,0,0,1,10.67,63a1.93,1.93,0,0,1,1.72.9l1-.56a3,3,0,0,0-2.69-1.42,3.43,3.43,0,0,0-2.29.76,2,2,0,0,0-.82,1.59,2.14,2.14,0,0,0,1.27,2q.37.19,1.53.64a7.26,7.26,0,0,1,1.47.71,1.17,1.17,0,0,1,.56,1.12l0,.31a1.56,1.56,0,0,1-.61,1.11,2,2,0,0,1-1.3.44,2,2,0,0,1-1.72-.79,1.6,1.6,0,0,1-.32-1l-1.31.25a2.7,2.7,0,0,0,.56,1.37,3.24,3.24,0,0,0,2.72,1.25,3.56,3.56,0,0,0,1.27-.25,3.36,3.36,0,0,0,1.49-1.06,2.49,2.49,0,0,0,.56-1.59,2.73,2.73,0,0,0-.28-1.19A3.75,3.75,0,0,0,11.16,65.95Zm36.7-3.26a8.07,8.07,0,0,0-3.07-.55H42.59v9.35h2.32A6.16,6.16,0,0,0,49.32,70a4.42,4.42,0,0,0,1.38-3.34,4,4,0,0,0-.57-2.13A4.62,4.62,0,0,0,47.86,62.69Zm1,6q-1.13,1.75-4.13,1.75h-.8V63.21h.65a6.08,6.08,0,0,1,3.39.83,3.09,3.09,0,0,1,1.42,2.75A3.4,3.4,0,0,1,48.83,68.67Zm10-6.53h-1.5L55,65.53l-2.15-3.39H51.37l2.89,4.44L51,71.49h1.46L55,67.63l2.46,3.86H59l-3.21-4.9ZM18.66,69l-3.13-6.9H14.08L18.67,72l4.57-9.83H21.8Zm15.78,3.62,1,.4,5.8-11.94-1-.41Zm-4.88-4.83h2.75a2.27,2.27,0,0,1-.58,1.41,3.5,3.5,0,0,1-1.35,1,4.27,4.27,0,0,1-1.73.36,3.74,3.74,0,0,1-1.8-.5,4.16,4.16,0,0,1-1.55-1.44,3.54,3.54,0,0,1-.57-1.92l0-.07a3.15,3.15,0,0,1,.63-1.91,4.43,4.43,0,0,1,6.89-.24l1-.79a6.09,6.09,0,0,0-2-1.38,6.52,6.52,0,0,0-2.46-.42,5.54,5.54,0,0,0-1.56.25,5.18,5.18,0,0,0-3.08,2.31,4.26,4.26,0,0,0-.7,2.26,4.79,4.79,0,0,0,1.21,3.1,5,5,0,0,0,1.57,1.24,4.8,4.8,0,0,0,2.23.59h.4a5,5,0,0,0,3.54-1.33,4.21,4.21,0,0,0,1.39-3.2v-.41H29.57Z"/></g></g></svg>