<svg xmlns="http://www.w3.org/2000/svg" viewBox="0 0 800 364.86"><defs><style>.cls-1{fill:#231f20;}</style></defs><title>Asset 1</title><g id="Layer_2" data-name="Layer 2"><g id="Layer_1-2" data-name="Layer 1"><path class="cls-1" d="M480.89,0H55.73C47.55,0,44,9.59,50.48,14.24L99.42,49.41a38.12,38.12,0,0,0,22.19,7H351c9.17,0,13.14,10.76,5.9,16L10.16,321.56c-19.65,14.11-8.88,43.3,16,43.3H133.57l78.57-56.45H156c-9.17,0-13.14-10.77-5.9-16L496.87,43.3C516.52,29.18,505.75,0,480.89,0ZM771.15,145.3c-17.83-16.54-42.45-26.75-69.65-26.75H588.82a65.91,65.91,0,0,0-38.37,12.16L225.62,364.86H304.9A58,58,0,0,0,338.65,354L571.27,187.16A65.93,65.93,0,0,1,609.64,175H698c22.7,0,41.1,17.06,41.1,38.1v13.08c0,45.41-39.71,82.23-88.69,82.23H546.71l-78.57,56.45H632.83c92.33,0,167.17-69.39,167.17-155C800,184.65,789,161.83,771.15,145.3Z"/></g></g></svg>