<svg xmlns="http://www.w3.org/2000/svg" viewBox="0 0 174.79 78.88"><title>Laser cutting</title><g id="Layer_2" data-name="Layer 2"><g id="Layer_1-2" data-name="Layer 1"><path d="M173.79,76.88H158.51a4.62,4.62,0,0,0,.84-2.65V4.66A4.66,4.66,0,0,0,154.69,0H20.09a4.66,4.66,0,0,0-4.65,4.65V74.23a4.62,4.62,0,0,0,.84,2.65H1a1,1,0,0,0,0,2H173.79a1,1,0,0,0,0-2ZM26,20.08H71.21v5.49a1,1,0,0,0,.24.65L76,31.6a1,1,0,0,0,1.52,0l4.59-5.38a1,1,0,0,0,.24-.65V20.08h45.16v22H26Zm54.34,0V25.2L76.8,29.41,73.21,25.2V20.08ZM127.55,2V18.08H26V2ZM50.77,76.88a5.83,5.83,0,0,0,.77-1.11h0a3.81,3.81,0,0,1,3.38-2h64.94a3.81,3.81,0,0,1,3.38,2,5.83,5.83,0,0,0,.78,1.12Zm77.63,0a3.81,3.81,0,0,1-3.38-2,5.8,5.8,0,0,0-5.15-3.12H54.93a5.82,5.82,0,0,0-5.16,3.13h0a3.81,3.81,0,0,1-3.38,2H20.09a2.65,2.65,0,0,1-2.65-2.65V4.65A2.65,2.65,0,0,1,20.09,2h4V43.1a1,1,0,0,0,1,1h103.5a1,1,0,0,0,1-1V2h25.14a2.66,2.66,0,0,1,2.66,2.66V74.23a2.65,2.65,0,0,1-2.65,2.65Z"/><path d="M34.89,53.85h-7.1a1,1,0,0,0,0,2h7.1a1,1,0,0,0,0-2Z"/><path d="M34.89,59.49h-7.1a1,1,0,0,0,0,2h7.1a1,1,0,0,0,0-2Z"/><path d="M34.89,65.13h-7.1a1,1,0,0,0,0,2h7.1a1,1,0,0,0,0-2Z"/><path d="M152.7,6.1H134.2a1,1,0,0,0-1,1V40.5a1,1,0,0,0,1,1H152.7a1,1,0,0,0,1-1V7.1A1,1,0,0,0,152.7,6.1Zm-1,33.4H135.2V8.1H151.7Z"/><path d="M137.71,56.06a4.42,4.42,0,1,0,4.42,4.42A4.43,4.43,0,0,0,137.71,56.06Zm0,6.85a2.42,2.42,0,1,1,2.42-2.42A2.43,2.43,0,0,1,137.71,62.91Z"/><path d="M149.18,56.06a4.42,4.42,0,1,0,4.42,4.42A4.43,4.43,0,0,0,149.18,56.06Zm0,6.85a2.42,2.42,0,1,1,2.42-2.42A2.43,2.43,0,0,1,149.18,62.91Z"/><path d="M125.48,36.44H79.05a1,1,0,0,0-.76.35l-1.5,1.76-1.5-1.76a1,1,0,0,0-.76-.35H28.11a1,1,0,0,0,0,2h46l2,2.3a1,1,0,0,0,1.52,0l2-2.3h46a1,1,0,0,0,0-2Z"/></g></g></svg>