<svg xmlns="http://www.w3.org/2000/svg" viewBox="0 0 200 200"><defs><style>.cls-1{fill:none;}</style></defs><g id="Layer_2" data-name="Layer 2"><g id="Layer_1-2" data-name="Layer 1"><path d="M151.62,136.76H104.51a1,1,0,1,1,0-2h47.11a1,1,0,0,1,0,2Z"/><path d="M48.38,162.85a1,1,0,0,1-.71-.29,1,1,0,0,1,0-1.41L65.82,143a1,1,0,1,1,1.42,1.41L49.09,162.56A1,1,0,0,1,48.38,162.85Z"/><path d="M74.47,106.71a1,1,0,0,1-1-1V58.6a1,1,0,1,1,2,0v47.11A1,1,0,0,1,74.47,106.71Z"/><path d="M96.57,144.7h-30a1,1,0,0,1-1-1v-30a1,1,0,0,1,1-1h8a1,1,0,0,1,0,2h-7v28H95.57v-6.94a1,1,0,0,1,1-1,1,1,0,0,1,1,1v8A1,1,0,0,1,96.57,144.7Z"/><path d="M96.57,136.74a1,1,0,0,1-1-1V114.66H74.48a1,1,0,1,1,0-2H96.57a1,1,0,0,1,1,1v22.08A1,1,0,0,1,96.57,136.74Z"/><path d="M104.53,136.74a1,1,0,0,1-1-1v-29h-29a1,1,0,0,1,0-2h30.05a1,1,0,0,1,1,1v30A1,1,0,0,1,104.53,136.74Z"/><path d="M66.52,114.66a1,1,0,0,1-.7-.29,1,1,0,0,1,0-1.41l8-8a1,1,0,0,1,1.41,1.41l-8,8A1,1,0,0,1,66.52,114.66Z"/><path d="M96.57,144.7a1,1,0,0,1-.71-.29,1,1,0,0,1,0-1.42l8-8a1,1,0,0,1,1.41,1.42l-8,8A1,1,0,0,1,96.57,144.7Z"/><path d="M96.57,114.66a1,1,0,0,1-.71-.29,1,1,0,0,1,0-1.41l8-8a1,1,0,0,1,1.41,0,1,1,0,0,1,0,1.41l-8,8A1,1,0,0,1,96.57,114.66Z"/><rect class="cls-1" width="200" height="200"/></g></g></svg>