<svg xmlns="http://www.w3.org/2000/svg" viewBox="0 0 200 200"><defs><style>.cls-1{fill:none;}</style></defs><g id="Layer_2" data-name="Layer 2"><g id="Layer_1-2" data-name="Layer 1"><path d="M151.62,136.76H119.53a1,1,0,0,1,0-2h32.09a1,1,0,0,1,0,2Z"/><path d="M48.38,162.85a1,1,0,0,1-.71-.29,1,1,0,0,1,0-1.41L61.83,147a1,1,0,1,1,1.42,1.41L49.09,162.56A1,1,0,0,1,48.38,162.85Z"/><path d="M74.47,132.06a1,1,0,0,1-1-1v-15a1,1,0,1,1,2,0v15A1,1,0,0,1,74.47,132.06Z"/><path d="M107.6,148.69H62.53a1,1,0,0,1-1-1V143a1,1,0,0,1,1-1H107.6a1,1,0,0,1,1,1v4.69A1,1,0,0,1,107.6,148.69Zm-44.07-2H106.6V144H63.53Z"/><path d="M119.54,136.75a1,1,0,0,1-1-1v-3.69H74.47a1,1,0,0,1,0-2h45.07a1,1,0,0,1,1,1v4.69A1,1,0,0,1,119.54,136.75Z"/><path d="M62.53,144a1,1,0,0,1-.71-.29,1,1,0,0,1,0-1.42l11.94-11.93a1,1,0,1,1,1.42,1.41L63.24,143.71A1,1,0,0,1,62.53,144Z"/><path d="M107.6,148.69a1,1,0,0,1-.71-.29,1,1,0,0,1,0-1.42l11.94-11.93a1,1,0,1,1,1.41,1.41L108.31,148.4A1,1,0,0,1,107.6,148.69Z"/><path d="M107.6,144a1,1,0,0,1-.71-.29,1,1,0,0,1,0-1.42l11.94-11.93a1,1,0,0,1,1.41,0,1,1,0,0,1,0,1.41l-11.93,11.94A1,1,0,0,1,107.6,144Z"/><rect class="cls-1" width="200" height="200"/></g></g></svg>