<svg xmlns="http://www.w3.org/2000/svg" viewBox="0 0 200 200"><defs><style>.cls-1{fill:none;}</style></defs><g id="Layer_2" data-name="Layer 2"><g id="Layer_1-2" data-name="Layer 1"><path d="M151.62,136.76H134.55a1,1,0,0,1,0-2h17.07a1,1,0,0,1,0,2Z"/><path d="M48.38,162.85a1,1,0,0,1-.71-.29,1,1,0,0,1,0-1.41L57.86,151a1,1,0,0,1,1.42,1.41L49.09,162.56A1,1,0,0,1,48.38,162.85Z"/><path d="M74.47,76.68a1,1,0,0,1-1-1V58.6a1,1,0,1,1,2,0V75.68A1,1,0,0,1,74.47,76.68Z"/><path d="M118.65,152.66H58.56a1,1,0,0,1-1-1V91.59a1,1,0,0,1,1-1h60.09a1,1,0,0,1,1,1v60.07A1,1,0,0,1,118.65,152.66Zm-59.09-2h58.09V92.59H59.56Z"/><path d="M134.57,136.74a1,1,0,0,1-1-1V76.67H74.48a1,1,0,0,1,0-2h60.09a1,1,0,0,1,1,1v60.07A1,1,0,0,1,134.57,136.74Z"/><path d="M58.56,92.59a1,1,0,0,1-.71-.29,1,1,0,0,1,0-1.42L73.77,75a1,1,0,0,1,1.41,1.41L59.27,92.3A1,1,0,0,1,58.56,92.59Z"/><path d="M118.65,152.66a1,1,0,0,1-.71-.29,1,1,0,0,1,0-1.42L133.86,135a1,1,0,0,1,1.41,1.41l-15.91,15.92A1,1,0,0,1,118.65,152.66Z"/><path d="M118.65,92.59a1,1,0,0,1-.71-.29,1,1,0,0,1,0-1.42L133.86,75a1,1,0,0,1,1.41,1.41L119.36,92.3A1,1,0,0,1,118.65,92.59Z"/><rect class="cls-1" width="200" height="200"/></g></g></svg>