<svg xmlns="http://www.w3.org/2000/svg" viewBox="0 0 200 200"><defs><style>.cls-1{fill:none;}</style></defs><g id="Layer_2" data-name="Layer 2"><g id="Layer_1-2" data-name="Layer 1"><path d="M151.62,136.76H134.55a1,1,0,0,1,0-2h17.07a1,1,0,0,1,0,2Z"/><path d="M48.38,162.85a1,1,0,0,1-.71-.29,1,1,0,0,1,0-1.41L57.86,151a1,1,0,0,1,1.42,1.41L49.09,162.56A1,1,0,0,1,48.38,162.85Z"/><path d="M74.47,132.06a1,1,0,0,1-1-1v-15a1,1,0,1,1,2,0v15A1,1,0,0,1,74.47,132.06Z"/><path d="M118.65,152.66H58.56a1,1,0,0,1-1-1V147a1,1,0,0,1,1-1h60.09a1,1,0,0,1,1,1v4.68A1,1,0,0,1,118.65,152.66Zm-59.09-2h58.09V148H59.56Z"/><path d="M134.57,136.74a1,1,0,0,1-1-1v-3.68H74.48a1,1,0,0,1,0-2h60.09a1,1,0,0,1,1,1v4.68A1,1,0,0,1,134.57,136.74Z"/><path d="M58.56,148a1,1,0,0,1-.71-.29,1,1,0,0,1,0-1.42l15.92-15.91a1,1,0,1,1,1.41,1.41L59.26,147.69A1,1,0,0,1,58.56,148Z"/><path d="M118.65,152.66a1,1,0,0,1-.71-.29,1,1,0,0,1,0-1.42L133.86,135a1,1,0,0,1,1.41,1.41l-15.91,15.92A1,1,0,0,1,118.65,152.66Z"/><path d="M118.65,148a1,1,0,0,1-.71-.29,1,1,0,0,1,0-1.42l15.92-15.91a1,1,0,0,1,1.41,1.41l-15.91,15.92A1,1,0,0,1,118.65,148Z"/><rect class="cls-1" width="200" height="200"/></g></g></svg>