<svg xmlns="http://www.w3.org/2000/svg" viewBox="0 0 200 200"><defs><style>.cls-1{fill:none;}</style></defs><g id="Layer_2" data-name="Layer 2"><g id="Layer_1-2" data-name="Layer 1"><path d="M166.71,162.85H110.32a4.65,4.65,0,0,1-4.65-4.65V100.38a1,1,0,0,1,2,0V158.2a2.65,2.65,0,0,0,2.65,2.65h56.39a2.65,2.65,0,0,0,2.65-2.65V89.52L154.2,74.22H110.32a2.66,2.66,0,0,0-2.65,2.66V85a1,1,0,0,1-2,0V76.88a4.66,4.66,0,0,1,4.65-4.66h44.29a1,1,0,0,1,.71.3l15.75,15.89a1,1,0,0,1,.29.7V158.2A4.65,4.65,0,0,1,166.71,162.85Z"/><path d="M169.83,90.11h-12.1a4.65,4.65,0,0,1-4.65-4.65V73.22h2V85.46a2.65,2.65,0,0,0,2.65,2.65h12.1Z"/><path d="M138.39,101.38h-35a1,1,0,0,1-1-1V85a1,1,0,0,1,1-1h35a1,1,0,0,1,1,1v15.42A1,1,0,0,1,138.39,101.38Zm-34-2h33V86h-33Z"/><path d="M138.52,152.48a22.41,22.41,0,1,1,22.41-22.41A22.43,22.43,0,0,1,138.52,152.48Zm0-40.82a18.41,18.41,0,1,0,18.41,18.41A18.43,18.43,0,0,0,138.52,111.66Z"/><rect x="118.11" y="128.07" width="40.81" height="4" transform="translate(-51.4 136.04) rotate(-45)"/><path d="M93,162.85H36.58a4.65,4.65,0,0,1-4.65-4.65V100.38a1,1,0,0,1,2,0V158.2a2.65,2.65,0,0,0,2.65,2.65H93a2.65,2.65,0,0,0,2.65-2.65V89.52L80.45,74.22H36.58a2.66,2.66,0,0,0-2.65,2.66V85a1,1,0,0,1-2,0V76.88a4.66,4.66,0,0,1,4.65-4.66H80.87a1,1,0,0,1,.71.3L97.33,88.41a1,1,0,0,1,.29.7V158.2A4.65,4.65,0,0,1,93,162.85Z"/><path d="M96.09,90.11H84a4.65,4.65,0,0,1-4.65-4.65V73.22h2V85.46A2.65,2.65,0,0,0,84,88.11h12.1Z"/><path d="M64.64,101.38h-35a1,1,0,0,1-1-1V85a1,1,0,0,1,1-1h35a1,1,0,0,1,1,1v15.42A1,1,0,0,1,64.64,101.38Zm-34-2h33V86h-33Z"/><path d="M43.13,89.75a2,2,0,0,0-1.73-.91,1.78,1.78,0,0,0-1.52.7,1,1,0,0,0-.24.6,1.29,1.29,0,0,0,1,1.25l1.21.42a3.77,3.77,0,0,1,2.34,1.67,2.84,2.84,0,0,1,.28,1.19,2.52,2.52,0,0,1-.56,1.6,3.42,3.42,0,0,1-1.51,1.07,3.77,3.77,0,0,1-1.28.25,3.24,3.24,0,0,1-2.74-1.27A2.64,2.64,0,0,1,37.86,95l1.32-.25a1.59,1.59,0,0,0,.32,1,2,2,0,0,0,1.73.79A2.07,2.07,0,0,0,42.54,96a1.62,1.62,0,0,0,.62-1.12l0-.31a1.16,1.16,0,0,0-.56-1.13,7.56,7.56,0,0,0-1.48-.72,15.65,15.65,0,0,1-1.54-.64,2.14,2.14,0,0,1-1.28-2,2,2,0,0,1,.83-1.6,3.43,3.43,0,0,1,2.3-.76,3.05,3.05,0,0,1,2.72,1.43Z"/><path d="M47.5,89.05H45V88h6.37v1.08H48.81v8.33H47.5Z"/><path d="M52.35,88h1.32v8.34h3.22v1.07H52.35Z"/><path d="M48.2,108.62h8.17v1.7h-6v4.19h5.85v1.7H50.34v7.37H48.2Z"/><path d="M58.78,108.62h2.09v15H58.78Z"/><path d="M64,108.62h2.1v13.25h5.11v1.71H64Z"/><path d="M72.64,108.62h9v1.7h-7v4.19H81.5v1.7H74.73v5.66h7v1.71h-9Z"/><rect class="cls-1" width="200" height="200"/></g></g></svg>