<svg xmlns="http://www.w3.org/2000/svg" viewBox="0 0 200 200"><defs><style>.cls-1{fill:none;}</style></defs><g id="Layer_2" data-name="Layer 2"><g id="Layer_1-2" data-name="Layer 1"><path d="M167.19,162.85H32.81a1,1,0,0,1,0-2H167.19a1,1,0,0,1,0,2Z"/><path d="M151.75,86.92H48.25a1,1,0,0,1,0-2h103.5a1,1,0,0,1,0,2Z"/><path d="M117.94,131.39a1,1,0,0,1-1-1v-3H82.06a1,1,0,0,1-1-1v-3.66a1,1,0,0,1,1-1h34.88v-1.67H82.06a1,1,0,0,1-1-1v-3.67a1,1,0,0,1,1-1h34.88v-1.66H82.06a1,1,0,0,1-1-1v-3.67a1,1,0,0,1,1-1h34.88v-1.3H100a1,1,0,0,1-.71-.3,1,1,0,0,1-.29-.7v-4.2a1,1,0,0,1,1-1h0a1,1,0,0,1,1,1v3.2h16.94a1,1,0,0,1,1,1v3.3a1,1,0,0,1-1,1H83.06v1.67h34.88a1,1,0,0,1,1,1v3.66a1,1,0,0,1-1,1H83.06v1.67h34.88a1,1,0,0,1,1,1v3.67a1,1,0,0,1-1,1H83.06v1.66h34.88a1,1,0,0,1,1,1v4A1,1,0,0,1,117.94,131.39Z"/><path d="M151.75,131.69H48.25a1,1,0,0,1,0-2h103.5a1,1,0,0,1,0,2Z"/><path d="M148.31,162.85H141a5.81,5.81,0,0,1-5.16-3.11,3.8,3.8,0,0,0-3.38-2.05H67.53a3.82,3.82,0,0,0-3.38,2v0a5.82,5.82,0,0,1-5.15,3.1H51.69a4.65,4.65,0,0,1-4.64-4.65V78.34a4.65,4.65,0,0,1,4.64-4.65H148.3A4.67,4.67,0,0,1,153,78.35V158.2A4.65,4.65,0,0,1,148.31,162.85Zm-80.78-7.16h64.94a5.82,5.82,0,0,1,5.16,3.12,3.81,3.81,0,0,0,3.38,2h7.3A2.65,2.65,0,0,0,151,158.2V78.35a2.67,2.67,0,0,0-2.66-2.66H51.69a2.64,2.64,0,0,0-2.64,2.65V158.2a2.65,2.65,0,0,0,2.64,2.65H59a3.82,3.82,0,0,0,3.38-2h0A5.79,5.79,0,0,1,67.53,155.69Z"/><path d="M131,148.13a4.42,4.42,0,1,1,4.42-4.42A4.43,4.43,0,0,1,131,148.13Zm0-6.84a2.42,2.42,0,1,0,2.42,2.42A2.42,2.42,0,0,0,131,141.29Z"/><path d="M142.44,148.13a4.42,4.42,0,1,1,4.42-4.42A4.43,4.43,0,0,1,142.44,148.13Zm0-6.84a2.42,2.42,0,1,0,2.42,2.42A2.42,2.42,0,0,0,142.44,141.29Z"/><path d="M104.59,93.4a1,1,0,0,1-1-1V86.91H96.41V92.4a1,1,0,0,1-2,0V85.91a1,1,0,0,1,1-1h9.18a1,1,0,0,1,1,1V92.4A1,1,0,0,1,104.59,93.4Z"/><path d="M100,98.78a1,1,0,0,1-.76-.35l-4.59-5.38a1,1,0,0,1,1.52-1.3L100,96.24l3.83-4.49a1,1,0,1,1,1.52,1.3l-4.59,5.38A1,1,0,0,1,100,98.78Z"/><path d="M115.06,150.44H84.94a1,1,0,0,1-1-1V138a1,1,0,0,1,1-1h30.12a1,1,0,0,1,1,1v11.45A1,1,0,0,1,115.06,150.44Zm-29.12-2h28.12V139H85.94Z"/><rect class="cls-1" width="200" height="200"/></g></g></svg>