<svg xmlns="http://www.w3.org/2000/svg" viewBox="0 0 200 200"><defs><style>.cls-1{fill:none;}</style></defs><g id="Layer_2" data-name="Layer 2"><g id="Layer_1-2" data-name="Layer 1"><rect x="169.96" y="91" width="2" height="60.45"/><rect x="28.05" y="91" width="2" height="60.45"/><path d="M59,162.85H32.7a4.67,4.67,0,0,1-4.65-4.68V91a1,1,0,0,1,2,0v67.17a2.66,2.66,0,0,0,2.65,2.68H59a1,1,0,0,1,0,2Z"/><path d="M167.31,162.85H141a1,1,0,0,1,0-2h26.3a2.67,2.67,0,0,0,2.65-2.68V91a1,1,0,0,1,2,0v67.17A4.67,4.67,0,0,1,167.31,162.85Z"/><path d="M186.39,162.85H13.6a1,1,0,1,1,0-2H186.39a1,1,0,0,1,0,2Z"/><path d="M175.81,93.39a2.18,2.18,0,0,1-.67-.1l-75-22.51a.28.28,0,0,0-.18,0l-75,22.51a2.3,2.3,0,0,1-3-2.21v-2a2.3,2.3,0,0,1,1.65-2.2l75.8-22.75a2.28,2.28,0,0,1,1.32,0l75.8,22.75a2.3,2.3,0,0,1,1.65,2.2v2a2.29,2.29,0,0,1-2.3,2.31Zm-.1-2a.3.3,0,0,0,.27,0,.29.29,0,0,0,.13-.25v-2a.31.31,0,0,0-.22-.29L100.09,66a.28.28,0,0,0-.18,0L24.11,88.77a.31.31,0,0,0-.22.29v2a.29.29,0,0,0,.13.25.3.3,0,0,0,.27,0L99.34,68.86a2.28,2.28,0,0,1,1.32,0Z"/><path d="M82.35,105.45h-46v-5A3.69,3.69,0,0,1,40,96.73H78.67a3.69,3.69,0,0,1,3.68,3.69Zm-44-2h42v-3a1.69,1.69,0,0,0-1.68-1.69H40a1.69,1.69,0,0,0-1.68,1.69Z"/><path d="M78.67,120.54H62V103.45H82.35v13.41A3.68,3.68,0,0,1,78.67,120.54Zm-14.63-2H78.67a1.68,1.68,0,0,0,1.68-1.68V105.45H64Z"/><path d="M64,120.54H40a3.68,3.68,0,0,1-3.68-3.68V103.45H64Zm-25.7-15.09v11.41A1.68,1.68,0,0,0,40,118.54H62V105.45Z"/><path d="M163.66,138.71H91.75v-9A3.68,3.68,0,0,1,95.43,126H160a3.68,3.68,0,0,1,3.68,3.68Zm-69.91-2h67.91v-7A1.68,1.68,0,0,0,160,128H95.43a1.68,1.68,0,0,0-1.68,1.68Z"/><path d="M160,162.69H105.57v-26h58.09V159A3.69,3.69,0,0,1,160,162.69Zm-52.41-2H160a1.69,1.69,0,0,0,1.68-1.69V138.71H107.57Z"/><path d="M107.57,162.69H95.43A3.69,3.69,0,0,1,91.75,159V136.71h15.82Zm-13.82-24V159a1.69,1.69,0,0,0,1.68,1.69h10.14v-22Z"/><path d="M79.63,162.84H39.56a2.72,2.72,0,0,1-2.63-3.41L38,155.19a2.71,2.71,0,0,1,2.63-2H78.52a2.71,2.71,0,0,1,2.63,2l1.11,4.24a2.72,2.72,0,0,1-2.63,3.41Zm-39-7.68a.73.73,0,0,0-.7.53l-1.1,4.25a.71.71,0,0,0,.12.62.73.73,0,0,0,.57.28H79.63a.71.71,0,0,0,.69-.9l-1.1-4.25a.72.72,0,0,0-.7-.53Z"/><path d="M76.47,128.22H68.68l-3.37-9.68H79.83Zm-6.37-2H75l2-5.68H68.13Z"/><path d="M47.57,155.16H39.42V119.28h8.15Zm-6.15-2h4.15V121.28H41.42Z"/><path d="M75.26,140.8H47.67a1,1,0,0,1,0-2H75.26a1,1,0,0,1,0,2Z"/><path d="M72.57,134.26a1,1,0,0,1-1-1V128a1,1,0,1,1,2,0v5.3A1,1,0,0,1,72.57,134.26Z"/><path d="M109.58,128a1,1,0,0,1-.56-.17l-1.9-1.29-1-6,4.6,1.17.11-.3L109.2,119l1.34-6,3.82,2.81.22-.24-.6-2.92,3.47-5,2.49,4,.29-.14.54-2.94,5.11-3.34.79,4.7.3,0,1.62-2.55,6-1.2-1,4.7.25.09,2.5-1.79,6,1.13-2.74,4c.06.06.12.1.17.16l3.05-.74,5.13,3.29-4.09,2.73.07.15,3.18.48,3.51,5-4.86,1c0,.21,0,.41.05.62a1,1,0,0,1-2,.12,12.58,12.58,0,0,0-.14-1.39l-.13-.94,3.69-.75-1.26-1.78-3.39-.51-.22-.48c-.23-.48-.45-.92-.68-1.32l-.47-.81,3.09-2.06-1.84-1.17-3.28.78-.4-.38a12.3,12.3,0,0,0-1.14-1l-.73-.58,2-3-2.13-.4-2.69,1.91-.5-.2a14.87,14.87,0,0,0-1.47-.49l-.92-.26.78-3.53-2.14.43-1.75,2.75h-.55a11,11,0,0,0-1.56.1l-.95.12-.6-3.54-1.83,1.19L122,113l-.5.21a14.86,14.86,0,0,0-1.46.69l-.83.45-1.87-3-1.24,1.79.65,3.15-.39.38a14.66,14.66,0,0,0-1.1,1.2l-.61.72-2.84-2.1-.48,2.13L113,121v.5l-.07.2a15.36,15.36,0,0,0-.55,1.5l-.27.93-3.48-.89.35,2.15,1.19.81a1,1,0,0,1-.57,1.82Z"/><path d="M153.76,145.45H115.47a1,1,0,1,1,0-2h38.29a1,1,0,0,1,0,2Z"/><path d="M153.76,149H115.47a1,1,0,1,1,0-2h38.29a1,1,0,0,1,0,2Z"/><path d="M153.76,152.45H115.47a1,1,0,1,1,0-2h38.29a1,1,0,0,1,0,2Z"/><path d="M153.76,156H115.47a1,1,0,1,1,0-2h38.29a1,1,0,0,1,0,2Z"/><rect class="cls-1" width="200" height="200"/></g></g></svg>