<svg xmlns="http://www.w3.org/2000/svg" viewBox="0 0 200 200"><defs><style>.cls-1{fill:none;}</style></defs><g id="Layer_2" data-name="Layer 2"><g id="Layer_1-2" data-name="Layer 1"><rect class="cls-1" width="200" height="200"/><path d="M48.12,162.85a12.22,12.22,0,1,1,12.22-12.22A12.23,12.23,0,0,1,48.12,162.85Zm0-22.43a10.22,10.22,0,1,0,10.22,10.21A10.22,10.22,0,0,0,48.12,140.42Z"/><path d="M162.54,162.85a12.22,12.22,0,1,1,12.22-12.22A12.23,12.23,0,0,1,162.54,162.85Zm0-22.43a10.22,10.22,0,1,0,10.22,10.21A10.23,10.23,0,0,0,162.54,140.42Z"/><path d="M191.73,151.63h-18a1,1,0,0,1,0-2h18a2.65,2.65,0,0,0,2.65-2.65V134.66a1,1,0,1,1,2,0V147A4.65,4.65,0,0,1,191.73,151.63Z"/><path d="M36.91,151.63H35.2A4.65,4.65,0,0,1,30.55,147V134.65A4.65,4.65,0,0,1,35.2,130H195.37a1,1,0,0,1,0,2H35.2a2.65,2.65,0,0,0-2.65,2.65V147a2.64,2.64,0,0,0,2.65,2.65h1.71a1,1,0,0,1,0,2Z"/><path d="M151.33,151.63h-92a1,1,0,1,1,0-2h92a1,1,0,1,1,0,2Z"/><path d="M195.37,141.82a1,1,0,0,1-1-1V105A12.48,12.48,0,0,0,189,94.73l-12.37-8.62a12.38,12.38,0,0,0-7.14-2.24H153.8V131a1,1,0,0,1-2,0V82.87a1,1,0,0,1,1-1h16.72a14.41,14.41,0,0,1,8.28,2.6l12.38,8.62A14.49,14.49,0,0,1,196.37,105v35.85A1,1,0,0,1,195.37,141.82Z"/><path d="M109.19,112.35h-34a1,1,0,0,1-1-1V90.18a1,1,0,0,1,1-1h34a1,1,0,0,1,1,1v21.17A1,1,0,0,1,109.19,112.35Zm-33-2h32V91.18h-32Z"/><path d="M71.21,103.79H40.46a1,1,0,0,1-1-1V98.74a1,1,0,0,1,1-1H71.21a1,1,0,0,1,1,1v4.05A1,1,0,0,1,71.21,103.79Zm-29.75-2H70.21V99.74H41.46Z"/><path d="M143.89,103.79H113.14a1,1,0,0,1-1-1V98.74a1,1,0,0,1,1-1h30.75a1,1,0,0,1,1,1v4.05A1,1,0,0,1,143.89,103.79Zm-29.75-2h28.75V99.74H114.14Z"/><path d="M142.59,99.74a1,1,0,0,1-1-1v-20a2.67,2.67,0,0,0-2.66-2.66H45.4a2.65,2.65,0,0,0-2.65,2.65v20a1,1,0,1,1-2,0v-20a4.66,4.66,0,0,1,4.65-4.65h93.53a4.66,4.66,0,0,1,4.66,4.66v20A1,1,0,0,1,142.59,99.74Z"/><path d="M138.94,127.46H45.4a4.65,4.65,0,0,1-4.65-4.65v-20a1,1,0,0,1,2,0v20a2.65,2.65,0,0,0,2.65,2.65h93.54a2.65,2.65,0,0,0,2.65-2.65v-20a1,1,0,1,1,2,0v20A4.65,4.65,0,0,1,138.94,127.46Z"/><path d="M102.3,96.52H82.05a1,1,0,0,1,0-2H102.3a1,1,0,0,1,0,2Z"/><path d="M102.3,100H82.05a1,1,0,0,1,0-2H102.3a1,1,0,0,1,0,2Z"/><path d="M102.3,103.52H82.05a1,1,0,0,1,0-2H102.3a1,1,0,0,1,0,2Z"/><path d="M102.3,107H82.05a1,1,0,0,1,0-2H102.3a1,1,0,0,1,0,2Z"/><path d="M32.52,104.05H4.62a1,1,0,0,1,0-2h27.9a1,1,0,0,1,0,2Z"/><path d="M32.52,110.46H13.92a1,1,0,0,1,0-2h18.6a1,1,0,0,1,0,2Z"/><path d="M32.52,116.87h-9.3a1,1,0,0,1,0-2h9.3a1,1,0,1,1,0,2Z"/><path d="M197.79,162.85H2.21a1,1,0,0,1,0-2H197.79a1,1,0,0,1,0,2Z"/></g></g></svg>