<svg xmlns="http://www.w3.org/2000/svg" viewBox="0 0 200 200"><defs><style>.cls-1{fill:none;}</style></defs><g id="Layer_2" data-name="Layer 2"><g id="Layer_1-2" data-name="Layer 1"><path d="M166.71,162.85H110.32a4.65,4.65,0,0,1-4.65-4.65V100.38a1,1,0,0,1,2,0V158.2a2.65,2.65,0,0,0,2.65,2.65h56.39a2.65,2.65,0,0,0,2.65-2.65V89.52L154.2,74.22H110.32a2.66,2.66,0,0,0-2.65,2.66V85a1,1,0,0,1-2,0V76.88a4.66,4.66,0,0,1,4.65-4.66h44.29a1,1,0,0,1,.71.3l15.75,15.89a1,1,0,0,1,.29.7V158.2A4.65,4.65,0,0,1,166.71,162.85Z"/><path d="M169.83,90.11h-12.1a4.65,4.65,0,0,1-4.65-4.65V73.22h2V85.46a2.65,2.65,0,0,0,2.65,2.65h12.1Z"/><path d="M138.39,101.38h-35a1,1,0,0,1-1-1V85a1,1,0,0,1,1-1h35a1,1,0,0,1,1,1v15.42A1,1,0,0,1,138.39,101.38Zm-34-2h33V86h-33Z"/><path d="M138.52,152.48a22.41,22.41,0,1,1,22.41-22.41A22.43,22.43,0,0,1,138.52,152.48Zm0-40.82a18.41,18.41,0,1,0,18.41,18.41A18.43,18.43,0,0,0,138.52,111.66Z"/><rect x="118.11" y="128.07" width="40.81" height="4" transform="translate(-51.4 136.04) rotate(-45)"/><path d="M98.33,87.41,82.58,71.52a1,1,0,0,0-.71-.3H37.58a4.66,4.66,0,0,0-4.65,4.66V83H30.64a1,1,0,0,0-1,1V99.38a1,1,0,0,0,1,1h2.29V157.2a4.65,4.65,0,0,0,4.65,4.65H94a4.65,4.65,0,0,0,4.65-4.65V88.11A1,1,0,0,0,98.33,87.41Zm-16-13.29,12.88,13H85a2.65,2.65,0,0,1-2.65-2.65ZM31.64,98.38V85h33V98.38Zm65,58.82A2.65,2.65,0,0,1,94,159.85H37.58a2.65,2.65,0,0,1-2.65-2.65V100.38H65.64a1,1,0,0,0,1-1V84a1,1,0,0,0-1-1H34.93V75.88a2.66,2.66,0,0,1,2.65-2.66H80.34V84.46A4.65,4.65,0,0,0,85,89.11H96.62ZM51.17,120.29a4.86,4.86,0,0,0,2.23.59h.39a5,5,0,0,0,3.54-1.32,4.25,4.25,0,0,0,1.39-3.21V116H54.54V117h2.75a2.33,2.33,0,0,1-.57,1.42,3.61,3.61,0,0,1-1.35,1,4.29,4.29,0,0,1-1.73.36,3.77,3.77,0,0,1-1.8-.5,4.06,4.06,0,0,1-1.55-1.44,3.53,3.53,0,0,1-.57-1.92l0-.07a3.15,3.15,0,0,1,.63-1.91,4.28,4.28,0,0,1,1.5-1.27,4.14,4.14,0,0,1,2-.5,4.27,4.27,0,0,1,3.4,1.52l1-.79a6,6,0,0,0-2-1.38,6.55,6.55,0,0,0-2.47-.42,5.86,5.86,0,0,0-1.56.25,5.19,5.19,0,0,0-3.07,2.31,4.26,4.26,0,0,0-.7,2.26,4.77,4.77,0,0,0,1.21,3.1A5,5,0,0,0,51.17,120.29Zm15.07-10-1-.42-5.83,11.95,1,.41Zm-26.38,9.51a4.42,4.42,0,0,0,.55-2.45v-6H39.1v6a6.24,6.24,0,0,1-.09,1.15,1.7,1.7,0,0,1-.43.88,1.24,1.24,0,0,1-.95.4,2.31,2.31,0,0,1-1.07-.32l-.66,1a3.39,3.39,0,0,0,1.6.42A2.64,2.64,0,0,0,39.86,119.83ZM69,116.76h1.06a4.13,4.13,0,0,0,2.21-.59,2.32,2.32,0,0,0,1.17-2.12,2.57,2.57,0,0,0-.56-1.69,2.65,2.65,0,0,0-1.68-.89,11.7,11.7,0,0,0-1.85-.14H67.68l0,9.35H69Zm0-4.39h.57c1.76,0,2.64.53,2.64,1.58,0,1.24-.93,1.84-2.77,1.78H69Zm6.76,1.33,7.94,7.37v-9.74H82.34v6.93l-7.89-7.4v9.82h1.3ZM46.8,116.17A2.32,2.32,0,0,0,48,114.05a2.62,2.62,0,0,0-.55-1.69,2.7,2.7,0,0,0-1.69-.89,11.61,11.61,0,0,0-1.85-.14H42.22l0,9.35h1.33v-3.92H44.6A4.12,4.12,0,0,0,46.8,116.17Zm-3.27-.44v-3.36h.57c1.76,0,2.64.53,2.64,1.58,0,1.24-.92,1.84-2.77,1.78ZM86,119.05a5,5,0,0,0,1.56,1.24,4.86,4.86,0,0,0,2.23.59h.39a5,5,0,0,0,3.54-1.32,4.22,4.22,0,0,0,1.39-3.21V116H91V117h2.76a2.35,2.35,0,0,1-.58,1.42,3.53,3.53,0,0,1-1.35,1,4.26,4.26,0,0,1-1.73.36,3.77,3.77,0,0,1-1.8-.5,4.06,4.06,0,0,1-1.55-1.44,3.53,3.53,0,0,1-.57-1.92l0-.07a3.1,3.1,0,0,1,.64-1.91,4.44,4.44,0,0,1,3.48-1.77,4.26,4.26,0,0,1,3.4,1.52l1-.79a5.94,5.94,0,0,0-2-1.38,6.53,6.53,0,0,0-2.46-.42,5.74,5.74,0,0,0-1.56.25,5.21,5.21,0,0,0-3.08,2.31,4.26,4.26,0,0,0-.7,2.26A4.78,4.78,0,0,0,86,119.05Zm3.57,23.66h1.34v-4.6h3.66V137H90.93v-2.61h3.76v-1.07h-5.1Zm-48.8-5.54-1.19-.41a1.28,1.28,0,0,1-1-1.24,1,1,0,0,1,.23-.6,1.77,1.77,0,0,1,1.51-.69,1.94,1.94,0,0,1,1.72.9l1-.56a3,3,0,0,0-2.69-1.42,3.4,3.4,0,0,0-2.29.76,2,2,0,0,0-.83,1.58,2.16,2.16,0,0,0,1.28,2c.24.12.75.34,1.52.63a6.67,6.67,0,0,1,1.47.72,1.15,1.15,0,0,1,.56,1.12l0,.3a1.57,1.57,0,0,1-.62,1.11,2,2,0,0,1-1.3.44,2,2,0,0,1-1.72-.78,1.65,1.65,0,0,1-.32-1l-1.3.25a2.66,2.66,0,0,0,.55,1.37,3.25,3.25,0,0,0,2.72,1.25,3.51,3.51,0,0,0,1.28-.25,3.32,3.32,0,0,0,1.49-1A2.51,2.51,0,0,0,43.4,140a2.84,2.84,0,0,0-.28-1.19A3.74,3.74,0,0,0,40.79,137.17Zm36.7-3.26a8.2,8.2,0,0,0-3.07-.55H72.23v9.35h2.31A6.18,6.18,0,0,0,79,141.25a4.43,4.43,0,0,0,1.37-3.34,4.08,4.08,0,0,0-.56-2.13A4.6,4.6,0,0,0,77.49,133.91Zm1,6c-.76,1.16-2.13,1.75-4.13,1.75h-.8v-7.22h.66a6,6,0,0,1,3.38.83A3.07,3.07,0,0,1,79,138,3.45,3.45,0,0,1,78.47,139.9Zm10-6.54H87l-2.29,3.4-2.15-3.4H81l2.88,4.44-3.29,4.91h1.46l2.6-3.85,2.46,3.85h1.49l-3.21-4.89ZM48.3,140.27l-3.13-6.91H43.72l4.58,9.84,4.57-9.84H51.44Zm15.78,3.61,1,.4,5.81-11.94-1-.41Zm-4.88-4.83H62a2.29,2.29,0,0,1-.57,1.41,3.53,3.53,0,0,1-1.35,1,4.29,4.29,0,0,1-1.73.36,3.77,3.77,0,0,1-1.8-.5A4.06,4.06,0,0,1,55,139.9a3.53,3.53,0,0,1-.57-1.92l0-.07A3.15,3.15,0,0,1,55,136a4.42,4.42,0,0,1,1.5-1.28,4.46,4.46,0,0,1,5.39,1l1-.79a6,6,0,0,0-2-1.38,6.55,6.55,0,0,0-2.47-.42,5.48,5.48,0,0,0-1.56.25,5.22,5.22,0,0,0-3.07,2.31,4.23,4.23,0,0,0-.7,2.26,4.77,4.77,0,0,0,1.21,3.1,5,5,0,0,0,1.57,1.24,4.86,4.86,0,0,0,2.23.59h.39A5,5,0,0,0,62,141.6a4.25,4.25,0,0,0,1.39-3.21V138H59.2Z"/><rect class="cls-1" width="200" height="200"/></g></g></svg>