<svg xmlns="http://www.w3.org/2000/svg" viewBox="0 0 200 200"><defs><style>.cls-1{fill:none;}</style></defs><g id="Layer_2" data-name="Layer 2"><g id="Layer_1-2" data-name="Layer 1"><path d="M167.31,86H32.69A4.66,4.66,0,0,1,28,81.32v-9.7A4.65,4.65,0,0,1,32.69,67H167.31A4.65,4.65,0,0,1,172,71.62v9.7A4.66,4.66,0,0,1,167.31,86ZM32.69,69A2.65,2.65,0,0,0,30,71.62v9.7A2.65,2.65,0,0,0,32.69,84H167.31A2.65,2.65,0,0,0,170,81.32v-9.7A2.65,2.65,0,0,0,167.31,69Z"/><polygon points="161.5 116.89 159.5 116.89 159.5 85.97 40.5 85.97 40.5 116.89 38.5 116.89 38.5 83.97 161.5 83.97 161.5 116.89"/><polygon points="161.5 128.06 38.5 128.06 38.5 122.84 40.5 122.84 40.5 126.06 159.5 126.06 159.5 122.84 161.5 122.84 161.5 128.06"/><path d="M43.91,139.82h-7.1a1,1,0,0,1,0-2h7.1a1,1,0,0,1,0,2Z"/><path d="M43.91,145.46h-7.1a1,1,0,0,1,0-2h7.1a1,1,0,0,1,0,2Z"/><path d="M43.91,151.1h-7.1a1,1,0,0,1,0-2h7.1a1,1,0,0,1,0,2Z"/><path d="M148.29,148.88a4.43,4.43,0,1,1,4.43-4.42A4.43,4.43,0,0,1,148.29,148.88Zm0-6.85a2.43,2.43,0,1,0,2.43,2.43A2.43,2.43,0,0,0,148.29,142Z"/><path d="M159.76,148.88a4.43,4.43,0,1,1,4.43-4.42A4.43,4.43,0,0,1,159.76,148.88Zm0-6.85a2.43,2.43,0,1,0,2.43,2.43A2.43,2.43,0,0,0,159.76,142Z"/><path d="M149.89,120.78H119.75a1,1,0,0,1-.91-.59l-3.71-8.4H84.88l-3.71,8.4a1,1,0,0,1-.92.59H50.1a1,1,0,1,1,0-2H79.6l3.71-8.39a1,1,0,0,1,.91-.6h31.57a1,1,0,0,1,.91.6l3.71,8.39h29.48a1,1,0,0,1,0,2Z"/><path d="M167.3,162.85H141a5.81,5.81,0,0,1-5.16-3.11,3.8,3.8,0,0,0-3.38-2.05H67.53a3.82,3.82,0,0,0-3.38,2v0a5.83,5.83,0,0,1-5.15,3.1H32.7a4.65,4.65,0,0,1-4.65-4.65V130.7a4.65,4.65,0,0,1,4.65-4.65H167.3a4.67,4.67,0,0,1,4.66,4.66V158.2A4.66,4.66,0,0,1,167.3,162.85Zm-99.77-7.16h64.94a5.82,5.82,0,0,1,5.16,3.12,3.81,3.81,0,0,0,3.38,2H167.3A2.66,2.66,0,0,0,170,158.2V130.71a2.67,2.67,0,0,0-2.66-2.66H32.7a2.65,2.65,0,0,0-2.65,2.65v27.5a2.65,2.65,0,0,0,2.65,2.65H59a3.82,3.82,0,0,0,3.38-2h0A5.79,5.79,0,0,1,67.53,155.69Z"/><path d="M119.78,128.06H80.22a1,1,0,0,1-.84-.46,1,1,0,0,1-.07-.95l4-9.06a1,1,0,0,1,.91-.6h31.56a1,1,0,0,1,.91.6l4,9.06a1,1,0,0,1-.07.95A1,1,0,0,1,119.78,128.06Zm-38-2h36.48L115.13,119H84.87Z"/><path d="M49.31,123.85H29.69a1.51,1.51,0,0,1-1.5-1.51v-5a1.5,1.5,0,0,1,1.5-1.5H49.31a1.5,1.5,0,0,1,1.5,1.5v5A1.51,1.51,0,0,1,49.31,123.85Zm-19.12-2H48.81v-4H30.19Z"/><path d="M170.31,123.85H150.69a1.51,1.51,0,0,1-1.5-1.51v-5a1.5,1.5,0,0,1,1.5-1.5h19.62a1.5,1.5,0,0,1,1.5,1.5v5A1.51,1.51,0,0,1,170.31,123.85Zm-19.12-2h18.62v-4H151.19Z"/><path d="M186.39,162.85H13.6a1,1,0,1,1,0-2H186.39a1,1,0,0,1,0,2Z"/><rect class="cls-1" width="200" height="200"/></g></g></svg>