<svg xmlns="http://www.w3.org/2000/svg" viewBox="0 0 200 200"><defs><style>.cls-1{fill:none;}</style></defs><g id="Layer_2" data-name="Layer 2"><g id="Layer_1-2" data-name="Layer 1"><path d="M66,138.63l-1-.25H64a1.24,1.24,0,0,1,0-.27l3.12-11.54A8.35,8.35,0,0,1,72,121.08L96.88,111a8.2,8.2,0,0,1,6.23,0L128,121.08a8.29,8.29,0,0,1,4.86,5.51l1.44,5.32-1.93.52-1.44-5.32a6.29,6.29,0,0,0-3.69-4.18l-24.87-10.12a6.29,6.29,0,0,0-4.73,0L72.77,122.93a6.3,6.3,0,0,0-3.69,4.17l-.12.45Z"/><rect x="116.61" y="137.77" width="6.97" height="2"/><path d="M73.4,162.85a1,1,0,0,1-.47-1.88l1.17-.62a14.67,14.67,0,0,1,6.78-1.66h27a18.63,18.63,0,0,0,10.49-3.23l23.67-16a4.93,4.93,0,0,0,1.33-6.86,5,5,0,0,0-6.86-1.31l-19,12.86a1,1,0,0,1-1.12-1.66l19-12.86a6.94,6.94,0,0,1,10.83,5.74,6.94,6.94,0,0,1-3.06,5.75l-23.67,16a20.65,20.65,0,0,1-11.61,3.57h-27A12.56,12.56,0,0,0,75,162.13l-1.17.61A1,1,0,0,1,73.4,162.85Z"/><path d="M111.28,148.34H91.46a1,1,0,0,1,0-2h19.82a5,5,0,0,0,5-5,5,5,0,0,0-5-4.94H90.46l-.25-.18A18.73,18.73,0,0,0,63,142.86a1,1,0,0,1-1.76-1,20.73,20.73,0,0,1,29.81-7.46h20.19a7,7,0,0,1,7,6.94,7,7,0,0,1-7,7Z"/><path d="M132,128.28l-.26,0a1,1,0,0,1-.7-.71l-.12-.43a6.29,6.29,0,0,0-3.69-4.18l-24.87-10.12a6.29,6.29,0,0,0-4.73,0L72.77,122.93a6.3,6.3,0,0,0-3.69,4.17l-.12.45a1,1,0,0,1-1.68.44L54.33,115a5.22,5.22,0,0,1,0-7.37l42-42a5.21,5.21,0,0,1,7.38,0l42,42a5.24,5.24,0,0,1,0,7.38l-13,12.95A1,1,0,0,1,132,128.28ZM100,66.15a3.22,3.22,0,0,0-2.27.94l-42,42a3.22,3.22,0,0,0,0,4.54l11.81,11.81A8.4,8.4,0,0,1,72,121.08L96.88,111a8.2,8.2,0,0,1,6.23,0L128,121.08a8.31,8.31,0,0,1,4.45,4.35l11.81-11.81h0a3.21,3.21,0,0,0,0-4.54l-42-42A3.26,3.26,0,0,0,100,66.15Z"/><rect class="cls-1" width="200" height="200"/></g></g></svg>