<svg xmlns="http://www.w3.org/2000/svg" viewBox="0 0 200 200"><defs><style>.cls-1{fill:none;}</style></defs><g id="Layer_2" data-name="Layer 2"><g id="Layer_1-2" data-name="Layer 1"><path d="M152,99.89H43a4.65,4.65,0,0,1-4.65-4.65V88.62A4.65,4.65,0,0,1,43,84H152a4.66,4.66,0,0,1,4.65,4.65v6.62A4.66,4.66,0,0,1,152,99.89ZM43,86a2.65,2.65,0,0,0-2.65,2.65v6.62A2.65,2.65,0,0,0,43,97.89H152a2.65,2.65,0,0,0,2.65-2.65V88.62A2.65,2.65,0,0,0,152,86Z"/><polygon points="148.03 125.03 146.03 125.03 146.03 99.89 48.95 99.89 48.95 125.03 46.95 125.03 46.95 97.89 148.03 97.89 148.03 125.03"/><polygon points="148.03 134.36 46.95 134.36 46.95 129.91 48.95 129.91 48.95 132.36 146.03 132.36 146.03 129.91 148.03 129.91 148.03 134.36"/><path d="M51.56,144H45.75a1,1,0,0,1,0-2h5.81a1,1,0,0,1,0,2Z"/><path d="M51.56,148.6H45.75a1,1,0,0,1,0-2h5.81a1,1,0,0,1,0,2Z"/><path d="M51.56,153.22H45.75a1,1,0,0,1,0-2h5.81a1,1,0,0,1,0,2Z"/><path d="M137,151.41a3.81,3.81,0,1,1,3.8-3.81A3.81,3.81,0,0,1,137,151.41Zm0-5.61a1.81,1.81,0,1,0,1.8,1.8A1.8,1.8,0,0,0,137,145.8Z"/><path d="M146.43,151.41a3.81,3.81,0,1,1,3.8-3.81A3.81,3.81,0,0,1,146.43,151.41Zm0-5.61a1.81,1.81,0,1,0,1.8,1.8A1.81,1.81,0,0,0,146.43,145.8Z"/><path d="M138.35,128.4H115.67a1,1,0,0,1-.92-.6l-3-6.76H83.15l-4,6.86a1,1,0,0,1-.87.5H56.63a1,1,0,1,1,0-2H77.75l4-6.86a1,1,0,0,1,.86-.5h29.85a1,1,0,0,1,.91.59l3,6.77h22a1,1,0,0,1,0,2Z"/><path d="M152.61,162.85H131.07a4.93,4.93,0,0,1-4.38-2.65,2.94,2.94,0,0,0-2.61-1.57H70.91a2.94,2.94,0,0,0-2.61,1.57l-.89-.46.88.47a4.93,4.93,0,0,1-4.38,2.64H42.38a4,4,0,0,1-4-4V136.34a4,4,0,0,1,4-4H152.6a4,4,0,0,1,4,4v22.51A4,4,0,0,1,152.61,162.85Zm-81.7-6.22h53.17a4.92,4.92,0,0,1,4.38,2.64,2.93,2.93,0,0,0,2.61,1.58h21.54a2,2,0,0,0,2-2V136.35a2,2,0,0,0-2-2H42.38a2,2,0,0,0-2,2v22.52a2,2,0,0,0,2,2H63.91a2.94,2.94,0,0,0,2.61-1.57v0h0A4.93,4.93,0,0,1,70.91,156.63Z"/><path d="M113.69,134.36H81.3a1,1,0,0,1-.92-1.41l3.28-7.42a1,1,0,0,1,.91-.59h25.84a1,1,0,0,1,.92.59L114.6,133a1,1,0,0,1-.91,1.41Zm-30.86-2h29.32l-2.39-5.42H85.22Z"/><path d="M55.89,130.91H40a1.51,1.51,0,0,1-1.51-1.5v-3.88A1.51,1.51,0,0,1,40,124H55.89a1.5,1.5,0,0,1,1.5,1.5v3.88A1.5,1.5,0,0,1,55.89,130.91Zm-15.39-2H55.39V126H40.5Z"/><path d="M155,130.91H139.09a1.5,1.5,0,0,1-1.5-1.5v-3.88a1.5,1.5,0,0,1,1.5-1.5H155a1.5,1.5,0,0,1,1.5,1.5v3.88A1.5,1.5,0,0,1,155,130.91Zm-15.39-2h14.89V126H139.59Z"/><path d="M168.24,162.85H26.74a1,1,0,0,1,0-2h141.5a1,1,0,0,1,0,2Z"/><path d="M146.43,70.29A17.57,17.57,0,1,1,164,52.72,17.59,17.59,0,0,1,146.43,70.29Zm0-33.14A15.57,15.57,0,1,0,162,52.72,15.59,15.59,0,0,0,146.43,37.15Z"/><path d="M146.43,64.85a7.24,7.24,0,0,1-7.08-5.79,1,1,0,1,1,2-.39,5.24,5.24,0,0,0,10.26,0,1,1,0,1,1,2,.39A7.26,7.26,0,0,1,146.43,64.85Z"/><path d="M173.25,162.85H119.61a1,1,0,0,1-1-1v-4.22a1,1,0,0,1,2,0v3.22h51.64V87.41a17.13,17.13,0,0,0-17.11-17.12H137.73a17.15,17.15,0,0,0-17,14.81,1,1,0,0,1-1.13.86,1,1,0,0,1-.86-1.13,19.17,19.17,0,0,1,18.95-16.54h17.41a19.13,19.13,0,0,1,19.11,19.12v74.44A1,1,0,0,1,173.25,162.85Z"/><path d="M119.61,134.36a1,1,0,0,1-1-1V98.9a1,1,0,1,1,2,0v34.47A1,1,0,0,1,119.61,134.36Z"/><path d="M165.52,162.85a1,1,0,0,1-1-1v-61.5a1,1,0,0,1,2,0v61.5A1,1,0,0,1,165.52,162.85Z"/><path d="M126.81,132.63a1,1,0,0,1-1-1V100.35a1,1,0,0,1,2,0v31.27A1,1,0,0,1,126.81,132.63Z"/><path d="M126.81,162.85a1,1,0,0,1-1-1v-3.12a1,1,0,1,1,2,0v3.12A1,1,0,0,1,126.81,162.85Z"/><rect class="cls-1" width="200" height="200"/></g></g></svg>