<svg xmlns="http://www.w3.org/2000/svg" viewBox="0 0 200 200"><defs><style>.cls-1{fill:none;}</style></defs><g id="Layer_2" data-name="Layer 2"><g id="Layer_1-2" data-name="Layer 1"><path d="M142.13,162.85H57.87a1,1,0,0,1-.79-.39,1,1,0,0,1-.17-.87l3.86-14.3a9.77,9.77,0,0,1,5.72-6.47l29.84-12.15a9.69,9.69,0,0,1,7.33,0l29.85,12.15a9.77,9.77,0,0,1,5.72,6.47l3.87,14.3a1,1,0,0,1-.18.87A1,1,0,0,1,142.13,162.85Zm-82.95-2h81.64l-3.52-13a7.74,7.74,0,0,0-4.55-5.14l-29.84-12.14a7.65,7.65,0,0,0-5.83,0L67.25,142.67a7.77,7.77,0,0,0-4.55,5.14Z"/><path d="M168.63,162.85H151.85a1,1,0,0,1-1-.74l-4.75-17.6A9.79,9.79,0,0,0,140.4,138l-36.74-15a9.71,9.71,0,0,0-7.34,0L59.6,138a9.79,9.79,0,0,0-5.73,6.48l-4.75,17.6a1,1,0,0,1-1,.74H31.37a1,1,0,0,1,0-2h16L51.94,144a11.82,11.82,0,0,1,6.91-7.82l36.72-14.94a11.69,11.69,0,0,1,8.85,0l36.73,14.94a11.82,11.82,0,0,1,6.91,7.82l4.56,16.86h16a1,1,0,0,1,0,2Z"/><rect class="cls-1" width="200" height="200"/></g></g></svg>