<svg xmlns="http://www.w3.org/2000/svg" viewBox="0 0 200 200"><defs><style>.cls-1{fill:none;}</style></defs><g id="Layer_2" data-name="Layer 2"><g id="Layer_1-2" data-name="Layer 1"><path d="M117.62,99.89H45.54a4.66,4.66,0,0,1-4.65-4.65V88.62A4.66,4.66,0,0,1,45.54,84h64.29v2H45.54a2.65,2.65,0,0,0-2.65,2.65v6.62a2.65,2.65,0,0,0,2.65,2.65h72.08Z"/><polygon points="148.54 125.04 148.54 105.42 150.54 105.42 150.54 125.03 148.54 125.04"/><polygon points="49.46 125.04 49.46 97.9 117.63 97.9 117.63 99.9 51.46 99.9 51.46 125.03 49.46 125.04"/><polygon points="150.54 134.36 49.46 134.36 49.46 129.91 51.46 129.91 51.46 132.36 148.54 132.36 148.54 129.91 150.54 129.91 150.54 134.36"/><path d="M54.07,144H48.26a1,1,0,1,1,0-2h5.81a1,1,0,0,1,0,2Z"/><path d="M54.07,148.61H48.26a1,1,0,1,1,0-2h5.81a1,1,0,0,1,0,2Z"/><path d="M54.07,153.22H48.26a1,1,0,1,1,0-2h5.81a1,1,0,0,1,0,2Z"/><path d="M139.55,151.41a3.81,3.81,0,1,1,3.8-3.8A3.81,3.81,0,0,1,139.55,151.41Zm0-5.61a1.81,1.81,0,1,0,1.8,1.81A1.81,1.81,0,0,0,139.55,145.8Z"/><path d="M148.94,151.41a3.81,3.81,0,1,1,3.8-3.8A3.8,3.8,0,0,1,148.94,151.41Zm0-5.61a1.81,1.81,0,1,0,1.8,1.81A1.81,1.81,0,0,0,148.94,145.8Z"/><path d="M140.86,128.4H118.18a1,1,0,0,1-.92-.59l-3-6.77H85.66l-4,6.86a1,1,0,0,1-.87.5H59.14a1,1,0,0,1,0-2H80.25l4-6.86a1,1,0,0,1,.86-.5h29.85a1,1,0,0,1,.91.6l3,6.76h22a1,1,0,0,1,0,2Z"/><path d="M155.11,162.85H133.58a4.93,4.93,0,0,1-4.38-2.65,2.94,2.94,0,0,0-2.61-1.57H73.41a2.93,2.93,0,0,0-2.6,1.57h0a4.94,4.94,0,0,1-4.38,2.64H44.88a4,4,0,0,1-4-4V136.34a4,4,0,0,1,4-4H155.11a4,4,0,0,1,4,4v22.51A4,4,0,0,1,155.11,162.85Zm-81.7-6.22h53.18a4.94,4.94,0,0,1,4.38,2.64,2.93,2.93,0,0,0,2.61,1.58h21.53a2,2,0,0,0,2-2V136.35a2,2,0,0,0-2-2H44.88a2,2,0,0,0-2,2v22.52a2,2,0,0,0,2,2H66.42A2.94,2.94,0,0,0,69,159.28h0A5,5,0,0,1,73.41,156.63Zm-3.49,3.12h0Z"/><path d="M116.2,134.36H83.8a1,1,0,0,1-.83-.46,1,1,0,0,1-.08-.94l3.27-7.43a1,1,0,0,1,.92-.59h25.84a1,1,0,0,1,.92.59l3.27,7.43a1,1,0,0,1-.08.94A1,1,0,0,1,116.2,134.36Zm-30.86-2h29.32l-2.39-5.42H87.73Z"/><path d="M58.4,130.91H42.51a1.5,1.5,0,0,1-1.5-1.5v-3.88a1.51,1.51,0,0,1,1.5-1.5H58.4a1.5,1.5,0,0,1,1.5,1.5v3.88A1.5,1.5,0,0,1,58.4,130.91Zm-15.39-2H57.9V126H43Z"/><path d="M157.49,130.91H141.6a1.5,1.5,0,0,1-1.5-1.5v-3.88a1.5,1.5,0,0,1,1.5-1.5h15.89a1.51,1.51,0,0,1,1.5,1.5v3.88A1.5,1.5,0,0,1,157.49,130.91Zm-15.39-2H157V126H142.1Z"/><path d="M170.75,162.85H29.25a1,1,0,0,1,0-2h141.5a1,1,0,0,1,0,2Z"/><path d="M138.52,108.56A30.51,30.51,0,1,1,169,78.06,30.53,30.53,0,0,1,138.52,108.56Zm0-59A28.51,28.51,0,1,0,167,78.06,28.53,28.53,0,0,0,138.52,49.55Z"/><path d="M138.52,57.1a1,1,0,0,1-1-1V52.77a1,1,0,0,1,2,0V56.1A1,1,0,0,1,138.52,57.1Z"/><path d="M154.05,63.53a1,1,0,0,1-.71-.29,1,1,0,0,1,0-1.42l2.36-2.35a1,1,0,1,1,1.41,1.41l-2.35,2.36A1,1,0,0,1,154.05,63.53Z"/><path d="M163.81,79.06h-3.33a1,1,0,0,1,0-2h3.33a1,1,0,0,1,0,2Z"/><path d="M156.4,96.94a1,1,0,0,1-.7-.3l-2.36-2.35a1,1,0,0,1,0-1.41,1,1,0,0,1,1.42,0l2.35,2.35a1,1,0,0,1,0,1.41A1,1,0,0,1,156.4,96.94Z"/><path d="M138.52,104.34a1,1,0,0,1-1-1V100a1,1,0,0,1,2,0v3.33A1,1,0,0,1,138.52,104.34Z"/><path d="M120.64,96.94a1,1,0,0,1-.71-1.71l2.36-2.35a1,1,0,0,1,1.41,1.41l-2.35,2.35A1,1,0,0,1,120.64,96.94Z"/><path d="M116.56,79.06h-3.33a1,1,0,0,1,0-2h3.33a1,1,0,0,1,0,2Z"/><path d="M123,63.53a1,1,0,0,1-.71-.29l-2.36-2.36a1,1,0,0,1,0-1.41,1,1,0,0,1,1.42,0l2.35,2.35a1,1,0,0,1-.7,1.71Z"/><path d="M153.3,79.06H138.52a1,1,0,0,1-1-1V64.85a1,1,0,0,1,2,0V77.06H153.3a1,1,0,0,1,0,2Z"/><rect class="cls-1" width="200" height="200"/></g></g></svg>