<svg xmlns="http://www.w3.org/2000/svg" viewBox="0 0 173.54 173.54"><title>3D printing service Logo</title><g id="Layer_2" data-name="Layer 2"><g id="Layer_1-2" data-name="Layer 1"><path d="M86.77,0,0,86.77l86.77,86.77,86.77-86.77ZM69,23.44,86.77,5.66l17.79,17.79V47.76H69ZM86.77,167.88,79.9,161H93.64ZM97.64,157H75.9l-5.54-5.54h32.83Zm9.54-9.54H66.36l-5.54-5.54h51.91Zm9.54-9.54H56.82l-5.55-5.55h71Zm9.55-9.55h-79l-5.54-5.54h90.09Zm9.54-9.54H37.73l-5.54-5.54H141.35Zm-51-15.08h66.12l-5.54,5.54H28.19L5.66,86.77,65,27.44V51.76h43.57V27.44l59.33,59.33-13,13H88.77V92.43h-4Zm23.78-46.84H65V69.18l21.79,20.3,21.78-20.3Zm-4,10.52L86.77,84,69,67.44V60.92h35.57Z"/></g></g></svg>