<svg xmlns="http://www.w3.org/2000/svg" viewBox="0 0 68.98 90.63"><title>No file</title><g id="Layer_2" data-name="Layer 2"><g id="Layer_1-2" data-name="Layer 1"><path d="M68.69,16.19,52.94.3a1,1,0,0,0-.71-.3H7.94A4.66,4.66,0,0,0,3.29,4.66v7.08H1a1,1,0,0,0-1,1V28.16a1,1,0,0,0,1,1H3.29V86a4.66,4.66,0,0,0,4.65,4.65H64.33A4.66,4.66,0,0,0,69,86V16.89A1,1,0,0,0,68.69,16.19ZM52.7,2.9l12.88,13H55.35a2.65,2.65,0,0,1-2.65-2.65ZM2,13.74H35V27.16H2ZM64.33,88.63H7.94A2.65,2.65,0,0,1,5.29,86V29.16H36a1,1,0,0,0,1-1V12.74a1,1,0,0,0-1-1H5.29V4.66A2.66,2.66,0,0,1,7.94,2H50.7V13.24a4.66,4.66,0,0,0,4.65,4.65H67V86A2.65,2.65,0,0,1,64.33,88.63Z"/><path d="M36.14,35.44A22.41,22.41,0,1,0,58.55,57.85,22.43,22.43,0,0,0,36.14,35.44Zm0,4a18.31,18.31,0,0,1,11.51,4.07L21.8,69.36A18.39,18.39,0,0,1,36.14,39.44Zm0,36.82a18.31,18.31,0,0,1-11.51-4.07L50.48,46.34A18.39,18.39,0,0,1,36.14,76.26Z"/></g></g></svg>