<svg xmlns="http://www.w3.org/2000/svg" viewBox="0 0 174.79 98.84"><g id="Layer_2" data-name="Layer 2"><g id="Layer_1-2" data-name="Layer 1"><path d="M173.79,96.84H158.5a4.67,4.67,0,0,0,.85-2.68V28.33l3.18,1a2.31,2.31,0,0,0,3-2.21v-2a2.33,2.33,0,0,0-1.65-2.21L88.05.1a2.28,2.28,0,0,0-1.32,0L10.93,22.84a2.32,2.32,0,0,0-1.64,2.21v2a2.3,2.3,0,0,0,3,2.21l3.18-1V94.16a4.73,4.73,0,0,0,.84,2.68H1a1,1,0,0,0,0,2H173.79a1,1,0,0,0,0-2ZM11.68,27.37a.3.3,0,0,1-.39-.3v-2a.31.31,0,0,1,.21-.29L87.3,2l.09,0,.09,0,75.8,22.74a.31.31,0,0,1,.22.29v2a.31.31,0,0,1-.12.25.36.36,0,0,1-.27.05L88.06,4.85a2.32,2.32,0,0,0-1.33,0ZM67.59,96.54a.69.69,0,0,1-.57.28H27a.69.69,0,0,1-.57-.28.68.68,0,0,1-.13-.61l1.11-4.25a.72.72,0,0,1,.69-.54H65.92a.73.73,0,0,1,.69.54l1.11,4.25A.71.71,0,0,1,67.59,96.54Zm-16.15-42V41.44h16.3V52.85a1.68,1.68,0,0,1-1.68,1.68Zm13,2-2,5.68H57.49l-2-5.68ZM25.73,39.44v-3a1.69,1.69,0,0,1,1.68-1.68H66.06a1.68,1.68,0,0,1,1.68,1.68v3Zm23.71,2V54.53h-22a1.68,1.68,0,0,1-1.68-1.68V41.44ZM33,57.26V89.14H28.82V57.26ZM93,96.67H82.82A1.68,1.68,0,0,1,81.14,95V74.7H93ZM149.05,95a1.68,1.68,0,0,1-1.68,1.68H95v-22h54.09Zm0-22.29H81.14v-7A1.68,1.68,0,0,1,82.82,64h64.55a1.68,1.68,0,0,1,1.68,1.68ZM98.73,54.54l.48-2.12,2.85,2.09.6-.72c.38-.44.75-.84,1.1-1.19l.4-.39-.66-3.14,1.25-1.8,1.86,3,.83-.45c.48-.26,1-.49,1.46-.7l.5-.2.57-3.16,1.83-1.2.6,3.54.95-.12a12.66,12.66,0,0,1,1.57-.09h.55l1.74-2.75,2.14-.43-.77,3.53.91.25c.47.14,1,.3,1.47.5l.51.2,2.68-1.92,2.14.41-2.06,3,.74.58a13.53,13.53,0,0,1,1.14,1l.39.38,3.28-.79,1.84,1.18-3.09,2.06.47.81c.23.4.46.84.68,1.31l.23.49,3.38.51L134.55,60l-3.69.75.14.93,0,.34H118.68a3.9,3.9,0,0,0-7.16,0H97.28l-.93-.63L96,59.25l3.47.89.28-.93a13.42,13.42,0,0,1,.54-1.5l.08-.2V57ZM116.21,62H114a1.86,1.86,0,0,1,1.11-.36A1.89,1.89,0,0,1,116.21,62Zm41.14,32.13a2.67,2.67,0,0,1-2.62,2.68h-4.19a3.64,3.64,0,0,0,.51-1.85V65.71A3.68,3.68,0,0,0,147.37,62H134.64l3.3-.68-3.5-5-3.18-.48a1.09,1.09,0,0,1-.08-.15L135.27,53l-5.12-3.28-3.06.73-.17-.15,2.74-4-6-1.13L121.18,47l-.25-.09,1-4.7-6,1.19-1.62,2.56h-.3l-.79-4.69-5.11,3.34-.53,2.94-.3.13-2.49-4-3.47,5,.61,2.93-.23.24L97.94,49,96.6,54.94l1.65,2.49-.11.3-4.59-1.18L94.43,62H82.82a3.68,3.68,0,0,0-3.68,3.68V95a3.74,3.74,0,0,0,.51,1.85h-10a2.63,2.63,0,0,0,0-1.42l-1.1-4.24a2.73,2.73,0,0,0-2.63-2H35V76.77l.1,0H62.65a1,1,0,0,0,0-2H35.06l-.1,0V56.53H53.4l2.67,7.68H59v5a1,1,0,0,0,2,0v-5h2.9l2.68-7.73a3.68,3.68,0,0,0,3.2-3.63V36.4a3.68,3.68,0,0,0-3.68-3.68H27.41a3.68,3.68,0,0,0-3.68,3.68V52.85a3.68,3.68,0,0,0,3.09,3.62v33a2.73,2.73,0,0,0-1.39,1.73l-1.11,4.24a2.73,2.73,0,0,0,0,1.42H20.06a2.67,2.67,0,0,1-2.62-2.68V27.73l69.87-21a.25.25,0,0,1,.17,0l69.87,21Zm-54.49-.6h38.29a1,1,0,0,0,0-2H102.86a1,1,0,0,0,0,2Zm0-9.17h38.29a1,1,0,0,0,0-2H102.86a1,1,0,0,0,0,2Zm0,4.58h38.29a1,1,0,0,0,0-2H102.86a1,1,0,1,0,0,2Zm0-9.16h38.29a1,1,0,0,0,0-2H102.86a1,1,0,0,0,0,2Z"/></g></g></svg>