<svg xmlns="http://www.w3.org/2000/svg" viewBox="0 0 68.98 90.63"><title>STL file</title><g id="Layer_2" data-name="Layer 2"><g id="Layer_1-2" data-name="Layer 1"><path d="M68.69,16.19,52.94.3a1,1,0,0,0-.71-.3H7.94A4.66,4.66,0,0,0,3.29,4.66v7.08H1a1,1,0,0,0-1,1V28.16a1,1,0,0,0,1,1H3.29V86a4.66,4.66,0,0,0,4.65,4.65H64.33A4.66,4.66,0,0,0,69,86V16.89A1,1,0,0,0,68.69,16.19ZM52.7,2.9l12.88,13H55.35a2.65,2.65,0,0,1-2.65-2.65ZM2,13.74H35V27.16H2ZM64.33,88.63H7.94A2.65,2.65,0,0,1,5.29,86V29.16H36a1,1,0,0,0,1-1V12.74a1,1,0,0,0-1-1H5.29V4.66A2.66,2.66,0,0,1,7.94,2H50.7V13.24a4.66,4.66,0,0,0,4.65,4.65H67V86A2.65,2.65,0,0,1,64.33,88.63Z"/><path d="M13.91,23.82a2,2,0,0,1-1.31.45,2,2,0,0,1-1.73-.79,1.62,1.62,0,0,1-.32-1l-1.32.25a2.71,2.71,0,0,0,.56,1.38,3.26,3.26,0,0,0,2.74,1.26,3.6,3.6,0,0,0,1.28-.25,3.39,3.39,0,0,0,1.5-1.06,2.51,2.51,0,0,0,.56-1.6,2.76,2.76,0,0,0-.28-1.2,3.78,3.78,0,0,0-2.34-1.67L12,19.17a1.29,1.29,0,0,1-1-1.25,1,1,0,0,1,.23-.6,1.79,1.79,0,0,1,1.52-.69,1.94,1.94,0,0,1,1.73.91l1-.56a3,3,0,0,0-2.71-1.43,3.46,3.46,0,0,0-2.31.76,2.06,2.06,0,0,0-.83,1.6,2.16,2.16,0,0,0,1.28,2q.37.2,1.54.64a7.23,7.23,0,0,1,1.48.72,1.18,1.18,0,0,1,.56,1.13l0,.31A1.57,1.57,0,0,1,13.91,23.82Z"/><polygon points="18.86 25.16 20.17 25.16 20.17 16.82 22.7 16.82 22.7 15.75 16.33 15.75 16.33 16.82 18.86 16.82 18.86 25.16"/><polygon points="28.25 24.09 25.04 24.09 25.04 15.75 23.72 15.75 23.72 25.16 28.25 25.16 28.25 24.09"/><polygon points="19.43 60.24 21.56 60.24 21.56 52.9 27.41 52.9 27.41 51.19 21.56 51.19 21.56 47.02 27.58 47.02 27.58 45.31 19.43 45.31 19.43 60.24"/><rect x="29.99" y="45.32" width="2.09" height="14.93"/><polygon points="37.33 45.31 35.23 45.31 35.23 60.24 42.43 60.24 42.43 58.54 37.33 58.54 37.33 45.31"/><polygon points="43.82 60.24 52.85 60.24 52.85 58.54 45.91 58.54 45.91 52.9 52.67 52.9 52.67 51.19 45.91 51.19 45.91 47.02 52.85 47.02 52.85 45.31 43.82 45.31 43.82 60.24"/></g></g></svg>