<svg xmlns="http://www.w3.org/2000/svg" viewBox="0 0 173.54 173.54"><title>Vaccum forming service Logo</title><g id="Layer_2" data-name="Layer 2"><g id="Layer_1-2" data-name="Layer 1"><path d="M86.77,0,0,86.77l86.77,86.77,86.77-86.77Zm0,5.66,81.11,81.11-8.83,8.83H133l-3.57-13.21L86.79,65,44.12,82.39,40.55,95.6H14.48L5.66,86.77Zm36.07,99.48-3.95-14.62L86.79,77.46,54.7,90.52l-3.95,14.62H24L18.48,99.6H43.61l3.85-14.25,39.33-16,39.34,16L130,99.6h25.08l-5.54,5.54Zm-4.14,0H54.89L58,93.48l28.75-11.7,28.76,11.7Zm-90.67,4H145.51L86.77,167.88Z"/></g></g></svg>