<svg xmlns="http://www.w3.org/2000/svg" viewBox="0 0 174.79 95.88"><title>vacuum forming</title><g id="Layer_2" data-name="Layer 2"><g id="Layer_1-2" data-name="Layer 1"><path d="M31.31,70.85h-7.1a1,1,0,0,0,0,2h7.1a1,1,0,0,0,0-2Z"/><path d="M31.31,76.49h-7.1a1,1,0,0,0,0,2h7.1a1,1,0,0,0,0-2Z"/><path d="M31.31,82.13h-7.1a1,1,0,0,0,0,2h7.1a1,1,0,0,0,0-2Z"/><path d="M135.69,73.06a4.42,4.42,0,1,0,4.42,4.42A4.43,4.43,0,0,0,135.69,73.06Zm0,6.85a2.42,2.42,0,1,1,2.42-2.42A2.43,2.43,0,0,1,135.69,79.91Z"/><path d="M147.16,73.06a4.42,4.42,0,1,0,4.42,4.42A4.43,4.43,0,0,0,147.16,73.06Zm0,6.85a2.42,2.42,0,1,1,2.42-2.42A2.43,2.43,0,0,1,147.16,79.91Z"/><path d="M173.79,93.88H158.51a4.62,4.62,0,0,0,.84-2.65V63.74a4.67,4.67,0,0,0-4.66-4.66H148.9V56.88h8.81a1.5,1.5,0,0,0,1.5-1.5v-5a1.5,1.5,0,0,0-1.5-1.5H148.9V19h5.81a4.66,4.66,0,0,0,4.65-4.65V4.65A4.66,4.66,0,0,0,154.7,0H20.09a4.66,4.66,0,0,0-4.65,4.65v9.7A4.66,4.66,0,0,0,20.09,19H25.9V48.92H17.08a1.5,1.5,0,0,0-1.5,1.5v5a1.5,1.5,0,0,0,1.5,1.5H25.9v2.21H20.09a4.66,4.66,0,0,0-4.65,4.65v27.5a4.62,4.62,0,0,0,.84,2.65H1a1,1,0,0,0,0,2H173.79a1,1,0,0,0,0-2ZM17.44,14.35V4.65A2.66,2.66,0,0,1,20.09,2H154.7a2.65,2.65,0,0,1,2.65,2.65v9.7A2.65,2.65,0,0,1,154.7,17H20.09A2.66,2.66,0,0,1,17.44,14.35ZM157.21,54.88H138.58v-4h18.63ZM27.9,19h119V48.92h-8.81a1.5,1.5,0,0,0-1.5,1.5v1.39H107.8l-3.71-8.39a1,1,0,0,0-.91-.6H71.62a1,1,0,0,0-.91.6L67,51.81H38.21V50.42a1.5,1.5,0,0,0-1.5-1.5H27.9ZM17.58,50.92H36.21v4H17.58Zm10.31,6h8.81a1.5,1.5,0,0,0,1.5-1.5V53.81H67.65a1,1,0,0,0,.91-.6l3.71-8.39h30.26l3.71,8.39a1,1,0,0,0,.91.6h29.43v1.56a1.5,1.5,0,0,0,1.5,1.5h8.81v2.21H107.82l-3.73-8.46a1,1,0,0,0-.92-.6H71.62a1,1,0,0,0-.92.6L67,59.08H27.9Zm41.26,2.21L72.27,52h30.25l3.12,7.06ZM50.66,92.31l.89.45a3.81,3.81,0,0,1,3.38-2h64.94a3.81,3.81,0,0,1,3.38,2,5.83,5.83,0,0,0,.78,1.12H50.77a5.83,5.83,0,0,0,.77-1.11Zm77.75,1.57a3.81,3.81,0,0,1-3.38-2,5.81,5.81,0,0,0-5.15-3.12H54.93a5.8,5.8,0,0,0-5.15,3.1h0a3.81,3.81,0,0,1-3.38,2H20.09a2.65,2.65,0,0,1-2.65-2.65V63.73a2.65,2.65,0,0,1,2.65-2.65h134.6a2.66,2.66,0,0,1,2.66,2.66V91.23a2.65,2.65,0,0,1-2.65,2.65Z"/></g></g></svg>